<svg width="31" height="31" viewBox="0 0 31 31" fill="none" xmlns="http://www.w3.org/2000/svg">
<rect width="31" height="31" rx="15.5" fill="#675FFF"/>
<path d="M18.9439 10.1783L20.1389 8.98262C20.388 8.73352 20.7258 8.59357 21.0781 8.59357C21.4304 8.59357 21.7683 8.73352 22.0174 8.98262C22.2665 9.23173 22.4064 9.56959 22.4064 9.92187C22.4064 10.2742 22.2665 10.612 22.0174 10.8611L14.4956 18.3829C14.1211 18.7572 13.6593 19.0323 13.1519 19.1833L11.25 19.75L11.8167 17.8481C11.9677 17.3407 12.2428 16.8789 12.6171 16.5044L18.9439 10.1783ZM18.9439 10.1783L20.8125 12.0469M19.75 16.9167V20.2812C19.75 20.7039 19.5821 21.1093 19.2832 21.4082C18.9843 21.7071 18.5789 21.875 18.1562 21.875H10.7187C10.2961 21.875 9.89068 21.7071 9.5918 21.4082C9.29291 21.1093 9.125 20.7039 9.125 20.2812V12.8437C9.125 12.4211 9.29291 12.0157 9.5918 11.7168C9.89068 11.4179 10.2961 11.25 10.7187 11.25H14.0833" stroke="#E1E4EA" stroke-width="1.5" stroke-linecap="round" stroke-linejoin="round"/>
</svg>
