<svg width="20" height="21" viewBox="0 0 20 21" fill="none" xmlns="http://www.w3.org/2000/svg">
<mask id="path-1-outside-1_16567_1757" maskUnits="userSpaceOnUse" x="0.296021" y="0.338882" width="19" height="19" fill="black">
<rect fill="white" x="0.296021" y="0.338882" width="19" height="19"/>
<path d="M2.67148 12.4434C1.83948 13.9832 2.75015 15.5893 4.34668 16.021C4.37015 16.4389 4.52748 17.5072 5.48881 18.2218C6.09255 18.6736 6.94748 18.9226 7.80135 18.7474C8.22455 18.6394 8.88135 18.3429 9.07655 17.9712C9.11735 17.8946 9.09655 17.9079 9.10215 15.9685C9.42481 15.9167 9.67228 15.644 9.67228 15.3136C9.67228 14.9464 9.36721 14.6477 8.99228 14.6477C8.84927 14.6472 8.70978 14.6921 8.59381 14.7758C8.47784 14.8594 8.39133 14.9777 8.34668 15.1136H6.79468L5.51201 13.4357C5.47883 13.3966 5.4319 13.3717 5.3809 13.3662C5.32991 13.3607 5.27876 13.3751 5.23802 13.4062C5.19729 13.4374 5.17007 13.483 5.162 13.5336C5.15394 13.5843 5.16563 13.6361 5.19468 13.6784L6.53681 15.4352C6.5555 15.4596 6.57956 15.4793 6.60712 15.4929C6.63469 15.5065 6.66501 15.5136 6.69575 15.5136H8.34668C8.37526 15.6011 8.42158 15.6818 8.48274 15.7506C8.5439 15.8194 8.61859 15.8749 8.70215 15.9136V17.8093C8.47735 18.1047 7.91175 18.3061 7.71148 18.3578C6.71148 18.5621 5.94081 18.0605 5.72801 17.9013C4.74055 17.1669 4.73975 15.9986 4.74295 15.8677C4.74406 15.8211 4.72891 15.7756 4.70009 15.739C4.67128 15.7024 4.63061 15.677 4.58508 15.6672C3.05975 15.3386 2.24721 13.8306 3.10375 12.497C3.1318 12.4533 3.14175 12.4004 3.1315 12.3495C3.12125 12.2986 3.0916 12.2537 3.04881 12.2242C1.93148 11.4549 1.29468 10.1629 1.96695 9.06422C2.15575 8.75542 2.57121 8.23222 3.14561 8.24235C3.3202 8.24503 3.49162 8.28937 3.64561 8.37168C3.73521 8.44075 3.83068 8.50502 3.93121 8.56422C3.97448 8.58963 4.02572 8.59784 4.07477 8.58723C4.12381 8.57663 4.16708 8.54797 4.19598 8.50695C4.22488 8.46593 4.23731 8.41554 4.2308 8.36579C4.22428 8.31603 4.1993 8.27055 4.16081 8.23835C4.06893 8.16123 3.9698 8.09318 3.86481 8.03515C2.99495 7.34555 2.75948 6.00128 3.42961 5.07168C3.92935 4.37835 4.82375 4.07568 5.51921 4.14982C5.54712 4.15281 5.57535 4.1499 5.60206 4.14126C5.62877 4.13263 5.65336 4.11847 5.67424 4.09971C5.69512 4.08094 5.71181 4.05799 5.72323 4.03235C5.73466 4.00671 5.74056 3.97895 5.74055 3.95088V3.68075C5.74055 2.61008 6.64268 1.73915 7.75175 1.73915C8.18001 1.73915 8.53841 1.86582 8.86668 2.21675V2.70102C8.86668 2.75406 8.88775 2.80493 8.92526 2.84244C8.96277 2.87994 9.01364 2.90102 9.06668 2.90102C9.11972 2.90102 9.17059 2.87994 9.2081 2.84244C9.24561 2.80493 9.26668 2.75406 9.26668 2.70102C9.25281 2.17035 9.30055 2.10528 9.21841 2.00982C8.81015 1.53515 8.31708 1.33915 7.75175 1.33915C6.42215 1.33915 5.34055 2.38982 5.34055 3.68075V3.73862C4.66828 3.73008 3.70055 4.01168 3.10535 4.83782C2.44668 5.75115 2.52668 6.96688 3.13281 7.84235C2.55895 7.84502 2.02401 8.20448 1.62588 8.85542C1.00348 9.87222 1.21361 11.3178 2.67148 12.4434ZM8.99228 15.0477C9.14668 15.0477 9.27228 15.1669 9.27228 15.3136C9.27228 15.4602 9.14668 15.5794 8.99228 15.5794C8.83761 15.5794 8.71175 15.4602 8.71175 15.3136C8.71175 15.1669 8.83761 15.0477 8.99228 15.0477ZM10.9331 2.92768C10.9861 2.92768 11.037 2.90661 11.0745 2.8691C11.112 2.8316 11.1331 2.78073 11.1331 2.72768V2.21675C11.4675 1.86022 11.8227 1.73888 12.2483 1.73888C13.3571 1.73888 14.2595 2.61008 14.2595 3.68102V3.95115C14.2595 3.9793 14.2654 4.00713 14.2769 4.03282C14.2885 4.05851 14.3052 4.08148 14.3262 4.10023C14.3472 4.11898 14.3719 4.13309 14.3988 4.14164C14.4256 4.15018 14.4539 4.15297 14.4819 4.14982C15.1891 4.07168 16.076 4.38582 16.5704 5.07195C17.2379 5.99782 17.0085 7.34235 16.1352 8.03542C16.0189 8.09942 15.9195 8.17142 15.8392 8.23835C15.801 8.2706 15.7762 8.31601 15.7698 8.36562C15.7634 8.41523 15.7758 8.46544 15.8046 8.50635C15.8334 8.54726 15.8765 8.57589 15.9253 8.5866C15.9742 8.59732 16.0253 8.58933 16.0685 8.56422C16.1693 8.50528 16.2645 8.44075 16.3544 8.37195C16.5083 8.28953 16.6796 8.24509 16.8541 8.24235C16.8808 8.25622 17.4819 8.16368 18.0328 9.06422C18.1811 9.30608 18.2656 9.57888 18.2923 9.87222C17.8685 9.87302 17.2189 9.87062 17.1488 9.87462C17.1021 9.76333 17.0235 9.66838 16.9229 9.60174C16.8223 9.53511 16.7042 9.49978 16.5835 9.50022C16.2469 9.50022 15.9728 9.76848 15.9728 10.0986C15.9728 10.4288 16.2469 10.6968 16.5835 10.6968C16.713 10.6971 16.8392 10.6561 16.9437 10.5798C17.0483 10.5034 17.1257 10.3957 17.1648 10.2722H18.2893C18.1624 11.3333 17.1651 12.0768 16.9509 12.2242C16.9082 12.2537 16.8786 12.2986 16.8684 12.3496C16.8582 12.4005 16.8682 12.4533 16.8963 12.497C17.7645 13.849 16.916 15.344 15.4147 15.6674C15.3692 15.6773 15.3286 15.7026 15.2998 15.7392C15.2709 15.7757 15.2558 15.8212 15.2568 15.8677C15.2603 15.9986 15.2595 17.1669 14.2717 17.9013C13.1992 18.7008 11.6659 18.3986 11.168 17.8581V15.9682C11.3979 15.8616 11.5584 15.6335 11.5584 15.3682C11.5584 15.0013 11.2531 14.7026 10.8779 14.7026C10.5029 14.7026 10.1979 15.0013 10.1979 15.3685C10.1979 15.6989 10.4456 15.9717 10.768 16.0234V17.9336C10.768 17.9589 10.7893 18.0298 10.8107 18.0573C11.3656 18.7631 13.1808 19.2138 14.5107 18.2221C15.4723 17.5072 15.6296 16.4392 15.6533 16.021C17.2555 15.588 18.1584 13.9797 17.3285 12.4434C18.7883 11.3144 18.9955 9.87088 18.3739 8.85515C17.9757 8.20448 17.4411 7.84502 16.8672 7.84235C17.4605 7.00822 17.5632 5.76528 16.8947 4.83808C16.2997 4.01168 15.3197 3.73062 14.6595 3.73862V3.68102C14.6595 2.38955 13.5776 1.33888 12.2483 1.33888C11.7075 1.33888 11.2083 1.51488 10.7816 2.00955C10.6984 2.10582 10.7467 2.18875 10.7331 2.72768C10.7331 2.83808 10.8227 2.92768 10.9331 2.92768ZM16.5837 10.2968C16.4675 10.2968 16.3731 10.208 16.3731 10.0986C16.3731 9.98928 16.4675 9.90022 16.5837 9.90022C16.7 9.90022 16.7941 9.98902 16.7941 10.0986C16.7941 10.2082 16.7 10.2968 16.5837 10.2968ZM10.8776 15.6344C10.7232 15.6344 10.5976 15.5152 10.5976 15.3685C10.5976 15.2218 10.7232 15.1026 10.8776 15.1026C11.0323 15.1026 11.1581 15.2218 11.1581 15.3685C11.1581 15.5152 11.0323 15.6344 10.8776 15.6344Z"/>
</mask>
<path d="M2.67148 12.4434C1.83948 13.9832 2.75015 15.5893 4.34668 16.021C4.37015 16.4389 4.52748 17.5072 5.48881 18.2218C6.09255 18.6736 6.94748 18.9226 7.80135 18.7474C8.22455 18.6394 8.88135 18.3429 9.07655 17.9712C9.11735 17.8946 9.09655 17.9079 9.10215 15.9685C9.42481 15.9167 9.67228 15.644 9.67228 15.3136C9.67228 14.9464 9.36721 14.6477 8.99228 14.6477C8.84927 14.6472 8.70978 14.6921 8.59381 14.7758C8.47784 14.8594 8.39133 14.9777 8.34668 15.1136H6.79468L5.51201 13.4357C5.47883 13.3966 5.4319 13.3717 5.3809 13.3662C5.32991 13.3607 5.27876 13.3751 5.23802 13.4062C5.19729 13.4374 5.17007 13.483 5.162 13.5336C5.15394 13.5843 5.16563 13.6361 5.19468 13.6784L6.53681 15.4352C6.5555 15.4596 6.57956 15.4793 6.60712 15.4929C6.63469 15.5065 6.66501 15.5136 6.69575 15.5136H8.34668C8.37526 15.6011 8.42158 15.6818 8.48274 15.7506C8.5439 15.8194 8.61859 15.8749 8.70215 15.9136V17.8093C8.47735 18.1047 7.91175 18.3061 7.71148 18.3578C6.71148 18.5621 5.94081 18.0605 5.72801 17.9013C4.74055 17.1669 4.73975 15.9986 4.74295 15.8677C4.74406 15.8211 4.72891 15.7756 4.70009 15.739C4.67128 15.7024 4.63061 15.677 4.58508 15.6672C3.05975 15.3386 2.24721 13.8306 3.10375 12.497C3.1318 12.4533 3.14175 12.4004 3.1315 12.3495C3.12125 12.2986 3.0916 12.2537 3.04881 12.2242C1.93148 11.4549 1.29468 10.1629 1.96695 9.06422C2.15575 8.75542 2.57121 8.23222 3.14561 8.24235C3.3202 8.24503 3.49162 8.28937 3.64561 8.37168C3.73521 8.44075 3.83068 8.50502 3.93121 8.56422C3.97448 8.58963 4.02572 8.59784 4.07477 8.58723C4.12381 8.57663 4.16708 8.54797 4.19598 8.50695C4.22488 8.46593 4.23731 8.41554 4.2308 8.36579C4.22428 8.31603 4.1993 8.27055 4.16081 8.23835C4.06893 8.16123 3.9698 8.09318 3.86481 8.03515C2.99495 7.34555 2.75948 6.00128 3.42961 5.07168C3.92935 4.37835 4.82375 4.07568 5.51921 4.14982C5.54712 4.15281 5.57535 4.1499 5.60206 4.14126C5.62877 4.13263 5.65336 4.11847 5.67424 4.09971C5.69512 4.08094 5.71181 4.05799 5.72323 4.03235C5.73466 4.00671 5.74056 3.97895 5.74055 3.95088V3.68075C5.74055 2.61008 6.64268 1.73915 7.75175 1.73915C8.18001 1.73915 8.53841 1.86582 8.86668 2.21675V2.70102C8.86668 2.75406 8.88775 2.80493 8.92526 2.84244C8.96277 2.87994 9.01364 2.90102 9.06668 2.90102C9.11972 2.90102 9.17059 2.87994 9.2081 2.84244C9.24561 2.80493 9.26668 2.75406 9.26668 2.70102C9.25281 2.17035 9.30055 2.10528 9.21841 2.00982C8.81015 1.53515 8.31708 1.33915 7.75175 1.33915C6.42215 1.33915 5.34055 2.38982 5.34055 3.68075V3.73862C4.66828 3.73008 3.70055 4.01168 3.10535 4.83782C2.44668 5.75115 2.52668 6.96688 3.13281 7.84235C2.55895 7.84502 2.02401 8.20448 1.62588 8.85542C1.00348 9.87222 1.21361 11.3178 2.67148 12.4434ZM8.99228 15.0477C9.14668 15.0477 9.27228 15.1669 9.27228 15.3136C9.27228 15.4602 9.14668 15.5794 8.99228 15.5794C8.83761 15.5794 8.71175 15.4602 8.71175 15.3136C8.71175 15.1669 8.83761 15.0477 8.99228 15.0477ZM10.9331 2.92768C10.9861 2.92768 11.037 2.90661 11.0745 2.8691C11.112 2.8316 11.1331 2.78073 11.1331 2.72768V2.21675C11.4675 1.86022 11.8227 1.73888 12.2483 1.73888C13.3571 1.73888 14.2595 2.61008 14.2595 3.68102V3.95115C14.2595 3.9793 14.2654 4.00713 14.2769 4.03282C14.2885 4.05851 14.3052 4.08148 14.3262 4.10023C14.3472 4.11898 14.3719 4.13309 14.3988 4.14164C14.4256 4.15018 14.4539 4.15297 14.4819 4.14982C15.1891 4.07168 16.076 4.38582 16.5704 5.07195C17.2379 5.99782 17.0085 7.34235 16.1352 8.03542C16.0189 8.09942 15.9195 8.17142 15.8392 8.23835C15.801 8.2706 15.7762 8.31601 15.7698 8.36562C15.7634 8.41523 15.7758 8.46544 15.8046 8.50635C15.8334 8.54726 15.8765 8.57589 15.9253 8.5866C15.9742 8.59732 16.0253 8.58933 16.0685 8.56422C16.1693 8.50528 16.2645 8.44075 16.3544 8.37195C16.5083 8.28953 16.6796 8.24509 16.8541 8.24235C16.8808 8.25622 17.4819 8.16368 18.0328 9.06422C18.1811 9.30608 18.2656 9.57888 18.2923 9.87222C17.8685 9.87302 17.2189 9.87062 17.1488 9.87462C17.1021 9.76333 17.0235 9.66838 16.9229 9.60174C16.8223 9.53511 16.7042 9.49978 16.5835 9.50022C16.2469 9.50022 15.9728 9.76848 15.9728 10.0986C15.9728 10.4288 16.2469 10.6968 16.5835 10.6968C16.713 10.6971 16.8392 10.6561 16.9437 10.5798C17.0483 10.5034 17.1257 10.3957 17.1648 10.2722H18.2893C18.1624 11.3333 17.1651 12.0768 16.9509 12.2242C16.9082 12.2537 16.8786 12.2986 16.8684 12.3496C16.8582 12.4005 16.8682 12.4533 16.8963 12.497C17.7645 13.849 16.916 15.344 15.4147 15.6674C15.3692 15.6773 15.3286 15.7026 15.2998 15.7392C15.2709 15.7757 15.2558 15.8212 15.2568 15.8677C15.2603 15.9986 15.2595 17.1669 14.2717 17.9013C13.1992 18.7008 11.6659 18.3986 11.168 17.8581V15.9682C11.3979 15.8616 11.5584 15.6335 11.5584 15.3682C11.5584 15.0013 11.2531 14.7026 10.8779 14.7026C10.5029 14.7026 10.1979 15.0013 10.1979 15.3685C10.1979 15.6989 10.4456 15.9717 10.768 16.0234V17.9336C10.768 17.9589 10.7893 18.0298 10.8107 18.0573C11.3656 18.7631 13.1808 19.2138 14.5107 18.2221C15.4723 17.5072 15.6296 16.4392 15.6533 16.021C17.2555 15.588 18.1584 13.9797 17.3285 12.4434C18.7883 11.3144 18.9955 9.87088 18.3739 8.85515C17.9757 8.20448 17.4411 7.84502 16.8672 7.84235C17.4605 7.00822 17.5632 5.76528 16.8947 4.83808C16.2997 4.01168 15.3197 3.73062 14.6595 3.73862V3.68102C14.6595 2.38955 13.5776 1.33888 12.2483 1.33888C11.7075 1.33888 11.2083 1.51488 10.7816 2.00955C10.6984 2.10582 10.7467 2.18875 10.7331 2.72768C10.7331 2.83808 10.8227 2.92768 10.9331 2.92768ZM16.5837 10.2968C16.4675 10.2968 16.3731 10.208 16.3731 10.0986C16.3731 9.98928 16.4675 9.90022 16.5837 9.90022C16.7 9.90022 16.7941 9.98902 16.7941 10.0986C16.7941 10.2082 16.7 10.2968 16.5837 10.2968ZM10.8776 15.6344C10.7232 15.6344 10.5976 15.5152 10.5976 15.3685C10.5976 15.2218 10.7232 15.1026 10.8776 15.1026C11.0323 15.1026 11.1581 15.2218 11.1581 15.3685C11.1581 15.5152 11.0323 15.6344 10.8776 15.6344Z" fill="#5A687C"/>
<path d="M2.67148 12.4434C1.83948 13.9832 2.75015 15.5893 4.34668 16.021C4.37015 16.4389 4.52748 17.5072 5.48881 18.2218C6.09255 18.6736 6.94748 18.9226 7.80135 18.7474C8.22455 18.6394 8.88135 18.3429 9.07655 17.9712C9.11735 17.8946 9.09655 17.9079 9.10215 15.9685C9.42481 15.9167 9.67228 15.644 9.67228 15.3136C9.67228 14.9464 9.36721 14.6477 8.99228 14.6477C8.84927 14.6472 8.70978 14.6921 8.59381 14.7758C8.47784 14.8594 8.39133 14.9777 8.34668 15.1136H6.79468L5.51201 13.4357C5.47883 13.3966 5.4319 13.3717 5.3809 13.3662C5.32991 13.3607 5.27876 13.3751 5.23802 13.4062C5.19729 13.4374 5.17007 13.483 5.162 13.5336C5.15394 13.5843 5.16563 13.6361 5.19468 13.6784L6.53681 15.4352C6.5555 15.4596 6.57956 15.4793 6.60712 15.4929C6.63469 15.5065 6.66501 15.5136 6.69575 15.5136H8.34668C8.37526 15.6011 8.42158 15.6818 8.48274 15.7506C8.5439 15.8194 8.61859 15.8749 8.70215 15.9136V17.8093C8.47735 18.1047 7.91175 18.3061 7.71148 18.3578C6.71148 18.5621 5.94081 18.0605 5.72801 17.9013C4.74055 17.1669 4.73975 15.9986 4.74295 15.8677C4.74406 15.8211 4.72891 15.7756 4.70009 15.739C4.67128 15.7024 4.63061 15.677 4.58508 15.6672C3.05975 15.3386 2.24721 13.8306 3.10375 12.497C3.1318 12.4533 3.14175 12.4004 3.1315 12.3495C3.12125 12.2986 3.0916 12.2537 3.04881 12.2242C1.93148 11.4549 1.29468 10.1629 1.96695 9.06422C2.15575 8.75542 2.57121 8.23222 3.14561 8.24235C3.3202 8.24503 3.49162 8.28937 3.64561 8.37168C3.73521 8.44075 3.83068 8.50502 3.93121 8.56422C3.97448 8.58963 4.02572 8.59784 4.07477 8.58723C4.12381 8.57663 4.16708 8.54797 4.19598 8.50695C4.22488 8.46593 4.23731 8.41554 4.2308 8.36579C4.22428 8.31603 4.1993 8.27055 4.16081 8.23835C4.06893 8.16123 3.9698 8.09318 3.86481 8.03515C2.99495 7.34555 2.75948 6.00128 3.42961 5.07168C3.92935 4.37835 4.82375 4.07568 5.51921 4.14982C5.54712 4.15281 5.57535 4.1499 5.60206 4.14126C5.62877 4.13263 5.65336 4.11847 5.67424 4.09971C5.69512 4.08094 5.71181 4.05799 5.72323 4.03235C5.73466 4.00671 5.74056 3.97895 5.74055 3.95088V3.68075C5.74055 2.61008 6.64268 1.73915 7.75175 1.73915C8.18001 1.73915 8.53841 1.86582 8.86668 2.21675V2.70102C8.86668 2.75406 8.88775 2.80493 8.92526 2.84244C8.96277 2.87994 9.01364 2.90102 9.06668 2.90102C9.11972 2.90102 9.17059 2.87994 9.2081 2.84244C9.24561 2.80493 9.26668 2.75406 9.26668 2.70102C9.25281 2.17035 9.30055 2.10528 9.21841 2.00982C8.81015 1.53515 8.31708 1.33915 7.75175 1.33915C6.42215 1.33915 5.34055 2.38982 5.34055 3.68075V3.73862C4.66828 3.73008 3.70055 4.01168 3.10535 4.83782C2.44668 5.75115 2.52668 6.96688 3.13281 7.84235C2.55895 7.84502 2.02401 8.20448 1.62588 8.85542C1.00348 9.87222 1.21361 11.3178 2.67148 12.4434ZM8.99228 15.0477C9.14668 15.0477 9.27228 15.1669 9.27228 15.3136C9.27228 15.4602 9.14668 15.5794 8.99228 15.5794C8.83761 15.5794 8.71175 15.4602 8.71175 15.3136C8.71175 15.1669 8.83761 15.0477 8.99228 15.0477ZM10.9331 2.92768C10.9861 2.92768 11.037 2.90661 11.0745 2.8691C11.112 2.8316 11.1331 2.78073 11.1331 2.72768V2.21675C11.4675 1.86022 11.8227 1.73888 12.2483 1.73888C13.3571 1.73888 14.2595 2.61008 14.2595 3.68102V3.95115C14.2595 3.9793 14.2654 4.00713 14.2769 4.03282C14.2885 4.05851 14.3052 4.08148 14.3262 4.10023C14.3472 4.11898 14.3719 4.13309 14.3988 4.14164C14.4256 4.15018 14.4539 4.15297 14.4819 4.14982C15.1891 4.07168 16.076 4.38582 16.5704 5.07195C17.2379 5.99782 17.0085 7.34235 16.1352 8.03542C16.0189 8.09942 15.9195 8.17142 15.8392 8.23835C15.801 8.2706 15.7762 8.31601 15.7698 8.36562C15.7634 8.41523 15.7758 8.46544 15.8046 8.50635C15.8334 8.54726 15.8765 8.57589 15.9253 8.5866C15.9742 8.59732 16.0253 8.58933 16.0685 8.56422C16.1693 8.50528 16.2645 8.44075 16.3544 8.37195C16.5083 8.28953 16.6796 8.24509 16.8541 8.24235C16.8808 8.25622 17.4819 8.16368 18.0328 9.06422C18.1811 9.30608 18.2656 9.57888 18.2923 9.87222C17.8685 9.87302 17.2189 9.87062 17.1488 9.87462C17.1021 9.76333 17.0235 9.66838 16.9229 9.60174C16.8223 9.53511 16.7042 9.49978 16.5835 9.50022C16.2469 9.50022 15.9728 9.76848 15.9728 10.0986C15.9728 10.4288 16.2469 10.6968 16.5835 10.6968C16.713 10.6971 16.8392 10.6561 16.9437 10.5798C17.0483 10.5034 17.1257 10.3957 17.1648 10.2722H18.2893C18.1624 11.3333 17.1651 12.0768 16.9509 12.2242C16.9082 12.2537 16.8786 12.2986 16.8684 12.3496C16.8582 12.4005 16.8682 12.4533 16.8963 12.497C17.7645 13.849 16.916 15.344 15.4147 15.6674C15.3692 15.6773 15.3286 15.7026 15.2998 15.7392C15.2709 15.7757 15.2558 15.8212 15.2568 15.8677C15.2603 15.9986 15.2595 17.1669 14.2717 17.9013C13.1992 18.7008 11.6659 18.3986 11.168 17.8581V15.9682C11.3979 15.8616 11.5584 15.6335 11.5584 15.3682C11.5584 15.0013 11.2531 14.7026 10.8779 14.7026C10.5029 14.7026 10.1979 15.0013 10.1979 15.3685C10.1979 15.6989 10.4456 15.9717 10.768 16.0234V17.9336C10.768 17.9589 10.7893 18.0298 10.8107 18.0573C11.3656 18.7631 13.1808 19.2138 14.5107 18.2221C15.4723 17.5072 15.6296 16.4392 15.6533 16.021C17.2555 15.588 18.1584 13.9797 17.3285 12.4434C18.7883 11.3144 18.9955 9.87088 18.3739 8.85515C17.9757 8.20448 17.4411 7.84502 16.8672 7.84235C17.4605 7.00822 17.5632 5.76528 16.8947 4.83808C16.2997 4.01168 15.3197 3.73062 14.6595 3.73862V3.68102C14.6595 2.38955 13.5776 1.33888 12.2483 1.33888C11.7075 1.33888 11.2083 1.51488 10.7816 2.00955C10.6984 2.10582 10.7467 2.18875 10.7331 2.72768C10.7331 2.83808 10.8227 2.92768 10.9331 2.92768ZM16.5837 10.2968C16.4675 10.2968 16.3731 10.208 16.3731 10.0986C16.3731 9.98928 16.4675 9.90022 16.5837 9.90022C16.7 9.90022 16.7941 9.98902 16.7941 10.0986C16.7941 10.2082 16.7 10.2968 16.5837 10.2968ZM10.8776 15.6344C10.7232 15.6344 10.5976 15.5152 10.5976 15.3685C10.5976 15.2218 10.7232 15.1026 10.8776 15.1026C11.0323 15.1026 11.1581 15.2218 11.1581 15.3685C11.1581 15.5152 11.0323 15.6344 10.8776 15.6344Z" stroke="#5A687C" stroke-width="0.4" mask="url(#path-1-outside-1_16567_1757)"/>
<mask id="path-2-outside-2_16567_1757" maskUnits="userSpaceOnUse" x="1.11334" y="2.49115" width="15" height="14" fill="black">
<rect fill="white" x="1.11334" y="2.49115" width="15" height="14"/>
<path d="M9.02214 6.81062C9.02214 6.75757 9.00107 6.7067 8.96356 6.6692C8.92606 6.63169 8.87519 6.61062 8.82214 6.61062C8.7691 6.61062 8.71823 6.63169 8.68072 6.6692C8.64321 6.7067 8.62214 6.75757 8.62214 6.81062V7.55835H8.48934C7.77388 7.55835 7.19068 8.10635 7.12001 8.80368H6.39201C6.33897 8.80368 6.28809 8.82475 6.25059 8.86226C6.21308 8.89977 6.19201 8.95064 6.19201 9.00368C6.19201 9.05673 6.21308 9.1076 6.25059 9.1451C6.28809 9.18261 6.33897 9.20368 6.39201 9.20368H7.10614V10.0597H6.39174C6.3387 10.0597 6.28783 10.0808 6.25032 10.1183C6.21281 10.1558 6.19174 10.2066 6.19174 10.2597C6.19174 10.3127 6.21281 10.3636 6.25032 10.4011C6.28783 10.4386 6.3387 10.4597 6.39174 10.4597H7.10614V11.2647H6.39174C6.3387 11.2647 6.28783 11.2858 6.25032 11.3233C6.21281 11.3608 6.19174 11.4117 6.19174 11.4647C6.19174 11.5178 6.21281 11.5687 6.25032 11.6062C6.28783 11.6437 6.3387 11.6647 6.39174 11.6647H7.10828C7.12001 12.4173 7.73388 13.0263 8.48934 13.0263H8.62214V13.7591C8.62214 13.8122 8.64321 13.8631 8.68072 13.9006C8.71823 13.9381 8.7691 13.9591 8.82214 13.9591C8.87519 13.9591 8.92606 13.9381 8.96356 13.9006C9.00107 13.8631 9.02214 13.8122 9.02214 13.7591V13.0263H9.86401V13.7591C9.86401 13.8122 9.88508 13.8631 9.92259 13.9006C9.9601 13.9381 10.011 13.9591 10.064 13.9591C10.1171 13.9591 10.1679 13.9381 10.2054 13.9006C10.2429 13.8631 10.264 13.8122 10.264 13.7591V13.0263H11.1584V13.7591C11.1584 13.8122 11.1795 13.8631 11.217 13.9006C11.2545 13.9381 11.3054 13.9591 11.3584 13.9591C11.4115 13.9591 11.4623 13.9381 11.4998 13.9006C11.5373 13.8631 11.5584 13.8122 11.5584 13.7591V13.0263H11.6384C12.3936 13.0263 13.0075 12.4173 13.0192 11.6647H13.6421C13.6952 11.6647 13.7461 11.6437 13.7836 11.6062C13.8211 11.5687 13.8421 11.5178 13.8421 11.4647C13.8421 11.4117 13.8211 11.3608 13.7836 11.3233C13.7461 11.2858 13.6952 11.2647 13.6421 11.2647H13.0216V10.4594H13.6421C13.6952 10.4594 13.7461 10.4383 13.7836 10.4008C13.8211 10.3633 13.8421 10.3125 13.8421 10.2594C13.8421 10.2064 13.8211 10.1555 13.7836 10.118C13.7461 10.0805 13.6952 10.0594 13.6421 10.0594H13.0216V9.20342H13.6421C13.6952 9.20342 13.7461 9.18234 13.7836 9.14484C13.8211 9.10733 13.8421 9.05646 13.8421 9.00342C13.8421 8.95037 13.8211 8.8995 13.7836 8.86199C13.7461 8.82449 13.6952 8.80342 13.6421 8.80342H13.0075C12.9371 8.10635 12.3539 7.55835 11.6384 7.55835H11.5584V6.81062C11.5584 6.75757 11.5373 6.7067 11.4998 6.6692C11.4623 6.63169 11.4115 6.61062 11.3584 6.61062C11.3054 6.61062 11.2545 6.63169 11.217 6.6692C11.1795 6.7067 11.1584 6.75757 11.1584 6.81062V7.55835H10.264V6.81062C10.264 6.75757 10.2429 6.7067 10.2054 6.6692C10.1679 6.63169 10.1171 6.61062 10.064 6.61062C10.011 6.61062 9.9601 6.63169 9.92259 6.6692C9.88508 6.7067 9.86401 6.75757 9.86401 6.81062V7.55835H9.02214V6.81062ZM11.6384 7.95835C11.8991 7.95856 12.1491 8.06222 12.3334 8.24656C12.5177 8.4309 12.6214 8.68085 12.6216 8.94155V11.6431C12.6214 11.9038 12.5177 12.1538 12.3334 12.3381C12.1491 12.5225 11.8991 12.6261 11.6384 12.6263H8.48908C8.22845 12.626 7.9786 12.5223 7.79433 12.338C7.61006 12.1537 7.50642 11.9038 7.50614 11.6431V8.94155C7.50635 8.68085 7.61001 8.4309 7.79435 8.24656C7.97869 8.06222 8.22865 7.95856 8.48934 7.95835H11.6384ZM4.76161 10.0986C4.76147 9.93717 4.69729 9.78237 4.58316 9.66819C4.46902 9.55401 4.31425 9.48976 4.15281 9.48955C3.89628 9.48955 3.67734 9.64955 3.58748 9.87462C3.58374 9.87435 3.58054 9.87222 3.57681 9.87222H2.31334C2.2603 9.87222 2.20943 9.89329 2.17192 9.93079C2.13441 9.9683 2.11334 10.0192 2.11334 10.0722C2.11334 10.1253 2.13441 10.1761 2.17192 10.2136C2.20943 10.2511 2.2603 10.2722 2.31334 10.2722H3.57201C3.60916 10.3976 3.68573 10.5076 3.79035 10.586C3.89497 10.6644 4.02208 10.707 4.15281 10.7074C4.31421 10.7072 4.46894 10.643 4.58306 10.5289C4.69719 10.4147 4.7614 10.26 4.76161 10.0986ZM4.15281 10.3074C4.09869 10.3055 4.04743 10.2826 4.00983 10.2437C3.97222 10.2047 3.95121 10.1526 3.95121 10.0985C3.95121 10.0443 3.97222 9.99229 4.00983 9.95331C4.04743 9.91434 4.09869 9.89148 4.15281 9.88955C4.20693 9.89148 4.25819 9.91434 4.29579 9.95331C4.3334 9.99229 4.35441 10.0443 4.35441 10.0985C4.35441 10.1526 4.3334 10.2047 4.29579 10.2437C4.25819 10.2826 4.20693 10.3055 4.15281 10.3074ZM12.2725 15.1685C12.2195 15.1685 12.1686 15.1896 12.1311 15.2271C12.0936 15.2646 12.0725 15.3154 12.0725 15.3685C12.0725 15.4215 12.0936 15.4724 12.1311 15.5099C12.1686 15.5474 12.2195 15.5685 12.2725 15.5685H13.1744C13.2052 15.5685 13.2355 15.5614 13.2631 15.5477C13.2906 15.5341 13.3147 15.5143 13.3333 15.4898L15.0197 13.2834C15.4696 13.4055 15.8808 13.0695 15.8808 12.6442C15.8808 12.2773 15.5755 11.9783 15.2003 11.9783C14.6277 11.9783 14.3083 12.6317 14.6805 13.0685L13.0755 15.1685H12.2725ZM15.2005 12.3783C15.3549 12.3783 15.4805 12.4978 15.4805 12.6442C15.4805 12.7906 15.3549 12.9103 15.2005 12.9103C15.0459 12.9103 14.9205 12.7909 14.9205 12.6442C14.9205 12.4975 15.0459 12.3783 15.2005 12.3783ZM11.3152 4.67195L12.6923 5.05355L13.6587 6.63595C13.6723 6.65853 13.6902 6.67819 13.7115 6.6938C13.7327 6.70942 13.7568 6.72068 13.7824 6.72695C13.808 6.73321 13.8346 6.73435 13.8607 6.7303C13.8867 6.72625 13.9117 6.71709 13.9342 6.70334C13.9567 6.6896 13.9763 6.67155 13.9918 6.65022C14.0073 6.62889 14.0184 6.60471 14.0245 6.57906C14.0306 6.55342 14.0316 6.52682 14.0274 6.5008C14.0232 6.47477 14.0139 6.44983 14 6.42742L12.9925 4.77755C12.966 4.73432 12.9241 4.70277 12.8752 4.68928L11.496 4.30688C11.5579 3.88742 11.2237 3.54608 10.8253 3.54608C10.4504 3.54608 10.1453 3.84475 10.1453 4.21195C10.1453 4.81062 10.8915 5.10448 11.3152 4.67195ZM10.8253 3.94608C10.98 3.94608 11.1056 4.06555 11.1056 4.21195C11.1056 4.35862 10.98 4.47782 10.8256 4.47782C10.6709 4.47782 10.5453 4.35862 10.5453 4.21195C10.5453 4.06528 10.6709 3.94608 10.8253 3.94608ZM14.9896 7.59088C14.9896 7.22368 14.6845 6.92502 14.3096 6.92502C13.9344 6.92502 13.6293 7.22368 13.6293 7.59088C13.6293 7.95808 13.9344 8.25675 14.3093 8.25675C14.6845 8.25675 14.9896 7.95808 14.9896 7.59088ZM14.3096 7.85675C14.1549 7.85675 14.0293 7.73755 14.0293 7.59088C14.0293 7.44422 14.1549 7.32502 14.3093 7.32502C14.464 7.32502 14.5896 7.44422 14.5896 7.59088C14.5896 7.73755 14.464 7.85675 14.3096 7.85675ZM8.36454 4.15702C8.36454 4.52422 8.66961 4.82315 9.04481 4.82315C9.41974 4.82315 9.72481 4.52448 9.72481 4.15702C9.72481 3.78955 9.41974 3.49115 9.04481 3.49115C8.66961 3.49115 8.36454 3.78982 8.36454 4.15702ZM9.32481 4.15702C9.32481 4.30368 9.19948 4.42315 9.04481 4.42315C8.89014 4.42315 8.76454 4.30395 8.76454 4.15702C8.76454 4.01035 8.89014 3.89115 9.04481 3.89115C9.19948 3.89115 9.32481 4.01062 9.32481 4.15702ZM5.96508 6.98475L7.17814 4.99862L7.85521 4.81088C7.8812 4.80451 7.90565 4.79299 7.92711 4.77699C7.94857 4.761 7.9666 4.74086 7.98013 4.71777C7.99367 4.69468 8.00243 4.66911 8.0059 4.64257C8.00937 4.61604 8.00748 4.58907 8.00034 4.56328C7.9932 4.53749 7.98095 4.51339 7.96433 4.49241C7.94771 4.47144 7.92704 4.45401 7.90356 4.44117C7.88008 4.42833 7.85427 4.42033 7.82764 4.41764C7.80101 4.41496 7.77411 4.41765 7.74854 4.42555L6.99521 4.63435C6.94632 4.64783 6.90438 4.67938 6.87788 4.72262L5.58961 6.83195C5.17014 6.79568 4.84961 7.11942 4.84961 7.49222C4.84961 7.85942 5.15468 8.15808 5.52961 8.15808C6.15921 8.15808 6.45388 7.38742 5.96508 6.98475ZM5.24961 7.49222C5.24961 7.34555 5.37521 7.22635 5.52961 7.22635C5.68428 7.22635 5.80988 7.34555 5.80988 7.49222C5.80988 7.63888 5.68428 7.75808 5.52988 7.75808C5.37521 7.75808 5.24961 7.63862 5.24961 7.49222ZM4.66988 13.2554C5.04481 13.2554 5.34988 12.9567 5.34988 12.5893C5.34988 12.2218 5.04481 11.9234 4.66988 11.9234C4.29468 11.9234 3.98934 12.2221 3.98934 12.5893C3.98934 12.9565 4.29468 13.2554 4.66988 13.2554ZM4.66988 12.3234C4.82428 12.3234 4.94988 12.4426 4.94988 12.5893C4.94988 12.7359 4.82428 12.8551 4.66988 12.8551C4.51521 12.8551 4.38934 12.7359 4.38934 12.5893C4.38934 12.4426 4.51521 12.3234 4.66988 12.3234Z"/>
</mask>
<path d="M9.02214 6.81062C9.02214 6.75757 9.00107 6.7067 8.96356 6.6692C8.92606 6.63169 8.87519 6.61062 8.82214 6.61062C8.7691 6.61062 8.71823 6.63169 8.68072 6.6692C8.64321 6.7067 8.62214 6.75757 8.62214 6.81062V7.55835H8.48934C7.77388 7.55835 7.19068 8.10635 7.12001 8.80368H6.39201C6.33897 8.80368 6.28809 8.82475 6.25059 8.86226C6.21308 8.89977 6.19201 8.95064 6.19201 9.00368C6.19201 9.05673 6.21308 9.1076 6.25059 9.1451C6.28809 9.18261 6.33897 9.20368 6.39201 9.20368H7.10614V10.0597H6.39174C6.3387 10.0597 6.28783 10.0808 6.25032 10.1183C6.21281 10.1558 6.19174 10.2066 6.19174 10.2597C6.19174 10.3127 6.21281 10.3636 6.25032 10.4011C6.28783 10.4386 6.3387 10.4597 6.39174 10.4597H7.10614V11.2647H6.39174C6.3387 11.2647 6.28783 11.2858 6.25032 11.3233C6.21281 11.3608 6.19174 11.4117 6.19174 11.4647C6.19174 11.5178 6.21281 11.5687 6.25032 11.6062C6.28783 11.6437 6.3387 11.6647 6.39174 11.6647H7.10828C7.12001 12.4173 7.73388 13.0263 8.48934 13.0263H8.62214V13.7591C8.62214 13.8122 8.64321 13.8631 8.68072 13.9006C8.71823 13.9381 8.7691 13.9591 8.82214 13.9591C8.87519 13.9591 8.92606 13.9381 8.96356 13.9006C9.00107 13.8631 9.02214 13.8122 9.02214 13.7591V13.0263H9.86401V13.7591C9.86401 13.8122 9.88508 13.8631 9.92259 13.9006C9.9601 13.9381 10.011 13.9591 10.064 13.9591C10.1171 13.9591 10.1679 13.9381 10.2054 13.9006C10.2429 13.8631 10.264 13.8122 10.264 13.7591V13.0263H11.1584V13.7591C11.1584 13.8122 11.1795 13.8631 11.217 13.9006C11.2545 13.9381 11.3054 13.9591 11.3584 13.9591C11.4115 13.9591 11.4623 13.9381 11.4998 13.9006C11.5373 13.8631 11.5584 13.8122 11.5584 13.7591V13.0263H11.6384C12.3936 13.0263 13.0075 12.4173 13.0192 11.6647H13.6421C13.6952 11.6647 13.7461 11.6437 13.7836 11.6062C13.8211 11.5687 13.8421 11.5178 13.8421 11.4647C13.8421 11.4117 13.8211 11.3608 13.7836 11.3233C13.7461 11.2858 13.6952 11.2647 13.6421 11.2647H13.0216V10.4594H13.6421C13.6952 10.4594 13.7461 10.4383 13.7836 10.4008C13.8211 10.3633 13.8421 10.3125 13.8421 10.2594C13.8421 10.2064 13.8211 10.1555 13.7836 10.118C13.7461 10.0805 13.6952 10.0594 13.6421 10.0594H13.0216V9.20342H13.6421C13.6952 9.20342 13.7461 9.18234 13.7836 9.14484C13.8211 9.10733 13.8421 9.05646 13.8421 9.00342C13.8421 8.95037 13.8211 8.8995 13.7836 8.86199C13.7461 8.82449 13.6952 8.80342 13.6421 8.80342H13.0075C12.9371 8.10635 12.3539 7.55835 11.6384 7.55835H11.5584V6.81062C11.5584 6.75757 11.5373 6.7067 11.4998 6.6692C11.4623 6.63169 11.4115 6.61062 11.3584 6.61062C11.3054 6.61062 11.2545 6.63169 11.217 6.6692C11.1795 6.7067 11.1584 6.75757 11.1584 6.81062V7.55835H10.264V6.81062C10.264 6.75757 10.2429 6.7067 10.2054 6.6692C10.1679 6.63169 10.1171 6.61062 10.064 6.61062C10.011 6.61062 9.9601 6.63169 9.92259 6.6692C9.88508 6.7067 9.86401 6.75757 9.86401 6.81062V7.55835H9.02214V6.81062ZM11.6384 7.95835C11.8991 7.95856 12.1491 8.06222 12.3334 8.24656C12.5177 8.4309 12.6214 8.68085 12.6216 8.94155V11.6431C12.6214 11.9038 12.5177 12.1538 12.3334 12.3381C12.1491 12.5225 11.8991 12.6261 11.6384 12.6263H8.48908C8.22845 12.626 7.9786 12.5223 7.79433 12.338C7.61006 12.1537 7.50642 11.9038 7.50614 11.6431V8.94155C7.50635 8.68085 7.61001 8.4309 7.79435 8.24656C7.97869 8.06222 8.22865 7.95856 8.48934 7.95835H11.6384ZM4.76161 10.0986C4.76147 9.93717 4.69729 9.78237 4.58316 9.66819C4.46902 9.55401 4.31425 9.48976 4.15281 9.48955C3.89628 9.48955 3.67734 9.64955 3.58748 9.87462C3.58374 9.87435 3.58054 9.87222 3.57681 9.87222H2.31334C2.2603 9.87222 2.20943 9.89329 2.17192 9.93079C2.13441 9.9683 2.11334 10.0192 2.11334 10.0722C2.11334 10.1253 2.13441 10.1761 2.17192 10.2136C2.20943 10.2511 2.2603 10.2722 2.31334 10.2722H3.57201C3.60916 10.3976 3.68573 10.5076 3.79035 10.586C3.89497 10.6644 4.02208 10.707 4.15281 10.7074C4.31421 10.7072 4.46894 10.643 4.58306 10.5289C4.69719 10.4147 4.7614 10.26 4.76161 10.0986ZM4.15281 10.3074C4.09869 10.3055 4.04743 10.2826 4.00983 10.2437C3.97222 10.2047 3.95121 10.1526 3.95121 10.0985C3.95121 10.0443 3.97222 9.99229 4.00983 9.95331C4.04743 9.91434 4.09869 9.89148 4.15281 9.88955C4.20693 9.89148 4.25819 9.91434 4.29579 9.95331C4.3334 9.99229 4.35441 10.0443 4.35441 10.0985C4.35441 10.1526 4.3334 10.2047 4.29579 10.2437C4.25819 10.2826 4.20693 10.3055 4.15281 10.3074ZM12.2725 15.1685C12.2195 15.1685 12.1686 15.1896 12.1311 15.2271C12.0936 15.2646 12.0725 15.3154 12.0725 15.3685C12.0725 15.4215 12.0936 15.4724 12.1311 15.5099C12.1686 15.5474 12.2195 15.5685 12.2725 15.5685H13.1744C13.2052 15.5685 13.2355 15.5614 13.2631 15.5477C13.2906 15.5341 13.3147 15.5143 13.3333 15.4898L15.0197 13.2834C15.4696 13.4055 15.8808 13.0695 15.8808 12.6442C15.8808 12.2773 15.5755 11.9783 15.2003 11.9783C14.6277 11.9783 14.3083 12.6317 14.6805 13.0685L13.0755 15.1685H12.2725ZM15.2005 12.3783C15.3549 12.3783 15.4805 12.4978 15.4805 12.6442C15.4805 12.7906 15.3549 12.9103 15.2005 12.9103C15.0459 12.9103 14.9205 12.7909 14.9205 12.6442C14.9205 12.4975 15.0459 12.3783 15.2005 12.3783ZM11.3152 4.67195L12.6923 5.05355L13.6587 6.63595C13.6723 6.65853 13.6902 6.67819 13.7115 6.6938C13.7327 6.70942 13.7568 6.72068 13.7824 6.72695C13.808 6.73321 13.8346 6.73435 13.8607 6.7303C13.8867 6.72625 13.9117 6.71709 13.9342 6.70334C13.9567 6.6896 13.9763 6.67155 13.9918 6.65022C14.0073 6.62889 14.0184 6.60471 14.0245 6.57906C14.0306 6.55342 14.0316 6.52682 14.0274 6.5008C14.0232 6.47477 14.0139 6.44983 14 6.42742L12.9925 4.77755C12.966 4.73432 12.9241 4.70277 12.8752 4.68928L11.496 4.30688C11.5579 3.88742 11.2237 3.54608 10.8253 3.54608C10.4504 3.54608 10.1453 3.84475 10.1453 4.21195C10.1453 4.81062 10.8915 5.10448 11.3152 4.67195ZM10.8253 3.94608C10.98 3.94608 11.1056 4.06555 11.1056 4.21195C11.1056 4.35862 10.98 4.47782 10.8256 4.47782C10.6709 4.47782 10.5453 4.35862 10.5453 4.21195C10.5453 4.06528 10.6709 3.94608 10.8253 3.94608ZM14.9896 7.59088C14.9896 7.22368 14.6845 6.92502 14.3096 6.92502C13.9344 6.92502 13.6293 7.22368 13.6293 7.59088C13.6293 7.95808 13.9344 8.25675 14.3093 8.25675C14.6845 8.25675 14.9896 7.95808 14.9896 7.59088ZM14.3096 7.85675C14.1549 7.85675 14.0293 7.73755 14.0293 7.59088C14.0293 7.44422 14.1549 7.32502 14.3093 7.32502C14.464 7.32502 14.5896 7.44422 14.5896 7.59088C14.5896 7.73755 14.464 7.85675 14.3096 7.85675ZM8.36454 4.15702C8.36454 4.52422 8.66961 4.82315 9.04481 4.82315C9.41974 4.82315 9.72481 4.52448 9.72481 4.15702C9.72481 3.78955 9.41974 3.49115 9.04481 3.49115C8.66961 3.49115 8.36454 3.78982 8.36454 4.15702ZM9.32481 4.15702C9.32481 4.30368 9.19948 4.42315 9.04481 4.42315C8.89014 4.42315 8.76454 4.30395 8.76454 4.15702C8.76454 4.01035 8.89014 3.89115 9.04481 3.89115C9.19948 3.89115 9.32481 4.01062 9.32481 4.15702ZM5.96508 6.98475L7.17814 4.99862L7.85521 4.81088C7.8812 4.80451 7.90565 4.79299 7.92711 4.77699C7.94857 4.761 7.9666 4.74086 7.98013 4.71777C7.99367 4.69468 8.00243 4.66911 8.0059 4.64257C8.00937 4.61604 8.00748 4.58907 8.00034 4.56328C7.9932 4.53749 7.98095 4.51339 7.96433 4.49241C7.94771 4.47144 7.92704 4.45401 7.90356 4.44117C7.88008 4.42833 7.85427 4.42033 7.82764 4.41764C7.80101 4.41496 7.77411 4.41765 7.74854 4.42555L6.99521 4.63435C6.94632 4.64783 6.90438 4.67938 6.87788 4.72262L5.58961 6.83195C5.17014 6.79568 4.84961 7.11942 4.84961 7.49222C4.84961 7.85942 5.15468 8.15808 5.52961 8.15808C6.15921 8.15808 6.45388 7.38742 5.96508 6.98475ZM5.24961 7.49222C5.24961 7.34555 5.37521 7.22635 5.52961 7.22635C5.68428 7.22635 5.80988 7.34555 5.80988 7.49222C5.80988 7.63888 5.68428 7.75808 5.52988 7.75808C5.37521 7.75808 5.24961 7.63862 5.24961 7.49222ZM4.66988 13.2554C5.04481 13.2554 5.34988 12.9567 5.34988 12.5893C5.34988 12.2218 5.04481 11.9234 4.66988 11.9234C4.29468 11.9234 3.98934 12.2221 3.98934 12.5893C3.98934 12.9565 4.29468 13.2554 4.66988 13.2554ZM4.66988 12.3234C4.82428 12.3234 4.94988 12.4426 4.94988 12.5893C4.94988 12.7359 4.82428 12.8551 4.66988 12.8551C4.51521 12.8551 4.38934 12.7359 4.38934 12.5893C4.38934 12.4426 4.51521 12.3234 4.66988 12.3234Z" fill="#5A687C"/>
<path d="M9.02214 6.81062C9.02214 6.75757 9.00107 6.7067 8.96356 6.6692C8.92606 6.63169 8.87519 6.61062 8.82214 6.61062C8.7691 6.61062 8.71823 6.63169 8.68072 6.6692C8.64321 6.7067 8.62214 6.75757 8.62214 6.81062V7.55835H8.48934C7.77388 7.55835 7.19068 8.10635 7.12001 8.80368H6.39201C6.33897 8.80368 6.28809 8.82475 6.25059 8.86226C6.21308 8.89977 6.19201 8.95064 6.19201 9.00368C6.19201 9.05673 6.21308 9.1076 6.25059 9.1451C6.28809 9.18261 6.33897 9.20368 6.39201 9.20368H7.10614V10.0597H6.39174C6.3387 10.0597 6.28783 10.0808 6.25032 10.1183C6.21281 10.1558 6.19174 10.2066 6.19174 10.2597C6.19174 10.3127 6.21281 10.3636 6.25032 10.4011C6.28783 10.4386 6.3387 10.4597 6.39174 10.4597H7.10614V11.2647H6.39174C6.3387 11.2647 6.28783 11.2858 6.25032 11.3233C6.21281 11.3608 6.19174 11.4117 6.19174 11.4647C6.19174 11.5178 6.21281 11.5687 6.25032 11.6062C6.28783 11.6437 6.3387 11.6647 6.39174 11.6647H7.10828C7.12001 12.4173 7.73388 13.0263 8.48934 13.0263H8.62214V13.7591C8.62214 13.8122 8.64321 13.8631 8.68072 13.9006C8.71823 13.9381 8.7691 13.9591 8.82214 13.9591C8.87519 13.9591 8.92606 13.9381 8.96356 13.9006C9.00107 13.8631 9.02214 13.8122 9.02214 13.7591V13.0263H9.86401V13.7591C9.86401 13.8122 9.88508 13.8631 9.92259 13.9006C9.9601 13.9381 10.011 13.9591 10.064 13.9591C10.1171 13.9591 10.1679 13.9381 10.2054 13.9006C10.2429 13.8631 10.264 13.8122 10.264 13.7591V13.0263H11.1584V13.7591C11.1584 13.8122 11.1795 13.8631 11.217 13.9006C11.2545 13.9381 11.3054 13.9591 11.3584 13.9591C11.4115 13.9591 11.4623 13.9381 11.4998 13.9006C11.5373 13.8631 11.5584 13.8122 11.5584 13.7591V13.0263H11.6384C12.3936 13.0263 13.0075 12.4173 13.0192 11.6647H13.6421C13.6952 11.6647 13.7461 11.6437 13.7836 11.6062C13.8211 11.5687 13.8421 11.5178 13.8421 11.4647C13.8421 11.4117 13.8211 11.3608 13.7836 11.3233C13.7461 11.2858 13.6952 11.2647 13.6421 11.2647H13.0216V10.4594H13.6421C13.6952 10.4594 13.7461 10.4383 13.7836 10.4008C13.8211 10.3633 13.8421 10.3125 13.8421 10.2594C13.8421 10.2064 13.8211 10.1555 13.7836 10.118C13.7461 10.0805 13.6952 10.0594 13.6421 10.0594H13.0216V9.20342H13.6421C13.6952 9.20342 13.7461 9.18234 13.7836 9.14484C13.8211 9.10733 13.8421 9.05646 13.8421 9.00342C13.8421 8.95037 13.8211 8.8995 13.7836 8.86199C13.7461 8.82449 13.6952 8.80342 13.6421 8.80342H13.0075C12.9371 8.10635 12.3539 7.55835 11.6384 7.55835H11.5584V6.81062C11.5584 6.75757 11.5373 6.7067 11.4998 6.6692C11.4623 6.63169 11.4115 6.61062 11.3584 6.61062C11.3054 6.61062 11.2545 6.63169 11.217 6.6692C11.1795 6.7067 11.1584 6.75757 11.1584 6.81062V7.55835H10.264V6.81062C10.264 6.75757 10.2429 6.7067 10.2054 6.6692C10.1679 6.63169 10.1171 6.61062 10.064 6.61062C10.011 6.61062 9.9601 6.63169 9.92259 6.6692C9.88508 6.7067 9.86401 6.75757 9.86401 6.81062V7.55835H9.02214V6.81062ZM11.6384 7.95835C11.8991 7.95856 12.1491 8.06222 12.3334 8.24656C12.5177 8.4309 12.6214 8.68085 12.6216 8.94155V11.6431C12.6214 11.9038 12.5177 12.1538 12.3334 12.3381C12.1491 12.5225 11.8991 12.6261 11.6384 12.6263H8.48908C8.22845 12.626 7.9786 12.5223 7.79433 12.338C7.61006 12.1537 7.50642 11.9038 7.50614 11.6431V8.94155C7.50635 8.68085 7.61001 8.4309 7.79435 8.24656C7.97869 8.06222 8.22865 7.95856 8.48934 7.95835H11.6384ZM4.76161 10.0986C4.76147 9.93717 4.69729 9.78237 4.58316 9.66819C4.46902 9.55401 4.31425 9.48976 4.15281 9.48955C3.89628 9.48955 3.67734 9.64955 3.58748 9.87462C3.58374 9.87435 3.58054 9.87222 3.57681 9.87222H2.31334C2.2603 9.87222 2.20943 9.89329 2.17192 9.93079C2.13441 9.9683 2.11334 10.0192 2.11334 10.0722C2.11334 10.1253 2.13441 10.1761 2.17192 10.2136C2.20943 10.2511 2.2603 10.2722 2.31334 10.2722H3.57201C3.60916 10.3976 3.68573 10.5076 3.79035 10.586C3.89497 10.6644 4.02208 10.707 4.15281 10.7074C4.31421 10.7072 4.46894 10.643 4.58306 10.5289C4.69719 10.4147 4.7614 10.26 4.76161 10.0986ZM4.15281 10.3074C4.09869 10.3055 4.04743 10.2826 4.00983 10.2437C3.97222 10.2047 3.95121 10.1526 3.95121 10.0985C3.95121 10.0443 3.97222 9.99229 4.00983 9.95331C4.04743 9.91434 4.09869 9.89148 4.15281 9.88955C4.20693 9.89148 4.25819 9.91434 4.29579 9.95331C4.3334 9.99229 4.35441 10.0443 4.35441 10.0985C4.35441 10.1526 4.3334 10.2047 4.29579 10.2437C4.25819 10.2826 4.20693 10.3055 4.15281 10.3074ZM12.2725 15.1685C12.2195 15.1685 12.1686 15.1896 12.1311 15.2271C12.0936 15.2646 12.0725 15.3154 12.0725 15.3685C12.0725 15.4215 12.0936 15.4724 12.1311 15.5099C12.1686 15.5474 12.2195 15.5685 12.2725 15.5685H13.1744C13.2052 15.5685 13.2355 15.5614 13.2631 15.5477C13.2906 15.5341 13.3147 15.5143 13.3333 15.4898L15.0197 13.2834C15.4696 13.4055 15.8808 13.0695 15.8808 12.6442C15.8808 12.2773 15.5755 11.9783 15.2003 11.9783C14.6277 11.9783 14.3083 12.6317 14.6805 13.0685L13.0755 15.1685H12.2725ZM15.2005 12.3783C15.3549 12.3783 15.4805 12.4978 15.4805 12.6442C15.4805 12.7906 15.3549 12.9103 15.2005 12.9103C15.0459 12.9103 14.9205 12.7909 14.9205 12.6442C14.9205 12.4975 15.0459 12.3783 15.2005 12.3783ZM11.3152 4.67195L12.6923 5.05355L13.6587 6.63595C13.6723 6.65853 13.6902 6.67819 13.7115 6.6938C13.7327 6.70942 13.7568 6.72068 13.7824 6.72695C13.808 6.73321 13.8346 6.73435 13.8607 6.7303C13.8867 6.72625 13.9117 6.71709 13.9342 6.70334C13.9567 6.6896 13.9763 6.67155 13.9918 6.65022C14.0073 6.62889 14.0184 6.60471 14.0245 6.57906C14.0306 6.55342 14.0316 6.52682 14.0274 6.5008C14.0232 6.47477 14.0139 6.44983 14 6.42742L12.9925 4.77755C12.966 4.73432 12.9241 4.70277 12.8752 4.68928L11.496 4.30688C11.5579 3.88742 11.2237 3.54608 10.8253 3.54608C10.4504 3.54608 10.1453 3.84475 10.1453 4.21195C10.1453 4.81062 10.8915 5.10448 11.3152 4.67195ZM10.8253 3.94608C10.98 3.94608 11.1056 4.06555 11.1056 4.21195C11.1056 4.35862 10.98 4.47782 10.8256 4.47782C10.6709 4.47782 10.5453 4.35862 10.5453 4.21195C10.5453 4.06528 10.6709 3.94608 10.8253 3.94608ZM14.9896 7.59088C14.9896 7.22368 14.6845 6.92502 14.3096 6.92502C13.9344 6.92502 13.6293 7.22368 13.6293 7.59088C13.6293 7.95808 13.9344 8.25675 14.3093 8.25675C14.6845 8.25675 14.9896 7.95808 14.9896 7.59088ZM14.3096 7.85675C14.1549 7.85675 14.0293 7.73755 14.0293 7.59088C14.0293 7.44422 14.1549 7.32502 14.3093 7.32502C14.464 7.32502 14.5896 7.44422 14.5896 7.59088C14.5896 7.73755 14.464 7.85675 14.3096 7.85675ZM8.36454 4.15702C8.36454 4.52422 8.66961 4.82315 9.04481 4.82315C9.41974 4.82315 9.72481 4.52448 9.72481 4.15702C9.72481 3.78955 9.41974 3.49115 9.04481 3.49115C8.66961 3.49115 8.36454 3.78982 8.36454 4.15702ZM9.32481 4.15702C9.32481 4.30368 9.19948 4.42315 9.04481 4.42315C8.89014 4.42315 8.76454 4.30395 8.76454 4.15702C8.76454 4.01035 8.89014 3.89115 9.04481 3.89115C9.19948 3.89115 9.32481 4.01062 9.32481 4.15702ZM5.96508 6.98475L7.17814 4.99862L7.85521 4.81088C7.8812 4.80451 7.90565 4.79299 7.92711 4.77699C7.94857 4.761 7.9666 4.74086 7.98013 4.71777C7.99367 4.69468 8.00243 4.66911 8.0059 4.64257C8.00937 4.61604 8.00748 4.58907 8.00034 4.56328C7.9932 4.53749 7.98095 4.51339 7.96433 4.49241C7.94771 4.47144 7.92704 4.45401 7.90356 4.44117C7.88008 4.42833 7.85427 4.42033 7.82764 4.41764C7.80101 4.41496 7.77411 4.41765 7.74854 4.42555L6.99521 4.63435C6.94632 4.64783 6.90438 4.67938 6.87788 4.72262L5.58961 6.83195C5.17014 6.79568 4.84961 7.11942 4.84961 7.49222C4.84961 7.85942 5.15468 8.15808 5.52961 8.15808C6.15921 8.15808 6.45388 7.38742 5.96508 6.98475ZM5.24961 7.49222C5.24961 7.34555 5.37521 7.22635 5.52961 7.22635C5.68428 7.22635 5.80988 7.34555 5.80988 7.49222C5.80988 7.63888 5.68428 7.75808 5.52988 7.75808C5.37521 7.75808 5.24961 7.63862 5.24961 7.49222ZM4.66988 13.2554C5.04481 13.2554 5.34988 12.9567 5.34988 12.5893C5.34988 12.2218 5.04481 11.9234 4.66988 11.9234C4.29468 11.9234 3.98934 12.2221 3.98934 12.5893C3.98934 12.9565 4.29468 13.2554 4.66988 13.2554ZM4.66988 12.3234C4.82428 12.3234 4.94988 12.4426 4.94988 12.5893C4.94988 12.7359 4.82428 12.8551 4.66988 12.8551C4.51521 12.8551 4.38934 12.7359 4.38934 12.5893C4.38934 12.4426 4.51521 12.3234 4.66988 12.3234Z" stroke="#5A687C" stroke-width="0.4" mask="url(#path-2-outside-2_16567_1757)"/>
<path d="M9.60638 8.80408C9.68652 8.80408 9.75606 8.82815 9.81342 8.87341C9.86904 8.91732 9.90835 8.97665 9.93646 9.03943L10.7255 10.7787C10.781 10.901 10.8113 10.972 10.8261 11.0189C10.834 11.044 10.8398 11.0673 10.8408 11.0912C10.8416 11.1141 10.8377 11.1333 10.8359 11.1449V11.1459C10.8146 11.2792 10.7098 11.3422 10.6152 11.3578C10.5266 11.3723 10.4215 11.3508 10.3535 11.2914V11.2924C10.2948 11.2415 10.2607 11.1762 10.2255 11.0961C10.1918 11.0193 10.1581 10.9338 10.0995 10.8011H9.10834L8.9726 11.1205L8.97162 11.1215C8.93415 11.2051 8.89277 11.2692 8.83685 11.3099C8.77712 11.3534 8.71457 11.3607 8.66107 11.3607C8.56098 11.3607 8.46652 11.3227 8.414 11.2377C8.36226 11.1536 8.36752 11.0499 8.40912 10.9535L8.4101 10.9515L9.27338 9.03943L9.32513 8.94763C9.3455 8.91942 9.36925 8.89325 9.3974 8.87146C9.45572 8.82639 9.52612 8.80408 9.60638 8.80408ZM11.2802 8.80408C11.3643 8.80417 11.4451 8.82773 11.5048 8.88806C11.5646 8.94846 11.5888 9.03104 11.5888 9.11951V11.0443C11.5888 11.1275 11.5682 11.2102 11.5107 11.2719C11.4521 11.3346 11.3698 11.3607 11.2802 11.3607C11.1908 11.3607 11.1091 11.333 11.0507 11.2709C10.9934 11.2098 10.9707 11.1286 10.9706 11.0453V9.11951C10.9707 9.03292 10.9939 8.95078 11.0527 8.89001C11.1121 8.8287 11.1942 8.80408 11.2802 8.80408ZM9.33685 10.2689H9.87299L9.60345 9.63318L9.33685 10.2689Z" fill="#5A687C" stroke="#5A687C" stroke-width="0.2"/>
</svg>
