<svg width="20" height="32" viewBox="0 0 20 32" fill="none" xmlns="http://www.w3.org/2000/svg">
<g clip-path="url(#clip0_17333_11604)">
<path d="M0.0994852 0.880859L0.337709 1.05069C1.07896 1.57417 18.4772 13.8808 18.9625 14.2495C19.6496 14.739 20.0001 15.3444 20.0001 16.0467V16.3953C19.9922 16.9378 19.8002 17.701 18.9625 18.3394L18.9596 18.3414C18.556 18.6341 14.4481 21.5222 10.099 24.5811C9.71608 24.8504 9.3288 25.1228 8.94061 25.3958L8.68172 25.5778C4.84066 28.2792 0.985984 30.991 0.464697 31.3653V31.8518L0.180206 31.3663C0.166424 31.3414 0.153627 31.3204 0.168393 31.2864H0.159533V28.747C0.159533 27.8808 0.254036 27.4642 1.20398 26.8219C1.60863 26.558 5.07348 24.1298 8.59296 21.6583L9.00709 21.3675C12.2502 19.0897 15.4396 16.8457 16.2229 16.2954C14.5691 15.1296 2.17164 6.39534 1.32211 5.76397L1.2217 5.69004C0.593653 5.22851 0.0994852 4.86487 0.0994852 3.90383V0.880859ZM1.70799 9.71002C2.5467 10.2575 10.6581 15.9697 10.7398 16.0287L10.9239 16.1576L10.7369 16.2844C10.7369 16.2844 10.1886 16.6551 9.58022 17.0866C9.05947 17.4742 8.57219 17.668 8.08787 17.668C7.65769 17.668 7.23144 17.5162 6.78256 17.2135C6.30438 16.8895 4.95735 15.9465 3.59385 14.9885L3.40789 14.8578C1.73483 13.6819 0.095331 12.5248 0.0650313 12.5032L6.10352e-05 12.4573V10.5172C6.10352e-05 10.0717 0.189065 9.71901 0.520807 9.54818C0.876175 9.36436 1.32014 9.4243 1.70799 9.71002Z" fill="#004CFF"/>
</g>
<defs>
<clipPath id="clip0_17333_11604">
<rect width="20" height="31" fill="white" transform="translate(6.10352e-05 0.880859)"/>
</clipPath>
</defs>
</svg>
