 <svg
                  width="14"
                  height="13"
                  viewBox="0 0 14 13"
                  fill="none"
                  xmlns="http://www.w3.org/2000/svg"
                >
                  <path
                    d="M6.82794 4.625V8.375M8.70294 6.5H4.95294M12.4529 6.5C12.4529 7.23869 12.3074 7.97014 12.0248 8.65259C11.7421 9.33505 11.3277 9.95515 10.8054 10.4775C10.2831 10.9998 9.66299 11.4141 8.98054 11.6968C8.29808 11.9795 7.56663 12.125 6.82794 12.125C6.08926 12.125 5.3578 11.9795 4.67535 11.6968C3.99289 11.4141 3.3728 10.9998 2.85047 10.4775C2.32814 9.95515 1.9138 9.33505 1.63112 8.65259C1.34844 7.97014 1.20294 7.23869 1.20294 6.5C1.20294 5.00816 1.79557 3.57742 2.85047 2.52252C3.90536 1.46763 5.3361 0.875 6.82794 0.875C8.31978 0.875 9.75052 1.46763 10.8054 2.52252C11.8603 3.57742 12.4529 5.00816 12.4529 6.5Z"
                    stroke="#5E54FF"
                    stroke-width="1.5"
                    stroke-linecap="round"
                    stroke-linejoin="round"
                  />
                </svg>