<svg width="26" height="25" viewBox="0 0 26 25" fill="none" xmlns="http://www.w3.org/2000/svg">
<path d="M17.2343 9.73438L14.4296 12.5L17.2343 15.2656C17.3123 15.3387 17.3745 15.427 17.4171 15.5251C17.4596 15.6232 17.4816 15.729 17.4816 15.8359C17.4816 15.9429 17.4596 16.0487 17.4171 16.1468C17.3745 16.2449 17.3123 16.3332 17.2343 16.4063C17.1613 16.4787 17.0747 16.5359 16.9795 16.5748C16.8843 16.6137 16.7824 16.6334 16.6796 16.6328C16.4746 16.632 16.2782 16.5506 16.1327 16.4063L13.328 13.6016L10.5624 16.4063C10.4169 16.5506 10.2205 16.632 10.0155 16.6328C9.91269 16.6334 9.81077 16.6137 9.71558 16.5748C9.6204 16.5359 9.53382 16.4787 9.46082 16.4063C9.31531 16.2599 9.23364 16.0619 9.23364 15.8555C9.23364 15.6491 9.31531 15.4511 9.46082 15.3047L12.2264 12.5L9.46082 9.73438C9.33283 9.58493 9.26595 9.39268 9.27355 9.19606C9.28114 8.99943 9.36265 8.81292 9.50179 8.67378C9.64092 8.53465 9.82744 8.45314 10.0241 8.44554C10.2207 8.43795 10.4129 8.50483 10.5624 8.63282L13.328 11.3984L16.0936 8.63282C16.166 8.55792 16.2523 8.49801 16.3478 8.45649C16.4433 8.41498 16.546 8.39268 16.6501 8.39087C16.7542 8.38905 16.8577 8.40776 16.9545 8.44592C17.0514 8.48409 17.1398 8.54096 17.2147 8.61329C17.2896 8.68562 17.3495 8.77199 17.391 8.86747C17.4326 8.96296 17.4549 9.06568 17.4567 9.16979C17.4585 9.27389 17.4398 9.37733 17.4016 9.4742C17.3635 9.57108 17.3066 9.65948 17.2343 9.73438ZM21.0624 20.2344C19.5327 21.7639 17.5838 22.8055 15.4622 23.2274C13.3405 23.6494 11.1414 23.4327 9.14294 22.6048C7.14444 21.777 5.4363 20.3751 4.23452 18.5764C3.03274 16.7778 2.3913 14.6632 2.3913 12.5C2.3913 10.3368 3.03274 8.22221 4.23452 6.42357C5.4363 4.62493 7.14444 3.22305 9.14294 2.39518C11.1414 1.56731 13.3405 1.35065 15.4622 1.77258C17.5838 2.19452 19.5327 3.2361 21.0624 4.76563C22.0781 5.78128 22.8839 6.98708 23.4336 8.31415C23.9834 9.64122 24.2663 11.0636 24.2663 12.5C24.2663 13.9364 23.9834 15.3588 23.4336 16.6859C22.8839 18.0129 22.0781 19.2187 21.0624 20.2344ZM19.9608 5.86719C18.6484 4.55933 16.9779 3.66968 15.1602 3.31058C13.3425 2.95148 11.4592 3.13904 9.74804 3.84956C8.03688 4.56009 6.57462 5.76172 5.54593 7.30273C4.51723 8.84373 3.96821 10.655 3.96821 12.5078C3.96821 14.3606 4.51723 16.1719 5.54593 17.7129C6.57462 19.2539 8.03688 20.4555 9.74804 21.1661C11.4592 21.8766 13.3425 22.0641 15.1602 21.7051C16.9779 21.346 18.6484 20.4563 19.9608 19.1484C20.8348 18.2775 21.5283 17.2425 22.0015 16.103C22.4746 14.9634 22.7182 13.7417 22.7182 12.5078C22.7182 11.2739 22.4746 10.0522 22.0015 8.91264C21.5283 7.7731 20.8348 6.73816 19.9608 5.86719Z" fill="#FF3B30"/>
</svg>
