<svg width="26" height="25" viewBox="0 0 26 25" fill="none" xmlns="http://www.w3.org/2000/svg">
<path d="M12.828 0C5.92444 0 0.328003 5.59644 0.328003 12.5C0.328003 19.4036 5.92444 25 12.828 25C19.7316 25 25.328 19.4036 25.328 12.5C25.328 5.59644 19.7316 0 12.828 0ZM12.828 23.4375C6.78738 23.4375 1.8905 18.5406 1.8905 12.5C1.8905 6.45937 6.78738 1.5625 12.828 1.5625C18.8686 1.5625 23.7655 6.45937 23.7655 12.5C23.7655 18.5406 18.8686 23.4375 12.828 23.4375Z" fill="#007AFF"/>
<path d="M12.828 14.0625C13.6909 14.0625 14.3905 13.3629 14.3905 12.5C14.3905 11.6371 13.6909 10.9375 12.828 10.9375C11.9651 10.9375 11.2655 11.6371 11.2655 12.5C11.2655 13.3629 11.9651 14.0625 12.828 14.0625Z" fill="#007AFF"/>
<path d="M18.2968 14.0625C19.1597 14.0625 19.8593 13.3629 19.8593 12.5C19.8593 11.6371 19.1597 10.9375 18.2968 10.9375C17.4338 10.9375 16.7343 11.6371 16.7343 12.5C16.7343 13.3629 17.4338 14.0625 18.2968 14.0625Z" fill="#007AFF"/>
<path d="M7.35925 14.0625C8.2222 14.0625 8.92175 13.3629 8.92175 12.5C8.92175 11.6371 8.2222 10.9375 7.35925 10.9375C6.49631 10.9375 5.79675 11.6371 5.79675 12.5C5.79675 13.3629 6.49631 14.0625 7.35925 14.0625Z" fill="#007AFF"/>
</svg>
