<svg width="49" height="48" viewBox="0 0 49 48" fill="none" xmlns="http://www.w3.org/2000/svg">
<rect x="0.828003" y="0.5" width="47" height="47" rx="9.5" stroke="#E1E4EA"/>
<path d="M27.328 31.128C28.181 31.3757 29.0648 31.5009 29.953 31.5C31.3814 31.5021 32.7912 31.1764 34.074 30.548C34.1119 29.6517 33.8566 28.7675 33.3468 28.0293C32.8369 27.2912 32.1004 26.7394 31.2487 26.4575C30.397 26.1757 29.4767 26.1791 28.6272 26.4674C27.7776 26.7557 27.0452 27.313 26.541 28.055M27.328 31.128V31.125C27.328 30.012 27.042 28.965 26.541 28.055M27.328 31.128V31.234C25.4035 32.3931 23.1986 33.0038 20.952 33C18.621 33 16.44 32.355 14.578 31.234L14.577 31.125C14.5762 29.7095 15.0466 28.3339 15.914 27.2153C16.7813 26.0966 17.9964 25.2984 19.3675 24.9466C20.7386 24.5948 22.1878 24.7093 23.4867 25.2721C24.7855 25.8349 25.8601 26.814 26.541 28.055M24.328 18.375C24.328 19.2701 23.9724 20.1285 23.3395 20.7615C22.7065 21.3944 21.8481 21.75 20.953 21.75C20.0579 21.75 19.1994 21.3944 18.5665 20.7615C17.9336 20.1285 17.578 19.2701 17.578 18.375C17.578 17.4799 17.9336 16.6214 18.5665 15.9885C19.1994 15.3556 20.0579 15 20.953 15C21.8481 15 22.7065 15.3556 23.3395 15.9885C23.9724 16.6214 24.328 17.4799 24.328 18.375ZM32.578 20.625C32.578 21.3212 32.3014 21.9889 31.8092 22.4812C31.3169 22.9734 30.6492 23.25 29.953 23.25C29.2568 23.25 28.5891 22.9734 28.0968 22.4812C27.6046 21.9889 27.328 21.3212 27.328 20.625C27.328 19.9288 27.6046 19.2611 28.0968 18.7688C28.5891 18.2766 29.2568 18 29.953 18C30.6492 18 31.3169 18.2766 31.8092 18.7688C32.3014 19.2611 32.578 19.9288 32.578 20.625Z" stroke="#675FFF" stroke-width="1.5" stroke-linecap="round" stroke-linejoin="round"/>
</svg>
