<svg width="49" height="48" viewBox="0 0 49 48" fill="none" xmlns="http://www.w3.org/2000/svg">
<rect x="0.828003" y="0.5" width="47" height="47" rx="9.5" stroke="#E1E4EA"/>
<path d="M22.078 21.75L26.578 26.25M26.578 21.75L22.078 26.25M33.328 24C33.328 25.1819 33.0952 26.3522 32.6429 27.4442C32.1906 28.5361 31.5277 29.5282 30.692 30.364C29.8562 31.1997 28.8641 31.8626 27.7722 32.3149C26.6802 32.7672 25.5099 33 24.328 33C23.1461 33 21.9758 32.7672 20.8839 32.3149C19.7919 31.8626 18.7998 31.1997 17.964 30.364C17.1283 29.5282 16.4654 28.5361 16.0131 27.4442C15.5608 26.3522 15.328 25.1819 15.328 24C15.328 21.6131 16.2762 19.3239 17.964 17.636C19.6519 15.9482 21.9411 15 24.328 15C26.715 15 29.0041 15.9482 30.692 17.636C32.3798 19.3239 33.328 21.6131 33.328 24Z" stroke="#675FFF" stroke-width="1.5" stroke-linecap="round" stroke-linejoin="round"/>
</svg>
