<svg width="48" height="48" viewBox="0 0 48 48" fill="none" xmlns="http://www.w3.org/2000/svg">
<rect x="0.494629" y="0.5" width="47" height="47" rx="9.5" stroke="#E1E4EA"/>
<path d="M20.9946 24.75L23.2446 27L26.9946 21.75M32.9946 24C32.9946 25.268 32.3646 26.39 31.4016 27.068C31.5054 27.6608 31.4648 28.2698 31.2832 28.8436C31.1017 29.4173 30.7845 29.9388 30.3586 30.364C29.9335 30.7899 29.4119 31.107 28.8382 31.2886C28.2644 31.4701 27.6554 31.5108 27.0626 31.407C26.7168 31.8995 26.2575 32.3014 25.7234 32.5787C25.1894 32.856 24.5964 33.0005 23.9946 33C22.7266 33 21.6046 32.37 20.9266 31.407C20.3339 31.5107 19.7248 31.47 19.1511 31.2885C18.5774 31.1069 18.0558 30.7898 17.6306 30.364C17.2048 29.9388 16.8876 29.4173 16.7061 28.8436C16.5245 28.2698 16.4839 27.6608 16.5876 27.068C16.0952 26.7222 15.6933 26.2629 15.416 25.7288C15.1387 25.1948 14.9941 24.6017 14.9946 24C14.9946 22.732 15.6246 21.61 16.5876 20.932C16.4839 20.3392 16.5245 19.7302 16.7061 19.1564C16.8876 18.5827 17.2048 18.0612 17.6306 17.636C18.0558 17.2102 18.5774 16.8931 19.1511 16.7115C19.7248 16.53 20.3339 16.4893 20.9266 16.593C21.2725 16.1006 21.7319 15.6987 22.2659 15.4214C22.7999 15.1442 23.3929 14.9996 23.9946 15C25.2626 15 26.3846 15.63 27.0626 16.593C27.6554 16.4893 28.2644 16.53 28.8381 16.7115C29.4119 16.8931 29.9334 17.2102 30.3586 17.636C30.7844 18.0612 31.1015 18.5828 31.2831 19.1565C31.4646 19.7302 31.5053 20.3392 31.4016 20.932C31.8941 21.2778 32.296 21.7372 32.5733 22.2712C32.8506 22.8052 32.9951 23.3983 32.9946 24Z" stroke="#675FFF" stroke-width="1.5" stroke-linecap="round" stroke-linejoin="round"/>
</svg>
