<svg width="26" height="25" viewBox="0 0 26 25" fill="none" xmlns="http://www.w3.org/2000/svg">
<path d="M17.4947 13.2809C17.7019 13.2809 17.9006 13.1986 18.0471 13.0521C18.1936 12.9056 18.2759 12.7069 18.2759 12.4997C18.2759 12.2925 18.1936 12.0938 18.0471 11.9472C17.9006 11.8007 17.7019 11.7184 17.4947 11.7184V13.2809ZM9.16132 11.7184C8.95412 11.7184 8.7554 11.8007 8.60889 11.9472C8.46238 12.0938 8.38007 12.2925 8.38007 12.4997C8.38007 12.7069 8.46238 12.9056 8.60889 13.0521C8.7554 13.1986 8.95412 13.2809 9.16132 13.2809V11.7184ZM17.4947 11.7184H9.16132V13.2809H17.4947V11.7184ZM13.328 23.6976C19.5124 23.6976 24.5259 18.6841 24.5259 12.4997H22.9634C22.9634 15.0551 21.9482 17.506 20.1413 19.3129C18.3343 21.1199 15.8835 22.1351 13.328 22.1351V23.6976ZM2.13007 12.4997C2.13007 18.6841 7.14361 23.6976 13.328 23.6976V22.1351C10.7725 22.1351 8.32171 21.1199 6.51471 19.3129C4.70772 17.506 3.69257 15.0551 3.69257 12.4997H2.13007ZM13.328 1.30176C7.14361 1.30176 2.13007 6.3153 2.13007 12.4997H3.69257C3.69257 9.9442 4.70772 7.4934 6.51471 5.68641C8.32171 3.87942 10.7725 2.86426 13.328 2.86426V1.30176ZM13.328 2.86426C15.8835 2.86426 18.3343 3.87942 20.1413 5.68641C21.9482 7.4934 22.9634 9.9442 22.9634 12.4997H24.5259C24.5259 6.3153 19.5124 1.30176 13.328 1.30176V2.86426Z" fill="#007AFF"/>
</svg>
