<svg width="17" height="16" viewBox="0 0 17 16" fill="none" xmlns="http://www.w3.org/2000/svg">
<path d="M2.328 8.75C2.328 8.336 2.664 8 3.078 8H4.578C4.992 8 5.328 8.336 5.328 8.75V13.25C5.328 13.664 4.992 14 4.578 14H3.078C2.87909 14 2.68833 13.921 2.54767 13.7803C2.40702 13.6397 2.328 13.4489 2.328 13.25V8.75ZM6.828 5.75C6.828 5.336 7.164 5 7.578 5H9.078C9.492 5 9.828 5.336 9.828 5.75V13.25C9.828 13.664 9.492 14 9.078 14H7.578C7.37909 14 7.18833 13.921 7.04767 13.7803C6.90702 13.6397 6.828 13.4489 6.828 13.25V5.75ZM11.328 2.75C11.328 2.336 11.664 2 12.078 2H13.578C13.992 2 14.328 2.336 14.328 2.75V13.25C14.328 13.664 13.992 14 13.578 14H12.078C11.8791 14 11.6883 13.921 11.5477 13.7803C11.407 13.6397 11.328 13.4489 11.328 13.25V2.75Z" stroke="#5A687C" stroke-linecap="round" stroke-linejoin="round"/>
</svg>
