<svg width="26" height="25" viewBox="0 0 26 25" fill="none" xmlns="http://www.w3.org/2000/svg">
<g clip-path="url(#clip0_16553_5176)">
<path d="M12.828 25C5.93562 25 0.328003 19.3924 0.328003 12.5C0.328003 5.60762 5.93562 0 12.828 0C19.7204 0 25.328 5.60762 25.328 12.5C25.328 19.3924 19.7204 25 12.828 25ZM12.828 1.5625C6.79695 1.5625 1.8905 6.46895 1.8905 12.5C1.8905 18.5311 6.79695 23.4375 12.828 23.4375C18.8591 23.4375 23.7655 18.5311 23.7655 12.5C23.7655 6.46895 18.8591 1.5625 12.828 1.5625ZM11.0366 16.9586L18.8491 9.14609C19.1544 8.84082 19.1544 8.34648 18.8491 8.04141C18.5438 7.73633 18.0495 7.73613 17.7444 8.04141L10.4843 15.3016L7.9116 12.7289C7.60632 12.4236 7.11199 12.4236 6.80691 12.7289C6.50183 13.0342 6.50164 13.5285 6.80691 13.8336L9.93191 16.9586C10.0844 17.1111 10.2844 17.1875 10.4843 17.1875C10.6841 17.1875 10.8841 17.1111 11.0366 16.9586Z" fill="#34C759"/>
</g>
<defs>
<clipPath id="clip0_16553_5176">
<rect width="25" height="25" fill="white" transform="translate(0.328003)"/>
</clipPath>
</defs>
</svg>
