<svg width="49" height="48" viewBox="0 0 49 48" fill="none" xmlns="http://www.w3.org/2000/svg">
<rect x="1.16138" y="0.5" width="47" height="47" rx="9.5" stroke="#E1E4EA"/>
<g clip-path="url(#clip0_16567_899)">
<path d="M24.6614 36C18.0447 36 12.6614 30.6167 12.6614 24C12.6614 17.3833 18.0447 12 24.6614 12C31.2781 12 36.6614 17.3833 36.6614 24C36.6614 30.6167 31.2781 36 24.6614 36ZM24.6614 13.5C18.8716 13.5 14.1614 18.2102 14.1614 24C14.1614 29.7898 18.8716 34.5 24.6614 34.5C30.4512 34.5 35.1614 29.7898 35.1614 24C35.1614 18.2102 30.4512 13.5 24.6614 13.5ZM22.9416 28.2803L30.4416 20.7802C30.7347 20.4872 30.7347 20.0126 30.4416 19.7198C30.1486 19.4269 29.674 19.4267 29.3811 19.7198L22.4114 26.6895L19.9416 24.2197C19.6486 23.9267 19.174 23.9267 18.8811 24.2197C18.5883 24.5128 18.5881 24.9874 18.8811 25.2803L21.8811 28.2803C22.0276 28.4267 22.2196 28.5 22.4114 28.5C22.6032 28.5 22.7952 28.4267 22.9416 28.2803Z" fill="#675FFF"/>
</g>
<defs>
<clipPath id="clip0_16567_899">
<rect width="24" height="24" fill="white" transform="translate(12.6614 12)"/>
</clipPath>
</defs>
</svg>
