<svg width="49" height="48" viewBox="0 0 49 48" fill="none" xmlns="http://www.w3.org/2000/svg">
<rect x="1.16138" y="0.5" width="47" height="47" rx="9.5" stroke="#E1E4EA"/>
<path d="M21.6514 26.9932L27.6514 20.9932M33.6514 23.9942C33.6514 25.2622 33.0214 26.3842 32.0584 27.0632C32.162 27.6559 32.1214 28.265 31.9398 28.8387C31.7583 29.4124 31.4412 29.9339 31.0154 30.3592C30.5902 30.785 30.0687 31.1022 29.4949 31.2837C28.9212 31.4653 28.3121 31.5059 27.7194 31.4022C27.3736 31.8946 26.9142 32.2965 26.3802 32.5738C25.8461 32.8511 25.2531 32.9957 24.6514 32.9952C23.3834 32.9952 22.2614 32.3652 21.5834 31.4022C20.9906 31.5059 20.3816 31.4653 19.8078 31.2837C19.2341 31.1022 18.7125 30.785 18.2874 30.3592C17.8614 29.9338 17.5442 29.4121 17.3627 28.8382C17.1811 28.2643 17.1405 27.6551 17.2444 27.0622C16.752 26.7163 16.3501 26.2569 16.0728 25.7229C15.7955 25.1889 15.651 24.5959 15.6514 23.9942C15.6514 22.7262 16.2814 21.6042 17.2444 20.9262C17.1405 20.3332 17.1811 19.724 17.3627 19.1501C17.5442 18.5762 17.8614 18.0545 18.2874 17.6292C18.7126 17.2035 19.2342 16.8865 19.808 16.7051C20.3817 16.5237 20.9907 16.4833 21.5834 16.5872C21.929 16.0945 22.3884 15.6924 22.9224 15.4149C23.4565 15.1375 24.0495 14.9928 24.6514 14.9932C25.9194 14.9932 27.0414 15.6232 27.7194 16.5862C28.3121 16.4824 28.9212 16.523 29.4949 16.7046C30.0687 16.8861 30.5902 17.2033 31.0154 17.6292C31.4413 18.0545 31.7585 18.5762 31.9401 19.1501C32.1216 19.724 32.1622 20.3332 32.0584 20.9262C32.5508 21.272 32.9526 21.7314 33.2299 22.2654C33.5072 22.7995 33.6518 23.3924 33.6514 23.9942ZM22.4014 21.7432H22.4094V21.7502H22.4014V21.7432ZM22.7764 21.7432C22.7764 21.8426 22.7369 21.938 22.6665 22.0083C22.5962 22.0787 22.5008 22.1182 22.4014 22.1182C22.3019 22.1182 22.2065 22.0787 22.1362 22.0083C22.0659 21.938 22.0264 21.8426 22.0264 21.7432C22.0264 21.6437 22.0659 21.5483 22.1362 21.478C22.2065 21.4077 22.3019 21.3682 22.4014 21.3682C22.5008 21.3682 22.5962 21.4077 22.6665 21.478C22.7369 21.5483 22.7764 21.6437 22.7764 21.7432ZM26.9014 26.2432H26.9094V26.2512H26.9014V26.2432ZM27.2764 26.2432C27.2764 26.3426 27.2369 26.438 27.1665 26.5083C27.0962 26.5787 27.0008 26.6182 26.9014 26.6182C26.8019 26.6182 26.7065 26.5787 26.6362 26.5083C26.5659 26.438 26.5264 26.3426 26.5264 26.2432C26.5264 26.1437 26.5659 26.0483 26.6362 25.978C26.7065 25.9077 26.8019 25.8682 26.9014 25.8682C27.0008 25.8682 27.0962 25.9077 27.1665 25.978C27.2369 26.0483 27.2764 26.1437 27.2764 26.2432Z" stroke="#675FFF" stroke-width="1.5" stroke-linecap="round" stroke-linejoin="round"/>
</svg>
