<svg width="23" height="23" viewBox="0 0 23 23" fill="none" xmlns="http://www.w3.org/2000/svg">
<path d="M15.4947 12.2809C15.7019 12.2809 15.9006 12.1986 16.0471 12.0521C16.1936 11.9056 16.2759 11.7069 16.2759 11.4997C16.2759 11.2925 16.1936 11.0938 16.0471 10.9472C15.9006 10.8007 15.7019 10.7184 15.4947 10.7184V12.2809ZM7.16132 10.7184C6.95412 10.7184 6.7554 10.8007 6.60889 10.9472C6.46238 11.0938 6.38007 11.2925 6.38007 11.4997C6.38007 11.7069 6.46238 11.9056 6.60889 12.0521C6.7554 12.1986 6.95412 12.2809 7.16132 12.2809V10.7184ZM15.4947 10.7184H7.16132V12.2809H15.4947V10.7184ZM11.328 22.6976C17.5124 22.6976 22.5259 17.6841 22.5259 11.4997H20.9634C20.9634 14.0551 19.9482 16.506 18.1413 18.3129C16.3343 20.1199 13.8835 21.1351 11.328 21.1351V22.6976ZM0.130066 11.4997C0.130066 17.6841 5.14361 22.6976 11.328 22.6976V21.1351C8.77251 21.1351 6.32171 20.1199 4.51471 18.3129C2.70772 16.506 1.69257 14.0551 1.69257 11.4997H0.130066ZM11.328 0.301758C5.14361 0.301758 0.130066 5.3153 0.130066 11.4997H1.69257C1.69257 8.9442 2.70772 6.4934 4.51471 4.68641C6.32171 2.87942 8.77251 1.86426 11.328 1.86426V0.301758ZM11.328 1.86426C13.8835 1.86426 16.3343 2.87942 18.1413 4.68641C19.9482 6.4934 20.9634 8.9442 20.9634 11.4997H22.5259C22.5259 5.3153 17.5124 0.301758 11.328 0.301758V1.86426Z" fill="#F60C9D"/>
</svg>
