<svg width="50" height="51" viewBox="0 0 50 51" fill="none" xmlns="http://www.w3.org/2000/svg">
<path d="M40.2113 13.4308C40.0443 13.431 39.881 13.3806 39.7422 13.2859C38.2303 12.2551 36.4523 11.7054 34.6338 11.7066H15.3703C13.5503 11.7047 11.7708 12.2543 10.2576 13.2859C10.1336 13.3694 9.99037 13.4183 9.84213 13.4278C9.69389 13.4373 9.54579 13.4071 9.41253 13.3402L6.03223 11.6161L6.7877 10.073L9.74545 11.5798C11.4425 10.534 13.3876 9.98161 15.3703 9.98243H34.6338C36.6184 9.98071 38.5657 10.5331 40.2645 11.5798L43.218 10.073L43.9735 11.6161L40.5932 13.3402C40.4746 13.4006 40.3438 13.4316 40.2113 13.4308Z" fill="#91562F"/>
<path d="M36.831 50.501H13.1689C13.1689 48.5966 14.6824 47.0527 16.5493 47.0527H33.4507C35.3175 47.0527 36.831 48.5966 36.831 50.501Z" fill="#F9B44D"/>
<path d="M33.451 47.0527H26.6904C28.5572 47.0527 30.0707 48.5966 30.0707 50.501H36.8314C36.8314 48.5966 35.3179 47.0527 33.451 47.0527Z" fill="#FA982F"/>
<path d="M30.0706 47.0517H19.9297L23.31 43.6035H26.6903L30.0706 47.0517Z" fill="#F9B44D"/>
<path d="M23.3101 7.39648H26.6904V43.6028H23.3101V7.39648Z" fill="#91562F"/>
<path d="M26.6902 7.3964H23.3099L22.4395 3.84559C22.0854 2.40341 22.9449 0.941311 24.3596 0.580193C24.569 0.526851 24.7842 0.499919 25.0001 0.5C26.4578 0.5 27.6392 1.70519 27.6392 3.19219C27.6392 3.41285 27.6131 3.63181 27.5606 3.84559L26.6902 7.3964Z" fill="#F9B44D"/>
<path d="M25.0002 0.5C24.7307 0.504284 24.4636 0.550905 24.2075 0.637972C25.5359 1.06215 26.3109 2.46806 25.9754 3.84569L25.1059 7.3965H26.6903L27.5607 3.84569C27.9148 2.40351 27.0554 0.94141 25.6407 0.580293C25.4312 0.527193 25.2161 0.500232 25.0002 0.5Z" fill="#FA982F"/>
<path d="M20.7749 6.53516H29.2256V8.25926H20.7749V6.53516Z" fill="#F9B44D"/>
<path d="M17.964 31.1097L9.78876 12.9135L1.61348 31.1097C1.41915 31.5424 0.917188 31.7321 0.492867 31.5339C0.0686444 31.3356 -0.117295 30.8236 0.0770428 30.3908L9.02049 10.4852C9.21483 10.0524 9.71679 9.86273 10.1411 10.0611C10.3251 10.147 10.4726 10.2975 10.5569 10.4852L19.5004 30.3908C19.6947 30.8236 19.5089 31.3356 19.0846 31.5339C18.6603 31.733 18.1592 31.5424 17.964 31.1097ZM48.3867 31.1097L40.2114 12.9135L32.0361 31.1097C31.8418 31.5424 31.3398 31.7321 30.9155 31.5339C30.4913 31.3356 30.3054 30.8236 30.4997 30.3908L39.4431 10.4852C39.6375 10.0524 40.1394 9.86273 40.5637 10.0611C40.7476 10.147 40.8952 10.2975 40.9795 10.4852L49.9229 30.3908C50.1173 30.8236 49.9314 31.3356 49.5071 31.5339C49.083 31.733 48.5818 31.5424 48.3867 31.1097Z" fill="#F0E4D6"/>
<path d="M30.9155 31.5332H49.5071C49.5071 34.3901 47.2373 36.7056 44.4367 36.7056H35.9859C33.1863 36.7055 30.9155 34.39 30.9155 31.5332Z" fill="#F9B44D"/>
<path d="M44.4367 31.5332C44.4367 34.3901 42.1668 36.7056 39.3662 36.7056H44.4367C47.2373 36.7056 49.5071 34.3901 49.5071 31.5332H44.4367Z" fill="#FA982F"/>
<path d="M0.493164 31.5332H19.0848C19.0848 34.3901 16.8149 36.7056 14.0143 36.7056H5.56353C2.76389 36.7055 0.493164 34.39 0.493164 31.5332Z" fill="#F9B44D"/>
<path d="M14.0143 31.5332C14.0143 34.3901 11.7445 36.7056 8.94385 36.7056H14.0143C16.8149 36.7056 19.0848 34.3901 19.0848 31.5332H14.0143Z" fill="#FA982F"/>
</svg>
