<svg width="16" height="16" viewBox="0 0 16 16" fill="none" xmlns="http://www.w3.org/2000/svg">
<path d="M11.988 12.4834C11.5222 11.8666 10.9195 11.3665 10.2275 11.0223C9.53541 10.6781 8.7729 10.4993 8 10.5C7.2271 10.4993 6.46459 10.6781 5.77254 11.0223C5.0805 11.3665 4.47783 11.8666 4.012 12.4834M11.988 12.4834C12.897 11.6748 13.5381 10.6091 13.8275 9.42744C14.1168 8.2458 14.0402 7.00411 13.6076 5.86703C13.1751 4.72996 12.4071 3.75123 11.4056 3.06065C10.404 2.37006 9.21623 2.00024 7.99967 2.00024C6.78311 2.00024 5.59529 2.37006 4.59373 3.06065C3.59218 3.75123 2.82422 4.72996 2.39169 5.86703C1.95916 7.00411 1.8825 8.2458 2.17188 9.42744C2.46126 10.6091 3.103 11.6748 4.012 12.4834M11.988 12.4834C10.8907 13.4622 9.47042 14.0021 8 14C6.52935 14.0023 5.10949 13.4623 4.012 12.4834M10 6.50005C10 7.03048 9.78929 7.53919 9.41421 7.91426C9.03914 8.28933 8.53043 8.50005 8 8.50005C7.46957 8.50005 6.96086 8.28933 6.58579 7.91426C6.21071 7.53919 6 7.03048 6 6.50005C6 5.96961 6.21071 5.46091 6.58579 5.08583C6.96086 4.71076 7.46957 4.50005 8 4.50005C8.53043 4.50005 9.03914 4.71076 9.41421 5.08583C9.78929 5.46091 10 5.96961 10 6.50005Z" stroke="#5A687C" stroke-linecap="round" stroke-linejoin="round"/>
</svg>
