<svg width="16" height="16" viewBox="0 0 16 16" fill="none" xmlns="http://www.w3.org/2000/svg">
<path d="M8.79334 5.79202C9.22655 5.99886 9.60381 6.30664 9.89341 6.68951C10.183 7.07238 10.3765 7.51916 10.4576 7.99232C10.5387 8.46548 10.5051 8.9512 10.3596 9.40867C10.2141 9.86614 9.96091 10.282 9.62134 10.6214L6.62134 13.6213C6.05872 14.184 5.29566 14.5 4.5 14.5C3.70435 14.5 2.94128 14.184 2.37867 13.6213C1.81606 13.0587 1.49998 12.2957 1.49998 11.5C1.49998 10.7044 1.81606 9.9413 2.37867 9.37868L3.55 8.20735M12.45 7.79268L13.6213 6.62135C14.1839 6.05874 14.5 5.29567 14.5 4.50002C14.5 3.70436 14.1839 2.9413 13.6213 2.37869C13.0587 1.81607 12.2957 1.5 11.5 1.5C10.7043 1.5 9.94128 1.81607 9.37867 2.37869L6.37867 5.37868C6.03909 5.71802 5.78591 6.13389 5.64039 6.59137C5.49487 7.04884 5.46126 7.53456 5.54238 8.00772C5.62351 8.48087 5.817 8.92765 6.1066 9.31053C6.3962 9.6934 6.77345 10.0012 7.20667 10.208" stroke="#1E1E1E" stroke-linecap="round" stroke-linejoin="round"/>
</svg>
