<svg width="140" height="145" viewBox="0 0 140 145" fill="none" xmlns="http://www.w3.org/2000/svg">
<path d="M71.5665 127.531C104.367 127.531 130.967 101.131 130.967 68.5312C130.967 35.9313 104.367 9.53125 71.5665 9.53125C38.7665 9.53125 12.1665 35.9313 12.1665 68.5312C12.1665 101.131 38.7665 127.531 71.5665 127.531Z" fill="#EAEEF9"/>
<path d="M117.067 60.8312V96.9312C117.067 104.431 110.967 110.531 103.367 110.531H39.9666C32.4666 110.531 26.3666 104.531 26.2666 97.0312C26.2666 96.9312 26.2666 96.9312 26.2666 96.8312V60.8312C26.2666 60.7312 26.2666 60.7312 26.2666 60.6312C26.2666 60.4312 26.2666 60.2312 26.3666 60.0312C26.4666 59.7312 26.5666 59.5312 26.6666 59.2312L43.6666 26.7312C44.2666 25.4312 45.5666 24.7312 46.9666 24.7312H96.2666C97.6666 24.7312 98.8666 25.4312 99.5666 26.7312L116.567 59.2312C116.667 59.4312 116.767 59.7312 116.867 60.0312C117.067 60.2312 117.067 60.5312 117.067 60.8312Z" fill="url(#paint0_linear_16567_3737)"/>
<g filter="url(#filter0_d_16567_3737)">
<path d="M84.6666 61.1312H58.9666C57.8666 61.1312 56.9666 60.3312 56.9666 59.1312V24.0312C56.9666 22.9312 57.7666 22.0312 58.9666 22.0312H84.5666C85.6666 22.0312 86.5666 22.8312 86.5666 24.0312V59.1312C86.5666 60.2312 85.7666 61.1312 84.6666 61.1312Z" fill="#F5F8FF"/>
</g>
<g filter="url(#filter1_d_16567_3737)">
<path d="M93.1666 69.4313H50.4666C49.0666 69.4313 47.9666 68.2313 47.9666 66.9313V32.8313C47.9666 31.4313 49.1666 30.3313 50.4666 30.3313H93.1666C94.5666 30.3313 95.6666 31.5313 95.6666 32.8313V66.9313C95.5666 68.3313 94.5666 69.4313 93.1666 69.4313Z" fill="#F5F8FF"/>
</g>
<g filter="url(#filter2_d_16567_3737)">
<path d="M98.0665 79.1311H45.6665C44.1665 79.1311 42.8665 77.8311 42.8665 76.4311V42.8311C42.8665 41.3311 44.1665 40.1311 45.6665 40.1311H98.0665C99.5665 40.1311 100.866 41.4311 100.866 42.8311V76.3311C100.766 77.9311 99.5665 79.1311 98.0665 79.1311Z" fill="#F5F8FF"/>
</g>
<g filter="url(#filter3_d_16567_3737)">
<path d="M103.366 88.5311H40.3665C38.6665 88.5311 37.3665 87.1311 37.3665 85.6311V52.5311C37.3665 50.8311 38.7665 49.6311 40.3665 49.6311H103.366C105.066 49.6311 106.366 51.0311 106.366 52.5311V85.5311C106.266 87.2311 105.066 88.5311 103.366 88.5311Z" fill="#F5F8FF"/>
</g>
<path d="M84.4664 62.7313H60.7664C60.1664 62.7313 59.5664 62.2313 59.5664 61.5313C59.5664 60.9313 60.0664 60.3313 60.7664 60.3313H84.4664C85.0664 60.3313 85.6664 60.8313 85.6664 61.5313C85.6664 62.2313 85.1664 62.7313 84.4664 62.7313Z" fill="#E6ECF5"/>
<path d="M77.5665 69.7313H47.5665C47.1665 69.7313 46.8665 69.4313 46.8665 69.0313C46.8665 68.6313 47.1665 68.3313 47.5665 68.3313H77.4665C77.8665 68.3313 78.1665 68.6313 78.1665 69.0313C78.3665 69.2313 78.0665 69.7313 77.5665 69.7313Z" fill="#E6ECF5"/>
<path d="M97.2665 69.7313H82.1665C81.7665 69.7313 81.4666 69.4313 81.4666 69.0313C81.4666 68.6313 81.7665 68.3313 82.1665 68.3313H97.1665C97.5665 68.3313 97.8665 68.6313 97.8665 69.0313C98.0665 69.2313 97.7665 69.7313 97.2665 69.7313Z" fill="#E6ECF5"/>
<g filter="url(#filter4_d_16567_3737)">
<path d="M111.849 62.6412V96.8671C111.849 101.735 107.955 105.629 102.998 105.629H40.3349C35.467 105.629 31.4841 101.735 31.4841 96.8671V62.4641C31.4841 62.2871 31.4841 62.1101 31.5726 61.9331H48.7523C51.7616 61.9331 54.2398 64.3228 54.2398 67.4206C54.2398 68.9252 54.8594 70.3413 55.8329 71.3149C56.895 72.377 58.1341 72.908 59.7273 72.908H84.6943C87.7035 72.908 90.1818 70.5183 90.1818 67.4206C90.1818 65.9159 90.8013 64.4998 91.7749 63.5262C92.837 62.4641 94.0761 61.9331 95.5807 61.9331H111.672C111.849 62.1101 111.849 62.3756 111.849 62.6412Z" fill="white"/>
</g>
<g filter="url(#filter5_d_16567_3737)">
<path d="M117.067 60.8312V100.631C117.067 106.131 112.667 110.531 107.067 110.531H36.2666C30.7666 110.531 26.2666 106.131 26.2666 100.631V60.6312C26.2666 60.4312 26.2666 60.2314 26.3666 60.0312H49.1666C52.5666 60.0312 55.3666 62.7313 55.3666 66.2313C55.3666 67.9313 56.0666 69.5313 57.1666 70.6313C58.3666 71.8313 59.7666 72.4313 61.5666 72.4313H81.8666C85.2666 72.4313 88.0666 69.7313 88.0666 66.2313C88.0666 64.5314 88.7666 62.9312 89.8666 61.8312C91.0666 60.6312 92.4666 60.0312 94.1666 60.0312H116.867C117.067 60.2314 117.067 60.5312 117.067 60.8312Z" fill="url(#paint1_linear_16567_3737)"/>
</g>
<path d="M107.067 96.1313H86.4665C85.7665 96.1313 85.1665 95.6314 85.1665 94.8314C85.1665 94.1314 85.6665 93.5312 86.4665 93.5312H106.867C107.567 93.5312 108.167 94.0314 108.167 94.8314C108.267 95.4314 107.667 96.1313 107.067 96.1313Z" fill="#E6ECF5"/>
<path d="M97.8665 102.431H86.4665C85.7665 102.431 85.1665 101.931 85.1665 101.131C85.1665 100.431 85.6665 99.8313 86.4665 99.8313H97.7665C98.4665 99.8313 99.0665 100.331 99.0665 101.131C99.1665 101.731 98.5665 102.431 97.8665 102.431Z" fill="#E6ECF5"/>
<path d="M90.7739 106.631C90.3739 108.331 89.7739 110.131 89.0739 111.631C87.1739 115.331 84.1739 118.231 80.4739 120.131C76.6739 122.031 72.1739 122.831 67.6739 121.831C56.9739 119.531 50.1739 109.231 52.3739 98.6314C54.5739 88.0314 64.8739 81.1314 75.4739 83.4314C79.2739 84.2314 82.5739 86.1314 85.3739 88.7314C90.1739 93.4314 92.0739 100.131 90.7739 106.631Z" fill="url(#paint2_linear_16567_3737)"/>
<path d="M77.7665 100.831H73.2665V96.3313C73.2665 95.4313 72.5665 94.6313 71.5665 94.6313C70.6665 94.6313 69.8665 95.3313 69.8665 96.3313V100.831H65.3665C64.4665 100.831 63.6665 101.531 63.6665 102.531C63.6665 103.531 64.3665 104.231 65.3665 104.231H69.8665V108.731C69.8665 109.631 70.5665 110.431 71.5665 110.431C72.4665 110.431 73.2665 109.731 73.2665 108.731V104.231H77.7665C78.6665 104.231 79.4665 103.531 79.4665 102.531C79.4665 101.531 78.6665 100.831 77.7665 100.831Z" fill="white"/>
<path d="M129.449 40.3311C131.713 40.3311 133.549 38.4955 133.549 36.2311C133.549 33.9668 131.713 32.1311 129.449 32.1311C127.184 32.1311 125.349 33.9668 125.349 36.2311C125.349 38.4955 127.184 40.3311 129.449 40.3311Z" fill="#EAEEF9"/>
<path d="M125.349 27.0314C126.895 27.0314 128.149 25.7778 128.149 24.2314C128.149 22.685 126.895 21.4314 125.349 21.4314C123.802 21.4314 122.549 22.685 122.549 24.2314C122.549 25.7778 123.802 27.0314 125.349 27.0314Z" fill="#EAEEF9"/>
<path d="M11.9487 36.2311C13.4951 36.2311 14.7487 34.9775 14.7487 33.4311C14.7487 31.8847 13.4951 30.6311 11.9487 30.6311C10.4023 30.6311 9.14868 31.8847 9.14868 33.4311C9.14868 34.9775 10.4023 36.2311 11.9487 36.2311Z" fill="#EAEEF9"/>
<path d="M5.64873 97.8314C8.52061 97.8314 10.8487 95.5033 10.8487 92.6314C10.8487 89.7595 8.52061 87.4314 5.64873 87.4314C2.77685 87.4314 0.44873 89.7595 0.44873 92.6314C0.44873 95.5033 2.77685 97.8314 5.64873 97.8314Z" fill="#EAEEF9"/>
<defs>
<filter id="filter0_d_16567_3737" x="34.9666" y="1.03125" width="73.6" height="83.1001" filterUnits="userSpaceOnUse" color-interpolation-filters="sRGB">
<feFlood flood-opacity="0" result="BackgroundImageFix"/>
<feColorMatrix in="SourceAlpha" type="matrix" values="0 0 0 0 0 0 0 0 0 0 0 0 0 0 0 0 0 0 127 0" result="hardAlpha"/>
<feOffset dy="1"/>
<feGaussianBlur stdDeviation="11"/>
<feColorMatrix type="matrix" values="0 0 0 0 0.397708 0 0 0 0 0.47749 0 0 0 0 0.575 0 0 0 0.18 0"/>
<feBlend mode="normal" in2="BackgroundImageFix" result="effect1_dropShadow_16567_3737"/>
<feBlend mode="normal" in="SourceGraphic" in2="effect1_dropShadow_16567_3737" result="shape"/>
</filter>
<filter id="filter1_d_16567_3737" x="25.9666" y="9.3313" width="91.7" height="83.1001" filterUnits="userSpaceOnUse" color-interpolation-filters="sRGB">
<feFlood flood-opacity="0" result="BackgroundImageFix"/>
<feColorMatrix in="SourceAlpha" type="matrix" values="0 0 0 0 0 0 0 0 0 0 0 0 0 0 0 0 0 0 127 0" result="hardAlpha"/>
<feOffset dy="1"/>
<feGaussianBlur stdDeviation="11"/>
<feColorMatrix type="matrix" values="0 0 0 0 0.397708 0 0 0 0 0.47749 0 0 0 0 0.575 0 0 0 0.18 0"/>
<feBlend mode="normal" in2="BackgroundImageFix" result="effect1_dropShadow_16567_3737"/>
<feBlend mode="normal" in="SourceGraphic" in2="effect1_dropShadow_16567_3737" result="shape"/>
</filter>
<filter id="filter2_d_16567_3737" x="20.8665" y="19.1311" width="102" height="83" filterUnits="userSpaceOnUse" color-interpolation-filters="sRGB">
<feFlood flood-opacity="0" result="BackgroundImageFix"/>
<feColorMatrix in="SourceAlpha" type="matrix" values="0 0 0 0 0 0 0 0 0 0 0 0 0 0 0 0 0 0 127 0" result="hardAlpha"/>
<feOffset dy="1"/>
<feGaussianBlur stdDeviation="11"/>
<feColorMatrix type="matrix" values="0 0 0 0 0.397708 0 0 0 0 0.47749 0 0 0 0 0.575 0 0 0 0.18 0"/>
<feBlend mode="normal" in2="BackgroundImageFix" result="effect1_dropShadow_16567_3737"/>
<feBlend mode="normal" in="SourceGraphic" in2="effect1_dropShadow_16567_3737" result="shape"/>
</filter>
<filter id="filter3_d_16567_3737" x="15.3665" y="28.6311" width="113" height="82.8999" filterUnits="userSpaceOnUse" color-interpolation-filters="sRGB">
<feFlood flood-opacity="0" result="BackgroundImageFix"/>
<feColorMatrix in="SourceAlpha" type="matrix" values="0 0 0 0 0 0 0 0 0 0 0 0 0 0 0 0 0 0 127 0" result="hardAlpha"/>
<feOffset dy="1"/>
<feGaussianBlur stdDeviation="11"/>
<feColorMatrix type="matrix" values="0 0 0 0 0.397708 0 0 0 0 0.47749 0 0 0 0 0.575 0 0 0 0.18 0"/>
<feBlend mode="normal" in2="BackgroundImageFix" result="effect1_dropShadow_16567_3737"/>
<feBlend mode="normal" in="SourceGraphic" in2="effect1_dropShadow_16567_3737" result="shape"/>
</filter>
<filter id="filter4_d_16567_3737" x="18.4841" y="45.9331" width="106.365" height="69.6958" filterUnits="userSpaceOnUse" color-interpolation-filters="sRGB">
<feFlood flood-opacity="0" result="BackgroundImageFix"/>
<feColorMatrix in="SourceAlpha" type="matrix" values="0 0 0 0 0 0 0 0 0 0 0 0 0 0 0 0 0 0 127 0" result="hardAlpha"/>
<feOffset dy="-3"/>
<feGaussianBlur stdDeviation="6.5"/>
<feColorMatrix type="matrix" values="0 0 0 0 0.397708 0 0 0 0 0.47749 0 0 0 0 0.575 0 0 0 0.27 0"/>
<feBlend mode="normal" in2="BackgroundImageFix" result="effect1_dropShadow_16567_3737"/>
<feBlend mode="normal" in="SourceGraphic" in2="effect1_dropShadow_16567_3737" result="shape"/>
</filter>
<filter id="filter5_d_16567_3737" x="4.2666" y="49.0312" width="134.8" height="94.4998" filterUnits="userSpaceOnUse" color-interpolation-filters="sRGB">
<feFlood flood-opacity="0" result="BackgroundImageFix"/>
<feColorMatrix in="SourceAlpha" type="matrix" values="0 0 0 0 0 0 0 0 0 0 0 0 0 0 0 0 0 0 127 0" result="hardAlpha"/>
<feOffset dy="11"/>
<feGaussianBlur stdDeviation="11"/>
<feColorMatrix type="matrix" values="0 0 0 0 0.397708 0 0 0 0 0.47749 0 0 0 0 0.575 0 0 0 0.27 0"/>
<feBlend mode="normal" in2="BackgroundImageFix" result="effect1_dropShadow_16567_3737"/>
<feBlend mode="normal" in="SourceGraphic" in2="effect1_dropShadow_16567_3737" result="shape"/>
</filter>
<linearGradient id="paint0_linear_16567_3737" x1="71.6738" y1="27.7118" x2="71.6738" y2="75.8705" gradientUnits="userSpaceOnUse">
<stop stop-color="#B0BACC"/>
<stop offset="1" stop-color="#969EAE"/>
</linearGradient>
<linearGradient id="paint1_linear_16567_3737" x1="71.637" y1="58.8632" x2="71.637" y2="111.076" gradientUnits="userSpaceOnUse">
<stop stop-color="#FDFEFF"/>
<stop offset="0.9964" stop-color="#ECF0F5"/>
</linearGradient>
<linearGradient id="paint2_linear_16567_3737" x1="71.5697" y1="84.3531" x2="71.5697" y2="106.398" gradientUnits="userSpaceOnUse">
<stop stop-color="#B0BACC"/>
<stop offset="1" stop-color="#969EAE"/>
</linearGradient>
</defs>
</svg>
