   <svg
            width="38"
            height="34"
            viewBox="0 0 38 34"
            fill="none"
            xmlns="http://www.w3.org/2000/svg"
          >
            <path
              d="M5.875 16.875H3.375V13.0291C3.37502 12.9655 3.39445 12.9034 3.43069 12.8511C3.46693 12.7988 3.51826 12.7589 3.57781 12.7366L5.45281 12.0334C5.50008 12.0157 5.55094 12.0097 5.60104 12.0159C5.65113 12.0222 5.69897 12.0404 5.74047 12.0692C5.78196 12.0979 5.81587 12.1363 5.8393 12.181C5.86273 12.2257 5.87498 12.2755 5.875 12.3259V16.875Z"
              fill="#C5C2FF"
            />
            <path
              d="M10.25 14.0625V33.4375H2.125V16.5625L10.25 14.0625Z"
              fill="#5A7AED"
            />
            <path
              d="M10.25 14.0625V17.1875L9.94375 17.2812L2.125 19.6875V16.5625L10.25 14.0625Z"
              fill="#ECEAFD"
            />
            <path
              d="M9.18062 20.1603L4.84531 21.4947C4.78148 21.5144 4.72564 21.554 4.68599 21.6078C4.64634 21.6616 4.62497 21.7266 4.625 21.7934V23.4956C4.62499 23.5445 4.63646 23.5928 4.65848 23.6364C4.68051 23.6801 4.71247 23.718 4.75181 23.747C4.79114 23.7761 4.83675 23.7955 4.88496 23.8037C4.93317 23.812 4.98263 23.8088 5.02938 23.7944L8.57594 22.7028C8.80469 22.6325 9.02656 22.8344 8.97469 23.0678C8.86347 23.5702 8.74313 24.0705 8.61375 24.5684C8.58658 24.6718 8.53345 24.7665 8.45939 24.8436C8.38534 24.9206 8.29283 24.9775 8.19063 25.0087L4.84562 26.0384C4.78179 26.0581 4.72592 26.0976 4.68621 26.1514C4.64651 26.2051 4.62505 26.2701 4.625 26.3369V28.0141C4.62499 28.063 4.63646 28.1112 4.65848 28.1549C4.68051 28.1985 4.71247 28.2364 4.75181 28.2655C4.79114 28.2945 4.83675 28.314 4.88496 28.3222C4.93317 28.3304 4.98263 28.3272 5.02938 28.3128L6.45844 27.8731C6.96969 27.7159 7.43125 28.2334 7.21594 28.7228C6.02219 31.4375 4.37875 33.4375 2.125 33.4375H10.25V14.0625C10.25 14.0625 10.1097 16.5078 9.61469 19.6603C9.59635 19.7759 9.54595 19.8841 9.46922 19.9724C9.39249 20.0608 9.2925 20.1259 9.18062 20.1603Z"
              fill="#5E54FF"
            />
            <path
              d="M10.2501 14.0625V17.1875L9.94385 17.2812C10.1751 15.3594 10.2501 14.0625 10.2501 14.0625ZM25.2501 0.9375V33.4375H10.2501V6.25L25.2501 0.9375Z"
              fill="#C5C2FF"
            />
            <path
              d="M25.25 4.0625V6.5625L13.6875 10.6562V8.15625L25.25 4.0625ZM25.25 9.34375V11.8438L13.6875 15.9375V13.4375L25.25 9.34375ZM25.25 14.625V17.125L13.6875 21.2188V18.7188L25.25 14.625ZM25.25 20V22.5L13.6875 26.5938V24.0938L25.25 20ZM20.5625 26.7594V33.4375H14.9375V28.75L17.4375 27.8656L18.0625 27.6437L20.5625 26.7594Z"
              fill="#789AF9"
            />
            <path
              d="M18.0625 27.6438V33.4375H17.4375V27.8657L18.0625 27.6438Z"
              fill="#5A7AED"
            />
            <path
              d="M25.25 0.9375L29.9375 5.625V33.4375H25.25V0.9375Z"
              fill="#ECEAFD"
            />
            <path
              d="M33.375 16.25V33.4375H25.25V18.75L33.375 16.25Z"
              fill="#5A7AED"
            />
            <path
              d="M27.4373 21.6709C27.3254 21.6703 27.2174 21.6296 27.1328 21.5563C27.0482 21.4831 26.9925 21.382 26.9759 21.2713C26.9593 21.1606 26.9827 21.0476 27.0421 20.9527C27.1014 20.8578 27.1927 20.7873 27.2995 20.7537L31.0495 19.6C31.1683 19.5634 31.2968 19.5755 31.4068 19.6337C31.5167 19.6918 31.599 19.7913 31.6356 19.9101C31.6722 20.029 31.66 20.1575 31.6019 20.2674C31.5437 20.3773 31.4443 20.4596 31.3254 20.4962L27.5754 21.65C27.5307 21.6638 27.4841 21.6709 27.4373 21.6709ZM27.4373 24.5312C27.3254 24.5306 27.2174 24.4899 27.1328 24.4167C27.0482 24.3434 26.9925 24.2423 26.9759 24.1316C26.9593 24.0209 26.9827 23.908 27.0421 23.8131C27.1014 23.7181 27.1927 23.6476 27.2995 23.614L31.0495 22.4603C31.1683 22.4237 31.2968 22.4358 31.4068 22.494C31.5167 22.5522 31.599 22.6516 31.6356 22.7705C31.6722 22.8893 31.66 23.0178 31.6019 23.1277C31.5437 23.2376 31.4443 23.32 31.3254 23.3565L27.5754 24.5103C27.5307 24.5243 27.4841 24.5313 27.4373 24.5312ZM27.4373 27.3919C27.3254 27.3912 27.2174 27.3506 27.1328 27.2773C27.0482 27.204 26.9925 27.1029 26.9759 26.9922C26.9593 26.8816 26.9827 26.7686 27.0421 26.6737C27.1014 26.5788 27.1927 26.5082 27.2995 26.4747L31.0495 25.3209C31.1683 25.2843 31.2968 25.2964 31.4068 25.3546C31.5167 25.4128 31.599 25.5122 31.6356 25.6311C31.6722 25.7499 31.66 25.8784 31.6019 25.9884C31.5437 26.0983 31.4443 26.1806 31.3254 26.2172L27.5754 27.3709C27.5307 27.3849 27.4841 27.3919 27.4373 27.3919Z"
              fill="#ECEAFD"
            />
            <path
              d="M36.5 19.0625V33.4375H33.375V16.25L36.5 19.0625Z"
              fill="#789AF9"
            />
            <path
              d="M5.875 32.1875V33.4375H0.25V31.5625C0.25 30.5281 1.09063 29.6875 2.125 29.6875C3.0125 29.6875 3.75938 30.3062 3.95 31.1375C4.15074 31.0066 4.38533 30.937 4.625 30.9375C5.31563 30.9375 5.875 31.4969 5.875 32.1875ZM32.125 32.1875V33.4375H37.75V31.5625C37.75 30.5281 36.9094 29.6875 35.875 29.6875C34.9875 29.6875 34.2406 30.3062 34.05 31.1375C33.8493 31.0066 33.6147 30.937 33.375 30.9375C32.6844 30.9375 32.125 31.4969 32.125 32.1875Z"
              fill="#A3BF91"
            />
          </svg>