   <svg
            width="22"
            height="37"
            viewBox="0 0 22 37"
            fill="none"
            xmlns="http://www.w3.org/2000/svg"
          >
            <path
              d="M11 32.0707L0.598877 26.0656V6.50269L11 12.5077V32.0707Z"
              fill="#AEB2F4"
            />
            <path
              d="M2.63244 10.1585L1.76147 9.65565V7.80725L2.63244 8.31005V10.1585ZM3.83331 10.8517L2.96244 10.3489V8.50061L3.83331 9.00341V10.8517ZM5.03419 11.5451L4.16323 11.0422V9.19389L5.03419 9.69677V11.5451ZM6.235 12.2384L5.36412 11.7356V9.88717L6.235 10.3901V12.2384ZM7.43588 12.9317L6.56491 12.4289V10.5805L7.43588 11.0833V12.9317ZM8.63668 13.625L7.7658 13.1222V11.2739L8.63668 11.7767V13.625ZM9.83764 14.3184L8.96668 13.8155V11.9672L9.83764 12.4701V14.3184ZM2.63244 12.5092L1.76147 12.0064V10.158L2.63244 10.6608V12.5092ZM3.83331 13.2025L2.96244 12.6997V10.8513L3.83331 11.3541V13.2025ZM5.03419 13.8958L4.16323 13.3929V11.5446L5.03419 12.0474V13.8958ZM6.235 14.5891L5.36412 14.0862V12.2379L6.235 12.7408V14.5891ZM7.43588 15.2824L6.56491 14.7796V12.9313L7.43588 13.4341V15.2824ZM8.63668 15.9757L7.7658 15.4729V13.6245L8.63668 14.1273V15.9757ZM9.83764 16.6691L8.96668 16.1662V14.3178L9.83764 14.8207V16.6691ZM2.63244 14.8598L1.76147 14.357V12.5087L2.63244 13.0115V14.8598ZM3.83331 15.5531L2.96244 15.0503V13.202L3.83331 13.7049V15.5531ZM5.03419 16.2465L4.16323 15.7437V13.8953L5.03419 14.3981V16.2465ZM6.235 16.9398L5.36412 16.4369V14.5886L6.235 15.0914V16.9398ZM7.43588 17.6331L6.56491 17.1303V15.282L7.43588 15.7848V17.6331ZM8.63668 18.3264L7.7658 17.8236V15.9753L8.63668 16.4781V18.3264ZM9.83764 19.0197L8.96668 18.5169V16.6685L9.83764 17.1714V19.0197ZM2.63244 17.2105L1.76147 16.7077V14.8593L2.63244 15.3621V17.2105ZM3.83331 17.9039L2.96244 17.401V15.5527L3.83331 16.0555V17.9039ZM5.03419 18.5972L4.16323 18.0943V16.246L5.03419 16.7489V18.5972ZM6.235 19.2905L5.36412 18.7877V16.9393L6.235 17.4421V19.2905ZM7.43588 19.9838L6.56491 19.481V17.6326L7.43588 18.1354V19.9838ZM8.63668 20.6771L7.7658 20.1743V18.326L8.63668 18.8288V20.6771ZM9.83764 21.3705L8.96668 20.8676V19.0193L9.83764 19.5221V21.3705ZM2.63244 19.5613L1.76147 19.0584V17.2101L2.63244 17.7129V19.5613ZM3.83331 20.2546L2.96244 19.7517V17.9033L3.83331 18.4062V20.2546ZM5.03419 20.9479L4.16323 20.445V18.5967L5.03419 19.0995V20.9479ZM6.235 21.6412L5.36412 21.1383V19.2901L6.235 19.7929V21.6412ZM7.43588 22.3345L6.56491 21.8317V19.9833L7.43588 20.4861V22.3345ZM8.63668 23.0278L7.7658 22.525V20.6766L8.63668 21.1795V23.0278ZM9.83764 23.7212L8.96668 23.2183V21.3699L9.83764 21.8728V23.7212ZM2.63244 21.9119L1.76147 21.4091V19.5608L2.63244 20.0636V21.9119ZM3.83331 22.6053L2.96244 22.1024V20.2541L3.83331 20.7569V22.6053ZM5.03419 23.2986L4.16323 22.7957V20.9473L5.03419 21.4502V23.2986ZM6.235 23.9919L5.36412 23.489V21.6407L6.235 22.1435V23.9919ZM7.43588 24.6852L6.56491 24.1824V22.3341L7.43588 22.8369V24.6852ZM8.63668 25.3785L7.7658 24.8757V23.0273L8.63668 23.5302V25.3785ZM9.83764 26.0718L8.96668 25.569V23.7206L9.83764 24.2235V26.0718ZM2.63244 24.2626L1.76147 23.7598V21.9114L2.63244 22.4142V24.2626ZM3.83331 24.956L2.96244 24.4531V22.6048L3.83331 23.1076V24.956ZM5.03419 25.6493L4.16323 25.1464V23.2981L5.03419 23.8009V25.6493ZM6.235 26.3426L5.36412 25.8397V23.9914L6.235 24.4942V26.3426ZM7.43588 27.0359L6.56491 26.5331V24.6847L7.43588 25.1875V27.0359ZM8.63668 27.7293L7.7658 27.2264V25.378L8.63668 25.8809V27.7293ZM9.83764 28.4225L8.96668 27.9197V26.0713L9.83764 26.5742V28.4225ZM2.63244 26.6133L1.76147 26.1105V24.2621L2.63244 24.7649V26.6133ZM3.83331 27.3067L2.96244 26.8038V24.9554L3.83331 25.4583V27.3067ZM5.03419 28L4.16323 27.4971V25.6487L5.03419 26.1516V28ZM6.235 28.6933L5.36412 28.1905V26.3421L6.235 26.8449V28.6933ZM7.43588 29.3865L6.56491 28.8837V27.0354L7.43588 27.5382V29.3865ZM8.63668 30.08L7.7658 29.5771V27.7287L8.63668 28.2316V30.08ZM9.83764 30.7733L8.96668 30.2704V28.422L9.83764 28.9249V30.7733Z"
              fill="#5E54FF"
            />
            <path
              d="M1.24936 26.4411L0.933838 26.2589V6.69604L1.24936 6.8782V26.4411ZM10.3494 31.6949L10.6649 31.8772V12.3142L10.3494 12.1321V31.6949Z"
              fill="#032BC8"
            />
            <path
              d="M11 36.5L0.598877 30.4949V26.0656L11 32.0707V36.5Z"
              fill="#032BC8"
            />
            <path
              d="M3.39634 32.1101L1.8125 31.1956V28.4305L3.39634 29.345V32.1101Z"
              fill="#AEB2F4"
            />
            <path
              d="M3.2682 32.036L1.94092 31.2697V28.6954L3.2682 29.4617V32.036Z"
              fill="#5E54FF"
            />
            <path
              d="M2.68323 31.6984L2.52563 31.6072V28.8423L2.68323 28.9332V31.6984ZM9.78627 35.7992L8.20244 34.8848V32.1197L9.78627 33.0342V35.7992Z"
              fill="#AEB2F4"
            />
            <path
              d="M9.65809 35.7252L8.33081 34.9589V32.3846L9.65809 33.1509V35.7252Z"
              fill="#5E54FF"
            />
            <path
              d="M9.07313 35.3876L8.91553 35.2965V32.5315L9.07313 32.6225V35.3876Z"
              fill="#AEB2F4"
            />
            <path
              d="M21.4011 26.0656L11 32.0707V12.5077L21.4011 6.50269V26.0656Z"
              fill="#888ABF"
            />
            <path
              d="M13.0336 13.8155L12.1626 14.3184V12.4701L13.0336 11.9672V13.8155ZM14.2344 13.1222L13.3635 13.625V11.7767L14.2344 11.2739V13.1222ZM15.4353 12.4289L14.5644 12.9317V11.0833L15.4353 10.5805V12.4289ZM16.6362 11.7356L15.7652 12.2384V10.3901L16.6362 9.88717V11.7356ZM17.837 11.0422L16.9661 11.5451V9.69677L17.837 9.19389V11.0422ZM19.0379 10.3489L18.1669 10.8517V9.00341L19.0379 8.50061V10.3489ZM20.2388 9.65565L19.3678 10.1585V8.31005L20.2388 7.80725V9.65565ZM13.0336 16.1662L12.1626 16.6691V14.8207L13.0336 14.3178V16.1662ZM14.2344 15.4729L13.3635 15.9757V14.1273L14.2344 13.6245V15.4729ZM15.4353 14.7796L14.5644 15.2824V13.4341L15.4353 12.9313V14.7796ZM16.6362 14.0862L15.7652 14.5891V12.7408L16.6362 12.2379V14.0862ZM17.837 13.3929L16.9661 13.8958V12.0474L17.837 11.5446V13.3929ZM19.0379 12.6997L18.1669 13.2025V11.3541L19.0379 10.8513V12.6997ZM20.2388 12.0064L19.3678 12.5092V10.6608L20.2388 10.158V12.0064ZM13.0336 18.5169L12.1626 19.0197V17.1714L13.0336 16.6685V18.5169ZM14.2344 17.8236L13.3635 18.3264V16.4781L14.2344 15.9753V17.8236ZM15.4353 17.1303L14.5644 17.6331V15.7848L15.4353 15.282V17.1303ZM16.6362 16.4369L15.7652 16.9398V15.0914L16.6362 14.5886V16.4369ZM17.837 15.7437L16.9661 16.2465V14.3981L17.837 13.8953V15.7437ZM19.0379 15.0503L18.1669 15.5531V13.7049L19.0379 13.202V15.0503ZM20.2388 14.357L19.3678 14.8598V13.0115L20.2388 12.5087V14.357ZM13.0336 20.8676L12.1626 21.3705V19.5221L13.0336 19.0193V20.8676ZM14.2344 20.1743L13.3635 20.6771V18.8288L14.2344 18.326V20.1743ZM15.4353 19.481L14.5644 19.9838V18.1354L15.4353 17.6326V19.481ZM16.6362 18.7877L15.7652 19.2905V17.4421L16.6362 16.9393V18.7877ZM17.837 18.0943L16.9661 18.5972V16.7489L17.837 16.246V18.0943ZM19.0379 17.401L18.1669 17.9039V16.0555L19.0379 15.5527V17.401ZM20.2388 16.7077L19.3678 17.2105V15.3621L20.2388 14.8593V16.7077ZM13.0336 23.2183L12.1626 23.7212V21.8728L13.0336 21.3699V23.2183ZM14.2344 22.525L13.3635 23.0278V21.1795L14.2344 20.6766V22.525ZM15.4353 21.8317L14.5644 22.3345V20.4861L15.4353 19.9833V21.8317ZM16.6362 21.1383L15.7652 21.6412V19.7929L16.6362 19.2901V21.1383ZM17.837 20.445L16.9661 20.9479V19.0995L17.837 18.5967V20.445ZM19.0379 19.7517L18.1669 20.2546V18.4062L19.0379 17.9033V19.7517ZM20.2388 19.0584L19.3678 19.5613V17.7129L20.2388 17.2101V19.0584ZM13.0336 25.569L12.1626 26.0718V24.2235L13.0336 23.7206V25.569ZM14.2344 24.8757L13.3635 25.3785V23.5302L14.2344 23.0273V24.8757ZM15.4353 24.1824L14.5644 24.6852V22.8369L15.4353 22.3341V24.1824ZM16.6362 23.489L15.7652 23.9919V22.1435L16.6362 21.6407V23.489ZM17.837 22.7957L16.9661 23.2986V21.4502L17.837 20.9473V22.7957ZM19.0379 22.1024L18.1669 22.6053V20.7569L19.0379 20.2541V22.1024ZM20.2388 21.4091L19.3678 21.9119V20.0636L20.2388 19.5608V21.4091ZM13.0336 27.9197L12.1626 28.4225V26.5742L13.0336 26.0713V27.9197ZM14.2344 27.2264L13.3635 27.7293V25.8809L14.2344 25.378V27.2264ZM15.4353 26.5331L14.5644 27.0359V25.1875L15.4353 24.6847V26.5331ZM16.6362 25.8397L15.7652 26.3426V24.4942L16.6362 23.9914V25.8397ZM17.837 25.1464L16.9661 25.6493V23.8009L17.837 23.2981V25.1464ZM19.0379 24.4531L18.1669 24.956V23.1076L19.0379 22.6048V24.4531ZM20.2388 23.7598L19.3678 24.2626V22.4142L20.2388 21.9114V23.7598ZM13.0336 30.2704L12.1626 30.7733V28.9249L13.0336 28.422V30.2704ZM14.2344 29.5771L13.3635 30.08V28.2316L14.2344 27.7287V29.5771ZM15.4353 28.8837L14.5644 29.3865V27.5382L15.4353 27.0354V28.8837ZM16.6362 28.1905L15.7652 28.6933V26.8449L16.6362 26.3421V28.1905ZM17.837 27.4971L16.9661 28V26.1516L17.837 25.6487V27.4971ZM19.0379 26.8038L18.1669 27.3067V25.4583L19.0379 24.9554V26.8038ZM20.2388 26.1105L19.3678 26.6133V24.7649L20.2388 24.2621V26.1105Z"
              fill="#5E54FF"
            />
            <path
              d="M11.6505 31.6949L11.335 31.8772V12.3142L11.6505 12.1321V31.6949ZM20.7505 26.4411L21.066 26.2589V6.69604L20.7505 6.8782V26.4411Z"
              fill="#032BC8"
            />
            <path
              d="M21.4011 30.4949L11 36.5V32.0707L21.4011 26.0656V30.4949Z"
              fill="#032BC8"
            />
            <path
              d="M21.401 6.50512L10.9999 0.5L0.599121 6.50496L11.0002 12.5101L21.401 6.50512Z"
              fill="#D7DAFF"
            />
            <path
              d="M20.4163 6.50295L19.9732 6.76143L10.999 1.57887L2.02491 6.76143L1.58179 6.50295L10.999 1.06799L20.4163 6.50295Z"
              fill="#AEB2F4"
            />
          </svg>