<svg width="21" height="22" viewBox="0 0 21 22" fill="none" xmlns="http://www.w3.org/2000/svg">
<path d="M13.8049 14.0256C13.1578 14.5998 12.3497 15.3144 10.8845 15.3144H10.0083C8.94798 15.3144 7.98359 14.929 7.2933 14.2304C6.619 13.5478 6.24781 12.6136 6.24781 11.5995V10.4007C6.24781 9.38655 6.619 8.45235 7.2933 7.76976C7.98359 7.07118 8.94798 6.68637 10.0083 6.68637H10.8845C12.3515 6.68637 13.1578 7.40034 13.8049 7.97459C14.4768 8.56661 15.0564 9.08403 16.6021 9.08403C16.8379 9.08397 17.0732 9.06516 17.306 9.02779L17.3007 9.01417C17.2081 8.78425 17.0995 8.5611 16.9757 8.34638L15.9426 6.55672C15.4768 5.74994 14.8067 5.08 13.9999 4.61424C13.1931 4.14847 12.2778 3.90328 11.3462 3.90332H9.27951C8.34788 3.90328 7.43266 4.14847 6.62583 4.61424C5.819 5.08 5.14898 5.74994 4.68311 6.55672L3.65005 8.34638C3.18435 9.15324 2.93918 10.0685 2.93918 11.0001C2.93918 11.9317 3.18435 12.8469 3.65005 13.6538L4.68311 15.4434C5.14898 16.2502 5.819 16.9201 6.62583 17.3859C7.43266 17.8517 8.34788 18.0969 9.27951 18.0968H11.3462C12.2778 18.0969 13.1931 17.8517 13.9999 17.3859C14.8067 16.9201 15.4768 16.2502 15.9426 15.4434L16.9757 13.6567C17.0995 13.442 17.2081 13.2189 17.3007 12.9889L17.306 12.9759C17.0734 12.9373 16.838 12.9175 16.6021 12.9167C15.0564 12.9167 14.4768 13.4312 13.8049 14.0262" fill="#006BFF"/>
<path d="M10.8844 7.77246H10.0083C8.39443 7.77246 7.33414 8.92511 7.33414 10.4004V11.5992C7.33414 13.0745 8.39443 14.2272 10.0083 14.2272H10.8844C13.2359 14.2272 13.0512 11.8295 16.6021 11.8295C16.9385 11.8291 17.2743 11.8601 17.605 11.9219C17.7127 11.3119 17.7127 10.6877 17.605 10.0778C17.2742 10.1393 16.9385 10.1702 16.6021 10.1701C13.05 10.1701 13.2359 7.77246 10.8844 7.77246Z" fill="#006BFF"/>
<path d="M19.6451 12.7982C19.0404 12.3553 18.343 12.0555 17.6056 11.9214C17.6056 11.9279 17.6056 11.9332 17.6056 11.9391C17.5421 12.2926 17.4429 12.6387 17.3096 12.9722C17.9187 13.0665 18.4967 13.3046 18.9956 13.6666C18.9956 13.6714 18.9927 13.6773 18.9909 13.6826C18.3487 15.7619 16.9821 17.5418 15.1392 18.6992C13.2963 19.8565 11.0994 20.3144 8.94761 19.9897C6.79581 19.665 4.83185 18.5792 3.41251 16.9296C1.99317 15.28 1.2126 13.1761 1.2126 10.9999C1.2126 8.82376 1.99317 6.71978 3.41251 5.0702C4.83185 3.42061 6.79581 2.33485 8.94761 2.01014C11.0994 1.68544 13.2963 2.14334 15.1392 3.30066C16.9821 4.45798 18.3487 6.23795 18.9909 8.31721C18.9909 8.32254 18.9938 8.32846 18.9956 8.33319C18.4968 8.69529 17.9188 8.93316 17.3096 9.02703C17.4428 9.36095 17.5419 9.70745 17.6056 10.0613C17.6052 10.0668 17.6052 10.0723 17.6056 10.0779C18.343 9.94398 19.0403 9.64439 19.6451 9.20168C20.2264 8.77128 20.1139 8.28524 20.0257 7.99752C19.3069 5.66624 17.7757 3.67018 15.7101 2.37205C13.6446 1.07392 11.1819 0.55987 8.7696 0.923314C6.35725 1.28676 4.15533 2.50357 2.56397 4.35265C0.972611 6.20172 0.0974121 8.56034 0.0974121 10.9999C0.0974121 13.4395 0.972611 15.7981 2.56397 17.6472C4.15533 19.4963 6.35725 20.7131 8.7696 21.0765C11.1819 21.44 13.6446 20.9259 15.7101 19.6278C17.7757 18.3297 19.3069 16.3336 20.0257 14.0023C20.1139 13.7146 20.2264 13.2285 19.6451 12.7982Z" fill="#006BFF"/>
<path d="M17.306 9.02703C17.0734 9.06568 16.838 9.08548 16.6021 9.08623C15.0564 9.08623 14.4768 8.57177 13.8055 7.9768C13.1578 7.40255 12.3515 6.68799 10.8845 6.68799H10.0083C8.94741 6.68799 7.98362 7.07339 7.29333 7.77196C6.61903 8.45456 6.24783 9.38875 6.24783 10.4029V11.6017C6.24783 12.6158 6.61903 13.55 7.29333 14.2326C7.98362 14.9312 8.94741 15.316 10.0083 15.316H10.8845C12.3515 15.316 13.1578 14.602 13.8055 14.0278C14.4768 13.4358 15.0564 12.9183 16.6021 12.9183C16.8379 12.9184 17.0733 12.9372 17.306 12.9746C17.4397 12.6412 17.5389 12.2951 17.6021 11.9415C17.6024 11.9356 17.6024 11.9297 17.6021 11.9238C17.2713 11.8624 16.9356 11.8317 16.5992 11.832C13.0471 11.832 13.233 14.2302 10.8815 14.2302H10.0053C8.39151 14.2302 7.33122 13.077 7.33122 11.6017V10.4005C7.33122 8.92521 8.39151 7.77256 10.0053 7.77256H10.8815C13.233 7.77256 13.0483 10.1696 16.5992 10.1696C16.9356 10.1702 17.2713 10.1395 17.6021 10.0779C17.6021 10.0725 17.6021 10.0672 17.6021 10.0613C17.5384 9.70745 17.4392 9.36095 17.306 9.02703Z" fill="#0AE8F0"/>
<path d="M17.306 9.02703C17.0734 9.06568 16.838 9.08548 16.6021 9.08623C15.0564 9.08623 14.4768 8.57177 13.8055 7.9768C13.1578 7.40255 12.3515 6.68799 10.8845 6.68799H10.0083C8.94741 6.68799 7.98362 7.07339 7.29333 7.77196C6.61903 8.45456 6.24783 9.38875 6.24783 10.4029V11.6017C6.24783 12.6158 6.61903 13.55 7.29333 14.2326C7.98362 14.9312 8.94741 15.316 10.0083 15.316H10.8845C12.3515 15.316 13.1578 14.602 13.8055 14.0278C14.4768 13.4358 15.0564 12.9183 16.6021 12.9183C16.8379 12.9184 17.0733 12.9372 17.306 12.9746C17.4397 12.6412 17.5389 12.2951 17.6021 11.9415C17.6024 11.9356 17.6024 11.9297 17.6021 11.9238C17.2713 11.8624 16.9356 11.8317 16.5992 11.832C13.0471 11.832 13.233 14.2302 10.8815 14.2302H10.0053C8.39151 14.2302 7.33122 13.077 7.33122 11.6017V10.4005C7.33122 8.92521 8.39151 7.77256 10.0053 7.77256H10.8815C13.233 7.77256 13.0483 10.1696 16.5992 10.1696C16.9356 10.1702 17.2713 10.1395 17.6021 10.0779C17.6021 10.0725 17.6021 10.0672 17.6021 10.0613C17.5384 9.70745 17.4392 9.36095 17.306 9.02703Z" fill="#0AE8F0"/>
</svg>
