<svg width="17" height="17" viewBox="0 0 17 17" fill="none" xmlns="http://www.w3.org/2000/svg">
<path d="M8.1955 4.60742L9.18589 3.61704C10.301 2.50189 11.761 2.03934 13.306 1.96375C13.907 1.93435 14.2075 1.91965 14.4484 2.16061C14.6894 2.40156 14.6747 2.70204 14.6453 3.30302C14.5697 4.84809 14.1072 6.30804 12.992 7.42316L12.0016 8.41356C11.186 9.22916 10.9542 9.46109 11.1254 10.3458C11.2944 11.0216 11.4579 11.676 10.9665 12.1674C10.3704 12.7634 9.8267 12.7634 9.23063 12.1674L4.44168 7.37842C3.84562 6.78234 3.8456 6.23862 4.44168 5.64255C4.93307 5.15115 5.58749 5.31472 6.26328 5.48368C7.14796 5.65491 7.3799 5.42302 8.1955 4.60742Z" stroke="#1E1E1E" stroke-linejoin="round"/>
<path d="M11.6586 4.94775H11.6646" stroke="#1E1E1E" stroke-width="1.33333" stroke-linecap="round" stroke-linejoin="round"/>
<path d="M1.99463 14.6146L5.32796 11.2812" stroke="#1E1E1E" stroke-linecap="round"/>
<path d="M5.99463 14.6146L7.32796 13.2812" stroke="#1E1E1E" stroke-linecap="round"/>
<path d="M1.99463 10.6146L3.32796 9.28125" stroke="#1E1E1E" stroke-linecap="round"/>
</svg>
