<svg width="17" height="16" viewBox="0 0 17 16" fill="none" xmlns="http://www.w3.org/2000/svg">
<path d="M11.6615 1.3335V3.3335M4.99487 1.3335V3.3335" stroke="#5A687C" stroke-width="0.8" stroke-linecap="round" stroke-linejoin="round"/>
<path d="M8.99479 2.3335H7.66146C5.1473 2.3335 3.89022 2.3335 3.10917 3.11454C2.32812 3.8956 2.32812 5.15267 2.32812 7.66683V9.3335C2.32812 11.8476 2.32812 13.1048 3.10917 13.8858C3.89022 14.6668 5.1473 14.6668 7.66146 14.6668H8.99479C11.5089 14.6668 12.7661 14.6668 13.5471 13.8858C14.3281 13.1048 14.3281 11.8476 14.3281 9.3335V7.66683C14.3281 5.15267 14.3281 3.8956 13.5471 3.11454C12.7661 2.3335 11.5089 2.3335 8.99479 2.3335Z" stroke="#5A687C" stroke-width="0.8" stroke-linecap="round" stroke-linejoin="round"/>
<path d="M2.66138 5.6665H13.9947" stroke="#5A687C" stroke-width="0.8" stroke-linecap="round" stroke-linejoin="round"/>
<path d="M6.32812 10.3335C6.32812 10.3335 7.32812 10.6668 7.66146 11.6668C7.66146 11.6668 9.11246 9.00016 10.9948 8.3335" stroke="#5A687C" stroke-width="0.8" stroke-linecap="round" stroke-linejoin="round"/>
</svg>
