<svg width="17" height="17" viewBox="0 0 17 17" fill="none" xmlns="http://www.w3.org/2000/svg">
<path d="M10.328 5.61475C10.328 6.71931 9.4326 7.61475 8.328 7.61475C7.2234 7.61475 6.328 6.71931 6.328 5.61475C6.328 4.51018 7.2234 3.61475 8.328 3.61475C9.4326 3.61475 10.328 4.51018 10.328 5.61475Z" stroke="#5A687C" stroke-width="0.8" stroke-linecap="round" stroke-linejoin="round"/>
<path d="M10.9946 2.94775C12.0992 2.94775 12.9946 3.84319 12.9946 4.94775C12.9946 5.76315 12.5066 6.46457 11.8068 6.77595" stroke="#5A687C" stroke-width="0.8" stroke-linecap="round" stroke-linejoin="round"/>
<path d="M9.47088 9.61475H7.18515C5.60719 9.61475 4.328 10.8939 4.328 12.4719C4.328 13.1031 4.83968 13.6147 5.47086 13.6147H11.1851C11.8163 13.6147 12.328 13.1031 12.328 12.4719C12.328 10.8939 11.0488 9.61475 9.47088 9.61475Z" stroke="#5A687C" stroke-width="0.8" stroke-linecap="round" stroke-linejoin="round"/>
<path d="M12.1376 8.94775C13.7155 8.94775 14.9947 10.227 14.9947 11.8049C14.9947 12.4361 14.483 12.9478 13.8518 12.9478" stroke="#5A687C" stroke-width="0.8" stroke-linecap="round" stroke-linejoin="round"/>
<path d="M5.66138 2.94775C4.55681 2.94775 3.66138 3.84319 3.66138 4.94775C3.66138 5.76315 4.14933 6.46457 4.84916 6.77595" stroke="#5A687C" stroke-width="0.8" stroke-linecap="round" stroke-linejoin="round"/>
<path d="M2.80424 12.9478C2.17305 12.9478 1.66138 12.4361 1.66138 11.8049C1.66138 10.227 2.94056 8.94775 4.51852 8.94775" stroke="#5A687C" stroke-width="0.8" stroke-linecap="round" stroke-linejoin="round"/>
</svg>
