<svg width="17" height="17" viewBox="0 0 17 17" fill="none" xmlns="http://www.w3.org/2000/svg">
<path d="M9.77511 14.2081C12.5638 14.0228 14.7851 11.7699 14.9679 8.94169C15.0036 8.38822 15.0036 7.81502 14.9679 7.26155C14.7851 4.43334 12.5638 2.18051 9.77511 1.99513C8.82371 1.93189 7.83044 1.93203 6.88098 1.99513C4.0923 2.18051 1.87098 4.43334 1.6882 7.26155C1.65244 7.81502 1.65244 8.38822 1.6882 8.94169C1.75478 9.97175 2.21033 10.9255 2.74665 11.7308C3.05805 12.2946 2.85254 12.9983 2.52818 13.613C2.29432 14.0562 2.17738 14.2778 2.27127 14.4378C2.36516 14.5979 2.57488 14.603 2.99433 14.6132C3.82382 14.6334 4.38316 14.3982 4.82716 14.0708C5.07898 13.8852 5.20489 13.7923 5.29167 13.7816C5.37844 13.771 5.54922 13.8413 5.89072 13.982C6.19764 14.1084 6.55402 14.1864 6.88098 14.2081C7.83044 14.2712 8.82371 14.2714 9.77511 14.2081Z" stroke="#5A687C" stroke-width="0.8" stroke-linejoin="round"/>
<path d="M8.32491 8.28125H8.33091M10.9886 8.28125H10.9946M5.66125 8.28125H5.66723" stroke="#5A687C" stroke-width="1.06667" stroke-linecap="round" stroke-linejoin="round"/>
</svg>
