 <svg width="15" height="16" viewBox="0 0 15 16" fill="none" xmlns="http://www.w3.org/2000/svg">
<path d="M5.375 8.53125L6.96875 10.125L9.625 6.40625M13.875 8C13.875 8.83718 13.7101 9.66616 13.3897 10.4396C13.0694 11.2131 12.5998 11.9158 12.0078 12.5078C11.4158 13.0998 10.7131 13.5694 9.93961 13.8897C9.16616 14.2101 8.33718 14.375 7.5 14.375C6.66282 14.375 5.83384 14.2101 5.06039 13.8897C4.28694 13.5694 3.58417 13.0998 2.99219 12.5078C2.40022 11.9158 1.93064 11.2131 1.61027 10.4396C1.28989 9.66616 1.125 8.83718 1.125 8C1.125 6.30924 1.79665 4.68774 2.99219 3.49219C4.18774 2.29665 5.80924 1.625 7.5 1.625C9.19075 1.625 10.8123 2.29665 12.0078 3.49219C13.2033 4.68774 13.875 6.30924 13.875 8Z" stroke="#5E54FF" stroke-width="1.5" stroke-linecap="round" stroke-linejoin="round"/>
</svg>