<svg width="20" height="18" viewBox="0 0 20 18" fill="none" xmlns="http://www.w3.org/2000/svg">
<g clip-path="url(#clip0_17333_11582)">
<path d="M18.8557 0.880859H1.14444C0.517037 0.880859 0.000946045 1.40685 0.000946045 2.04629V16.7154C0.000946045 17.3549 0.517037 17.8809 1.14444 17.8809H18.8557C19.4831 17.8809 19.9992 17.3549 19.9992 16.7154V2.04629C19.9992 1.40685 19.4831 0.880859 18.8557 0.880859ZM17.773 2.00101C18.1733 2.00101 18.5026 2.33657 18.5026 2.74459C18.5026 3.15261 18.1733 3.48818 17.773 3.48818C17.3727 3.48818 17.0434 3.15261 17.0434 2.74459C17.0434 2.33657 17.3727 2.00101 17.773 2.00101ZM15.1703 2.00101C15.5707 2.00101 15.8999 2.33657 15.8999 2.74459C15.8999 3.15261 15.5707 3.48818 15.1703 3.48818C14.77 3.48818 14.4407 3.15261 14.4407 2.74459C14.4407 2.33657 14.77 2.00101 15.1703 2.00101ZM12.5677 2.00101C12.968 2.00101 13.2972 2.33657 13.2972 2.74459C13.2972 3.15261 12.968 3.48818 12.5677 3.48818C12.1673 3.48818 11.8381 3.15261 11.8381 2.74459C11.8381 2.33657 12.1673 2.00101 12.5677 2.00101ZM18.5306 16.3722H1.46012V4.49154H18.5306V16.3722Z" fill="#394C60"/>
<path d="M6.78239 15.1092C6.89968 14.9107 7.07738 14.7568 7.28844 14.6707C7.4995 14.5847 7.73237 14.5713 7.9516 14.6325C8.05208 14.6681 8.15855 14.6827 8.26467 14.6754C8.3708 14.6681 8.4744 14.6392 8.56931 14.5902C8.66423 14.5413 8.74851 14.4734 8.81715 14.3906C8.88578 14.3078 8.93736 14.2118 8.96881 14.1082C9.04511 13.8993 9.03901 13.6684 8.9518 13.464C8.8646 13.2595 8.70307 13.0975 8.50113 13.0119C8.30268 12.9197 8.1399 12.7629 8.03832 12.5662C7.93674 12.3695 7.90213 12.144 7.93991 11.9251C7.97499 11.6967 8.0876 11.4882 8.25811 11.3357C8.42861 11.1833 8.6462 11.0967 8.87294 11.091C9.0953 11.0862 9.30703 10.9931 9.46298 10.8314C9.61894 10.6698 9.70677 10.4525 9.70776 10.2258C9.70671 9.99671 9.61694 9.77728 9.45798 9.61527C9.29902 9.45326 9.08372 9.36177 8.85891 9.3607H8.84488C8.61717 9.35384 8.39845 9.2686 8.22435 9.11886C8.05025 8.96912 7.93104 8.7637 7.88612 8.53608C7.86064 8.39827 7.86064 8.25682 7.88612 8.11901C7.90998 7.96675 7.96909 7.82247 8.05855 7.69814C8.14802 7.5738 8.26526 7.47298 8.40058 7.40402C8.59338 7.29768 8.73859 7.11976 8.80608 6.90719C8.87358 6.69462 8.85816 6.46372 8.76303 6.26242C8.69094 6.04953 8.53889 5.87449 8.34029 5.77573C8.14168 5.67698 7.91274 5.66259 7.70373 5.73572C7.49235 5.82196 7.25777 5.82872 7.04195 5.75478C6.85645 5.66971 6.69543 5.53761 6.57427 5.37107C6.48254 5.24642 6.41764 5.10346 6.38379 4.95151C6.34994 4.79957 6.34792 4.64206 6.37784 4.48926H2.48202C4.28962 5.47832 6.0107 7.46599 6.0528 10.1043C6.09956 12.9642 4.61466 15.2736 2.43057 16.37H6.83149C6.68504 16.1962 6.60049 15.9772 6.59158 15.7483C6.58266 15.5194 6.6499 15.2942 6.78239 15.1092Z" fill="#3C9BD6"/>
<path d="M12.2847 5.63562C12.4605 5.78359 12.5811 5.98866 12.6262 6.21646C12.6713 6.44425 12.6383 6.68094 12.5326 6.88685C12.4458 7.1014 12.2926 7.28113 12.0963 7.39861C11.8999 7.51609 11.6713 7.56486 11.4452 7.53748C11.3399 7.51703 11.2317 7.51846 11.127 7.54171C11.0223 7.56495 10.9233 7.60952 10.836 7.67274C10.7486 7.73596 10.6747 7.81652 10.6186 7.90959C10.5626 8.00267 10.5256 8.10632 10.5098 8.21434C10.4647 8.4314 10.5034 8.65783 10.618 8.84651C10.7326 9.03518 10.9141 9.17156 11.1248 9.22724C11.335 9.28706 11.5197 9.41652 11.6497 9.59519C11.7797 9.77385 11.8476 9.99155 11.8427 10.2139C11.8396 10.4393 11.7608 10.6568 11.6196 10.8302C11.4784 11.0036 11.2831 11.1226 11.0664 11.1672C10.8692 11.2023 10.6904 11.307 10.5613 11.463C10.4323 11.6191 10.3614 11.8164 10.3609 12.0205C10.3619 12.2497 10.4517 12.4692 10.6108 12.6314C10.7698 12.7935 10.9853 12.885 11.2102 12.8861C11.2584 12.8861 11.3065 12.882 11.354 12.8737C11.58 12.8449 11.8088 12.895 12.0033 13.0157C12.1978 13.1365 12.3464 13.3208 12.425 13.5386C12.4701 13.6711 12.4907 13.8108 12.4858 13.9509C12.4861 14.1061 12.4499 14.2591 12.3804 14.3972C12.3108 14.5352 12.2098 14.6543 12.0859 14.7445C11.9094 14.8798 11.7912 15.0796 11.7563 15.3019C11.7214 15.5242 11.7725 15.7516 11.8989 15.9362C12.0142 16.1193 12.1757 16.2675 12.3665 16.3652H17.5719C15.9163 15.5287 14.3776 13.9557 14.0011 11.7178C13.4679 8.54562 14.9365 5.781 17.4035 4.48926H12.0976C11.9795 4.66864 11.9332 4.8872 11.9679 5.10028C12.0027 5.31335 12.116 5.50485 12.2847 5.63562Z" fill="#E74F38"/>
<path d="M13.7837 16.5391H13.6317C13.6812 16.5538 13.7341 16.5538 13.7837 16.5391Z" fill="#3C9BD6"/>
</g>
<defs>
<clipPath id="clip0_17333_11582">
<rect width="20" height="17" fill="white" transform="translate(6.10352e-05 0.880859)"/>
</clipPath>
</defs>
</svg>
