 <svg
                          width="20"
                          height="18"
                          viewBox="0 0 20 18"
                          fill="none"
                          xmlns="http://www.w3.org/2000/svg"
                        >
                          <path
                            d="M18.5805 6.0757C18.6031 5.97487 18.6152 5.87164 18.6152 5.76591V3.34037C18.6152 1.23979 14.033 0.106323 9.7216 0.106323C5.41019 0.106323 0.828003 1.23979 0.828003 3.34037C0.828003 3.43099 0.837095 3.51964 0.853757 3.60663C0.837985 3.64986 0.828003 3.69595 0.828003 3.74464V5.76591C0.828003 6.43789 1.29751 7.01071 2.07651 7.47933C2.05321 7.58115 2.04077 7.68398 2.04077 7.78715C2.04077 7.87777 2.04987 7.96642 2.06653 8.05344C2.05072 8.09668 2.04077 8.14277 2.04077 8.19145V10.2127C2.04077 10.3983 2.07725 10.5762 2.14542 10.7465C1.39945 11.2993 1.23227 11.8527 1.23227 12.234C1.23227 12.3246 1.24136 12.4133 1.25803 12.5003C1.24222 12.5435 1.23227 12.5895 1.23227 12.6383V14.6595C1.23227 16.7601 5.8145 17.8936 10.1259 17.8936C14.4373 17.8936 19.0195 16.7601 19.0195 14.6595V12.234C19.0195 12.0545 18.9837 11.8773 18.9141 11.7043C19.4908 11.2803 19.828 10.7821 19.828 10.2127V7.78715C19.828 7.34198 19.6049 6.69528 18.5805 6.0757ZM3.84659 1.72292C5.40982 1.20187 7.49634 0.914862 9.7216 0.914862C11.9469 0.914862 14.0333 1.20187 15.5966 1.72292C16.9805 2.18423 17.8067 2.78889 17.8067 3.34037C17.8067 3.89185 16.9805 4.49651 15.5966 4.95782C14.0333 5.47887 11.9469 5.76587 9.7216 5.76587C7.49634 5.76587 5.40979 5.47887 3.84659 4.95782C2.46267 4.49651 1.6365 3.89185 1.6365 3.34037C1.6365 2.78889 2.46271 2.18423 3.84659 1.72292ZM17.8067 4.75153V5.76591C17.8067 6.23308 17.2122 6.73807 16.1897 7.16208V5.60471C16.8413 5.36357 17.3941 5.07868 17.8067 4.75153ZM15.3812 5.86785V7.45172C14.8862 7.60542 14.3436 7.73668 13.7642 7.84411V6.23505C14.3339 6.13452 14.8775 6.01195 15.3812 5.86785ZM12.9557 6.36092V7.97566C12.4371 8.04832 11.896 8.10339 11.3387 8.13958V6.52179C11.8864 6.48613 12.4287 6.43236 12.9557 6.36092ZM10.5301 6.56124V8.17854C10.2631 8.187 9.99346 8.19142 9.72164 8.19142C9.44981 8.19142 9.1801 8.187 8.91313 8.17854V6.5612C9.45199 6.5787 9.99128 6.57871 10.5301 6.56124ZM8.1046 6.52179V8.13961C7.54725 8.10339 7.00616 8.04836 6.48755 7.9757V6.36096C7.01451 6.43236 7.55679 6.48613 8.1046 6.52179ZM5.67905 6.23509V7.84415C5.09963 7.73668 4.55698 7.60546 4.06205 7.45175V5.86785C4.56577 6.01195 5.10939 6.13456 5.67905 6.23509ZM1.6365 5.76591V4.75153C2.04909 5.07868 2.60191 5.36357 3.25351 5.60471V7.16208C2.23107 6.73807 1.6365 6.23308 1.6365 5.76591ZM2.84928 9.19827C3.26186 9.52542 3.81468 9.81031 4.46628 10.0514V11.6089C3.44384 11.1848 2.84928 10.6799 2.84928 10.2127V9.19827ZM3.65778 16.0557C2.63534 15.6317 2.04077 15.1267 2.04077 14.6595V13.6452C2.45336 13.9723 3.00617 14.2572 3.65778 14.4983V16.0557ZM6.08332 16.7378C5.5039 16.6303 4.96125 16.4991 4.46632 16.3454V14.7615C4.97004 14.9055 5.51366 15.0282 6.08332 15.1287V16.7378ZM8.50886 17.0332C7.95152 16.997 7.41043 16.9419 6.89182 16.8693V15.2546C7.41878 15.326 7.96106 15.3797 8.50886 15.4154V17.0332ZM10.9344 17.0722C10.6674 17.0806 10.3977 17.0851 10.1259 17.0851C9.85404 17.0851 9.58433 17.0806 9.31737 17.0722V15.4549C9.58715 15.4636 9.85701 15.468 10.1259 15.468C10.3947 15.468 10.6646 15.4636 10.9344 15.4549V17.0722ZM13.3599 16.8693C12.8413 16.942 12.3003 16.997 11.7429 17.0332V15.4154C12.2907 15.3798 12.833 15.326 13.3599 15.2546V16.8693ZM15.7855 16.3453C15.2905 16.4991 14.7479 16.6303 14.1685 16.7377V15.1287C14.7382 15.0282 15.2818 14.9055 15.7855 14.7615V16.3453ZM18.211 14.6595C18.211 15.1267 17.6164 15.6317 16.594 16.0557V14.4983C17.2456 14.2572 17.7985 13.9723 18.211 13.6452V14.6595ZM16.0009 13.8514C14.4376 14.3725 12.3512 14.6595 10.1259 14.6595C7.90064 14.6595 5.81409 14.3725 4.2509 13.8514C2.86698 13.3901 2.04081 12.7855 2.04081 12.234C2.04081 11.9176 2.31479 11.6282 2.60625 11.4098C3.96018 12.7404 7.53137 13.4468 10.9344 13.4468C13.6558 13.4468 16.4846 12.995 18.2013 12.1336C18.2073 12.1672 18.211 12.2006 18.211 12.234C18.211 12.7855 17.3848 13.3901 16.0009 13.8514ZM5.27482 11.8986V10.3146C5.77854 10.4587 6.32216 10.5813 6.89182 10.6818V12.291C6.3124 12.1835 5.76975 12.0523 5.27482 11.8986ZM7.70036 12.4225V10.8077C8.22732 10.8791 8.7696 10.9329 9.31737 10.9686V12.5864C8.76002 12.5502 8.21893 12.4951 7.70036 12.4225ZM10.1259 12.6254V11.008C10.3957 11.0167 10.6655 11.0212 10.9344 11.0212C11.2032 11.0212 11.4731 11.0167 11.7429 11.008V12.6254C11.4759 12.6338 11.2062 12.6382 10.9344 12.6382C10.6625 12.6382 10.3929 12.6338 10.1259 12.6254ZM12.5514 12.5864V10.9685C13.0992 10.9329 13.6415 10.8791 14.1684 10.8077V12.4225C13.6498 12.4951 13.1088 12.5502 12.5514 12.5864ZM14.977 12.291V10.6818C15.5467 10.5813 16.0903 10.4587 16.594 10.3146V11.8986C16.099 12.0523 15.5564 12.1835 14.977 12.291ZM19.0195 10.2127C19.0195 10.6799 18.4249 11.1849 17.4025 11.6089V10.0515C18.0541 9.81031 18.607 9.52546 19.0195 9.19831V10.2127ZM16.8094 9.4046C15.2462 9.92569 13.1597 10.2127 10.9344 10.2127C8.70914 10.2127 6.62259 9.92569 5.0594 9.4046C3.74677 8.96708 2.9373 8.4006 2.85725 7.87283C4.59319 8.61309 7.20336 8.99996 9.72164 8.99996C13.2656 8.99996 16.9918 8.23394 18.2064 6.79462C18.7327 7.12152 19.0195 7.46916 19.0195 7.78715C19.0195 8.33863 18.1933 8.94329 16.8094 9.4046Z"
                            fill="#5E54FF"
                          />
                        </svg>