<svg width="50" height="51" viewBox="0 0 50 51" fill="none" xmlns="http://www.w3.org/2000/svg">
<g clip-path="url(#clip0_20153_17156)">
<path d="M43.4943 20.2676C43.4943 20.2676 48.6388 20.7405 49.7477 27.0803C51.1027 34.8263 46.5609 36.7583 46.5609 36.7583C46.5609 36.7583 43.5451 29.9782 43.4943 29.2156C43.4434 28.453 43.4943 20.2676 43.4943 20.2676Z" fill="#404077"/>
<path d="M16.8352 48.8449C21.9476 47.9018 25.0845 41.6761 23.8418 34.9392C22.5991 28.2023 17.4473 23.5056 12.3349 24.4486L7.11816 25.084L11.1574 49.5501L16.8352 48.8449Z" fill="#C5C5FE"/>
<path d="M12.3237 49.5573C17.4364 48.6162 20.5757 42.3915 19.3355 35.6542C18.0954 28.9169 12.9453 24.2181 7.83259 25.1592C2.71987 26.1003 -0.41944 32.325 0.82074 39.0623C2.06092 45.7997 7.21096 50.4984 12.3237 49.5573Z" fill="#A3A3F5"/>
<path d="M45.2974 22.063L43.2694 25.9456L34.736 18.5738C36.4526 8.12555 28.597 5.39386 26.5399 4.86369C7.34378 4.25593 13.9009 34.0803 13.9009 34.0803L3.1121 30.0092C1.01404 10.9919 10.8707 -0.254843 27.0712 1.50917C35.6886 2.44667 40.2953 8.20205 42.7209 13.3842C44.8535 17.9456 45.2974 22.063 45.2974 22.063Z" fill="#52528C"/>
<path d="M45.2974 22.0626L43.2694 25.9452L34.736 18.5734C36.4526 8.12514 28.597 5.39345 26.5399 4.86328C28.7866 4.93332 31.3879 5.42147 34.3923 6.42255C34.3923 6.42255 38.8588 7.21996 42.7209 13.3838C44.8535 17.9452 45.2974 22.0626 45.2974 22.0626ZM0.264126 38.7658C1.33999 44.599 5.49721 48.9527 9.67684 48.1835C13.7777 47.4271 16.2099 41.9849 15.1108 36.0274C14.0126 30.0699 9.79786 25.8541 5.69807 26.6106C3.97964 26.9278 2.5541 28.0677 1.55863 29.7241C0.178674 32.0192 -0.374451 35.3055 0.264126 38.7658Z" fill="#404077"/>
<path d="M0.264129 38.7665C1.12437 43.4306 3.89322 47.0272 7.02296 48.0054C7.09065 47.996 7.15812 47.9852 7.22534 47.9729C11.0578 47.2651 13.3731 42.4027 12.3969 37.1122C11.4207 31.8206 7.52329 28.1041 3.69085 28.8108C2.91294 28.9542 2.1971 29.2694 1.55853 29.7249C0.178676 32.02 -0.374449 35.3063 0.264129 38.7665Z" fill="#52528C"/>
<path d="M41.3255 41.7544C46.2406 40.8477 49.2566 34.8621 48.0617 28.3852C46.8669 21.9082 41.9139 17.3927 36.9988 18.2994L31.9834 18.9103L35.8668 42.4323L41.3255 41.7544Z" fill="#A3A3F5"/>
<path d="M35.8527 42.4472C40.7681 41.5424 43.7863 35.5579 42.594 29.0806C41.4016 22.6032 36.4503 18.0858 31.5349 18.9906C26.6195 19.8954 23.6013 25.8798 24.7937 32.3572C25.986 38.8345 30.9373 43.352 35.8527 42.4472Z" fill="#C5C5FE"/>
<path d="M37.7484 32.5562C37.4431 38.8602 31.088 39.0134 29.9197 33.2168C29.5523 31.3989 29.7365 29.6759 30.1611 28.1662C32.7362 24.2871 38.0365 26.6144 37.7484 32.5562Z" fill="#52528C"/>
<path d="M34.914 22.4291C34.9464 22.788 33.0617 23.3936 32.2642 26.4442C31.4862 26.7114 30.7524 27.275 30.1608 28.1662C29.7362 29.6759 29.552 31.3989 29.9194 33.2168C30.1145 34.1845 30.4539 34.9862 30.886 35.6209C29.2211 37.2125 26.3407 35.1834 26.5401 29.0563C26.8321 20.0584 34.5907 18.8192 34.914 22.4291Z" fill="#D7D7FF"/>
<path d="M31.984 31.0499C32.1802 33.3365 31.6662 34.8764 30.886 35.621C30.4539 34.9863 30.1144 34.1846 29.9194 33.2169C29.5519 31.399 29.7362 29.676 30.1608 28.1663C30.7524 27.2751 31.4862 26.7115 32.2642 26.4443C31.9625 27.593 31.8159 29.0898 31.984 31.0499ZM15.6158 6.31928C15.6158 6.31928 11.5843 8.95937 9.75237 19.1426C7.92047 29.3257 1.93986 23.7762 6.57349 13.5391C11.2071 3.30204 15.6158 6.31928 15.6158 6.31928ZM4.85096 33.1512C4.85096 33.1512 10.4825 36.7344 8.40538 42.4322C6.32823 48.1301 1.02392 41.4852 1.67047 35.621C2.31702 29.7568 4.85096 33.1512 4.85096 33.1512Z" fill="#6767A3"/>
</g>
<defs>
<clipPath id="clip0_20153_17156">
<rect width="50" height="50" fill="white" transform="translate(0 0.5)"/>
</clipPath>
</defs>
</svg>
