<svg width="12" height="12" viewBox="0 0 12 12" fill="none" xmlns="http://www.w3.org/2000/svg">
  <path 
    d="M3.66133 5.33329H0.994667C0.461334 5.33329 -0.00533295 4.86663 -0.00533295 4.33329V1.66663C-0.00533295 1.13329 0.461334 0.666626 0.994667 0.666626H3.66133C4.19467 0.666626 4.66133 1.13329 4.66133 1.66663V4.33329C4.66133 4.86663 4.19467 5.33329 3.66133 5.33329ZM1.328 3.99996H3.328V1.99996H1.328V3.99996ZM3.66133 11.3333H0.994667C0.461334 11.3333 -0.00533295 10.8666 -0.00533295 10.3333V7.66663C-0.00533295 7.13329 0.461334 6.66663 0.994667 6.66663H3.66133C4.19467 6.66663 4.66133 7.13329 4.66133 7.66663V10.3333C4.66133 10.8666 4.19467 11.3333 3.66133 11.3333ZM1.328 9.99996H3.328V7.99996H1.328V9.99996ZM8.66133 10.6666C8.46133 10.6666 8.328 10.6 8.19467 10.4666L6.19467 8.46663C5.928 8.19996 5.928 7.79996 6.19467 7.53329C6.46133 7.26663 6.86133 7.26663 7.128 7.53329L8.66133 9.06663L10.1947 7.53329C10.4613 7.26663 10.8613 7.26663 11.128 7.53329C11.3947 7.79996 11.3947 8.19996 11.128 8.46663L9.128 10.4666C8.99467 10.6 8.86133 10.6666 8.66133 10.6666Z" 
    fill="#5A687C"
  />
  <path 
    d="M8.66133 10.6666C8.26133 10.6666 7.99467 10.3999 7.99467 9.99992V1.99992C7.99467 1.59992 8.26133 1.33325 8.66133 1.33325C9.06133 1.33325 9.328 1.59992 9.328 1.99992V9.99992C9.328 10.3999 9.06133 10.6666 8.66133 10.6666Z" 
    fill="#5A687C"
  />
</svg>
