<svg width="45" height="45" viewBox="0 0 45 45" fill="none" xmlns="http://www.w3.org/2000/svg">
<path d="M41.0449 6.67969H3.95508C1.77873 6.67969 0 8.4506 0 10.6348V34.3652C0 36.5502 1.77987 38.3203 3.95508 38.3203H41.0449C43.2213 38.3203 45 36.5494 45 34.3652V10.6348C45 8.45007 43.2204 6.67969 41.0449 6.67969ZM40.4376 9.31641L23.5216 26.2876C23.0062 26.8045 21.994 26.8049 21.4784 26.2876L4.5624 9.31641H40.4376ZM2.63672 33.8805V11.1195L13.9803 22.5L2.63672 33.8805ZM4.5624 35.6836L15.8418 24.3675L19.6109 28.149C21.1555 29.6986 23.8451 29.698 25.3891 28.149L29.1583 24.3676L40.4376 35.6836H4.5624ZM42.3633 33.8805L31.0197 22.5L42.3633 11.1195V33.8805Z" fill="#FF3BAE"/>
</svg>
