<svg width="16" height="16" viewBox="0 0 16 16" fill="none" xmlns="http://www.w3.org/2000/svg">
<path d="M10.9439 3.17829L12.1389 1.98262C12.388 1.73352 12.7258 1.59357 13.0781 1.59357C13.4304 1.59357 13.7683 1.73352 14.0174 1.98262C14.2665 2.23173 14.4064 2.56959 14.4064 2.92187C14.4064 3.27416 14.2665 3.61202 14.0174 3.86112L6.49558 11.3829C6.1211 11.7572 5.6593 12.0323 5.15188 12.1833L3.25 12.75L3.81667 10.8481C3.96774 10.3407 4.24282 9.87889 4.61708 9.50442L10.9439 3.17829ZM10.9439 3.17829L12.8125 5.04687M11.75 9.91667V13.2812C11.75 13.7039 11.5821 14.1093 11.2832 14.4082C10.9843 14.7071 10.5789 14.875 10.1562 14.875H2.71875C2.29606 14.875 1.89068 14.7071 1.5918 14.4082C1.29291 14.1093 1.125 13.7039 1.125 13.2812V5.84375C1.125 5.42106 1.29291 5.01568 1.5918 4.7168C1.89068 4.41791 2.29606 4.25 2.71875 4.25H6.08333" stroke="#E1E4EA" stroke-width="1.5" stroke-linecap="round" stroke-linejoin="round"/>
</svg>
