<svg width="50" height="37" viewBox="0 0 50 37" fill="none" xmlns="http://www.w3.org/2000/svg">
<path d="M49.9995 2.19531V32.6301C49.9975 33.783 49.5405 34.8885 48.7278 35.7062L29.3474 16.3258L29.043 15.8583L49.9995 2.19531Z" fill="#F6B445"/>
<path d="M48.728 35.7053C47.9103 36.518 46.8048 36.975 45.6519 36.977H4.3476C3.19472 36.975 2.08924 36.518 1.27148 35.7053L20.6519 16.3248L20.9237 15.9009L24.9998 18.4987L29.0433 15.8574L29.3476 16.3248L48.728 35.7053Z" fill="#F6A645"/>
<path d="M20.924 15.9022L20.6522 16.3261L1.27176 35.7066C0.459087 34.8888 0.00205546 33.7833 2.0239e-05 32.6304V4.36962C-0.00132765 3.931 0.064658 3.49477 0.195672 3.07617L1.08701 3.28263L20.924 15.9022Z" fill="#F6B445"/>
<path d="M49.9997 2.19536L29.0432 15.8584L24.9997 18.4997L20.9236 15.9019L1.08665 3.28235L0.195312 3.0758C0.761582 1.25858 2.44409 0.020975 4.34752 0.0214845H44.5649C48.9127 0.0214845 49.9997 2.19536 49.9997 2.19536Z" fill="#FED049"/>
</svg>
