<svg width="21" height="21" viewBox="0 0 21 21" fill="none" xmlns="http://www.w3.org/2000/svg">
<g clip-path="url(#clip0_16567_1898)">
<path d="M20.0974 10.8096C20.0974 5.28677 15.6202 0.80957 10.0974 0.80957C4.57461 0.80957 0.0974121 5.28677 0.0974121 10.8096C0.0974121 15.4992 3.32621 19.4344 7.68181 20.5152V13.8656H5.61981V10.8096H7.68181V9.49277C7.68181 6.08917 9.22221 4.51157 12.5638 4.51157C13.1974 4.51157 14.2906 4.63597 14.7378 4.75997V7.52997C14.5018 7.50517 14.0918 7.49277 13.5826 7.49277C11.943 7.49277 11.3094 8.11397 11.3094 9.72877V10.8096H14.5758L14.0146 13.8656H11.3094V20.7364C16.261 20.1384 20.0978 15.9224 20.0978 10.8096H20.0974Z" fill="#0866FF"/>
<path d="M14.0142 13.8657L14.5754 10.8097H11.309V9.72892C11.309 8.11412 11.9426 7.49292 13.5822 7.49292C14.0914 7.49292 14.5014 7.50532 14.7374 7.53012V4.76012C14.2902 4.63572 13.197 4.51172 12.5634 4.51172C9.22181 4.51172 7.68142 6.08932 7.68142 9.49292V10.8097H5.61942V13.8657H7.68142V20.5153C8.45502 20.7073 9.26422 20.8097 10.097 20.8097C10.507 20.8097 10.9114 20.7845 11.3086 20.7365V13.8657H14.0138H14.0142Z" fill="white"/>
</g>
<defs>
<clipPath id="clip0_16567_1898">
<rect width="20" height="20" fill="white" transform="translate(0.0974121 0.80957)"/>
</clipPath>
</defs>
</svg>
