<svg width="45" height="45" viewBox="0 0 45 45" fill="none" xmlns="http://www.w3.org/2000/svg">
<path d="M34.8926 2.46875H10.1074C4.53419 2.46875 0 7.00294 0 12.5762V22.2441C0 27.3708 3.83625 31.6181 8.78906 32.266V41.2133C8.78904 41.3864 8.82312 41.5578 8.88934 41.7178C8.95557 41.8777 9.05266 42.0231 9.17506 42.1455C9.29745 42.2679 9.44277 42.365 9.6027 42.4313C9.76263 42.4975 9.93404 42.5317 10.1072 42.5317C10.4502 42.5317 10.7874 42.3977 11.0396 42.1455L20.8336 32.3516H34.8926C40.4658 32.3516 45 27.8174 45 22.2441V12.5762C45 7.00294 40.4658 2.46875 34.8926 2.46875ZM42.3633 22.2441C42.3633 26.3635 39.0119 29.7148 34.8926 29.7148H20.2875C19.9378 29.7148 19.6025 29.8537 19.3554 30.1009L11.4258 38.0305V31.0332C11.4258 30.3051 10.8355 29.7148 10.1074 29.7148C5.98808 29.7148 2.63672 26.3635 2.63672 22.2441V12.5762C2.63672 8.45683 5.98808 5.10547 10.1074 5.10547H34.8926C39.0119 5.10547 42.3633 8.45683 42.3633 12.5762V22.2441Z" fill="#FF3BAE"/>
<path d="M16.0577 13.6992C16.585 13.6992 16.8839 13.1367 16.8839 12.4863C16.8839 11.9238 16.6377 11.3086 16.0577 11.3086H9.95825C9.36051 11.3086 8.76294 11.5898 8.76294 12.1523V23.3143C8.76294 23.8768 9.4484 24.158 10.134 24.158C10.8195 24.158 11.5051 23.8768 11.5051 23.3143V18.7791H14.1593C14.7394 18.7791 14.9855 18.2166 14.9855 17.742C14.9855 17.1795 14.6867 16.6697 14.1593 16.6697H11.5051V13.6991H16.0577V13.6992ZM23.3705 12.1172C23.1772 11.502 22.3862 11.2031 21.5775 11.2031C20.769 11.2031 19.978 11.502 19.7847 12.1172L16.5152 22.8397C16.4976 22.91 16.4801 22.9803 16.4801 23.033C16.4801 23.6834 17.482 24.158 18.2379 24.158C18.6774 24.158 19.0289 24.0174 19.1343 23.6483L19.732 21.451H23.4409L24.0385 23.6483C24.1441 24.0174 24.4956 24.158 24.9349 24.158C25.6909 24.158 26.6927 23.6834 26.6927 23.033C26.6927 22.9803 26.6752 22.91 26.6577 22.8397L23.3705 12.1172ZM20.2943 19.3416L21.5775 14.6308L22.8607 19.3416H20.2943ZM32.7569 11.3086C30.3311 11.3086 28.4504 12.416 28.4504 15.4569V20.1151C28.4504 22.7869 29.9094 23.9646 31.9132 24.2108V25.2303C31.9132 25.7928 32.3351 26.074 32.7569 26.074C33.1789 26.074 33.6007 25.7928 33.6007 25.2303V24.2108C35.6046 23.9647 37.0811 22.7869 37.0811 20.1151V15.4569C37.081 12.416 35.1827 11.3086 32.7569 11.3086ZM34.3389 20.1151C34.3389 20.9237 34.0578 21.4334 33.6007 21.6971V20.9237C33.6007 20.3436 33.1789 20.0975 32.7569 20.0975C32.3351 20.0975 31.9132 20.3436 31.9132 20.9237V21.6971C31.4385 21.4334 31.1925 20.9237 31.1925 20.1151V15.4569C31.1925 14.2616 31.7726 13.6992 32.7569 13.6992C33.7414 13.6992 34.3389 14.2617 34.3389 15.4569V20.1151Z" fill="#FF3BAE"/>
</svg>
