<svg width="50" height="51" viewBox="0 0 50 51" fill="none" xmlns="http://www.w3.org/2000/svg">
<path d="M44.8737 1.56836H32.132C29.4271 1.56836 27.2344 3.76113 27.2344 6.46602V12.8257C27.2344 15.5306 29.4271 17.7233 32.132 17.7233H38.5349L41.5999 21.2257C42.509 22.2645 44.22 21.6215 44.22 20.2411V17.7234H44.8737C47.5786 17.7234 49.7714 15.5307 49.7714 12.8258V6.46592C49.7714 3.76104 47.5786 1.56836 44.8737 1.56836Z" fill="#9DC6FB"/>
<path d="M34.4594 17.7234H32.1319C29.4273 17.7234 27.2344 15.5305 27.2344 12.8259V6.46592C27.2344 3.76133 29.4273 1.56836 32.1319 1.56836H34.4594C31.7548 1.56836 29.5618 3.76133 29.5618 6.46592V12.8259C29.5618 15.5305 31.7547 17.7234 34.4594 17.7234Z" fill="#80B4FB"/>
<path d="M6.24844 23.6992H22.5045C25.9554 23.6992 28.7529 26.4968 28.7529 29.9477V38.0614C28.7529 41.5123 25.9554 44.3099 22.5045 44.3099H14.3357L10.4254 48.7781C9.26553 50.1034 7.08252 49.2831 7.08252 47.522V44.3099H6.24844C2.79756 44.3099 0 41.5123 0 38.0614V29.9477C0 26.4967 2.79756 23.6992 6.24844 23.6992Z" fill="#E27A66"/>
<path d="M10.351 48.8593C9.17422 50.0681 7.08272 49.2461 7.08272 47.5224V44.31H6.24844C2.79775 44.31 0 41.5122 0 38.0616V29.9476C0 26.497 2.79775 23.6992 6.24834 23.6992H8.97627C5.5248 23.6992 2.72793 26.497 2.72793 29.9476V38.0616C2.72793 41.5122 5.5249 44.31 8.97627 44.31H9.81055V47.5225C9.81064 48.0718 10.0233 48.53 10.351 48.8593Z" fill="#DD636E"/>
<path d="M35.5385 27.627H45.9844C48.2019 27.627 49.9995 29.4246 49.9995 31.6421V36.8559C49.9995 39.0733 48.2019 40.871 45.9844 40.871H40.7353L38.2226 43.7423C37.4772 44.5939 36.0745 44.0668 36.0745 42.9351V40.8711H35.5386C33.3211 40.8711 31.5234 39.0734 31.5234 36.856V31.6422C31.5233 29.4246 33.321 27.627 35.5385 27.627Z" fill="#FFE07D"/>
<path d="M38.1749 43.7945C37.4187 44.5713 36.0747 44.0431 36.0747 42.9354V40.8712H35.5386C33.3213 40.8712 31.5234 39.0733 31.5234 36.8561V31.6421C31.5234 29.4248 33.3213 27.627 35.5386 27.627H37.2915C35.0736 27.627 33.2764 29.4247 33.2764 31.6421V36.8561C33.2764 39.0733 35.0736 40.8712 37.2915 40.8712H37.8276V42.9354C37.8277 43.2885 37.9644 43.5829 38.1749 43.7945Z" fill="#FFD064"/>
<path d="M33.3639 11.625H15.3429C11.5173 11.625 8.41602 14.7263 8.41602 18.5519V27.5466C8.41602 31.3722 11.5173 34.4734 15.3429 34.4734H24.3985L28.7334 39.4269C30.0191 40.8961 32.4392 39.9867 32.4392 38.0343V34.4734H33.3638C37.1894 34.4734 40.2906 31.3722 40.2906 27.5466V18.5519C40.2907 14.7263 37.1895 11.625 33.3639 11.625Z" fill="#F9F6F9"/>
<path d="M18.6346 34.4735H15.3428C11.5176 34.4735 8.41602 31.372 8.41602 27.5468V18.5518C8.41602 14.7266 11.5175 11.625 15.3428 11.625H18.6346C14.8094 11.625 11.7078 14.7266 11.7078 18.5518V27.5468C11.7078 31.3721 14.8094 34.4735 18.6346 34.4735Z" fill="#D0CEE7"/>
<path d="M15.0912 1.56836H5.01406C2.8748 1.56836 1.14062 3.30254 1.14062 5.4418V10.4715C1.14062 12.6107 2.8748 14.3449 5.01406 14.3449H10.0779L12.502 17.1148C13.221 17.9364 14.5742 17.4279 14.5742 16.3361V14.3449H15.0912C17.2305 14.3449 18.9646 12.6107 18.9646 10.4715V5.4418C18.9646 3.30254 17.2305 1.56836 15.0912 1.56836Z" fill="#B3E59F"/>
<path d="M6.85469 14.345H5.01397C2.8749 14.345 1.14062 12.6106 1.14062 10.4717V5.4417C1.14062 3.30264 2.875 1.56836 5.01397 1.56836H6.85469C4.71563 1.56836 2.98135 3.30273 2.98135 5.4417V10.4716C2.98125 12.6106 4.71563 14.345 6.85469 14.345Z" fill="#95D6A4"/>
<path d="M22.6427 19.0385C22.6401 19.0316 22.6374 19.0247 22.6346 19.0178C22.4885 18.6626 22.1438 18.4296 21.7615 18.4336C21.5712 18.4334 21.3853 18.4909 21.2284 18.5986C21.0715 18.7064 20.951 18.8592 20.8828 19.0369L17.7591 27.2384C17.6879 27.4254 17.6938 27.6331 17.7757 27.8157C17.8576 27.9982 18.0086 28.1408 18.1956 28.2121C18.3826 28.2832 18.5902 28.2772 18.7728 28.1954C18.9554 28.1135 19.098 27.9625 19.1693 27.7755L19.7622 26.2189H23.7396L24.3263 27.7734C24.3804 27.9169 24.477 28.0404 24.6031 28.1277C24.7292 28.2149 24.8789 28.2617 25.0322 28.2618C25.1543 28.2617 25.2745 28.2321 25.3826 28.1754C25.4907 28.1187 25.5834 28.0366 25.6528 27.9362C25.7222 27.8358 25.7662 27.72 25.7811 27.5989C25.7959 27.4777 25.7811 27.3548 25.738 27.2406L22.6427 19.0385ZM20.3369 24.7097L21.76 20.9734L23.17 24.7097H20.3369ZM16.9296 18.5422H13.5826C13.4835 18.5422 13.3854 18.5617 13.2939 18.5996C13.2023 18.6376 13.1191 18.6931 13.0491 18.7632C12.979 18.8333 12.9234 18.9164 12.8855 19.008C12.8476 19.0995 12.8281 19.1976 12.8281 19.2967V27.5546C12.8281 27.7547 12.9076 27.9467 13.0491 28.0881C13.1906 28.2296 13.3825 28.3091 13.5826 28.3091C13.7827 28.3091 13.9746 28.2296 14.1161 28.0881C14.2576 27.9467 14.3371 27.7547 14.3371 27.5546V24.102H16.6637C16.8638 24.102 17.0557 24.0225 17.1972 23.881C17.3387 23.7395 17.4182 23.5476 17.4182 23.3475C17.4182 23.1474 17.3387 22.9555 17.1972 22.814C17.0557 22.6725 16.8638 22.593 16.6637 22.593H14.3371V20.0513H16.9295C17.3463 20.0513 17.684 19.7135 17.684 19.2968C17.684 18.8801 17.3464 18.5422 16.9296 18.5422ZM35.6562 27.018L34.9235 26.2853C35.5026 25.4791 35.8451 24.4919 35.8451 23.4257C35.8451 20.7162 33.6407 18.5118 30.9312 18.5118C28.2216 18.5118 26.0172 20.7162 26.0172 23.4257C26.0172 26.1352 28.2216 28.3396 30.9312 28.3396C31.9898 28.3408 33.0202 27.9982 33.8675 27.3634L34.5891 28.085C34.6591 28.1552 34.7422 28.2108 34.8338 28.2488C34.9254 28.2867 35.0235 28.3061 35.1227 28.306C35.2719 28.306 35.4177 28.2618 35.5418 28.1788C35.6659 28.0959 35.7626 27.9781 35.8197 27.8402C35.8768 27.7024 35.8917 27.5507 35.8626 27.4043C35.8335 27.258 35.7617 27.1235 35.6562 27.018ZM30.9311 26.8306C29.0536 26.8306 27.5262 25.3032 27.5262 23.4257C27.5262 21.5483 29.0536 20.0209 30.9311 20.0209C32.8085 20.0209 34.3359 21.5483 34.3359 23.4257C34.3367 24.0515 34.1639 24.6652 33.8367 25.1986L32.9948 24.3567C32.9248 24.2866 32.8416 24.231 32.75 24.1931C32.6585 24.1551 32.5604 24.1356 32.4613 24.1356C32.3622 24.1356 32.2641 24.1551 32.1725 24.1931C32.081 24.231 31.9978 24.2866 31.9277 24.3567C31.8577 24.4267 31.8021 24.5099 31.7641 24.6015C31.7262 24.693 31.7067 24.7911 31.7067 24.8902C31.7067 24.9893 31.7262 25.0874 31.7641 25.179C31.802 25.2705 31.8576 25.3537 31.9276 25.4238L32.7839 26.28C32.233 26.6399 31.5891 26.8312 30.9311 26.8306Z" fill="#5E54AC"/>
</svg>
