<svg width="44" height="32" viewBox="0 0 44 32" fill="none" xmlns="http://www.w3.org/2000/svg">
<g clip-path="url(#clip0_16898_366)">
<path d="M22 26C27.5228 26 32 21.5228 32 16C32 10.4772 27.5228 6 22 6C16.4772 6 12 10.4772 12 16C12 21.5228 16.4772 26 22 26Z" fill="#F0F0F0"/>
<path d="M14.0672 9.9118C13.2817 10.9338 12.6894 12.1117 12.3445 13.3914H17.5467L14.0672 9.9118Z" fill="#0052B4"/>
<path d="M31.6555 13.3914C31.3106 12.1118 30.7183 10.9338 29.9328 9.91183L26.4533 13.3914H31.6555Z" fill="#0052B4"/>
<path d="M12.3445 18.6087C12.6894 19.8884 13.2817 21.0663 14.0672 22.0882L17.5466 18.6087H12.3445Z" fill="#0052B4"/>
<path d="M28.0882 8.06723C27.0662 7.28172 25.8883 6.68942 24.6086 6.3445V11.5467L28.0882 8.06723Z" fill="#0052B4"/>
<path d="M15.9118 23.9328C16.9338 24.7183 18.1117 25.3106 19.3913 25.6555V20.4533L15.9118 23.9328Z" fill="#0052B4"/>
<path d="M19.3913 6.3445C18.1117 6.68942 16.9338 7.28172 15.9118 8.06719L19.3913 11.5467V6.3445Z" fill="#0052B4"/>
<path d="M24.6087 25.6555C25.8883 25.3106 27.0662 24.7183 28.0882 23.9328L24.6087 20.4533V25.6555Z" fill="#0052B4"/>
<path d="M26.4533 18.6087L29.9328 22.0883C30.7183 21.0663 31.3106 19.8884 31.6555 18.6087H26.4533Z" fill="#0052B4"/>
<path d="M31.9154 14.6957H23.3044H23.3044V6.08465C22.8774 6.02906 22.4421 6 22 6C21.5579 6 21.1226 6.02906 20.6957 6.08465V14.6956V14.6956H12.0846C12.0291 15.1226 12 15.5579 12 16C12 16.4421 12.0291 16.8774 12.0846 17.3043H20.6956H20.6956V25.9154C21.1226 25.9709 21.5579 26 22 26C22.4421 26 22.8774 25.971 23.3043 25.9154V17.3044V17.3044H31.9154C31.9709 16.8774 32 16.4421 32 16C32 15.5579 31.9709 15.1226 31.9154 14.6957Z" fill="#D80027"/>
<path d="M24.6087 18.6087L29.071 23.0711C29.2763 22.8659 29.4721 22.6514 29.6589 22.4291L25.8385 18.6087H24.6087V18.6087Z" fill="#D80027"/>
<path d="M19.3913 18.6087H19.3912L14.9289 23.0711C15.1341 23.2763 15.3485 23.4721 15.5709 23.6589L19.3913 19.8384V18.6087Z" fill="#D80027"/>
<path d="M19.3913 13.3914V13.3913L14.9289 8.92891C14.7237 9.13407 14.5279 9.34856 14.3411 9.5709L18.1616 13.3913L19.3913 13.3914Z" fill="#D80027"/>
<path d="M24.6087 13.3914L29.0711 8.92894C28.8659 8.72371 28.6514 8.52793 28.4291 8.34117L24.6087 12.1616V13.3914Z" fill="#D80027"/>
</g>
<defs>
<clipPath id="clip0_16898_366">
<rect width="20" height="20" fill="white" transform="translate(12 6)"/>
</clipPath>
</defs>
</svg>
