<svg width="21" height="21" viewBox="0 0 21 21" fill="none" xmlns="http://www.w3.org/2000/svg">
<g clip-path="url(#clip0_16567_5557)">
<path d="M15.3606 4.92718L10.6238 4.40088L4.83432 4.92718L4.30792 10.1904L4.83422 15.4536L10.0974 16.1115L15.3606 15.4536L15.8869 10.0589L15.3606 4.92718Z" fill="white"/>
<path d="M6.99352 13.0932C6.60012 12.8274 6.32772 12.4393 6.17902 11.9261L7.09222 11.5498C7.17512 11.8656 7.31982 12.1103 7.52642 12.284C7.73172 12.4577 7.98172 12.5432 8.27382 12.5432C8.57252 12.5432 8.82912 12.4524 9.04352 12.2708C9.25792 12.0892 9.36592 11.8576 9.36592 11.5774C9.36592 11.2906 9.25272 11.0563 9.02642 10.8748C8.80012 10.6933 8.51592 10.6024 8.17642 10.6024H7.64882V9.69855H8.12242C8.41452 9.69855 8.66062 9.61965 8.86062 9.46175C9.06062 9.30385 9.16062 9.08805 9.16062 8.81305C9.16062 8.56835 9.07112 8.37355 8.89222 8.22755C8.71332 8.08155 8.48692 8.00785 8.21192 8.00785C7.94352 8.00785 7.73032 8.07895 7.57242 8.22235C7.41452 8.36575 7.30002 8.54205 7.22772 8.74995L6.32382 8.37365C6.44352 8.03415 6.66332 7.73415 6.98562 7.47495C7.30802 7.21575 7.71982 7.08545 8.21982 7.08545C8.58952 7.08545 8.92242 7.15655 9.21722 7.29995C9.51192 7.44335 9.74352 7.64205 9.91062 7.89465C10.0777 8.14855 10.1606 8.43285 10.1606 8.74855C10.1606 9.07095 10.083 9.34325 9.92772 9.56695C9.77242 9.79065 9.58162 9.96165 9.35532 10.0814V10.1353C9.65402 10.2603 9.89742 10.4511 10.0895 10.7077C10.2803 10.9643 10.3763 11.2709 10.3763 11.6288C10.3763 11.9867 10.2855 12.3064 10.1039 12.5867C9.92232 12.867 9.67102 13.088 9.35262 13.2485C9.03292 13.409 8.67372 13.4906 8.27502 13.4906C7.81322 13.4919 7.38692 13.359 6.99352 13.0932Z" fill="#1A73E8"/>
<path d="M12.5974 8.56142L11.6 9.28642L11.0987 8.52592L12.8974 7.22852H13.5869V13.3482H12.5974V8.56142Z" fill="#1A73E8"/>
<path d="M15.3606 20.1903L20.0974 15.4535L17.729 14.4009L15.3606 15.4535L14.308 17.8219L15.3606 20.1903Z" fill="#EA4335"/>
<path d="M3.78162 17.822L4.83422 20.1904H15.3605V15.4536H4.83422L3.78162 17.822Z" fill="#34A853"/>
<path d="M1.67631 0.19043C0.804012 0.19043 0.0974121 0.89703 0.0974121 1.76933V15.4535L2.46581 16.5061L4.83421 15.4535V4.92723H15.3605L16.4131 2.55883L15.3606 0.19043H1.67631Z" fill="#4285F4"/>
<path d="M0.0974121 15.4536V18.6115C0.0974121 19.4839 0.804012 20.1904 1.67631 20.1904H4.83421V15.4536H0.0974121Z" fill="#188038"/>
<path d="M15.3606 4.92711V15.4534H20.0974V4.92711L17.729 3.87451L15.3606 4.92711Z" fill="#FBBC04"/>
<path d="M20.0974 4.92723V1.76933C20.0974 0.89693 19.3908 0.19043 18.5185 0.19043H15.3606V4.92723H20.0974Z" fill="#1967D2"/>
</g>
<defs>
<clipPath id="clip0_16567_5557">
<rect width="20" height="20" fill="white" transform="translate(0.0974121 0.19043)"/>
</clipPath>
</defs>
</svg>
