<svg width="21" height="21" viewBox="0 0 21 21" fill="none" xmlns="http://www.w3.org/2000/svg">
<g clip-path="url(#clip0_16567_1884)">
<path d="M10.0973 8.99121V12.8639H15.4791C15.2427 14.1094 14.5336 15.164 13.4699 15.8731L16.7154 18.3913C18.6063 16.6459 19.6972 14.0822 19.6972 11.0368C19.6972 10.3277 19.6336 9.6458 19.5154 8.99132L10.0973 8.99121Z" fill="#4285F4"/>
<path d="M4.49296 12.7129L3.761 13.2732L1.17004 15.2914C2.81549 18.555 6.18797 20.8095 10.097 20.8095C12.797 20.8095 15.0606 19.9186 16.7152 18.3914L13.4697 15.8732C12.5788 16.4732 11.4424 16.8369 10.097 16.8369C7.49705 16.8369 5.28802 15.0823 4.49705 12.7187L4.49296 12.7129Z" fill="#34A853"/>
<path d="M1.17006 6.32764C0.48828 7.67304 0.0974121 9.19124 0.0974121 10.8094C0.0974121 12.4275 0.48828 13.9458 1.17006 15.2912C1.17006 15.3002 4.49739 12.7093 4.49739 12.7093C4.29739 12.1093 4.17918 11.473 4.17918 10.8093C4.17918 10.1456 4.29739 9.50924 4.49739 8.90925L1.17006 6.32764Z" fill="#FBBC05"/>
<path d="M10.0972 4.79139C11.57 4.79139 12.8791 5.30046 13.9245 6.28229L16.7881 3.41869C15.0517 1.80054 12.7973 0.80957 10.0972 0.80957C6.18818 0.80957 2.81549 3.05502 1.17004 6.32776L4.49727 8.90958C5.28813 6.54592 7.49725 4.79139 10.0972 4.79139Z" fill="#EA4335"/>
</g>
<defs>
<clipPath id="clip0_16567_1884">
<rect width="20" height="20" fill="white" transform="translate(0.0974121 0.80957)"/>
</clipPath>
</defs>
</svg>
