  <svg
            width="40"
            height="32"
            viewBox="0 0 40 32"
            fill="none"
            xmlns="http://www.w3.org/2000/svg"
          >
            <path
              d="M39.3334 18.1666L39.3314 21.5006C39.3314 21.7806 39.1834 22.0606 38.8867 22.2073L20.3734 31.4153C20.1401 31.5286 19.8601 31.5286 19.6267 31.4153L1.11341 22.2073C0.813415 22.0606 0.666748 21.7806 0.666748 21.5006V18.1666H39.3334Z"
              fill="#1345AA"
            />
            <path
              d="M32.0001 14.0333L38.8868 17.46C39.4801 17.7533 39.4801 18.58 38.8868 18.8733L20.3735 28.08C20.1401 28.1933 19.8601 28.1933 19.6268 28.08L1.11346 18.8733C0.520124 18.58 0.520124 17.7533 1.11346 17.46L8.00012 14.0333H32.0001Z"
              fill="#216CD8"
            />
            <path
              d="M32.0002 6.83325V18.4533C32.0002 18.7066 31.8602 18.9399 31.6335 19.0533L20.3002 24.6866C20.2068 24.7323 20.1042 24.7563 20.0002 24.7566L19.3335 23.4999V12.8333L32.0002 6.83325Z"
              fill="#BCC5D8"
            />
            <path
              d="M8 7.6V18.4533C8 18.7067 8.14 18.94 8.36667 19.0533L19.7 24.6867C19.7967 24.7333 19.8987 24.7567 20 24.7567V14.2733L14.3453 6.83133C14.0541 6.44806 13.6456 6.17044 13.182 6.0407C12.7185 5.91097 12.2252 5.93624 11.7773 6.11266L8 7.6Z"
              fill="#D5DBEB"
            />
            <path
              d="M18.5741 1.39128L25.8388 0.180614C26.0026 0.153348 26.1706 0.167152 26.3278 0.220789C26.485 0.274426 26.6264 0.36622 26.7394 0.487947L33.8454 8.15595C33.9068 8.22216 33.9519 8.30176 33.9772 8.38843C34.0025 8.47511 34.0072 8.56648 33.991 8.6553C33.9749 8.74412 33.9382 8.82796 33.884 8.90016C33.8298 8.97237 33.7595 9.03095 33.6788 9.07128L21.4288 15.1959C21.3162 15.2521 21.1885 15.2703 21.0647 15.2478C20.9409 15.2253 20.8278 15.1634 20.7421 15.0713L13.4454 7.19661C13.3205 7.06178 13.164 6.96008 12.99 6.90062C12.8161 6.84117 12.6301 6.82581 12.4488 6.85595L6.62542 7.82661C6.35142 7.87195 6.22942 7.49595 6.47742 7.37195L18.1888 1.51595C18.3108 1.45528 18.4408 1.41261 18.5748 1.39061L18.5741 1.39128Z"
              fill="#335CFF"
            />
            <path
              d="M12 20.8599V14.4533C12 14.2399 12.2267 14.0999 12.42 14.1933L14.9467 15.4533C15.1867 15.5733 15.3333 15.8133 15.3333 16.0799V22.5133L12 20.8599Z"
              fill="#143DDF"
            />
          </svg>