<svg width="20" height="23" viewBox="0 0 20 23" fill="none" xmlns="http://www.w3.org/2000/svg">
<path d="M10.4917 9.45767C9.40441 10.4843 8.72438 11.9398 8.72438 13.5555C8.72438 14.8249 9.14453 15.9944 9.85064 16.9345L7.70636 19.0916C7.51577 19.0223 7.31215 18.9834 7.09986 18.9834C6.63208 18.9834 6.19457 19.1653 5.86531 19.4946C5.53609 19.8237 5.35413 20.2655 5.35413 20.7335C5.35413 21.2012 5.53605 21.6387 5.86531 21.968C6.19457 22.2972 6.63642 22.4704 7.09986 22.4704C7.56769 22.4704 8.0052 22.3015 8.33875 21.968C8.66802 21.6387 8.84993 21.1969 8.84993 20.7335C8.84993 20.5515 8.82399 20.3782 8.76763 20.2092L10.9336 18.0346C11.8866 18.7667 13.0734 19.2 14.3687 19.2C17.4833 19.2 20.0001 16.6744 20.0001 13.5599C20.0001 10.7355 17.9338 8.39635 15.2264 7.98483V5.31645C15.9845 4.99582 16.4479 4.28542 16.4479 3.458C16.4479 2.3274 15.5426 1.3831 14.412 1.3831C13.2814 1.3831 12.389 2.3274 12.389 3.458C12.389 4.28542 12.8525 4.99582 13.6106 5.31645V7.96748C12.9522 8.05846 12.3284 8.25769 11.7609 8.55662C10.5654 7.65123 6.67108 4.84419 4.44445 3.15043C4.49643 2.95984 4.53114 2.76061 4.53114 2.55271C4.53114 1.30513 3.51317 0.291504 2.26126 0.291504C1.01369 0.291504 6.10352e-05 1.30513 6.10352e-05 2.55271C6.10352e-05 3.80462 1.01369 4.81825 2.26126 4.81825C2.6858 4.81825 3.07996 4.6926 3.42219 4.48903L10.4917 9.45767ZM14.3687 16.5446C12.7183 16.5446 11.3797 15.206 11.3797 13.5556C11.3797 11.9052 12.7183 10.5667 14.3687 10.5667C16.0191 10.5667 17.3576 11.9052 17.3576 13.5556C17.3577 15.206 16.0191 16.5446 14.3687 16.5446Z" fill="#FF7A59"/>
</svg>
