<svg width="50" height="51" viewBox="0 0 50 51" fill="none" xmlns="http://www.w3.org/2000/svg">
<g clip-path="url(#clip0_20153_15071)">
<path d="M37.4639 9.38672H34.3717C32.3055 9.38672 30.6304 11.0617 30.6304 13.128V16.7367L31.5358 17.2817H37.8231V10.0447L37.4639 9.38672Z" fill="#EFC984"/>
<path d="M44.2718 34.5226C44.2718 32.4775 42.924 30.6772 40.9618 30.1012L35.4894 28.4945L35.4929 27.3223H33.0453L27.6954 28.8925C25.7777 29.4554 24.4604 31.2147 24.4604 33.2133V41.7594H44.2723L44.2718 34.5226Z" fill="#4A80AA"/>
<path d="M46.7654 28.8923L41.4175 27.3223H35.0871L35.0825 28.8632L40.4305 30.4332C42.3479 30.9962 43.665 32.7555 43.665 34.7539V41.7593H50V33.213C50 31.2146 48.6829 29.4553 46.7654 28.8923Z" fill="#407093"/>
<path d="M40.2564 41.7609L38.2916 33H36.1631L34.1982 41.7609H40.2564Z" fill="#DD636E"/>
<path d="M40.1675 28.4006V23.6777H34.291V28.4006C34.291 30.0233 37.2292 30.1676 37.2292 30.1676C37.2292 30.1676 40.1675 30.0232 40.1675 28.4006Z" fill="#FFDDCE"/>
<path d="M37.6945 21.7651C37.7862 21.3629 37.8227 20.9502 37.8227 20.5378V14.2793C36.6831 14.3559 35.5395 14.2111 34.4551 13.8529L34.4529 13.8522C33.6804 13.5969 32.8843 14.1723 32.8843 14.986V15.6053C32.8843 16.23 32.3778 16.7365 31.7531 16.7365H30.6299V18.5862C30.6299 18.8132 30.7201 19.0309 30.8806 19.1914C31.0411 19.3519 31.2588 19.442 31.4857 19.442C31.6349 19.442 31.7563 19.5588 31.7656 19.7077C31.9189 22.1394 33.6586 24.1405 35.9618 24.6864C36.8138 23.9293 37.4323 22.9153 37.6945 21.7651Z" fill="#FFDDCE"/>
<path d="M42.2029 11.5613H42.1481C42.0025 11.5613 41.8629 11.5035 41.7599 11.4005C41.657 11.2976 41.5991 11.1579 41.5991 11.0123C41.5991 10.1146 40.8713 9.38672 39.9735 9.38672H37.4639V17.2817H42.923L43.8285 16.7367V13.1869C43.8285 12.2892 43.1008 11.5613 42.2029 11.5613Z" fill="#EABC6B"/>
<path d="M42.7052 16.7362C42.0805 16.7362 41.574 16.2298 41.574 15.6051V14.986C41.574 14.1723 40.7778 13.5969 40.0053 13.8522C39.1843 14.1231 38.3281 14.272 37.4639 14.2943V20.3476C37.4639 20.7529 37.428 21.1587 37.3379 21.5539C37.0655 22.7487 36.4019 23.794 35.4897 24.5499C36.0505 24.738 36.6381 24.8337 37.2295 24.8335C40.1361 24.8335 42.5125 22.5684 42.6929 19.7073C42.7022 19.5585 42.8236 19.4417 42.9728 19.4417C43.1997 19.4417 43.4174 19.3515 43.5779 19.191C43.7384 19.0305 43.8286 18.8128 43.8286 18.5858V16.7361L42.7052 16.7362Z" fill="#FFCBBE"/>
<path d="M33.1454 27.0092L32.3086 27.3849C31.831 27.5993 31.7156 28.2255 32.0856 28.5961L34.403 30.9172C34.5449 31.0554 34.733 31.136 34.9309 31.1435C35.1288 31.1511 35.3225 31.085 35.4745 30.958L37.2918 29.4401L34.1936 27.1249C34.0451 27.0139 33.8696 26.9446 33.6853 26.9242C33.501 26.9039 33.3146 26.9332 33.1454 27.0092ZM40.263 27.1393L37.2919 29.4399L38.9999 30.9002C39.1509 31.0294 39.3446 31.0977 39.5433 31.092C39.7419 31.0862 39.9313 31.0067 40.0746 30.8691L42.3933 28.6111C42.7723 28.242 42.659 27.607 42.1758 27.3916L41.3228 27.0115C41.1511 26.9351 40.9618 26.9066 40.7752 26.9291C40.5886 26.9516 40.4116 27.0242 40.263 27.1393Z" fill="#365E7D"/>
<path d="M44.2733 49.4622L44.2726 39.8223H11.8882V50.4543H43.6416C43.9973 50.2643 44.2457 49.8913 44.2733 49.4622Z" fill="#DDB7A0"/>
<path d="M43.6662 39.8223V49.3536C43.6271 49.9615 43.1343 50.4543 42.5264 50.4543H47.9113C49.0648 50.4543 50 49.5191 50 48.3656V39.8223H43.6662Z" fill="#D6A889"/>
<path d="M15.2749 36.9953V32.4023H9.56006V36.9953C9.56006 38.5734 12.4175 38.7137 12.4175 38.7137C12.4175 38.7137 15.2749 38.5734 15.2749 36.9953Z" fill="#FFDDCE"/>
<path d="M12.5521 33.976C13.2309 33.7403 13.8194 33.299 14.2358 32.7134C14.6523 32.1278 14.8759 31.427 14.8757 30.7084C14.8754 29.8939 14.7565 29.0839 14.5227 28.3037C14.1382 27.021 13.9426 25.6892 13.9422 24.3501V24.3468C13.9412 21.2691 12.1626 18.6088 9.57813 17.332C6.78525 18.457 4.81367 21.1917 4.8127 24.3872V24.3904C4.81233 25.6921 4.62225 26.9867 4.24844 28.2335C4.02109 28.9919 3.90548 29.7793 3.90527 30.571C3.90503 31.2695 4.12241 31.9507 4.52719 32.5199C4.93197 33.0891 5.50403 33.5181 6.16387 33.7472C7.43207 34.1874 8.74321 34.4926 10.0755 34.6575C10.915 34.4847 11.7423 34.2571 12.5521 33.976Z" fill="#407093"/>
<path d="M20.5885 28.2347C20.2147 26.9879 20.0246 25.6932 20.0242 24.3916V24.3884C20.0229 20.1889 16.6182 16.7852 12.4187 16.7852C11.3198 16.7842 10.2339 17.0224 9.23633 17.4831C11.8462 18.6875 13.6587 21.3254 13.6596 24.3884V24.3916C13.6599 25.6932 13.85 26.9879 14.2238 28.2347C14.4512 28.993 14.5668 29.7804 14.567 30.5721C14.5672 31.2705 14.3499 31.9517 13.9451 32.521C13.5403 33.0902 12.9682 33.5192 12.3084 33.7482C11.308 34.0955 10.2804 34.3588 9.23633 34.5354C12.3981 35.0706 15.6437 34.7999 18.673 33.7482C19.3329 33.5192 19.9049 33.0902 20.3097 32.521C20.7145 31.9517 20.9319 31.2705 20.9316 30.5721C20.9313 29.7804 20.8157 28.993 20.5885 28.2347Z" fill="#365E7D"/>
<path d="M21.7113 11.0673V2.71543C21.7113 0.680078 19.9397 0.503027 18.7182 0.501953H5.66904C4.44658 0.501953 3.45557 1.49297 3.45557 2.71543V11.0673C3.45557 12.2897 4.44658 13.2808 5.66904 13.2808H19.0673L19.6081 13.2516C20.2684 13.2159 20.8953 12.9062 21.2856 12.3725C21.5629 11.9939 21.7121 11.5366 21.7113 11.0673Z" fill="#CBE2FF"/>
<path d="M25.1355 0.501953H18.7183C19.9407 0.501953 20.9317 1.49297 20.9317 2.71543V11.0673C20.9317 12.1322 20.1796 13.0213 19.1775 13.2327C19.138 13.2413 19.1006 13.2576 19.0674 13.2808H21.1373C21.2229 13.2808 21.3049 13.3147 21.3654 13.3753L24.6787 16.6886C24.9247 16.9346 25.3454 16.7604 25.3454 16.4124V13.5466C25.3454 13.3967 25.4481 13.2637 25.5948 13.2327C26.5969 13.0213 27.3491 12.1323 27.3491 11.0673V2.71543C27.349 1.49297 26.358 0.501953 25.1355 0.501953Z" fill="#BED8FB"/>
<path d="M18.9419 42.8697C18.9419 40.9263 17.8488 39.9879 15.7962 39.5472L14.6363 39.3264C13.8022 39.1676 13.1595 38.5393 12.9569 37.747C11.6263 37.9747 10.1624 37.3465 9.5667 35.8624L9.55996 35.8457L3.1459 37.0861C1.28105 37.6335 0 39.3445 0 41.2882V48.4117C0 49.5669 0.937695 50.5027 2.09287 50.5004L18.4724 50.4668L18.9313 50.1148L18.9419 42.8697Z" fill="#E28086"/>
<path d="M23.8947 50.4609C24.1454 50.459 24.3851 50.358 24.5617 50.1801C24.7382 50.0021 24.8373 49.7616 24.8373 49.5109V41.287C24.8373 39.3436 23.5564 37.6325 21.6916 37.0851L15.2751 35.8633C14.7605 37.1427 13.6008 37.7848 12.438 37.7908C12.5543 38.7033 13.2434 39.4549 14.1671 39.6308L15.327 39.8516C17.3795 40.2924 18.4727 41.2307 18.4727 43.1741V50.4662L23.8947 50.4609Z" fill="#DD636E"/>
<path d="M38.9999 30.9018L37.2919 29.4414L35.4746 30.9594C35.3614 31.0541 35.2242 31.1155 35.0781 31.1368L36.1629 32.9999H38.2914L39.3641 31.0776C39.2295 31.0514 39.1041 30.9908 38.9999 30.9018Z" fill="#E28086"/>
</g>
<defs>
<clipPath id="clip0_20153_15071">
<rect width="50" height="50" fill="white" transform="translate(0 0.5)"/>
</clipPath>
</defs>
</svg>
