<svg width="45" height="45" viewBox="0 0 45 45" fill="none" xmlns="http://www.w3.org/2000/svg">
<g clip-path="url(#clip0_20601_23541)">
<path d="M15.8838 16.1084C15.8838 14.4488 14.5385 13.1035 12.8789 13.1035H4.7627C3.10314 13.1035 1.75782 14.4488 1.75781 16.1084V19.6494H15.8838V16.1084ZM17.6416 20.5283C17.6415 21.0136 17.248 21.4072 16.7627 21.4072H0.878906C0.393552 21.4072 8.41872e-05 21.0137 0 20.5283V16.1084C5.6043e-06 13.478 2.13233 11.3457 4.7627 11.3457H12.8789C15.5093 11.3457 17.6416 13.478 17.6416 16.1084V20.5283Z" fill="#675FFF"/>
<path d="M13.6454 6.55176C13.6454 3.90882 11.4893 1.75781 8.82019 1.75781C6.15128 1.75805 3.99597 3.90896 3.99597 6.55176C3.99614 9.19441 6.15138 11.3445 8.82019 11.3447C11.4892 11.3447 13.6452 9.19456 13.6454 6.55176ZM15.4032 6.55176C15.403 10.1744 12.451 13.1025 8.82019 13.1025C5.18962 13.1023 2.23832 10.1743 2.23816 6.55176C2.23816 2.92912 5.18952 0.000241416 8.82019 0C12.4511 0 15.4032 2.92898 15.4032 6.55176Z" fill="#675FFF"/>
<path d="M37.7555 3.34863C37.7554 2.47006 37.0423 1.75781 36.1637 1.75781H22.735C21.8565 1.75791 21.1443 2.47012 21.1442 3.34863V16.208C21.1444 17.0864 21.8566 17.7987 22.735 17.7988H25.2643L25.4225 17.8125C25.7828 17.8783 26.0715 18.1654 26.1315 18.5381L26.2496 19.2715L29.4869 17.8711L29.5709 17.8398C29.6566 17.8127 29.7463 17.7988 29.8365 17.7988H36.1637C37.0422 17.7988 37.7553 17.0865 37.7555 16.208V3.34863ZM39.5133 16.208C39.5131 18.0573 38.013 19.5566 36.1637 19.5566H30.0182L25.9108 21.334C25.6619 21.4417 25.3771 21.4282 25.1393 21.2979C24.9016 21.1675 24.7371 20.9346 24.694 20.667L24.5153 19.5566H22.735C20.8857 19.5565 19.3866 18.0572 19.3864 16.208V3.34863C19.3864 1.4993 20.8857 9.45087e-05 22.735 0H36.1637C38.0131 0 39.5132 1.49924 39.5133 3.34863V16.208Z" fill="#675FFF"/>
<path d="M43.2418 40.5798C43.2418 38.9202 41.8965 37.5749 40.2369 37.5749H32.1207C30.4613 37.5751 29.1158 38.9203 29.1158 40.5798V43.2419H43.2418V40.5798ZM26.2047 7.24189C26.2047 7.08876 26.2154 6.93754 26.236 6.78974L26.2916 6.49384C26.634 5.03973 27.9505 3.96121 29.5162 3.99287C31.2081 4.02706 32.6023 5.37846 32.6901 7.07002C32.7708 8.63043 31.7471 9.97053 30.3287 10.3698V11.446C30.3287 11.9314 29.9352 12.3248 29.4498 12.3249C28.9644 12.3249 28.5709 11.9314 28.5709 11.446V9.61298C28.5709 9.12758 28.9644 8.73408 29.4498 8.73408C30.2953 8.73402 30.9798 8.02287 30.9352 7.16084C30.8951 6.38897 30.2502 5.76542 29.4811 5.7497C28.7184 5.73427 28.0799 6.29611 27.9772 7.03193C27.9677 7.10034 27.9625 7.17055 27.9625 7.24189C27.9625 7.72725 27.569 8.1208 27.0836 8.1208C26.5982 8.1208 26.2048 7.72725 26.2047 7.24189ZM44.9996 44.1208C44.9995 44.6061 44.606 44.9997 44.1207 44.9997H28.2369C27.7518 44.9995 27.3582 44.6059 27.358 44.1208V40.5798C27.358 37.9495 29.4905 35.8173 32.1207 35.8171H40.2369C42.8673 35.8171 44.9996 37.9494 44.9996 40.5798V44.1208Z" fill="#675FFF"/>
<path d="M41.004 31.0244C41.004 28.3815 38.8479 26.2305 36.1788 26.2305C33.5099 26.2307 31.3546 28.3816 31.3546 31.0244C31.3548 33.6671 33.51 35.8171 36.1788 35.8174C38.8478 35.8174 41.0039 33.6672 41.004 31.0244ZM42.7618 31.0244C42.7617 34.6471 39.8096 37.5752 36.1788 37.5752C32.5483 37.575 29.597 34.6469 29.5968 31.0244C29.5968 27.4018 32.5482 24.4729 36.1788 24.4727C39.8097 24.4727 42.7618 27.4016 42.7618 31.0244Z" fill="#675FFF"/>
<path d="M23.8555 27.8213C23.8554 26.9426 23.1433 26.2305 22.2646 26.2305H3.34863C2.47012 26.2306 1.75791 26.9428 1.75781 27.8213V36.8223L1.76562 36.9844C1.84691 37.7868 2.52483 38.413 3.34863 38.4131H15.1641L15.2881 38.4219C15.4116 38.4395 15.5307 38.4831 15.6367 38.5508L18.7178 40.5176L18.8623 39.1963L18.875 39.1143C18.9581 38.7098 19.3159 38.4131 19.7363 38.4131H22.2646C23.1432 38.4131 23.8554 37.7008 23.8555 36.8223V27.8213ZM7.90723 33.3555C8.39259 33.3555 8.78607 33.749 8.78613 34.2344C8.78613 34.7198 8.39263 35.1133 7.90723 35.1133H6.78516C6.29983 35.1132 5.90625 34.7197 5.90625 34.2344C5.90631 33.7491 6.29987 33.3556 6.78516 33.3555H7.90723ZM18.8281 33.3555C19.3135 33.3555 19.707 33.749 19.707 34.2344C19.707 34.7198 19.3135 35.1133 18.8281 35.1133H10.8965C10.4111 35.1132 10.0176 34.7197 10.0176 34.2344C10.0176 33.7491 10.4112 33.3555 10.8965 33.3555H18.8281ZM11.2012 29.2266C11.6866 29.2266 12.0801 29.6201 12.0801 30.1055C12.0801 30.5909 11.6866 30.9844 11.2012 30.9844H6.78516C6.29983 30.9843 5.90625 30.5908 5.90625 30.1055C5.90626 29.6201 6.29983 29.2267 6.78516 29.2266H11.2012ZM25.6133 36.8223C25.6132 38.6716 24.1141 40.1709 22.2646 40.1709H20.5234L20.3115 42.1162C20.2785 42.4182 20.0922 42.682 19.8184 42.8135C19.5443 42.9448 19.221 42.9253 18.9648 42.7617L14.9062 40.1709H3.34863C1.55694 40.1708 0.0934524 38.7636 0.00390625 36.9941L0 36.8223V27.8213C9.58451e-05 25.972 1.4993 24.4728 3.34863 24.4727H22.2646C24.114 24.4727 25.6132 25.9718 25.6133 27.8213V36.8223Z" fill="#675FFF"/>
</g>
<defs>
<clipPath id="clip0_20601_23541">
<rect width="45" height="45" fill="white"/>
</clipPath>
</defs>
</svg>
