<svg width="50" height="51" viewBox="0 0 50 51" fill="none" xmlns="http://www.w3.org/2000/svg">
<path d="M38.7625 6.47082V44.2135C38.7625 46.787 36.6743 48.8752 34.1008 48.8752H8.26989C5.69636 48.8752 3.61548 46.787 3.61548 44.2135V6.47082C3.61548 3.89729 5.69636 1.81641 8.26989 1.81641H34.1008C36.6743 1.81641 38.7625 3.89729 38.7625 6.47082Z" fill="#51504F"/>
<path d="M36.5568 6.47001V42.7421C36.5568 44.095 35.4539 45.198 34.1009 45.198H8.27006C6.91712 45.198 5.82153 44.095 5.82153 42.7421V6.47001C5.82153 5.11634 6.91712 4.02148 8.27006 4.02148H34.1009C35.4539 4.02148 36.5568 5.11634 36.5568 6.47001Z" fill="white"/>
<path d="M16.9781 42.9926C15.4854 43.3691 13.9943 43.4537 12.5023 43.4699C11.756 43.461 11.0097 43.4404 10.2641 43.3654C9.51779 43.2949 8.77147 43.1912 8.02588 42.9919C8.7722 42.7934 9.51853 42.689 10.2641 42.6191C11.0097 42.5434 11.756 42.5235 12.5023 42.5147C13.9943 42.5301 15.4862 42.6154 16.9781 42.9926ZM21.5737 38.8015C19.3163 39.1779 17.0575 39.2618 14.8001 39.2779C13.6707 39.2706 12.5421 39.2493 11.4126 39.1735C10.284 39.1037 9.15529 39 8.02588 38.8007C9.15529 38.6022 10.2832 38.4978 11.4126 38.4279C12.5421 38.3515 13.6707 38.3316 14.8001 38.3228C17.0575 38.339 19.3156 38.4243 21.5737 38.8015ZM14.6009 34.6096C13.7987 34.9868 12.9957 35.0706 12.1928 35.0875C11.7913 35.0787 11.3906 35.0581 10.9891 34.9824C10.5876 34.9118 10.1862 34.8081 9.7847 34.6096C10.1862 34.411 10.5876 34.3066 10.9891 34.2368C11.3906 34.1603 11.7913 34.1404 12.1928 34.1316C12.9957 34.1478 13.7987 34.2324 14.6009 34.6096ZM34.3494 34.6007L34.3428 34.6103C31.2796 34.9853 28.2178 35.0713 25.1546 35.0868C22.0921 35.0735 19.0296 34.9875 15.9671 34.6088C19.0296 34.2316 22.0921 34.1456 25.1546 34.1316C28.2171 34.1463 31.2796 34.2331 34.3421 34.6081L34.3494 34.6007ZM27.6398 30.4184C24.3707 30.7934 21.1016 30.8801 17.8332 30.8963C14.5641 30.8816 11.295 30.7963 8.02588 30.4184C11.295 30.0397 14.5641 29.9537 17.8332 29.9404C21.1016 29.9551 24.3707 30.0419 27.6398 30.4184ZM34.3494 30.4096C34.3494 30.4096 34.3479 30.4176 34.345 30.4228L34.3421 30.4235C33.6384 30.7971 32.9354 30.8801 32.2318 30.8963C31.5281 30.8809 30.8251 30.7963 30.1215 30.4184C30.8251 30.0397 31.5281 29.9551 32.2318 29.9404C32.9354 29.9551 33.6384 30.039 34.3421 30.4118L34.3391 30.4125C34.3391 30.4125 34.345 30.4125 34.3494 30.4096ZM14.2612 26.2265C13.5148 26.6037 12.7685 26.6882 12.0229 26.7044C11.6501 26.6963 11.2766 26.675 10.9038 26.5993C10.531 26.5294 10.1582 26.4257 9.7847 26.2265C10.1582 26.0279 10.531 25.9235 10.9038 25.8537C11.2766 25.7779 11.6501 25.7574 12.0229 25.7493C12.7693 25.7654 13.5156 25.8493 14.2612 26.2265ZM34.3494 26.2184L34.3428 26.2272C31.1568 26.6029 27.9722 26.689 24.7869 26.7044C21.6016 26.6904 18.4171 26.6044 15.2318 26.2265C18.4171 25.8485 21.6016 25.7632 24.7869 25.7485C27.9722 25.7647 31.1568 25.85 34.3421 26.2257L34.3494 26.2184ZM21.1876 22.0353C18.9943 22.4118 16.8001 22.4971 14.6068 22.5132C13.5097 22.5044 12.4134 22.4838 11.3163 22.4081C10.22 22.3382 9.12294 22.2338 8.02588 22.0353C9.12294 21.8368 10.22 21.7324 11.3163 21.6618C12.4134 21.586 13.5097 21.5662 14.6068 21.5574C16.8001 21.5735 18.9943 21.6581 21.1876 22.0353ZM34.3494 22.0272L34.3435 22.0375H34.3421C32.6582 22.4125 30.9744 22.4971 29.2906 22.5132C28.4487 22.5044 27.6068 22.4838 26.7648 22.4081C25.9229 22.3375 25.081 22.2338 24.2391 22.0353C25.081 21.8368 25.9229 21.7324 26.7648 21.6625C27.6068 21.586 28.4487 21.5669 29.2906 21.5574C30.9744 21.5735 32.6582 21.6574 34.3421 22.0324H34.3413L34.3494 22.0272ZM30.1215 17.8441C29.2185 18.2206 28.3156 18.3059 27.4126 18.3213C26.9612 18.3132 26.5097 18.2926 26.0575 18.2169C25.606 18.1471 25.1546 18.0426 24.7031 17.8441C25.1546 17.6456 25.606 17.5404 26.0575 17.4706C26.5097 17.3949 26.9612 17.375 27.4126 17.3662C28.3156 17.3824 29.2185 17.4669 30.1215 17.8441ZM34.3494 17.8353C34.3531 17.8382 34.3568 17.8441 34.359 17.8522L34.3465 17.8588C34.2655 18.0069 34.1471 18.1311 34.0031 18.2191C33.8992 18.283 33.7802 18.3183 33.6582 18.3213C33.4296 18.3059 33.2001 18.2206 32.9707 17.8434C33.2001 17.4669 33.4296 17.3824 33.6582 17.3662C33.7729 17.3735 33.8884 17.3941 34.0031 17.4676C34.1171 17.536 34.2318 17.6368 34.3465 17.8294L34.3347 17.8353C34.3384 17.8375 34.3435 17.8382 34.3494 17.8353ZM27.6398 13.6522C27.1501 14.0294 26.6612 14.114 26.1715 14.1301C25.9266 14.1221 25.6825 14.1007 25.4376 14.0257C25.1693 13.954 24.9191 13.8268 24.7031 13.6522C24.9479 13.4537 25.1928 13.3493 25.4376 13.2794C25.6825 13.2037 25.9266 13.1838 26.1715 13.175C26.6612 13.1904 27.1501 13.2757 27.6398 13.6529V13.6522ZM34.3494 13.6441L34.3509 13.6551L34.3465 13.6574C33.6428 14.0309 32.9384 14.1147 32.234 14.1301C31.8818 14.1213 31.5296 14.1007 31.1773 14.025C30.8259 13.9551 30.4737 13.8507 30.1215 13.6522C30.4737 13.4537 30.8259 13.3507 31.1773 13.2801C31.5303 13.2037 31.8818 13.1838 32.234 13.1743C32.9384 13.1904 33.6428 13.2735 34.3465 13.6478L34.3428 13.6493L34.3494 13.6441ZM34.3494 9.93529L34.3487 9.94485H34.3465C32.7391 10.3213 31.1325 10.4051 29.5251 10.4213C28.7215 10.4125 27.9178 10.3919 27.1141 10.3162C26.3104 10.2463 25.5068 10.1419 24.7031 9.94338C25.5068 9.74485 26.3104 9.64044 27.1148 9.57059C27.9178 9.49485 28.7215 9.475 29.5251 9.46618C31.1325 9.48162 32.7391 9.56618 34.3465 9.94191H34.345L34.3494 9.93529ZM32.2354 6.22794C32.5884 5.85074 32.9413 5.76544 33.2943 5.75C33.4715 5.75809 33.6479 5.77868 33.8244 5.85441C33.9987 5.92794 34.1825 6.02132 34.3494 6.23456C34.006 6.59926 33.6457 6.69412 33.295 6.70515C32.9421 6.68897 32.5891 6.60515 32.2354 6.22794ZM24.7031 6.22794C25.4678 5.85074 26.234 5.76544 26.9987 5.75C27.381 5.75809 27.7634 5.77868 28.1465 5.85441C28.5288 5.92426 28.9112 6.02868 29.2935 6.22721C28.9112 6.42574 28.5288 6.53015 28.1465 6.60074C27.7641 6.67647 27.3818 6.69632 26.9994 6.70515C26.234 6.68897 25.4685 6.60515 24.7031 6.22794ZM21.1876 7.86765V16.2059C21.1876 17.1096 20.4523 17.8382 19.5479 17.8382H9.66559C8.76117 17.8382 8.02588 17.1096 8.02588 16.2059V7.86765C8.02588 6.96324 8.76117 6.22794 9.66559 6.22794H19.5479C20.4523 6.22794 21.1876 6.96324 21.1876 7.86765Z" fill="#D1DAFE"/>
<path d="M21.1876 12.3464V16.2067C21.1876 17.1104 20.4523 17.8391 19.5479 17.8391H9.66559C8.76117 17.8391 8.02588 17.1104 8.02588 16.2067V15.1839C9.27588 15.5369 10.6509 15.7281 12.0847 15.7281C15.8862 15.7281 19.2391 14.3825 21.1876 12.3457V12.3464Z" fill="#8A9BEA"/>
<path d="M17.6721 47.0926C18.2574 46.8647 18.8434 46.7455 19.4295 46.6639C20.0118 46.5805 20.5993 46.5395 21.1876 46.5411C21.7755 46.5385 22.3629 46.579 22.9449 46.6625C23.5309 46.7433 24.117 46.8632 24.703 47.0926C24.117 47.322 23.5309 47.4426 22.9456 47.5235C22.3634 47.6067 21.7758 47.647 21.1876 47.6441C20.5996 47.6457 20.0122 47.6047 19.4302 47.5213C18.8434 47.4404 18.2574 47.3213 17.6721 47.0926Z" fill="#3A3A3A"/>
<path d="M16.6274 9.61364V9.9857C16.6274 10.1525 16.5611 10.3125 16.4433 10.4305C16.3254 10.5485 16.1655 10.6149 15.9987 10.6151H13.2149C13.0479 10.6151 12.8878 10.5488 12.7698 10.4308C12.6518 10.3127 12.5854 10.1526 12.5854 9.9857V9.67541C12.5854 8.55261 13.4752 7.5982 14.598 7.59379C14.8651 7.59213 15.1298 7.64361 15.3769 7.74523C15.6239 7.84684 15.8483 7.99657 16.0369 8.1857C16.4016 8.55114 16.6274 9.05629 16.6274 9.61364Z" fill="#B53016"/>
<path d="M17.8163 16.0531C17.7207 16.0767 17.6273 16.1009 17.5318 16.1237H17.5303C15.4854 16.609 13.4421 16.587 11.3965 16.0531C11.2755 16.0221 11.171 15.946 11.1042 15.8406C11.0374 15.7351 11.0133 15.6081 11.0369 15.4855C11.0613 15.3536 11.0932 15.2233 11.1325 15.095C11.1818 14.9318 11.2413 14.773 11.3141 14.6208C11.4163 14.3995 11.5391 14.1884 11.6847 13.9943C11.8053 13.8292 11.9402 13.6749 12.0876 13.5333C12.3325 13.2956 12.6103 13.0945 12.9126 12.9362C13.4342 12.6589 14.0161 12.5145 14.6068 12.5156C15.1453 12.5145 15.6772 12.634 16.1635 12.8653C16.6498 13.0966 17.0781 13.4339 17.4171 13.8524C17.5479 14.0105 17.6648 14.1789 17.7648 14.3568C17.8847 14.5671 17.9832 14.7892 18.0582 15.0223C18.1114 15.1832 18.1524 15.3479 18.181 15.5149C18.196 15.6335 18.1673 15.7535 18.1003 15.8525C18.0334 15.9516 17.9327 16.0228 17.8171 16.0531H17.8163Z" fill="#FBAD3E"/>
<path d="M17.4171 13.8537L12.0877 13.5346C12.3326 13.2969 12.6104 13.0958 12.9127 12.9375L16.6701 13.161C16.9512 13.3546 17.2028 13.588 17.4171 13.8537ZM18.0583 15.0228L11.3142 14.6221C11.4164 14.4007 11.5392 14.1897 11.6848 13.9956L17.7657 14.3581C17.8848 14.5684 17.9833 14.7897 18.0583 15.0228ZM17.8164 16.0544C17.7208 16.0779 17.6274 16.1022 17.5318 16.125H17.5304L11.0554 15.7382C11.0275 15.6572 11.0215 15.5702 11.0377 15.486C11.0621 15.3544 11.0941 15.2243 11.1333 15.0963L18.1811 15.5169C18.1957 15.6353 18.1668 15.7549 18.0999 15.8536C18.033 15.9523 17.9325 16.0234 17.8171 16.0537L17.8164 16.0544Z" fill="#FA990E"/>
<path d="M13.8238 13.1906C13.5429 12.8105 13.9561 12.2443 14.2164 11.7715H15.0002C15.262 12.2443 15.6664 12.8053 15.3921 13.1906C15.0848 13.6244 14.162 13.648 13.8245 13.1906H13.8238Z" fill="#FEA9AD"/>
<path d="M12.8509 10.8619C13.1347 10.8619 13.3649 10.6318 13.3649 10.348C13.3649 10.0641 13.1347 9.83398 12.8509 9.83398C12.567 9.83398 12.3369 10.0641 12.3369 10.348C12.3369 10.6318 12.567 10.8619 12.8509 10.8619Z" fill="#FEA9AD"/>
<path d="M16.3619 10.8619C16.6457 10.8619 16.8758 10.6318 16.8758 10.348C16.8758 10.0641 16.6457 9.83398 16.3619 9.83398C16.078 9.83398 15.8479 10.0641 15.8479 10.348C15.8479 10.6318 16.078 10.8619 16.3619 10.8619Z" fill="#FEA9AD"/>
<path d="M16.3486 9.43619V10.6296C16.3486 11.5884 15.5986 12.4112 14.639 12.4288C14.4075 12.4331 14.1775 12.3913 13.9624 12.3057C13.7472 12.2201 13.5513 12.0924 13.3861 11.9303C13.2208 11.7681 13.0895 11.5746 12.9999 11.3611C12.9103 11.1477 12.8641 10.9185 12.864 10.6869V9.81192C12.8638 9.78862 12.8686 9.76554 12.8781 9.74426C12.8876 9.72299 12.9016 9.70402 12.9192 9.68866C12.9367 9.6733 12.9573 9.6619 12.9797 9.65526C13.002 9.64861 13.0255 9.64687 13.0486 9.65016C13.9662 9.79722 15.0376 9.57884 16.1434 9.27957C16.1676 9.27273 16.193 9.27159 16.2176 9.27626C16.2423 9.28092 16.2655 9.29126 16.2855 9.30646C16.3055 9.32165 16.3216 9.34128 16.3327 9.36379C16.3438 9.38631 16.3495 9.4111 16.3493 9.43619H16.3486Z" fill="#FFCECF"/>
<path d="M15.7757 10.3874C15.7263 10.4207 15.6713 10.4446 15.6132 10.458C15.5597 10.4706 15.505 10.477 15.45 10.4771C15.3347 10.48 15.2212 10.4488 15.1235 10.3874C15.2214 10.3264 15.3347 10.295 15.45 10.297C15.5051 10.2969 15.5599 10.3038 15.6132 10.3176C15.6712 10.3301 15.7269 10.3538 15.7757 10.3874ZM13.925 10.3176C13.9832 10.33 14.0384 10.3537 14.0875 10.3874C14.0383 10.4206 13.9835 10.4445 13.9257 10.458C13.8722 10.4706 13.8175 10.477 13.7625 10.4771C13.6477 10.4801 13.5345 10.4489 13.4375 10.3874C13.5347 10.3263 13.6477 10.2949 13.7625 10.297C13.8173 10.297 13.8719 10.3039 13.925 10.3176ZM15.0147 11.7793C14.965 11.8394 14.9026 11.8878 14.832 11.9211C14.7613 11.9543 14.6843 11.9715 14.6063 11.9715C14.5282 11.9715 14.4512 11.9543 14.3805 11.9211C14.3099 11.8878 14.2475 11.8394 14.1978 11.7793C14.1499 11.7239 14.1167 11.6574 14.1012 11.5859C14.0856 11.5143 14.0883 11.44 14.1088 11.3698C14.1949 11.6286 14.4007 11.7631 14.6066 11.7631C14.8125 11.7631 15.0184 11.6286 15.1044 11.3698C15.1248 11.4399 15.1274 11.5141 15.1119 11.5855C15.0963 11.6569 15.0632 11.7233 15.0154 11.7786L15.0147 11.7793Z" fill="#51504F"/>
<path d="M40.3119 7.92787C40.0913 7.88963 39.8737 7.84625 39.6612 7.79257C39.4546 7.75066 39.2163 7.65654 39.0685 7.65875C38.9229 7.64668 38.7767 7.67203 38.6436 7.73238C38.5105 7.79274 38.3951 7.8861 38.3083 8.0036C38.2141 8.14698 38.0347 8.67125 37.8649 9.03154C37.6915 9.42296 37.5091 9.81032 37.3178 10.1933C36.9355 10.9612 36.5096 11.7065 36.0421 12.4257C35.9222 12.6051 35.8105 12.7889 35.684 12.9646C35.5509 13.1337 35.4575 13.3161 35.2516 13.5308C35.0516 13.7146 34.8119 13.8411 34.5649 13.8823C34.3303 13.9132 34.1208 13.9176 33.8928 13.9242C34.0715 13.7948 34.2693 13.6705 34.4391 13.5602C34.5899 13.4455 34.7053 13.3073 34.7693 13.1536C34.8259 13.0279 34.8833 12.8021 34.9531 12.597C35.0193 12.3911 35.1002 12.1918 35.1722 11.9889C35.4685 11.1801 35.8193 10.3985 36.2031 9.63301C36.398 9.25213 36.5972 8.87419 36.8097 8.50213L37.1355 7.94698C37.2266 7.79845 37.3869 7.49772 37.6311 7.30948C38.0913 6.90801 38.756 6.84331 39.2472 7.0764C39.506 7.21169 39.6362 7.34551 39.8156 7.48596C39.9847 7.62493 40.1502 7.77272 40.3119 7.92713V7.92787ZM44.2112 4.38154C44.2112 4.53595 44.1818 4.68301 44.1083 4.82272L43.0347 6.95507L41.2921 6.08007L42.3583 3.94772C42.6009 3.46978 43.1891 3.27125 43.6744 3.5139C44.02 3.68301 44.2112 4.0286 44.2112 4.38154ZM30.9759 29.6985L30.034 31.5735C30.0096 31.623 29.9756 31.6672 29.9341 31.7036C29.8925 31.74 29.8442 31.7678 29.7918 31.7854C29.7395 31.803 29.6842 31.8101 29.6291 31.8063C29.574 31.8025 29.5202 31.7878 29.4708 31.7632L29.4663 31.761C29.4171 31.736 29.3733 31.7016 29.3374 31.6597C29.3015 31.6178 29.2742 31.5692 29.2572 31.5168C29.2401 31.4643 29.2335 31.409 29.2379 31.354C29.2422 31.299 29.2574 31.2454 29.2825 31.1963L30.2259 29.3212C30.2758 29.2219 30.3629 29.1463 30.4682 29.1108C30.5735 29.0753 30.6886 29.0827 30.7884 29.1315L30.7928 29.1338C30.9987 29.2374 31.0796 29.4933 30.9766 29.6992L30.9759 29.6985Z" fill="#B53016"/>
<path d="M43.5053 7.72L36.8656 20.9259C35.654 23.3272 34.2654 25.6351 32.7112 27.8303L30.77 30.5582C30.6837 30.6813 30.5559 30.7691 30.41 30.8056C30.2642 30.8421 30.11 30.8247 29.9759 30.7568H29.9686C29.8363 30.6889 29.7326 30.5761 29.676 30.4387C29.6194 30.3012 29.6136 30.1481 29.6598 30.0068L30.6892 26.8082C31.5255 24.2553 32.5504 21.7681 33.7553 19.3671L40.395 6.15382C40.6048 5.74333 40.9679 5.43207 41.4056 5.28754C41.8433 5.14301 42.3204 5.17686 42.7333 5.38177V5.38912C43.5936 5.81559 43.9392 6.85971 43.5053 7.72Z" fill="#FBAD3E"/>
<path d="M34.623 24.9259C34.0127 25.9112 33.3803 26.8818 32.7112 27.8303L30.77 30.5582C30.6837 30.6813 30.5559 30.7691 30.41 30.8056C30.2642 30.8421 30.11 30.8247 29.9759 30.7568H29.9686C29.8363 30.6889 29.7326 30.5761 29.676 30.4387C29.6194 30.3012 29.6136 30.1481 29.6598 30.0068L30.6892 26.8082C31.0535 25.7108 31.4507 24.6245 31.8803 23.5509L34.623 24.9259ZM43.5053 7.72L42.0568 10.595L38.9465 9.03618L40.395 6.15382C40.6048 5.74333 40.9679 5.43207 41.4056 5.28754C41.8433 5.14301 42.3204 5.17686 42.7333 5.38177V5.38912C43.5936 5.81559 43.9392 6.85971 43.5053 7.72Z" fill="#FA990E"/>
<path d="M11.3633 26.0902C11.3386 26.3362 11.235 26.5676 11.068 26.7499C10.9011 26.9322 10.6797 27.0557 10.4369 27.102C10.22 27.1483 10.0097 27.1873 9.79129 27.2189V28.1601C9.79129 28.5726 9.2935 28.791 8.99717 28.4946L8.056 27.5763C8.00904 27.533 7.95383 27.4997 7.89369 27.4784C7.83354 27.457 7.7697 27.4481 7.70599 27.452C6.00894 27.5527 4.29717 27.413 2.58541 27.0704C2.36492 27.0279 2.16289 26.9185 2.00684 26.7571C1.85079 26.5956 1.7483 26.39 1.71335 26.1682C1.36464 24.0685 1.36215 21.926 1.70599 19.8255C1.74482 19.5973 1.85305 19.3866 2.01594 19.2222C2.17883 19.0577 2.38847 18.9474 2.61629 18.9064C5.16849 18.4792 7.77585 18.4711 10.4295 18.8991C10.6754 18.9385 10.9012 19.0585 11.0716 19.2401C11.2419 19.4218 11.3471 19.6548 11.3707 19.9027C11.5434 21.9617 11.541 24.0317 11.3633 26.0902Z" fill="#3D5E2A"/>
<path d="M12.3288 26.182C12.304 26.428 12.2004 26.6594 12.0335 26.8417C11.8665 27.024 11.6452 27.1475 11.4023 27.1938C11.1847 27.2401 10.9744 27.2791 10.7567 27.3107V28.2519C10.7567 28.6644 10.2582 28.8828 9.96263 28.5864L9.02145 27.6681C8.97441 27.6247 8.91908 27.5914 8.8588 27.57C8.79852 27.5487 8.73454 27.5398 8.67072 27.5438C6.97439 27.6445 5.26189 27.5048 3.55013 27.1622C3.32978 27.1196 3.12791 27.0101 2.972 26.8487C2.81609 26.6872 2.71372 26.4817 2.67881 26.26C2.32985 24.1604 2.32712 22.0178 2.67072 19.9173C2.70954 19.6891 2.81777 19.4784 2.98066 19.314C3.14356 19.1495 3.35319 19.0392 3.58101 18.9982C6.13395 18.571 8.74057 18.5629 11.395 18.9909C11.6409 19.0303 11.8667 19.1503 12.037 19.3319C12.2074 19.5136 12.3126 19.7466 12.3362 19.9945C12.5089 22.0535 12.5064 24.1235 12.3288 26.182Z" fill="#AEC46E"/>
<path d="M12.4611 23.123C12.4611 24.1341 12.4222 25.1458 12.3288 26.1811C12.304 26.4271 12.2004 26.6585 12.0335 26.8408C11.8665 27.0231 11.6451 27.1466 11.4023 27.1929C11.1847 27.2392 10.9744 27.2782 10.7567 27.3098V28.251C10.7567 28.6635 10.2582 28.8819 9.96259 28.5855L9.02142 27.6672C8.97437 27.6238 8.91904 27.5905 8.85876 27.5691C8.79848 27.5478 8.7345 27.5389 8.67068 27.5429C6.97436 27.6436 5.26186 27.5039 3.55009 27.1613C3.32974 27.1187 3.12787 27.0092 2.97197 26.8478C2.81606 26.6863 2.71368 26.4808 2.67877 26.2591C2.62436 25.9083 2.56921 25.5583 2.53906 25.2157C3.59715 25.6907 4.83392 25.9554 6.1648 25.9554C8.92803 25.9554 11.3244 24.8032 12.4611 23.123Z" fill="#617F4D"/>
<path d="M4.1897 20.8324C4.73161 20.667 5.27279 20.5802 5.8147 20.5214C6.35421 20.4605 6.89676 20.4305 7.4397 20.4317C7.98087 20.4317 8.52279 20.4567 9.0647 20.5199C9.60587 20.5787 10.1478 20.6655 10.6897 20.8324C10.1478 20.9993 9.60587 21.0868 9.0647 21.1449C8.52279 21.2089 7.98087 21.2331 7.4397 21.2331C6.89678 21.2345 6.35422 21.2048 5.8147 21.1442C5.27279 21.0853 4.73161 20.9986 4.1897 20.8324ZM4.1897 22.8942C4.73161 22.728 5.27279 22.6412 5.8147 22.5824C6.35422 22.5218 6.89678 22.492 7.4397 22.4934C7.98087 22.4934 8.52279 22.5177 9.0647 22.5817C9.60587 22.6405 10.1478 22.7273 10.6897 22.8942C10.1478 23.0611 9.60587 23.1478 9.0647 23.2067C8.52279 23.2699 7.98087 23.2942 7.4397 23.2949C6.89676 23.2961 6.35421 23.2661 5.8147 23.2052C5.27279 23.1464 4.73161 23.0596 4.1897 22.8942ZM4.1897 24.9552C4.73161 24.7898 5.27279 24.703 5.8147 24.6442C6.35422 24.5835 6.89678 24.5538 7.4397 24.5552C7.98087 24.5552 8.52279 24.5795 9.0647 24.6434C9.60587 24.7015 10.1478 24.789 10.6897 24.9552C10.1478 25.1221 9.60587 25.2096 9.0647 25.2684C8.52279 25.3317 7.98087 25.3559 7.4397 25.3567C6.89676 25.3578 6.35421 25.3279 5.8147 25.267C5.27279 25.2081 4.73161 25.1214 4.1897 24.9552Z" fill="white"/>
<path d="M31.5699 42.7561C31.4522 42.9252 31.3713 43.0723 31.1508 43.2414C31.0478 43.3223 30.8566 43.4031 30.6581 43.3664C30.479 43.3326 30.3205 43.2296 30.2169 43.0796C30.0552 42.837 30.0331 42.5796 30.0037 42.4252C29.9743 42.2561 29.9449 42.1017 29.8934 41.984C29.761 41.5355 29.0552 41.337 28.5184 41.5208C28.3934 41.5723 28.3713 41.5796 28.3052 41.734C28.239 41.8811 28.2022 42.0429 28.1728 42.2046C28.114 42.5355 28.1287 42.8884 28.1949 43.2487C27.9816 42.9546 27.8566 42.5796 27.8125 42.1973C27.7978 41.9987 27.8052 41.8076 27.8419 41.609C27.8566 41.5061 27.8934 41.3811 27.9743 41.2634C28.0552 41.1458 28.1655 41.0649 28.2684 41.0061C28.6581 40.7929 29.0993 40.7561 29.5331 40.8443C29.9596 40.9326 30.4081 41.2561 30.5772 41.712C30.739 42.1384 30.7096 42.5796 30.7978 42.6899C30.8052 42.6899 30.8052 42.6973 30.8052 42.6973C30.8787 42.6531 31.011 42.5134 31.114 42.4105C31.5478 41.9179 31.8566 41.2929 32.0037 40.5723C32.1655 41.2929 32.0037 42.1017 31.5699 42.7561Z" fill="#B53016"/>
<path d="M34.3494 42.9835L34.3436 42.9946H34.3421C32.934 43.3696 31.5259 43.4541 30.1178 43.4696C29.4141 43.4607 28.7097 43.4401 28.0061 43.3644C27.3016 43.2946 26.5972 43.1901 25.8936 42.9916C26.5972 42.7931 27.3016 42.6894 28.0061 42.6188C28.7097 42.5431 29.4141 42.5232 30.1178 42.5137C31.5259 42.5298 32.934 42.6137 34.3421 42.9887H34.3406L34.3494 42.9835Z" fill="#D1DAFE"/>
<path d="M48.2111 47.1541C48.1566 47.5866 47.9578 47.988 47.6469 48.2936C47.336 48.5991 46.9312 48.7909 46.4979 48.8379C41.9979 49.3159 37.3655 49.2865 32.6155 48.8306C32.1616 48.7859 31.7377 48.5833 31.4179 48.2581C31.0981 47.9329 30.9026 47.5058 30.8655 47.0512C30.564 43.3012 30.564 39.5365 30.8655 35.7571C30.939 34.8159 31.6964 34.0585 32.6376 33.9769C37.2405 33.5872 41.8434 33.5872 46.4464 33.9843C47.3582 34.0578 48.1082 34.771 48.2111 35.6828C48.6596 39.5137 48.667 43.3379 48.2111 47.1541Z" fill="#4269C4"/>
<path d="M48.2112 35.6835C48.4178 37.4313 42.7355 41.9997 40.4928 43.7276C40.2371 43.925 39.9235 44.0326 39.6005 44.0336C39.2774 44.0347 38.9631 43.9292 38.7061 43.7335C36.4517 42.0188 30.7303 37.4872 30.8656 35.7563C30.9392 34.8151 31.6965 34.0578 32.6377 33.9769C37.2406 33.5872 41.8436 33.5872 46.4465 33.9843C47.3583 34.0578 48.1083 34.7718 48.2112 35.6835Z" fill="#255299"/>
</svg>
