<svg width="45" height="45" viewBox="0 0 45 45" fill="none" xmlns="http://www.w3.org/2000/svg">
<path d="M30.0768 9.37117H14.923C14.549 9.37117 14.248 9.07023 14.248 8.69617V4.94148C14.248 3.83055 15.1509 2.92773 16.2618 2.92773H18.464C18.838 2.92773 19.139 3.22867 19.139 3.60273C19.139 3.9768 18.838 4.27773 18.464 4.27773H16.2618C15.8962 4.27773 15.598 4.57586 15.598 4.94148V8.01836H29.4018V4.94148C29.4018 4.57586 29.1037 4.27773 28.738 4.27773H26.5359C26.1618 4.27773 25.8609 3.9768 25.8609 3.60273C25.8609 3.22867 26.1618 2.92773 26.5359 2.92773H28.738C29.849 2.92773 30.7518 3.83055 30.7518 4.94148V8.69336C30.7518 9.06742 30.4509 9.37117 30.0768 9.37117Z" fill="#675FFF"/>
<path d="M36.5738 44.1012H8.42627C7.38002 44.1012 6.52783 43.249 6.52783 42.2027V7.27148C6.52783 6.22523 7.38002 5.37305 8.42627 5.37305H14.9231C15.2972 5.37305 15.5981 5.67398 15.5981 6.04805C15.5981 6.42211 15.2972 6.72305 14.9231 6.72305H8.42627C8.12252 6.72305 7.87783 6.97055 7.87783 7.27148V42.2027C7.87783 42.5065 8.12533 42.7512 8.42627 42.7512H36.571C36.8747 42.7512 37.1194 42.5037 37.1194 42.2027V7.27148C37.1194 6.96773 36.8719 6.72305 36.571 6.72305H30.0741C29.7 6.72305 29.3991 6.42211 29.3991 6.04805C29.3991 5.67398 29.7 5.37305 30.0741 5.37305H36.571C37.6172 5.37305 38.4694 6.22523 38.4694 7.27148V42.2027C38.4722 43.249 37.62 44.1012 36.5738 44.1012Z" fill="#675FFF"/>
<path d="M26.536 5.8757H18.4642C18.0901 5.8757 17.7892 5.57477 17.7892 5.2007V2.13789C17.7892 1.45445 18.3432 0.900391 19.0267 0.900391H25.9735C26.657 0.900391 27.211 1.45445 27.211 2.13789V5.2007C27.211 5.57477 26.9073 5.8757 26.536 5.8757ZM19.1392 4.5257H25.861V2.25039H19.1392V4.5257ZM33.7332 29.1182H17.3785C17.0045 29.1182 16.7035 28.8173 16.7035 28.4432C16.7035 28.0691 17.0045 27.7682 17.3785 27.7682H33.7332C34.1073 27.7682 34.4082 28.0691 34.4082 28.4432C34.4082 28.8173 34.1045 29.1182 33.7332 29.1182ZM12.2514 29.6863C12.0798 29.6863 11.9054 29.6216 11.7732 29.4895L10.7889 28.5051C10.5245 28.2407 10.5245 27.8132 10.7889 27.5516C11.0532 27.2901 11.4807 27.2873 11.7423 27.5516L12.2485 28.0579L14.0514 26.2551C14.3157 25.9907 14.7432 25.9907 15.0048 26.2551C15.2692 26.5195 15.2692 26.947 15.0048 27.2085L12.7267 29.4866C12.5973 29.6216 12.4229 29.6863 12.2514 29.6863ZM33.7332 34.6363H17.3785C17.0045 34.6363 16.7035 34.3354 16.7035 33.9613C16.7035 33.5873 17.0045 33.2863 17.3785 33.2863H33.7332C34.1073 33.2863 34.4082 33.5873 34.4082 33.9613C34.4082 34.3354 34.1045 34.6363 33.7332 34.6363ZM12.2514 35.2073C12.0714 35.2073 11.8998 35.137 11.7732 35.0104L10.7889 34.026C10.5245 33.7616 10.5245 33.3341 10.7889 33.0726C11.0532 32.811 11.4807 32.8082 11.7423 33.0726L12.2485 33.5788L14.0485 31.776C14.3129 31.5116 14.7404 31.5116 15.002 31.776C15.2664 32.0404 15.2664 32.4679 15.002 32.7295L12.7239 35.0076C12.6029 35.1341 12.4314 35.2073 12.2514 35.2073ZM33.7332 40.1545H17.3785C17.0045 40.1545 16.7035 39.8535 16.7035 39.4795C16.7035 39.1054 17.0045 38.8045 17.3785 38.8045H33.7332C34.1073 38.8045 34.4082 39.1054 34.4082 39.4795C34.4082 39.8535 34.1045 40.1545 33.7332 40.1545ZM12.2514 40.7254C12.0798 40.7254 11.9054 40.6607 11.7732 40.5285L10.7889 39.5441C10.5245 39.2798 10.5245 38.8523 10.7889 38.5907C11.0532 38.3291 11.4807 38.3263 11.7423 38.5907L12.2485 39.097L14.0485 37.297C14.3129 37.0326 14.7404 37.0326 15.002 37.297C15.2664 37.5613 15.2664 37.9888 15.002 38.2504L12.7239 40.5285C12.5973 40.6607 12.4229 40.7254 12.2514 40.7254ZM27.0142 22.7535C26.7357 22.7535 26.477 22.582 26.3785 22.3063C25.8217 20.7482 24.3367 19.6991 22.6801 19.6991H22.3229C20.6664 19.6991 19.1814 20.7454 18.6245 22.3063C18.4979 22.6579 18.1126 22.8407 17.761 22.7141C17.4095 22.5876 17.2267 22.2023 17.3532 21.8507C18.1014 19.7554 20.0982 18.3491 22.3229 18.3491H22.6801C24.9048 18.3491 26.9017 19.7554 27.6498 21.8507C27.7764 22.2023 27.5907 22.5876 27.242 22.7141C27.166 22.7395 27.0901 22.7535 27.0142 22.7535Z" fill="#675FFF"/>
<path d="M22.5 19.6996C20.7309 19.6996 19.2937 18.2596 19.2937 16.4934C19.2937 14.7271 20.7337 13.2871 22.5 13.2871C24.269 13.2871 25.709 14.7271 25.709 16.4934C25.709 18.2596 24.269 19.6996 22.5 19.6996ZM22.5 14.6343C21.4762 14.6343 20.6437 15.4668 20.6437 16.4905C20.6437 17.5143 21.4762 18.3468 22.5 18.3468C23.5237 18.3468 24.359 17.5143 24.359 16.4905C24.359 15.4668 23.5237 14.6343 22.5 14.6343Z" fill="#675FFF"/>
<path d="M22.4999 24.7215C20.6746 24.7215 18.959 24.0099 17.668 22.719C16.3771 21.428 15.6655 19.7124 15.6655 17.8871C15.6655 16.0618 16.3771 14.3462 17.668 13.0552C18.959 11.7643 20.6746 11.0527 22.4999 11.0527C24.3252 11.0527 26.0408 11.7643 27.3318 13.0552C28.6227 14.3462 29.3343 16.0618 29.3343 17.8871C29.3343 19.7124 28.6227 21.428 27.3318 22.719C26.0408 24.0099 24.3252 24.7215 22.4999 24.7215ZM22.4999 12.4027C19.4765 12.4027 17.0155 14.8637 17.0155 17.8871C17.0155 20.9105 19.4765 23.3715 22.4999 23.3715C25.5233 23.3715 27.9843 20.9105 27.9843 17.8871C27.9843 14.8637 25.5233 12.4027 22.4999 12.4027Z" fill="#675FFF"/>
</svg>
