<svg width="50" height="51" viewBox="0 0 50 51" fill="none" xmlns="http://www.w3.org/2000/svg">
<g clip-path="url(#clip0_20153_15329)">
<path d="M43.1818 0.5H6.81818C3.0526 0.5 0 3.5526 0 7.31818V43.6818C0 47.4474 3.0526 50.5 6.81818 50.5H43.1818C46.9474 50.5 50 47.4474 50 43.6818V7.31818C50 3.5526 46.9474 0.5 43.1818 0.5Z" fill="#0077B5"/>
<path d="M18.011 14.1364C18.011 14.9792 17.7611 15.8031 17.2928 16.5039C16.8246 17.2046 16.1591 17.7508 15.3804 18.0734C14.6017 18.3959 13.7449 18.4803 12.9183 18.3158C12.0917 18.1514 11.3324 17.7456 10.7364 17.1496C10.1404 16.5536 9.73459 15.7943 9.57016 14.9677C9.40574 14.1411 9.49013 13.2843 9.81266 12.5056C10.1352 11.7269 10.6814 11.0614 11.3822 10.5932C12.0829 10.1249 12.9068 9.875 13.7496 9.875C14.8798 9.875 15.9637 10.324 16.7629 11.1231C17.562 11.9223 18.011 13.0062 18.011 14.1364ZM17.0451 21.2386V40.0653C17.0459 40.2042 17.0191 40.3419 16.9665 40.4704C16.9139 40.599 16.8364 40.7158 16.7384 40.8143C16.6405 40.9128 16.524 40.9909 16.3958 41.0442C16.2675 41.0976 16.13 41.125 15.9911 41.125H11.4996C11.3608 41.1254 11.2232 41.0983 11.0948 41.0453C10.9664 40.9923 10.8497 40.9145 10.7515 40.8163C10.6533 40.7181 10.5755 40.6014 10.5225 40.4731C10.4695 40.3447 10.4425 40.2071 10.4428 40.0682V21.2386C10.4428 20.9584 10.5542 20.6895 10.7524 20.4914C10.9506 20.2932 11.2194 20.1818 11.4996 20.1818H15.9911C16.2709 20.1826 16.539 20.2942 16.7366 20.4924C16.9341 20.6905 17.0451 20.9588 17.0451 21.2386ZM40.5224 31.0398V40.1534C40.5227 40.2811 40.4979 40.4076 40.4492 40.5257C40.4005 40.6437 40.3289 40.751 40.2386 40.8413C40.1483 40.9316 40.0411 41.0031 39.923 41.0518C39.805 41.1005 39.6785 41.1254 39.5508 41.125H34.7212C34.5935 41.1254 34.467 41.1005 34.349 41.0518C34.2309 41.0031 34.1237 40.9316 34.0334 40.8413C33.9431 40.751 33.8715 40.6437 33.8228 40.5257C33.7741 40.4076 33.7493 40.2811 33.7496 40.1534V31.321C33.7496 30.0028 34.136 25.5483 30.3036 25.5483C27.3349 25.5483 26.7298 28.5966 26.6104 29.9659V40.1534C26.6105 40.4087 26.5101 40.6537 26.3309 40.8355C26.1518 41.0173 25.9083 41.1213 25.6531 41.125H20.9883C20.8608 41.125 20.7346 41.0999 20.6169 41.051C20.4992 41.0021 20.3923 40.9305 20.3023 40.8403C20.2123 40.75 20.141 40.6429 20.0925 40.525C20.0439 40.4071 20.0192 40.2809 20.0195 40.1534V21.1563C20.0192 21.0288 20.0439 20.9025 20.0925 20.7847C20.141 20.6668 20.2123 20.5597 20.3023 20.4694C20.3923 20.3791 20.4992 20.3075 20.6169 20.2587C20.7346 20.2098 20.8608 20.1847 20.9883 20.1847H25.6531C25.9107 20.1847 26.1579 20.287 26.3401 20.4692C26.5223 20.6514 26.6246 20.8986 26.6246 21.1563V22.7983C27.7269 21.1449 29.3604 19.8693 32.8462 19.8693C40.5678 19.8693 40.5224 27.0795 40.5224 31.0398Z" fill="white"/>
</g>
<defs>
<clipPath id="clip0_20153_15329">
<rect width="50" height="50" fill="white" transform="translate(0 0.5)"/>
</clipPath>
</defs>
</svg>
