<svg width="21" height="21" viewBox="0 0 21 21" fill="none" xmlns="http://www.w3.org/2000/svg">
<g clip-path="url(#clip0_16567_1891)">
<path d="M18.621 0.80957H1.5738C1.18224 0.80957 0.806713 0.965118 0.529837 1.24199C0.25296 1.51887 0.0974121 1.8944 0.0974121 2.28596V19.3332C0.0974121 19.7247 0.25296 20.1003 0.529837 20.3771C0.806713 20.654 1.18224 20.8096 1.5738 20.8096H18.621C19.0126 20.8096 19.3881 20.654 19.665 20.3771C19.9419 20.1003 20.0974 19.7247 20.0974 19.3332V2.28596C20.0974 1.8944 19.9419 1.51887 19.665 1.24199C19.3881 0.965118 19.0126 0.80957 18.621 0.80957ZM6.05852 17.8471H3.05158V8.29568H6.05852V17.8471ZM4.55297 6.97207C4.21188 6.97015 3.87901 6.86723 3.59636 6.67631C3.31371 6.48539 3.09395 6.21501 2.96481 5.89931C2.83567 5.58361 2.80295 5.23673 2.87077 4.90245C2.93859 4.56817 3.10391 4.26147 3.34587 4.02105C3.58784 3.78064 3.89559 3.61729 4.2303 3.55162C4.56501 3.48595 4.91167 3.5209 5.22654 3.65206C5.5414 3.78322 5.81036 4.00471 5.99947 4.28858C6.18857 4.57245 6.28935 4.90598 6.28908 5.24707C6.2923 5.47543 6.24951 5.7021 6.16326 5.91357C6.07701 6.12504 5.94906 6.31699 5.78705 6.47796C5.62505 6.63893 5.43229 6.76564 5.22027 6.85053C5.00824 6.93542 4.7813 6.97675 4.55297 6.97207ZM17.1419 17.8554H14.1363V12.6373C14.1363 11.0985 13.4821 10.6235 12.6377 10.6235C11.746 10.6235 10.871 11.2957 10.871 12.6762V17.8554H7.86408V8.30263H10.7557V9.62624H10.7946C11.0849 9.03874 12.1016 8.03457 13.653 8.03457C15.3307 8.03457 17.1432 9.0304 17.1432 11.9471L17.1419 17.8554Z" fill="#0A66C2"/>
</g>
<defs>
<clipPath id="clip0_16567_1891">
<rect width="20" height="20" fill="white" transform="translate(0.0974121 0.80957)"/>
</clipPath>
</defs>
</svg>
