<svg width="45" height="45" viewBox="0 0 45 45" fill="none" xmlns="http://www.w3.org/2000/svg">
<path d="M11.7391 44.0823H0V13.7564H11.7391V44.0823ZM1.9564 42.1259H9.78272V15.7128H1.9564V42.1259ZM45.0001 44.0823H33.261V27.452C33.261 25.8312 31.9469 24.5172 30.3262 24.5172C28.7051 24.5172 27.3914 25.8312 27.3914 27.452V44.0823H15.6523V13.7564H27.3914V15.725C29.1633 14.444 31.2944 13.755 33.4809 13.7564C39.8274 13.7564 45.0001 18.9045 45.0001 25.2388V44.0823ZM35.2174 42.1259H43.0433V25.2387C43.0301 19.9689 38.7508 15.706 33.4809 15.7128C31.0721 15.7128 28.8097 16.7277 27.1223 18.562L25.4346 20.4085V15.7128H17.6087V42.1259H25.4346V27.452C25.4346 24.7504 27.6246 22.5608 30.3262 22.5608C33.0274 22.5608 35.2174 24.7504 35.2174 27.452V42.1259ZM5.86956 11.7997C2.62773 11.7997 0 9.17194 0 5.93011C0 2.68864 2.62773 0.0605469 5.86956 0.0605469C9.11139 0.0605469 11.7391 2.68864 11.7391 5.93011C11.7323 9.169 9.10846 11.7932 5.86956 11.7997ZM5.86956 2.01731C3.70855 2.01731 1.9564 3.76919 1.9564 5.93011C1.9564 8.09139 3.70855 9.84327 5.86956 9.84327C8.03057 9.84327 9.78272 8.09139 9.78272 5.93011C9.78272 3.76919 8.03048 2.01731 5.86956 2.01731Z" fill="#FF8FFF"/>
</svg>
