<svg width="20" height="21" viewBox="0 0 20 21" fill="none" xmlns="http://www.w3.org/2000/svg">
<g clip-path="url(#clip0_17333_11574)">
<path d="M14.9838 9.83079C15.1207 9.81454 15.2607 9.81454 15.3969 9.83079C15.4719 9.66142 15.4851 9.36516 15.4163 9.04641C15.3188 8.57141 15.1851 8.28141 14.9051 8.32704C14.6282 8.37266 14.6188 8.71766 14.7163 9.19267C14.7751 9.45954 14.8726 9.69079 14.9832 9.83079H14.9838ZM12.6007 10.2083C12.7994 10.2964 12.9194 10.3545 12.9688 10.3027C12.9982 10.2702 12.9913 10.2114 12.9426 10.1333C12.8451 9.97392 12.6432 9.81079 12.4282 9.72017C11.9788 9.53141 11.4613 9.59329 11.0676 9.88266C10.9338 9.98016 10.8107 10.117 10.8269 10.1983C10.8332 10.2245 10.8532 10.2439 10.8988 10.2502C11.0094 10.2633 11.3901 10.0714 11.8332 10.042C12.1426 10.0227 12.4026 10.1202 12.6013 10.2083H12.6007ZM12.2007 10.4364C11.9401 10.4789 11.8001 10.5633 11.7094 10.6414C11.6282 10.7095 11.5826 10.7877 11.5826 10.8402L11.6019 10.8889L11.6444 10.9052C11.7032 10.9052 11.8332 10.8495 11.8332 10.8495C12.1001 10.752 12.3863 10.7195 12.6663 10.7652C12.7963 10.7783 12.8582 10.7877 12.8876 10.7427C12.8938 10.7295 12.9038 10.7033 12.8776 10.6614C12.8188 10.5608 12.5551 10.3939 12.2007 10.4364ZM14.1801 11.2758C14.3557 11.3602 14.5482 11.3277 14.6101 11.2008C14.6751 11.0708 14.5838 10.8945 14.4082 10.8102C14.2326 10.722 14.0401 10.7583 13.9751 10.8852C13.9132 11.0152 14.0044 11.1877 14.1801 11.2758ZM15.3094 10.2864C15.1663 10.2833 15.0457 10.4395 15.0457 10.6377C15.0426 10.8333 15.1532 10.9927 15.2963 10.9958C15.4394 10.9989 15.5569 10.8427 15.5601 10.6477C15.5632 10.452 15.4494 10.2895 15.3094 10.2864ZM5.72257 13.8214C5.68695 13.7789 5.6282 13.792 5.57257 13.8052C5.52695 13.8152 5.48132 13.8214 5.43882 13.8245C5.34132 13.8245 5.25007 13.7789 5.19445 13.7008C5.12945 13.6002 5.13257 13.4502 5.20445 13.2808L5.23695 13.2027C5.35445 12.9458 5.5432 12.5158 5.3282 12.1058C5.16882 11.7964 4.90507 11.6045 4.5857 11.5652C4.27945 11.5258 3.97695 11.6333 3.76507 11.8583C3.44945 12.2064 3.4007 12.682 3.46257 12.8514C3.48507 12.9133 3.52132 12.9295 3.54695 12.9327C3.59882 12.9389 3.67695 12.9002 3.72945 12.7664L3.74257 12.7239C3.76507 12.652 3.80757 12.5189 3.87257 12.4145C4.0482 12.1477 4.4032 12.0727 4.66695 12.2483C4.8882 12.3914 4.97632 12.6652 4.88195 12.922C4.8332 13.0589 4.75195 13.3127 4.77132 13.5245C4.80695 13.9508 5.06757 14.1202 5.30195 14.1395C5.53007 14.1495 5.68945 14.0189 5.73195 13.9245C5.75445 13.8689 5.73507 13.8364 5.72195 13.8202L5.72257 13.8214ZM18.9094 13.0433C18.8994 13.0108 18.8444 12.8027 18.7663 12.5552L18.6069 12.1289C18.9194 11.6602 18.9257 11.2402 18.8838 11.0027C18.8382 10.7095 18.7176 10.4589 18.4707 10.202C18.2263 9.94141 17.7219 9.67454 17.0126 9.47642L16.6413 9.37579C16.6413 9.35954 16.6219 8.49704 16.6057 8.12891C16.5957 7.86204 16.5732 7.44204 16.4432 7.03204C16.2901 6.47516 16.0201 5.98704 15.6844 5.67454C16.6088 4.71454 17.1882 3.65641 17.1851 2.75141C17.1819 1.00329 15.0432 0.47579 12.4063 1.56954L11.8463 1.80704C11.5044 1.47204 11.1657 1.13641 10.8207 0.801415C7.81257 -1.82546 -1.58805 8.64016 1.41632 11.1858L2.07382 11.7427C1.8982 12.2177 1.83632 12.7289 1.89132 13.237C1.9632 13.937 2.32132 14.6077 2.90695 15.1252C3.46007 15.6164 4.18945 15.9289 4.89945 15.9289C6.0682 18.6277 8.7407 20.2845 11.8719 20.3789C15.2344 20.4764 18.0569 18.8977 19.2382 16.0595C19.3163 15.8608 19.6451 14.9627 19.6451 14.1714C19.6451 13.3739 19.1957 13.0452 18.9094 13.0452V13.0433ZM5.15632 15.1658C5.0557 15.1852 4.9482 15.192 4.84382 15.1883C3.83132 15.162 2.73445 14.2477 2.62382 13.1602C2.5032 11.9589 3.11507 11.0377 4.19945 10.8195C4.34945 10.787 4.50195 10.777 4.65507 10.7839C5.26382 10.8195 6.15882 11.2852 6.3607 12.6102C6.5432 13.7852 6.25632 14.9802 5.15632 15.1689V15.1658ZM4.02382 10.1008C3.35007 10.2308 2.75445 10.6152 2.38945 11.1427C2.17132 10.9639 1.76757 10.612 1.69632 10.4752C1.11695 9.36829 2.33132 7.22329 3.17757 6.00891C5.27382 3.01392 8.5582 0.745165 10.0788 1.15516C10.3263 1.22704 11.1432 2.17704 11.1432 2.17704C11.1432 2.17704 9.6232 3.02016 8.2132 4.19829C6.3157 5.66329 4.8832 7.78891 4.02382 10.1002V10.1008ZM14.6776 14.7202C14.7001 14.7102 14.7169 14.6845 14.7132 14.6614C14.7101 14.6289 14.6838 14.6058 14.6513 14.6095C14.6513 14.6095 13.0626 14.847 11.5588 14.2939C11.7213 13.7633 12.1576 13.9552 12.8151 14.0077C13.8369 14.0695 14.8626 13.9589 15.8488 13.6789C16.5294 13.4833 17.4213 13.0995 18.1176 12.5495C18.3519 13.0639 18.4332 13.6302 18.4332 13.6302C18.4332 13.6302 18.6157 13.5977 18.7651 13.692C18.9082 13.7802 19.0126 13.9658 18.9407 14.4377C18.7976 15.3233 18.4201 16.0427 17.7882 16.7064C17.3944 17.1327 16.9257 17.4845 16.4013 17.7414C16.1113 17.8945 15.8088 18.0214 15.4994 18.1258C13.1163 18.9039 10.6782 18.0477 9.8907 16.2083C9.82882 16.0683 9.77695 15.922 9.73445 15.772C9.39945 14.5608 9.68257 13.1058 10.5744 12.1914C10.6263 12.1327 10.6819 12.0645 10.6819 11.9764C10.6819 11.9045 10.6363 11.8302 10.5976 11.7745C10.2882 11.322 9.2107 10.5539 9.4257 9.06266C9.58195 7.99141 10.5163 7.23954 11.3888 7.28204L11.6101 7.29516C11.9876 7.31766 12.3163 7.36704 12.6257 7.37954C13.1463 7.40204 13.6151 7.32766 14.1688 6.86516C14.3544 6.70891 14.5038 6.57204 14.7582 6.53016C14.7844 6.52704 14.8526 6.50079 14.9826 6.50767C15.1194 6.51392 15.2494 6.55642 15.3632 6.63142C15.8094 6.92767 15.8713 7.64391 15.8938 8.16766C15.9069 8.46704 15.9426 9.18954 15.9557 9.39829C15.9851 9.87329 16.1088 9.94204 16.3594 10.0233C16.5026 10.072 16.6363 10.1077 16.8282 10.1602C17.4176 10.3264 17.7657 10.4952 17.9838 10.7102C18.1176 10.8439 18.1757 10.987 18.1957 11.1233C18.2676 11.6314 17.8051 12.2564 16.5813 12.8258C15.2432 13.4477 13.6226 13.6039 12.5026 13.4802L12.1088 13.4345C11.2138 13.3139 10.7026 14.4727 11.2394 15.2708C11.5844 15.782 12.5319 16.117 13.4757 16.117C15.6407 16.117 17.3069 15.1895 17.9257 14.3883L17.9744 14.3164C18.0069 14.2708 17.9807 14.2483 17.9419 14.2739C17.4376 14.6189 15.1882 15.9958 12.7857 15.5827C12.7857 15.5827 12.4926 15.5339 12.2257 15.4295C12.0138 15.3483 11.5713 15.1433 11.5163 14.687C13.4563 15.2895 14.6769 14.7195 14.6769 14.7195L14.6776 14.7202ZM7.89382 5.99579C8.63945 5.13329 9.55695 4.38454 10.3776 3.96454C10.4069 3.94829 10.4363 3.98079 10.4232 4.00704C10.3582 4.12454 10.2313 4.38141 10.1919 4.57016C10.1857 4.59954 10.2182 4.62204 10.2407 4.60579C10.7551 4.25766 11.6438 3.88329 12.4251 3.83454C12.4576 3.83454 12.4738 3.87704 12.4476 3.89641C12.3176 3.99704 12.2032 4.11141 12.1026 4.24141C12.0863 4.26391 12.1026 4.29329 12.1288 4.29329C12.6788 4.29954 13.4507 4.49204 13.9519 4.77516C13.9876 4.79454 13.9651 4.85954 13.9257 4.85016C13.1638 4.67454 11.9169 4.54079 10.6219 4.86016C9.46632 5.14329 8.58445 5.57641 7.93945 6.04829C7.90695 6.07079 7.86757 6.02829 7.89382 5.99579Z" fill="black"/>
</g>
<defs>
<clipPath id="clip0_17333_11574">
<rect width="20" height="20" fill="white" transform="translate(6.10352e-05 0.380859)"/>
</clipPath>
</defs>
</svg>
