 <svg
                width="22"
                height="18"
                viewBox="0 0 22 18"
                fill="none"
                xmlns="http://www.w3.org/2000/svg"
              >
                <path
                  d="M21.1268 2.47144C20.8547 2.1498 20.4737 1.95333 20.0538 1.91827L5.26538 0.683454C4.84547 0.648386 4.4372 0.778938 4.11551 1.05099C3.79514 1.32198 3.59896 1.70109 3.56279 2.11891L3.26526 4.91026H2.07725C1.20756 4.91026 0.5 5.61782 0.5 6.48751V15.7448C0.5 16.6145 1.20756 17.322 2.07725 17.322H16.9172C17.7869 17.322 18.4945 16.6145 18.4945 15.7448V14.2431L19.0211 14.2871C19.0655 14.2907 19.1097 14.2926 19.1535 14.2926C19.9643 14.2926 20.6554 13.6688 20.7241 12.8465L21.4944 3.62135C21.5294 3.20148 21.3989 2.79313 21.1268 2.47144ZM2.07725 5.73057H16.9172C17.3346 5.73057 17.6742 6.07014 17.6742 6.48751V7.33104H1.32031V6.48751C1.32031 6.07014 1.65988 5.73057 2.07725 5.73057ZM1.32031 8.15135H17.6742V9.85303H1.32031V8.15135ZM16.9172 16.5017H2.07725C1.65988 16.5017 1.32031 16.1622 1.32031 15.7448V10.6733H17.6742V15.7448C17.6742 16.1622 17.3346 16.5017 16.9172 16.5017ZM20.6769 3.55306L19.9066 12.7782C19.8719 13.1942 19.5052 13.5044 19.0893 13.4696L18.4945 13.4199V6.48751C18.4945 5.61782 17.7869 4.91026 16.9172 4.91026H4.09025L4.37896 2.2016C4.37928 2.19848 4.37957 2.19541 4.37982 2.19225C4.41456 1.77631 4.78107 1.46607 5.19713 1.50093L19.9856 2.73575C20.1871 2.75256 20.37 2.84686 20.5005 3.00124C20.6311 3.15562 20.6938 3.35155 20.6769 3.55306Z"
                  fill="#5E54FF"
                />
                <path
                  d="M15.9577 11.8928H12.0103C11.7837 11.8928 11.6001 12.0764 11.6001 12.303V14.8783C11.6001 15.1048 11.7837 15.2885 12.0103 15.2885H15.9577C16.1842 15.2885 16.3678 15.1048 16.3678 14.8783V12.303C16.3678 12.0764 16.1842 11.8928 15.9577 11.8928ZM15.5475 14.4682H12.4204V12.7131H15.5475V14.4682Z"
                  fill="#5E54FF"
                />
              </svg>