<svg width="50" height="51" viewBox="0 0 50 51" fill="none" xmlns="http://www.w3.org/2000/svg">
<g clip-path="url(#clip0_20153_15663)">
<path d="M38.2812 7.92188V12.3164L35.3516 15.2461H2.92969L0 12.3164V7.92188C0 5.49014 1.96279 3.42969 4.39453 3.42969H33.8867C36.3185 3.42969 38.2812 5.49014 38.2812 7.92188Z" fill="#4D5A68"/>
<path d="M38.2812 7.92188V12.3164L35.3516 15.2461H19.1406V3.42969H33.8867C36.3185 3.42969 38.2812 5.49014 38.2812 7.92188Z" fill="#304653"/>
<path d="M38.2812 12.3164V46.0078C38.2812 48.4394 36.3185 50.5 33.8867 50.5H4.39453C1.96279 50.5 0 48.4394 0 46.0078V12.3164H38.2812Z" fill="#FFCA42"/>
<path d="M38.2812 12.3164V46.0078C38.2812 48.4394 36.3185 50.5 33.8867 50.5H19.1406V12.3164H38.2812Z" fill="#FFAF3E"/>
<path d="M7.32422 9.38672C6.51455 9.38672 5.85938 8.73154 5.85938 7.92188V1.96484C5.85938 1.15518 6.51455 0.5 7.32422 0.5C8.13389 0.5 8.78906 1.15518 8.78906 1.96484V7.92188C8.78906 8.73154 8.13389 9.38672 7.32422 9.38672ZM13.2812 9.38672C12.4716 9.38672 11.8164 8.73154 11.8164 7.92188V1.96484C11.8164 1.15518 12.4716 0.5 13.2812 0.5C14.0909 0.5 14.7461 1.15518 14.7461 1.96484V7.92188C14.7461 8.73154 14.0909 9.38672 13.2812 9.38672ZM20.6055 1.96484V7.92188C20.6055 8.74209 19.961 9.38672 19.1406 9.38672C18.3202 9.38672 17.6758 8.74209 17.6758 7.92188V1.96484C17.6758 1.14443 18.3202 0.5 19.1406 0.5C19.961 0.5 20.6055 1.14443 20.6055 1.96484Z" fill="#CAD4E4"/>
<path d="M25.0977 9.38672C24.288 9.38672 23.6328 8.73154 23.6328 7.92188V1.96484C23.6328 1.15518 24.288 0.5 25.0977 0.5C25.9073 0.5 26.5625 1.15518 26.5625 1.96484V7.92188C26.5625 8.73154 25.9073 9.38672 25.0977 9.38672ZM30.957 9.38672C30.1474 9.38672 29.4922 8.73154 29.4922 7.92188V1.96484C29.4922 1.15518 30.1474 0.5 30.957 0.5C31.7667 0.5 32.4219 1.15518 32.4219 1.96484V7.92188C32.4219 8.73154 31.7667 9.38672 30.957 9.38672Z" fill="#ADB5CC"/>
<path d="M20.6055 40.1484C20.6055 40.9687 19.961 41.6133 19.1406 41.6133H7.32422C6.50381 41.6133 5.85938 40.9687 5.85938 40.1484C5.85938 39.328 6.50381 38.6836 7.32422 38.6836H19.1406C19.961 38.6836 20.6055 39.328 20.6055 40.1484ZM16.2109 32.8242H7.32422C6.51455 32.8242 5.85938 32.169 5.85938 31.3594C5.85938 30.5497 6.51455 29.8945 7.32422 29.8945H16.2109C17.0206 29.8945 17.6758 30.5497 17.6758 31.3594C17.6758 32.169 17.0206 32.8242 16.2109 32.8242ZM13.2812 24.0352H7.32422C6.51455 24.0352 5.85938 23.38 5.85938 22.5703C5.85938 21.7606 6.51455 21.1055 7.32422 21.1055H13.2812C14.0909 21.1055 14.7461 21.7606 14.7461 22.5703C14.7461 23.38 14.0909 24.0352 13.2812 24.0352Z" fill="#DD864D"/>
<path d="M40.0328 32.1573C40.5277 23.8939 46.2872 19.1752 46.624 18.7013C47.2857 18.018 47.1271 16.8906 46.3024 16.4145L44.4776 15.3609C43.7764 14.956 43.5366 14.0611 43.9414 13.3599C44.3463 12.6587 45.2412 12.4189 45.9424 12.8237L47.7672 13.8774C50.2419 15.3061 50.7178 18.6806 48.7288 20.7375C48.2549 21.3986 43.3929 25.0402 42.9576 32.3329C42.909 33.1407 42.2152 33.756 41.4074 33.7075C40.5927 33.6564 39.9857 32.9594 40.0328 32.1573Z" fill="#304653"/>
<path d="M49.4085 9.75076L47.2112 13.5565L43.4122 14.7461L40.4689 13.0468L39.5996 9.1619L41.7969 5.35613C43.0127 3.25027 45.694 2.53182 47.7999 3.74764C49.9058 4.96346 50.6243 7.6449 49.4085 9.75076Z" fill="#4D5A68"/>
<path d="M43.4125 14.7444L41.9409 13.8948L47.8003 3.74609C49.9062 4.96191 50.6246 7.64326 49.4088 9.74912L47.2115 13.5549L43.4125 14.7444Z" fill="#304653"/>
<path d="M33.4517 37.6804L25.5864 33.1394C26.0017 28.8461 27.5566 24.8048 30.2282 21.4081C30.6813 20.8578 38.5569 10.7906 38.9262 10.3271L39.5999 9.16016L47.2114 13.5547L46.5522 14.6965C46.5083 14.7726 41.4738 27.3597 41.2902 27.7948C39.6845 31.8068 36.9621 35.1742 33.4517 37.6804Z" fill="#E9336D"/>
<path d="M33.4517 37.6823L29.519 35.4118L43.4058 11.3594L47.2115 13.5566L46.5523 14.6984C46.5084 14.7745 41.4739 27.3616 41.2903 27.7968C39.6845 31.8088 36.9621 35.1762 33.4517 37.6823Z" fill="#B12E65"/>
<path d="M31.1303 32.6207C29.5573 31.7125 27.6639 31.7694 26.1331 32.7801L25.5864 33.1411C25.5706 33.4026 25.5042 33.635 25.4885 33.8965L25.1157 40.1089L23.8266 42.3416C23.4166 43.0519 23.6523 43.9324 24.3628 44.3426C25.0732 44.7527 25.9537 44.5167 26.3637 43.8064L27.6528 41.5737L32.8463 38.1446C33.0649 38.0003 33.2329 37.8266 33.4515 37.6822L33.4909 37.0283C33.6007 35.1971 32.7034 33.5289 31.1303 32.6207Z" fill="#CAD4E4"/>
<path d="M31.1302 32.62L27.2923 39.2674L24.3626 44.3418C25.073 44.752 25.9535 44.5159 26.3636 43.8057L27.6526 41.5729L32.8462 38.1438C33.0647 37.9995 33.2327 37.8259 33.4514 37.6814L33.4907 37.0275C33.6006 35.1965 32.7032 33.5282 31.1302 32.62ZM19.1406 9.38672V0.5C19.961 0.5 20.6055 1.14443 20.6055 1.96484V7.92188C20.6055 8.74209 19.961 9.38672 19.1406 9.38672Z" fill="#ADB5CC"/>
<path d="M20.6055 40.1484C20.6055 40.9687 19.961 41.6133 19.1406 41.6133V38.6836C19.961 38.6836 20.6055 39.328 20.6055 40.1484Z" fill="#D36836"/>
</g>
<defs>
<clipPath id="clip0_20153_15663">
<rect width="50" height="50" fill="white" transform="translate(0 0.5)"/>
</clipPath>
</defs>
</svg>
