  <svg
                  width="21"
                  height="13"
                  viewBox="0 0 21 13"
                  fill="none"
                  xmlns="http://www.w3.org/2000/svg"
                >
                  <path
                    d="M3.53603 10.5649C3.51767 10.5649 3.49892 10.5637 3.47978 10.561C2.58984 10.4331 1.72896 10.1513 0.935636 9.7282C0.846495 9.67814 0.780506 9.59516 0.751807 9.49703C0.723108 9.39891 0.733981 9.29345 0.782097 9.20324C0.830213 9.11304 0.911745 9.04527 1.00922 9.01445C1.1067 8.98363 1.21238 8.99221 1.3036 9.03836C2.01671 9.4192 2.79083 9.67261 3.5911 9.78719C3.68849 9.80173 3.7768 9.85247 3.8384 9.92928C3.9 10.0061 3.93035 10.1033 3.9234 10.2015C3.91644 10.2998 3.87269 10.3917 3.80088 10.4591C3.72907 10.5265 3.63449 10.5642 3.53603 10.5649ZM17.4532 10.5649C17.3544 10.5649 17.2593 10.5275 17.187 10.4601C17.1147 10.3927 17.0706 10.3005 17.0636 10.2019C17.0566 10.1033 17.0872 10.0058 17.1493 9.9289C17.2114 9.85202 17.3003 9.80152 17.3981 9.78758C18.1984 9.67306 18.9725 9.41964 19.6856 9.03875C19.7765 8.99593 19.8803 8.98969 19.9757 9.0213C20.071 9.05292 20.1506 9.11998 20.1978 9.2086C20.2451 9.29723 20.2565 9.40063 20.2296 9.49742C20.2028 9.59421 20.1398 9.67698 20.0536 9.72859C19.2603 10.1517 18.3994 10.4335 17.5095 10.5614C17.4908 10.5637 17.472 10.5649 17.4532 10.5649ZM13.3673 7.05828C13.2968 7.05849 13.2277 7.03961 13.1671 7.00364C13.1065 6.96768 13.0568 6.91598 13.0233 6.85404C12.9898 6.7921 12.9736 6.72223 12.9766 6.65186C12.9796 6.58149 13.0016 6.51324 13.0403 6.45437C13.311 6.03749 13.6818 5.69501 14.1188 5.45818C14.5558 5.22135 15.0452 5.0977 15.5423 5.09851C15.6459 5.09851 15.7452 5.13967 15.8185 5.21293C15.8917 5.28618 15.9329 5.38554 15.9329 5.48914C15.9329 5.59274 15.8917 5.6921 15.8185 5.76535C15.7452 5.83861 15.6459 5.87976 15.5423 5.87976C15.1752 5.87905 14.8139 5.9703 14.4912 6.14519C14.1685 6.32008 13.8948 6.57303 13.695 6.88094C13.6596 6.93553 13.611 6.98037 13.5537 7.01135C13.4965 7.04233 13.4324 7.05847 13.3673 7.05828Z"
                    fill="#5E54FF"
                  />
                  <path
                    d="M16.4083 5.87966C15.0235 5.87966 13.854 4.71013 13.854 3.32576C13.854 1.94138 15.0235 0.771851 16.4083 0.771851C17.7927 0.771851 18.9622 1.94138 18.9622 3.32576C18.9622 4.71013 17.7927 5.87966 16.4083 5.87966ZM16.4083 1.5531C15.4474 1.5531 14.6353 2.36482 14.6353 3.32576C14.6353 4.28669 15.4474 5.09841 16.4083 5.09841C17.3692 5.09841 18.181 4.28669 18.181 3.32576C18.181 2.36482 17.3692 1.5531 16.4083 1.5531Z"
                    fill="#5E54FF"
                  />
                  <path
                    d="M19.8696 8.47622C19.766 8.47622 19.6667 8.43507 19.5934 8.36181C19.5202 8.28855 19.479 8.1892 19.479 8.08559C19.4783 7.50089 19.2457 6.94034 18.8322 6.52689C18.4188 6.11344 17.8582 5.88085 17.2735 5.88013C17.1699 5.88013 17.0706 5.83897 16.9973 5.76572C16.9241 5.69246 16.8829 5.5931 16.8829 5.4895C16.8829 5.3859 16.9241 5.28654 16.9973 5.21329C17.0706 5.14003 17.1699 5.09888 17.2735 5.09888C18.9204 5.09888 20.2602 6.43911 20.2602 8.08559C20.2602 8.1892 20.2191 8.28855 20.1458 8.36181C20.0726 8.43507 19.9732 8.47622 19.8696 8.47622Z"
                    fill="#5E54FF"
                  />
                  <path
                    d="M17.2735 5.87976H15.5427C15.4391 5.87976 15.3397 5.83861 15.2665 5.76535C15.1932 5.69209 15.1521 5.59274 15.1521 5.48914C15.1521 5.38554 15.1932 5.28618 15.2665 5.21292C15.3397 5.13967 15.4391 5.09851 15.5427 5.09851H17.2735C17.3771 5.09851 17.4765 5.13967 17.5497 5.21292C17.623 5.28618 17.6642 5.38554 17.6642 5.48914C17.6642 5.59274 17.623 5.69209 17.5497 5.76535C17.4765 5.83861 17.3771 5.87976 17.2735 5.87976ZM19.8696 9.77429C19.766 9.77429 19.6667 9.73314 19.5934 9.65988C19.5202 9.58662 19.479 9.48727 19.479 9.38367V8.08562C19.479 7.98202 19.5202 7.88266 19.5934 7.80941C19.6667 7.73615 19.766 7.69499 19.8696 7.69499C19.9732 7.69499 20.0726 7.73615 20.1458 7.80941C20.2191 7.88266 20.2603 7.98202 20.2603 8.08562V9.38367C20.2603 9.48727 20.2191 9.58662 20.1458 9.65988C20.0726 9.73314 19.9732 9.77429 19.8696 9.77429ZM5.87939 10.0626C5.77579 10.0626 5.67644 10.0214 5.60318 9.94816C5.52992 9.87491 5.48877 9.77555 5.48877 9.67195C5.48877 7.54773 7.21689 5.82 9.34072 5.82C9.44432 5.82 9.54368 5.86115 9.61694 5.93441C9.69019 6.00766 9.73135 6.10702 9.73135 6.21062C9.73135 6.31422 9.69019 6.41358 9.61694 6.48683C9.54368 6.56009 9.44432 6.60124 9.34072 6.60124C7.64736 6.60124 6.27002 7.97859 6.27002 9.67195C6.27002 9.77555 6.22886 9.87491 6.15561 9.94816C6.08235 10.0214 5.98299 10.0626 5.87939 10.0626Z"
                    fill="#5E54FF"
                  />
                  <path
                    d="M11.6485 6.60125H9.34071C9.23711 6.60125 9.13775 6.56009 9.0645 6.48684C8.99124 6.41358 8.95009 6.31423 8.95009 6.21062C8.95009 6.10702 8.99124 6.00767 9.0645 5.93441C9.13775 5.86115 9.23711 5.82 9.34071 5.82H11.6485C11.7521 5.82 11.8515 5.86115 11.9247 5.93441C11.998 6.00767 12.0391 6.10702 12.0391 6.21062C12.0391 6.31423 11.998 6.41358 11.9247 6.48684C11.8515 6.56009 11.7521 6.60125 11.6485 6.60125ZM7.62196 7.05828C7.55688 7.05836 7.49282 7.04218 7.43558 7.01121C7.37835 6.98024 7.32976 6.93546 7.29423 6.88094C7.09438 6.5731 6.82064 6.32021 6.49797 6.14533C6.1753 5.97045 5.81397 5.87916 5.44696 5.87977C5.34336 5.87977 5.244 5.83861 5.17075 5.76535C5.09749 5.6921 5.05634 5.59274 5.05634 5.48914C5.05634 5.38554 5.09749 5.28618 5.17075 5.21293C5.244 5.13967 5.34336 5.09852 5.44696 5.09852C5.94404 5.09763 6.43343 5.22125 6.87046 5.45808C7.3075 5.69492 7.67826 6.03744 7.94891 6.45437C7.98731 6.5133 8.0091 6.5815 8.01196 6.65177C8.01482 6.72204 7.99865 6.79178 7.96517 6.85363C7.93168 6.91548 7.88212 6.96714 7.82171 7.00316C7.7613 7.03918 7.69229 7.05823 7.62196 7.05828ZM5.87938 11.7934C5.77578 11.7934 5.67643 11.7523 5.60317 11.679C5.52991 11.6058 5.48876 11.5064 5.48876 11.4028V9.67195C5.48876 9.56835 5.52991 9.469 5.60317 9.39574C5.67643 9.32248 5.77578 9.28133 5.87938 9.28133C5.98298 9.28133 6.08234 9.32248 6.1556 9.39574C6.22885 9.469 6.27001 9.56835 6.27001 9.67195V11.4028C6.27001 11.5064 6.22885 11.6058 6.1556 11.679C6.08234 11.7523 5.98298 11.7934 5.87938 11.7934Z"
                    fill="#5E54FF"
                  />
                  <path
                    d="M10.4946 6.6012C8.71924 6.6012 7.21924 5.1012 7.21924 3.32581C7.21924 1.55042 8.71924 0.050415 10.4946 0.050415C12.27 0.050415 13.77 1.55042 13.77 3.32581C13.77 5.1012 12.27 6.6012 10.4946 6.6012ZM10.4946 0.831665C9.14268 0.831665 8.00049 1.97385 8.00049 3.32581C8.00049 4.67776 9.14268 5.81995 10.4946 5.81995C11.8466 5.81995 12.9888 4.67776 12.9888 3.32581C12.9888 1.97385 11.8466 0.831665 10.4946 0.831665Z"
                    fill="#5E54FF"
                  />
                  <path
                    d="M15.1099 10.0625C15.0063 10.0625 14.9069 10.0214 14.8336 9.94811C14.7604 9.87486 14.7192 9.7755 14.7192 9.6719C14.7192 7.97854 13.3419 6.6012 11.6485 6.6012C11.5449 6.6012 11.4456 6.56004 11.3723 6.48678C11.2991 6.41353 11.2579 6.31417 11.2579 6.21057C11.2579 6.10697 11.2991 6.00761 11.3723 5.93436C11.4456 5.8611 11.5449 5.81995 11.6485 5.81995C13.7727 5.81995 15.5005 7.54807 15.5005 9.6719C15.5005 9.7755 15.4593 9.87486 15.3861 9.94811C15.3128 10.0214 15.2135 10.0625 15.1099 10.0625Z"
                    fill="#5E54FF"
                  />
                  <path
                    d="M15.1099 11.7934C15.0063 11.7934 14.9069 11.7522 14.8337 11.6789C14.7604 11.6057 14.7192 11.5063 14.7192 11.4027V9.67188C14.7192 9.56827 14.7604 9.46892 14.8337 9.39566C14.9069 9.3224 15.0063 9.28125 15.1099 9.28125C15.2135 9.28125 15.3128 9.3224 15.3861 9.39566C15.4593 9.46892 15.5005 9.56827 15.5005 9.67188V11.4027C15.5005 11.5063 15.4593 11.6057 15.3861 11.6789C15.3128 11.7522 15.2135 11.7934 15.1099 11.7934Z"
                    fill="#5E54FF"
                  />
                  <path
                    d="M10.4946 12.9496C8.84618 12.9496 7.19813 12.5488 5.6954 11.7476C5.60923 11.696 5.5462 11.6133 5.51936 11.5165C5.49251 11.4197 5.50391 11.3163 5.55118 11.2276C5.59845 11.139 5.67798 11.072 5.77332 11.0403C5.86866 11.0087 5.97251 11.015 6.06337 11.0578C7.42676 11.7866 8.94886 12.1678 10.4948 12.1678C12.0408 12.1678 13.5629 11.7866 14.9263 11.0578C15.0171 11.015 15.121 11.0087 15.2163 11.0403C15.3116 11.072 15.3912 11.139 15.4384 11.2276C15.4857 11.3163 15.4971 11.4197 15.4703 11.5165C15.4434 11.6133 15.3804 11.696 15.2942 11.7476C13.8172 12.5361 12.1689 12.9489 10.4946 12.9496ZM4.58094 5.87966C3.19657 5.87966 2.02704 4.71013 2.02704 3.32576C2.02704 1.94138 3.19657 0.771851 4.58094 0.771851C5.96532 0.771851 7.13485 1.94138 7.13485 3.32576C7.13485 4.71013 5.96532 5.87966 4.58094 5.87966ZM4.58094 1.5531C3.62001 1.5531 2.80829 2.36482 2.80829 3.32576C2.80829 4.28669 3.62001 5.09841 4.58094 5.09841C5.54188 5.09841 6.3536 4.28669 6.3536 3.32576C6.3536 2.36482 5.54188 1.5531 4.58094 1.5531Z"
                    fill="#5E54FF"
                  />
                  <path
                    d="M1.11963 8.47622C1.01603 8.47622 0.916672 8.43507 0.843415 8.36181C0.770159 8.28855 0.729004 8.1892 0.729004 8.08559C0.729004 6.43872 2.06924 5.09888 3.71572 5.09888C3.81932 5.09888 3.91868 5.14003 3.99194 5.21329C4.06519 5.28654 4.10635 5.3859 4.10635 5.4895C4.10635 5.5931 4.06519 5.69246 3.99194 5.76572C3.91868 5.83897 3.81932 5.88013 3.71572 5.88013C3.13095 5.88064 2.57029 6.11317 2.15679 6.52667C1.7433 6.94016 1.51077 7.50083 1.51025 8.08559C1.51025 8.1892 1.4691 8.28855 1.39584 8.36181C1.32259 8.43507 1.22323 8.47622 1.11963 8.47622Z"
                    fill="#5E54FF"
                  />
                  <path
                    d="M5.44658 5.87976H3.71572C3.61212 5.87976 3.51277 5.83861 3.43951 5.76535C3.36625 5.69209 3.3251 5.59274 3.3251 5.48914C3.3251 5.38554 3.36625 5.28618 3.43951 5.21292C3.51277 5.13967 3.61212 5.09851 3.71572 5.09851H5.44658C5.55018 5.09851 5.64954 5.13967 5.7228 5.21292C5.79605 5.28618 5.83721 5.38554 5.83721 5.48914C5.83721 5.59274 5.79605 5.69209 5.7228 5.76535C5.64954 5.83861 5.55018 5.87976 5.44658 5.87976ZM1.11963 9.77429C1.01603 9.77429 0.916672 9.73314 0.843415 9.65988C0.770159 9.58662 0.729004 9.48727 0.729004 9.38367V8.08562C0.729004 7.98202 0.770159 7.88266 0.843415 7.80941C0.916672 7.73615 1.01603 7.69499 1.11963 7.69499C1.22323 7.69499 1.32259 7.73615 1.39584 7.80941C1.4691 7.88266 1.51025 7.98202 1.51025 8.08562V9.38367C1.51025 9.48727 1.4691 9.58662 1.39584 9.65988C1.32259 9.73314 1.22323 9.77429 1.11963 9.77429Z"
                    fill="#5E54FF"
                  />
                </svg>