<svg width="40" height="41" viewBox="0 0 40 41" fill="none" xmlns="http://www.w3.org/2000/svg">
<rect y="0.5" width="40" height="40" rx="12" fill="#335BFB" fill-opacity="0.1"/>
<path d="M25.8437 18.0286C26.4699 18.2298 26.9062 18.8276 26.9062 19.514V22.5499C26.9062 23.3546 26.3063 24.0374 25.5037 24.1033C25.2629 24.1224 25.0221 24.1401 24.7812 24.1543V26.3438L22.6562 24.2188C21.6972 24.2188 20.748 24.1798 19.8087 24.1033C19.6043 24.0868 19.4054 24.0284 19.2244 23.9319M25.8437 18.0286C25.7343 17.9934 25.6212 17.9708 25.5066 17.9613C23.6096 17.8039 21.7029 17.8039 19.8059 17.9613C19.0048 18.0279 18.4062 18.71 18.4062 19.514V22.5499C18.4062 23.1428 18.7321 23.6691 19.2244 23.9319M25.8437 18.0286V16.7012C25.8437 15.553 25.0277 14.5578 23.8887 14.4098C22.4231 14.2198 20.9467 14.1247 19.4687 14.125C17.9706 14.125 16.4952 14.222 15.0488 14.4098C13.9098 14.5578 13.0938 15.553 13.0938 16.7012V21.1113C13.0938 22.2595 13.9098 23.2547 15.0488 23.4028C15.4575 23.4559 15.8683 23.5019 16.2812 23.5402V26.875L19.2244 23.9319" stroke="#675FFF" stroke-width="1.5" stroke-linecap="round" stroke-linejoin="round"/>
</svg>
