 <svg
                  width="26"
                  height="25"
                  viewBox="0 0 26 25"
                  fill="none"
                  xmlns="http://www.w3.org/2000/svg"
                >
                  <g clip-path="url(#clip0_16499_3778)">
                    <path
                      d="M9.08664 19.1357C9.08029 19.1045 9.07101 19.0737 9.05881 19.0439C9.0466 19.0146 9.03146 18.9863 9.01389 18.96C8.9963 18.9332 8.97601 18.9083 8.95334 18.8857C8.93074 18.8631 8.90587 18.8428 8.87912 18.8252C8.85252 18.8075 8.82423 18.7924 8.79465 18.7803C8.76535 18.7681 8.73459 18.7583 8.70334 18.7524C8.6405 18.7397 8.57575 18.7397 8.51291 18.7524C8.48166 18.7583 8.4509 18.7681 8.42111 18.7803C8.39182 18.7925 8.36349 18.8076 8.33713 18.8252C8.31027 18.8428 8.28537 18.8633 8.26291 18.8857C8.24045 18.9082 8.21994 18.9331 8.20236 18.96C8.1843 18.9863 8.16965 19.0146 8.15744 19.0439C8.14508 19.0735 8.13575 19.1043 8.12961 19.1357C8.12326 19.167 8.11984 19.1992 8.11984 19.231C8.11984 19.2627 8.12326 19.2949 8.12961 19.3262C8.13547 19.3574 8.14523 19.3882 8.15744 19.4175C8.16965 19.4473 8.1843 19.4756 8.20236 19.502C8.21994 19.5288 8.24045 19.5537 8.26291 19.5762C8.28537 19.5986 8.31027 19.6191 8.33713 19.6367C8.36349 19.6543 8.39182 19.6695 8.42111 19.6817C8.4509 19.6939 8.48166 19.7037 8.51291 19.7095C8.54416 19.7159 8.57639 19.7193 8.60812 19.7193C8.63986 19.7193 8.67209 19.7159 8.70334 19.7095C8.73459 19.7037 8.76535 19.6939 8.79465 19.6817C8.82443 19.6695 8.85275 19.6543 8.87912 19.6367C8.90587 19.6191 8.93074 19.5988 8.95334 19.5762C8.9758 19.5537 8.99631 19.5288 9.01389 19.502C9.03146 19.4756 9.0466 19.4473 9.05881 19.4175C9.08333 19.3583 9.0961 19.295 9.09641 19.231C9.09641 19.1992 9.09299 19.167 9.08664 19.1357Z"
                      fill="#5E54FF"
                    />
                    <path
                      d="M23.1219 19.2862C23.1201 19.2813 23.1181 19.2765 23.116 19.2717C22.6666 18.2201 21.6126 17.8314 20.3653 18.2574L16.9635 19.1982C16.7668 18.6026 16.2762 18.0957 15.5826 17.8383C15.5783 17.8367 15.574 17.8352 15.5696 17.8337L11.8303 16.5646C11.5191 16.1623 10.5442 15.1329 8.71887 15.1329C7.44323 15.1329 6.31476 16.008 5.66916 16.9618H1.14963C0.87995 16.9618 0.661346 17.1804 0.661346 17.4501V23.6062C0.661346 23.8759 0.87995 24.0945 1.14963 24.0945H4.0528C4.32248 24.0945 4.54108 23.8759 4.54108 23.6062V23.1846H5.90256C6.17224 23.1846 6.39084 22.966 6.39084 22.6964V22.5558C7.18449 22.6251 7.44553 22.7756 8.17443 23.1959C8.73498 23.5192 9.5822 24.0077 11.1079 24.6937C11.115 24.6968 11.1221 24.6999 11.1293 24.7027C11.4221 24.8179 11.9945 24.9989 12.7003 24.9989C13.1915 24.9989 13.7474 24.9111 14.318 24.6525L21.8371 21.9603C21.8505 21.9555 21.8636 21.9501 21.8765 21.9442C22.5951 21.6135 23.666 20.6818 23.1219 19.2862ZM3.56452 23.1179H1.63791V17.9384H3.56452V23.1179ZM5.41428 22.208H4.54108V17.9384H5.41428V22.208ZM21.4863 21.0485L13.9706 23.7395C13.9565 23.7446 13.9426 23.7503 13.9289 23.7565C12.8822 24.2375 11.8872 23.9495 11.4973 23.7979C10.0236 23.1348 9.23698 22.6812 8.66227 22.3498C7.86325 21.8891 7.47824 21.667 6.39084 21.5772V17.6445C6.85368 16.8859 7.75124 16.1094 8.71891 16.1094C10.3784 16.1094 11.0816 17.1887 11.1092 17.2323C11.1688 17.3293 11.2604 17.4024 11.3682 17.4389L15.2488 18.756C15.8686 18.9886 16.1962 19.5194 16.0456 20.0487C16.0118 20.169 15.9544 20.2814 15.8768 20.3794C15.7992 20.4774 15.703 20.559 15.5936 20.6196C15.3754 20.7419 15.1176 20.7727 14.8767 20.7054L10.502 19.3191C10.2448 19.2376 9.97048 19.38 9.88903 19.637C9.80754 19.8941 9.94992 20.1685 10.207 20.25L14.5893 21.6387C14.5939 21.6402 14.5986 21.6416 14.6032 21.6429C14.7757 21.6922 14.9541 21.7172 15.1334 21.7173C15.4575 21.7173 15.778 21.6347 16.069 21.4726C16.5188 21.222 16.8441 20.8112 16.9849 20.3158C16.9962 20.2762 17.0061 20.2367 17.0148 20.1971L20.6809 19.1815C21.2104 19.0007 21.9055 18.9355 22.215 19.6482C22.5353 20.485 21.7028 20.9453 21.4863 21.0485ZM18.1936 6.42297C18.1872 6.39172 18.1779 6.36096 18.1653 6.33118C18.153 6.30188 18.1384 6.27356 18.1203 6.24719C18.1027 6.22044 18.0825 6.19557 18.0598 6.17297C18.0372 6.1503 18.0123 6.13001 17.9856 6.11243C17.9592 6.09485 17.9309 6.07971 17.9016 6.0675C17.8721 6.05521 17.8416 6.04589 17.8103 6.03967C17.7473 6.02698 17.6824 6.02698 17.6194 6.03967C17.5881 6.04553 17.5573 6.0553 17.528 6.0675C17.4983 6.07971 17.4699 6.09485 17.4436 6.11243C17.4167 6.13 17.3918 6.15051 17.3694 6.17297C17.3469 6.19543 17.3264 6.22034 17.3088 6.24719C17.2912 6.27356 17.2761 6.30188 17.2639 6.33118C17.2515 6.36075 17.2422 6.39151 17.2361 6.42297C17.2297 6.45422 17.2263 6.48645 17.2263 6.51819C17.2263 6.54993 17.2297 6.58215 17.2361 6.6134C17.2419 6.64465 17.2517 6.67541 17.2639 6.70471C17.2761 6.7345 17.2912 6.76282 17.3088 6.78918C17.3264 6.81604 17.3469 6.84094 17.3694 6.8634C17.3918 6.88586 17.4167 6.90637 17.4436 6.92395C17.4699 6.94153 17.4983 6.95666 17.528 6.96887C17.5573 6.98108 17.5881 6.99036 17.6194 6.9967C17.6506 7.00305 17.6828 7.00647 17.7146 7.00647C17.7463 7.00647 17.7785 7.00305 17.8103 6.9967C17.841 6.99036 17.8718 6.98108 17.9016 6.96887C17.9309 6.95666 17.9592 6.94153 17.9856 6.92395C18.0123 6.90636 18.0372 6.88607 18.0598 6.8634C18.0822 6.84094 18.1028 6.81604 18.1203 6.78918C18.1384 6.76282 18.153 6.7345 18.1653 6.70471C18.1779 6.67541 18.1872 6.64465 18.1936 6.6134C18.1999 6.58215 18.2029 6.54993 18.2029 6.51819C18.2029 6.48645 18.1999 6.45422 18.1936 6.42297Z"
                      fill="#5E54FF"
                    />
                    <path
                      d="M25.1731 1.6548H22.2699C22.0002 1.6548 21.7816 1.8734 21.7816 2.14308V2.56466H20.4201C20.1505 2.56466 19.9319 2.78326 19.9319 3.05294V3.19347C19.1382 3.12418 18.8772 2.97369 18.1483 2.55338C17.5878 2.23014 16.7405 1.74161 15.2148 1.05563C15.2077 1.05242 15.2006 1.0494 15.1933 1.04659C14.6967 0.851184 13.3951 0.466711 12.0049 1.09674L10.0401 1.80026L8.38385 0.144104C8.19318 -0.0465698 7.884 -0.0465698 7.69333 0.144104L2.25593 5.58146C2.08005 5.75739 2.04631 6.06241 2.25593 6.27203L11.5473 15.5634C11.696 15.7121 12.0441 15.7571 12.2379 15.5634L17.202 10.5993C17.331 10.6105 17.465 10.6165 17.6038 10.6165C18.8795 10.6165 20.0079 9.74137 20.6534 8.78756H25.1731C25.4427 8.78756 25.6613 8.56896 25.6613 8.29928V2.14308C25.6613 1.8734 25.4427 1.6548 25.1731 1.6548ZM8.03854 1.1799L9.15143 2.29279C8.82062 2.49738 8.43815 2.60685 8.03854 2.60685C7.63888 2.60685 7.25646 2.49742 6.92565 2.29279L8.03854 1.1799ZM4.40466 7.03966L3.29177 5.92672L4.40466 4.81383C4.60925 5.14464 4.71872 5.52711 4.71872 5.92672C4.71872 6.32633 4.60929 6.7088 4.40466 7.03966ZM11.8926 14.5276L10.7799 13.4149C11.4592 12.9956 12.3258 12.9956 13.0052 13.4149L11.8926 14.5276ZM13.7088 12.7114C12.6298 11.9287 11.1554 11.9287 10.0764 12.7114L5.10812 7.74308C5.48942 7.21866 5.69528 6.58873 5.69528 5.92672C5.69528 5.26466 5.48947 4.63478 5.10812 4.11036L6.22223 2.9963C6.74665 3.3776 7.37653 3.58346 8.03859 3.58346C8.70065 3.58346 9.33053 3.3776 9.85495 2.9963L10.9111 4.0524C10.6802 4.08672 10.4574 4.16269 10.2537 4.27662C9.90373 4.47164 9.62912 4.76368 9.45812 5.117C8.90469 5.21957 8.39538 5.48757 7.99743 5.88561C6.91222 6.97086 6.91222 8.73663 7.99748 9.82189C8.54006 10.3645 9.2528 10.6358 9.96559 10.6358C10.6783 10.6358 11.3911 10.3645 11.9338 9.82189C12.2868 9.46886 12.5341 9.03497 12.658 8.56212L14.3066 9.12164C14.121 9.98141 14.3111 10.8859 14.8238 11.5963L13.7088 12.7114ZM10.7401 7.911C10.7444 7.91256 10.7487 7.91412 10.753 7.91559L11.7294 8.24698C11.6557 8.57975 11.4888 8.8857 11.2432 9.13136C10.5387 9.83575 9.39245 9.83585 8.68805 9.13136C7.98356 8.42692 7.98356 7.28068 8.68805 6.57618C8.85652 6.40761 9.05669 6.27405 9.27702 6.18322C9.36716 6.93331 9.90724 7.60192 10.7401 7.911ZM15.5274 10.8927C15.3396 10.5859 15.2323 10.2367 15.2154 9.87731C15.4812 10.0692 15.7706 10.226 16.0766 10.3436L15.5274 10.8927ZM19.9318 8.1046C19.469 8.86329 18.5715 9.63981 17.6038 9.63981C17.4227 9.63981 17.253 9.62692 17.0944 9.60397L17.0925 9.60367C16.038 9.4505 15.4708 8.85118 15.2838 8.61388C15.2738 8.59923 15.2314 8.54371 15.2251 8.53448C15.1663 8.4291 15.0704 8.34934 14.956 8.31071L11.0738 6.99308C10.4543 6.76056 10.1268 6.23004 10.2769 5.70094L10.2772 5.69991L10.2775 5.69869C10.3115 5.57873 10.3689 5.46668 10.4464 5.36901C10.5239 5.27133 10.6199 5.18995 10.729 5.12955C10.9472 5.00717 11.205 4.97632 11.446 5.04376L15.8206 6.43004C16.0778 6.51163 16.3522 6.36915 16.4336 6.11207C16.5151 5.85499 16.3727 5.58058 16.1156 5.49908L12.6364 4.39655L12.606 4.36617L12.6051 4.36525L10.8038 2.56398L12.3521 2.00958C12.3573 2.00768 12.3637 2.00529 12.3689 2.00319L12.374 2.00114C12.3807 1.99845 12.3872 1.99562 12.3937 1.99264C13.4404 1.51158 14.4353 1.79952 14.8253 1.95118C16.2991 2.61432 17.0857 3.06788 17.6604 3.39928C18.4594 3.86007 18.8444 4.08209 19.9318 4.17189V8.1046ZM21.7816 7.8109H20.9084V3.54122H21.7816V7.8109ZM24.6848 7.8109H22.7582V2.63136H24.6848V7.8109Z"
                      fill="#5E54FF"
                    />
                  </g>
                  <defs>
                    <clipPath id="clip0_16499_3778">
                      <rect
                        width="25"
                        height="25"
                        fill="white"
                        transform="translate(0.661346)"
                      />
                    </clipPath>
                  </defs>
                </svg>