  <svg
                width="14"
                height="14"
                viewBox="0 0 14 14"
                fill="none"
                xmlns="http://www.w3.org/2000/svg"
              >
                <path
                  d="M10.2001 2.80441L11.2545 1.74941C11.4743 1.52961 11.7724 1.40613 12.0832 1.40613C12.3941 1.40613 12.6922 1.52961 12.912 1.74941C13.1318 1.96921 13.2553 2.26732 13.2553 2.57816C13.2553 2.889 13.1318 3.18711 12.912 3.40691L6.2751 10.0438C5.94467 10.374 5.5372 10.6167 5.08947 10.75L3.41135 11.25L3.91135 9.57191C4.04465 9.12418 4.28737 8.7167 4.6176 8.38628L10.2001 2.80441ZM10.2001 2.80441L11.8488 4.45316M10.9113 8.75003V11.7188C10.9113 12.0917 10.7632 12.4494 10.4995 12.7132C10.2357 12.9769 9.87806 13.125 9.5051 13.125H2.9426C2.56964 13.125 2.21195 12.9769 1.94823 12.7132C1.6845 12.4494 1.53635 12.0917 1.53635 11.7188V5.15628C1.53635 4.78332 1.6845 4.42564 1.94823 4.16191C2.21195 3.89819 2.56964 3.75003 2.9426 3.75003H5.91135"
                  stroke="#5A687C"
                  stroke-width="1.5"
                  stroke-linecap="round"
                  stroke-linejoin="round"
                />
              </svg>