   <svg
                  width="26"
                  height="21"
                  viewBox="0 0 26 21"
                  fill="none"
                  xmlns="http://www.w3.org/2000/svg"
                >
                  <path
                    d="M24.8837 2.72799C24.5598 2.34509 24.1062 2.1112 23.6063 2.06945L6.00108 0.599438C5.50118 0.55769 5.01514 0.713109 4.63218 1.03698C4.25079 1.35959 4.01725 1.81091 3.97418 2.30832L3.61998 5.63135H2.20568C1.17033 5.63135 0.328003 6.47368 0.328003 7.50903V18.5296C0.328003 19.5649 1.17033 20.4073 2.20568 20.4073H19.8723C20.9077 20.4073 21.75 19.5649 21.75 18.5296V16.7419L22.3769 16.7942C22.4298 16.7986 22.4824 16.8008 22.5345 16.8008C23.4997 16.8008 24.3226 16.0582 24.4043 15.0793L25.3214 4.09693C25.3631 3.59708 25.2076 3.11095 24.8837 2.72799ZM2.20568 6.60791H19.8723C20.3691 6.60791 20.7734 7.01216 20.7734 7.50903V8.51323H1.30456V7.50903C1.30456 7.01216 1.70881 6.60791 2.20568 6.60791ZM1.30456 9.48979H20.7734V11.5156H1.30456V9.48979ZM19.8723 19.4307H2.20568C1.70881 19.4307 1.30456 19.0265 1.30456 18.5296V12.4922H20.7734V18.5296C20.7734 19.0265 20.3691 19.4307 19.8723 19.4307ZM24.3482 4.01564L23.4311 14.998C23.3898 15.4931 22.9532 15.8625 22.4581 15.821L21.75 15.7619V7.50903C21.75 6.47368 20.9077 5.63135 19.8723 5.63135H4.60211L4.94581 2.40675C4.9462 2.40304 4.94654 2.39938 4.94683 2.39562C4.98819 1.90046 5.42452 1.53112 5.91983 1.57263L23.5251 3.04264C23.765 3.06266 23.9827 3.17492 24.1382 3.3587C24.2936 3.54249 24.3682 3.77574 24.3482 4.01564Z"
                    fill="#5E54FF"
                  />
                </svg>