<svg width="50" height="51" viewBox="0 0 50 51" fill="none" xmlns="http://www.w3.org/2000/svg">
<path d="M9.375 3.625H29.6875L37.5 11.4375V44.25C37.5 45.0788 37.1708 45.8737 36.5847 46.4597C35.9987 47.0458 35.2038 47.375 34.375 47.375H9.375C8.5462 47.375 7.75134 47.0458 7.16529 46.4597C6.57924 45.8737 6.25 45.0788 6.25 44.25V6.75C6.25 5.9212 6.57924 5.12634 7.16529 4.54029C7.75134 3.95424 8.5462 3.625 9.375 3.625Z" fill="#F0F0F0"/>
<path d="M32.0312 16.125H24.2188C24.0115 16.125 23.8128 16.0427 23.6663 15.8962C23.5198 15.7497 23.4375 15.551 23.4375 15.3438C23.4375 15.1365 23.5198 14.9378 23.6663 14.7913C23.8128 14.6448 24.0115 14.5625 24.2188 14.5625H32.0312C32.2385 14.5625 32.4372 14.6448 32.5837 14.7913C32.7302 14.9378 32.8125 15.1365 32.8125 15.3438C32.8125 15.551 32.7302 15.7497 32.5837 15.8962C32.4372 16.0427 32.2385 16.125 32.0312 16.125ZM19.5312 16.125H11.7188C11.5115 16.125 11.3128 16.0427 11.1663 15.8962C11.0198 15.7497 10.9375 15.551 10.9375 15.3438C10.9375 15.1365 11.0198 14.9378 11.1663 14.7913C11.3128 14.6448 11.5115 14.5625 11.7188 14.5625H19.5312C19.7385 14.5625 19.9372 14.6448 20.0837 14.7913C20.2302 14.9378 20.3125 15.1365 20.3125 15.3438C20.3125 15.551 20.2302 15.7497 20.0837 15.8962C19.9372 16.0427 19.7385 16.125 19.5312 16.125ZM32.0312 19.25H24.2188C24.0115 19.25 23.8128 19.1677 23.6663 19.0212C23.5198 18.8747 23.4375 18.676 23.4375 18.4688C23.4375 18.2615 23.5198 18.0628 23.6663 17.9163C23.8128 17.7698 24.0115 17.6875 24.2188 17.6875H32.0312C32.2385 17.6875 32.4372 17.7698 32.5837 17.9163C32.7302 18.0628 32.8125 18.2615 32.8125 18.4688C32.8125 18.676 32.7302 18.8747 32.5837 19.0212C32.4372 19.1677 32.2385 19.25 32.0312 19.25ZM19.5312 19.25H11.7188C11.5115 19.25 11.3128 19.1677 11.1663 19.0212C11.0198 18.8747 10.9375 18.676 10.9375 18.4688C10.9375 18.2615 11.0198 18.0628 11.1663 17.9163C11.3128 17.7698 11.5115 17.6875 11.7188 17.6875H19.5312C19.7385 17.6875 19.9372 17.7698 20.0837 17.9163C20.2302 18.0628 20.3125 18.2615 20.3125 18.4688C20.3125 18.676 20.2302 18.8747 20.0837 19.0212C19.9372 19.1677 19.7385 19.25 19.5312 19.25ZM32.0312 22.375H24.2188C24.0115 22.375 23.8128 22.2927 23.6663 22.1462C23.5198 21.9997 23.4375 21.801 23.4375 21.5938C23.4375 21.3865 23.5198 21.1878 23.6663 21.0413C23.8128 20.8948 24.0115 20.8125 24.2188 20.8125H32.0312C32.2385 20.8125 32.4372 20.8948 32.5837 21.0413C32.7302 21.1878 32.8125 21.3865 32.8125 21.5938C32.8125 21.801 32.7302 21.9997 32.5837 22.1462C32.4372 22.2927 32.2385 22.375 32.0312 22.375ZM19.5312 22.375H11.7188C11.5115 22.375 11.3128 22.2927 11.1663 22.1462C11.0198 21.9997 10.9375 21.801 10.9375 21.5938C10.9375 21.3865 11.0198 21.1878 11.1663 21.0413C11.3128 20.8948 11.5115 20.8125 11.7188 20.8125H19.5312C19.7385 20.8125 19.9372 20.8948 20.0837 21.0413C20.2302 21.1878 20.3125 21.3865 20.3125 21.5938C20.3125 21.801 20.2302 21.9997 20.0837 22.1462C19.9372 22.2927 19.7385 22.375 19.5312 22.375ZM19.5312 25.5H11.7188C11.5115 25.5 11.3128 25.4177 11.1663 25.2712C11.0198 25.1247 10.9375 24.926 10.9375 24.7188C10.9375 24.5115 11.0198 24.3128 11.1663 24.1663C11.3128 24.0198 11.5115 23.9375 11.7188 23.9375H19.5312C19.7385 23.9375 19.9372 24.0198 20.0837 24.1663C20.2302 24.3128 20.3125 24.5115 20.3125 24.7188C20.3125 24.926 20.2302 25.1247 20.0837 25.2712C19.9372 25.4177 19.7385 25.5 19.5312 25.5ZM32.0312 25.5H24.2188C24.0115 25.5 23.8128 25.4177 23.6663 25.2712C23.5198 25.1247 23.4375 24.926 23.4375 24.7188C23.4375 24.5115 23.5198 24.3128 23.6663 24.1663C23.8128 24.0198 24.0115 23.9375 24.2188 23.9375H32.0312C32.2385 23.9375 32.4372 24.0198 32.5837 24.1663C32.7302 24.3128 32.8125 24.5115 32.8125 24.7188C32.8125 24.926 32.7302 25.1247 32.5837 25.2712C32.4372 25.4177 32.2385 25.5 32.0312 25.5ZM32.0312 28.625H24.2188C24.0115 28.625 23.8128 28.5427 23.6663 28.3962C23.5198 28.2497 23.4375 28.051 23.4375 27.8438C23.4375 27.6365 23.5198 27.4378 23.6663 27.2913C23.8128 27.1448 24.0115 27.0625 24.2188 27.0625H32.0312C32.2385 27.0625 32.4372 27.1448 32.5837 27.2913C32.7302 27.4378 32.8125 27.6365 32.8125 27.8438C32.8125 28.051 32.7302 28.2497 32.5837 28.3962C32.4372 28.5427 32.2385 28.625 32.0312 28.625ZM32.0312 31.75H24.2188C24.0115 31.75 23.8128 31.6677 23.6663 31.5212C23.5198 31.3747 23.4375 31.176 23.4375 30.9688C23.4375 30.7615 23.5198 30.5628 23.6663 30.4163C23.8128 30.2698 24.0115 30.1875 24.2188 30.1875H32.0312C32.2385 30.1875 32.4372 30.2698 32.5837 30.4163C32.7302 30.5628 32.8125 30.7615 32.8125 30.9688C32.8125 31.176 32.7302 31.3747 32.5837 31.5212C32.4372 31.6677 32.2385 31.75 32.0312 31.75ZM32.0312 34.875H24.2188C24.0115 34.875 23.8128 34.7927 23.6663 34.6462C23.5198 34.4997 23.4375 34.301 23.4375 34.0938C23.4375 33.8865 23.5198 33.6878 23.6663 33.5413C23.8128 33.3948 24.0115 33.3125 24.2188 33.3125H32.0312C32.2385 33.3125 32.4372 33.3948 32.5837 33.5413C32.7302 33.6878 32.8125 33.8865 32.8125 34.0938C32.8125 34.301 32.7302 34.4997 32.5837 34.6462C32.4372 34.7927 32.2385 34.875 32.0312 34.875ZM32.0312 38H24.2188C24.0115 38 23.8128 37.9177 23.6663 37.7712C23.5198 37.6247 23.4375 37.4259 23.4375 37.2188C23.4375 37.0116 23.5198 36.8128 23.6663 36.6663C23.8128 36.5198 24.0115 36.4375 24.2188 36.4375H32.0312C32.2385 36.4375 32.4372 36.5198 32.5837 36.6663C32.7302 36.8128 32.8125 37.0116 32.8125 37.2188C32.8125 37.4259 32.7302 37.6247 32.5837 37.7712C32.4372 37.9177 32.2385 38 32.0312 38ZM19.5312 28.625H11.7188C11.5115 28.625 11.3128 28.5427 11.1663 28.3962C11.0198 28.2497 10.9375 28.051 10.9375 27.8438C10.9375 27.6365 11.0198 27.4378 11.1663 27.2913C11.3128 27.1448 11.5115 27.0625 11.7188 27.0625H19.5312C19.7385 27.0625 19.9372 27.1448 20.0837 27.2913C20.2302 27.4378 20.3125 27.6365 20.3125 27.8438C20.3125 28.051 20.2302 28.2497 20.0837 28.3962C19.9372 28.5427 19.7385 28.625 19.5312 28.625ZM19.5312 31.75H11.7188C11.5115 31.75 11.3128 31.6677 11.1663 31.5212C11.0198 31.3747 10.9375 31.176 10.9375 30.9688C10.9375 30.7615 11.0198 30.5628 11.1663 30.4163C11.3128 30.2698 11.5115 30.1875 11.7188 30.1875H19.5312C19.7385 30.1875 19.9372 30.2698 20.0837 30.4163C20.2302 30.5628 20.3125 30.7615 20.3125 30.9688C20.3125 31.176 20.2302 31.3747 20.0837 31.5212C19.9372 31.6677 19.7385 31.75 19.5312 31.75ZM19.5312 34.875H11.7188C11.5115 34.875 11.3128 34.7927 11.1663 34.6462C11.0198 34.4997 10.9375 34.301 10.9375 34.0938C10.9375 33.8865 11.0198 33.6878 11.1663 33.5413C11.3128 33.3948 11.5115 33.3125 11.7188 33.3125H19.5312C19.7385 33.3125 19.9372 33.3948 20.0837 33.5413C20.2302 33.6878 20.3125 33.8865 20.3125 34.0938C20.3125 34.301 20.2302 34.4997 20.0837 34.6462C19.9372 34.7927 19.7385 34.875 19.5312 34.875ZM19.5312 38H11.7188C11.5115 38 11.3128 37.9177 11.1663 37.7712C11.0198 37.6247 10.9375 37.4259 10.9375 37.2188C10.9375 37.0116 11.0198 36.8128 11.1663 36.6663C11.3128 36.5198 11.5115 36.4375 11.7188 36.4375H19.5312C19.7385 36.4375 19.9372 36.5198 20.0837 36.6663C20.2302 36.8128 20.3125 37.0116 20.3125 37.2188C20.3125 37.4259 20.2302 37.6247 20.0837 37.7712C19.9372 37.9177 19.7385 38 19.5312 38ZM27.3438 11.4375H16.4062C16.199 11.4375 16.0003 11.3552 15.8538 11.2087C15.7073 11.0622 15.625 10.8635 15.625 10.6562C15.625 10.449 15.7073 10.2503 15.8538 10.1038C16.0003 9.95731 16.199 9.875 16.4062 9.875H27.3438C27.551 9.875 27.7497 9.95731 27.8962 10.1038C28.0427 10.2503 28.125 10.449 28.125 10.6562C28.125 10.8635 28.0427 11.0622 27.8962 11.2087C27.7497 11.3552 27.551 11.4375 27.3438 11.4375ZM37.5 11.4375H32.8125C31.9837 11.4375 31.1888 11.1083 30.6028 10.5222C30.0167 9.93616 29.6875 9.1413 29.6875 8.3125V3.625L37.5 11.4375ZM37.5 15.0156V26.6094C35.2109 25.6797 33.5938 23.4375 33.5938 20.8125C33.5938 18.1875 35.2109 15.9453 37.5 15.0156ZM37.5 30.6406V42.2344C35.2109 41.3047 33.5938 39.0625 33.5938 36.4375C33.5938 33.8125 35.2109 31.5703 37.5 30.6406Z" fill="#D2D2D2"/>
<path d="M26.5625 32.5312V13.7812C26.5625 12.9524 26.2333 12.1576 25.6472 11.5715C25.0612 10.9855 24.2663 10.6563 23.4375 10.6562H6.25V35.6562H23.4375C24.2663 35.6562 25.0612 35.327 25.6472 34.741C26.2333 34.1549 26.5625 33.3601 26.5625 32.5312Z" fill="#D2D2D2"/>
<path d="M23.4375 34.875H6.25C5.4212 34.875 4.62634 34.5458 4.04029 33.9597C3.45424 33.3737 3.125 32.5788 3.125 31.75V13C3.125 12.1712 3.45424 11.3763 4.04029 10.7903C4.62634 10.2042 5.4212 9.875 6.25 9.875H23.4375C24.2663 9.875 25.0612 10.2042 25.6472 10.7903C26.2333 11.3763 26.5625 12.1712 26.5625 13V31.75C26.5625 32.5788 26.2333 33.3737 25.6472 33.9597C25.0612 34.5458 24.2663 34.875 23.4375 34.875Z" fill="#00A0C8"/>
<path d="M21.875 19.25H7.8125C7.3981 19.25 7.00067 19.0854 6.70765 18.7924C6.41462 18.4993 6.25 18.1019 6.25 17.6875V14.5625C6.25 14.1481 6.41462 13.7507 6.70765 13.4576C7.00067 13.1646 7.3981 13 7.8125 13H21.875C22.2894 13 22.6868 13.1646 22.9799 13.4576C23.2729 13.7507 23.4375 14.1481 23.4375 14.5625V17.6875C23.4375 18.1019 23.2729 18.4993 22.9799 18.7924C22.6868 19.0854 22.2894 19.25 21.875 19.25Z" fill="#0A5078"/>
<path d="M9.375 25.5H7.8125C7.3981 25.5 7.00067 25.3354 6.70765 25.0424C6.41462 24.7493 6.25 24.3519 6.25 23.9375V22.375C6.25 21.9606 6.41462 21.5632 6.70765 21.2701C7.00067 20.9771 7.3981 20.8125 7.8125 20.8125H9.375C9.7894 20.8125 10.1868 20.9771 10.4799 21.2701C10.7729 21.5632 10.9375 21.9606 10.9375 22.375V23.9375C10.9375 24.3519 10.7729 24.7493 10.4799 25.0424C10.1868 25.3354 9.7894 25.5 9.375 25.5ZM15.625 25.5H14.0625C13.6481 25.5 13.2507 25.3354 12.9576 25.0424C12.6646 24.7493 12.5 24.3519 12.5 23.9375V22.375C12.5 21.9606 12.6646 21.5632 12.9576 21.2701C13.2507 20.9771 13.6481 20.8125 14.0625 20.8125H15.625C16.0394 20.8125 16.4368 20.9771 16.7299 21.2701C17.0229 21.5632 17.1875 21.9606 17.1875 22.375V23.9375C17.1875 24.3519 17.0229 24.7493 16.7299 25.0424C16.4368 25.3354 16.0394 25.5 15.625 25.5ZM21.875 25.5H20.3125C19.8981 25.5 19.5007 25.3354 19.2076 25.0424C18.9146 24.7493 18.75 24.3519 18.75 23.9375V22.375C18.75 21.9606 18.9146 21.5632 19.2076 21.2701C19.5007 20.9771 19.8981 20.8125 20.3125 20.8125H21.875C22.2894 20.8125 22.6868 20.9771 22.9799 21.2701C23.2729 21.5632 23.4375 21.9606 23.4375 22.375V23.9375C23.4375 24.3519 23.2729 24.7493 22.9799 25.0424C22.6868 25.3354 22.2894 25.5 21.875 25.5ZM9.375 31.75H7.8125C7.3981 31.75 7.00067 31.5854 6.70765 31.2924C6.41462 30.9993 6.25 30.6019 6.25 30.1875V28.625C6.25 28.2106 6.41462 27.8132 6.70765 27.5201C7.00067 27.2271 7.3981 27.0625 7.8125 27.0625H9.375C9.7894 27.0625 10.1868 27.2271 10.4799 27.5201C10.7729 27.8132 10.9375 28.2106 10.9375 28.625V30.1875C10.9375 30.6019 10.7729 30.9993 10.4799 31.2924C10.1868 31.5854 9.7894 31.75 9.375 31.75ZM15.625 31.75H14.0625C13.6481 31.75 13.2507 31.5854 12.9576 31.2924C12.6646 30.9993 12.5 30.6019 12.5 30.1875V28.625C12.5 28.2106 12.6646 27.8132 12.9576 27.5201C13.2507 27.2271 13.6481 27.0625 14.0625 27.0625H15.625C16.0394 27.0625 16.4368 27.2271 16.7299 27.5201C17.0229 27.8132 17.1875 28.2106 17.1875 28.625V30.1875C17.1875 30.6019 17.0229 30.9993 16.7299 31.2924C16.4368 31.5854 16.0394 31.75 15.625 31.75ZM21.875 31.75H20.3125C19.8981 31.75 19.5007 31.5854 19.2076 31.2924C18.9146 30.9993 18.75 30.6019 18.75 30.1875V28.625C18.75 28.2106 18.9146 27.8132 19.2076 27.5201C19.5007 27.2271 19.8981 27.0625 20.3125 27.0625H21.875C22.2894 27.0625 22.6868 27.2271 22.9799 27.5201C23.2729 27.8132 23.4375 28.2106 23.4375 28.625V30.1875C23.4375 30.6019 23.2729 30.9993 22.9799 31.2924C22.6868 31.5854 22.2894 31.75 21.875 31.75Z" fill="#0082AA"/>
<path d="M37.5 15.0156V26.6094C35.2109 25.6797 33.5938 23.4375 33.5938 20.8125C33.5938 18.1875 35.2109 15.9453 37.5 15.0156ZM37.5 30.6406V42.2344C35.2109 41.3047 33.5938 39.0625 33.5938 36.4375C33.5938 33.8125 35.2109 31.5703 37.5 30.6406Z" fill="#D2D2D2"/>
<path d="M40.625 27.0625C44.0768 27.0625 46.875 24.2643 46.875 20.8125C46.875 17.3607 44.0768 14.5625 40.625 14.5625C37.1732 14.5625 34.375 17.3607 34.375 20.8125C34.375 24.2643 37.1732 27.0625 40.625 27.0625Z" fill="#FAB400"/>
<path d="M40.625 42.6875C44.0768 42.6875 46.875 39.8893 46.875 36.4375C46.875 32.9857 44.0768 30.1875 40.625 30.1875C37.1732 30.1875 34.375 32.9857 34.375 36.4375C34.375 39.8893 37.1732 42.6875 40.625 42.6875Z" fill="#C80A50"/>
<path d="M42.9688 20.0312H41.4062V18.4688C41.4062 18.2615 41.3239 18.0628 41.1774 17.9163C41.0309 17.7698 40.8322 17.6875 40.625 17.6875C40.4178 17.6875 40.2191 17.7698 40.0726 17.9163C39.9261 18.0628 39.8438 18.2615 39.8438 18.4688V20.0312H38.2812C38.074 20.0312 37.8753 20.1136 37.7288 20.2601C37.5823 20.4066 37.5 20.6053 37.5 20.8125C37.5 21.0197 37.5823 21.2184 37.7288 21.3649C37.8753 21.5114 38.074 21.5938 38.2812 21.5938H39.8438V23.1562C39.8438 23.3635 39.9261 23.5622 40.0726 23.7087C40.2191 23.8552 40.4178 23.9375 40.625 23.9375C40.8322 23.9375 41.0309 23.8552 41.1774 23.7087C41.3239 23.5622 41.4062 23.3635 41.4062 23.1562V21.5938H42.9688C43.176 21.5938 43.3747 21.5114 43.5212 21.3649C43.6677 21.2184 43.75 21.0197 43.75 20.8125C43.75 20.6053 43.6677 20.4066 43.5212 20.2601C43.3747 20.1136 43.176 20.0312 42.9688 20.0312ZM42.9688 37.2188H38.2812C38.074 37.2188 37.8753 37.1364 37.7288 36.9899C37.5823 36.8434 37.5 36.6447 37.5 36.4375C37.5 36.2303 37.5823 36.0316 37.7288 35.8851C37.8753 35.7386 38.074 35.6562 38.2812 35.6562H42.9688C43.176 35.6562 43.3747 35.7386 43.5212 35.8851C43.6677 36.0316 43.75 36.2303 43.75 36.4375C43.75 36.6447 43.6677 36.8434 43.5212 36.9899C43.3747 37.1364 43.176 37.2188 42.9688 37.2188Z" fill="#F0F0F0"/>
</svg>
