<svg width="15" height="14" viewBox="0 0 15 14" fill="none" xmlns="http://www.w3.org/2000/svg">
<path d="M10.6776 5.12152H14.2136L11.9604 2.86689C11.235 2.14147 10.3314 1.6198 9.34043 1.35432C8.34947 1.08885 7.30609 1.08893 6.31517 1.35455C5.32426 1.62017 4.42073 2.14198 3.69542 2.86751C2.97012 3.59304 2.44859 4.49673 2.18328 5.48773M1.44236 12.4145V8.87852M1.44236 8.87852H4.97836M1.44236 8.87852L3.69486 11.1331C4.42027 11.8586 5.32388 12.3802 6.31483 12.6457C7.30579 12.9112 8.34917 12.9111 9.34008 12.6455C10.331 12.3799 11.2345 11.8581 11.9598 11.1325C12.6851 10.407 13.2067 9.50331 13.472 8.51231M14.2136 1.58552V5.1201" stroke="#675FFF" stroke-width="1.5" stroke-linecap="round" stroke-linejoin="round"/>
</svg>
