<svg width="45" height="45" viewBox="0 0 45 45" fill="none" xmlns="http://www.w3.org/2000/svg">
<g clip-path="url(#clip0_20601_23532)">
<path d="M8.52285 44.3175C7.77285 44.3175 7.09103 44.1129 6.47739 43.6357C5.72739 43.0902 5.3183 42.272 5.18194 41.3857L1.02285 10.772C0.750121 8.93111 2.04558 7.22656 3.88648 6.95384L7.36376 6.47656C7.5683 6.47656 7.77285 6.47656 7.90921 6.61293C8.04558 6.74929 8.11376 6.95384 8.11376 7.15838V34.9766C8.11376 36.0675 9.00012 37.022 10.091 37.022H31.2274C31.4319 37.022 31.7047 36.9538 31.9092 36.8857C32.1138 36.8175 32.3183 36.8175 32.5228 36.9538C32.7274 37.0902 32.7956 37.2947 32.7956 37.4993V37.6357C33.0001 39.4766 31.7047 41.1811 29.9319 41.3857L9.00012 44.3175H8.52285ZM6.75012 7.90838L4.09103 8.31747C3.00012 8.45384 2.25012 9.47656 2.38648 10.5675L6.61376 41.1811C6.68194 41.7266 6.95467 42.2038 7.43194 42.5448C7.84103 42.8857 8.38648 43.022 8.93194 42.9538L29.8638 40.0902C30.7501 39.9538 31.4319 39.272 31.5683 38.3857H10.2274C8.38648 38.3857 6.88648 36.8857 6.88648 34.9766V7.90838H6.75012Z" fill="#675FFF"/>
<path d="M31.2273 38.3862H10.091C8.25007 38.3862 6.68188 36.8862 6.68188 34.9771V4.09073C6.68188 2.24982 8.18188 0.681641 10.091 0.681641H31.2273C32.8637 0.681641 34.2955 1.84073 34.5682 3.4771C34.6364 3.818 34.3637 4.2271 34.0228 4.29528C33.6819 4.36346 33.2728 4.09073 33.2046 3.74982C33.0682 2.7271 32.2501 2.04528 31.2273 2.04528H10.091C9.00007 2.04528 8.04552 2.93164 8.04552 4.09073V34.9771C8.04552 36.068 8.93188 37.0226 10.091 37.0226H31.2273C32.3182 37.0226 33.2728 36.1362 33.2728 34.9771C33.2728 34.568 33.5455 34.2953 33.9546 34.2953C34.3637 34.2953 34.6364 34.568 34.6364 34.9771C34.6364 36.818 33.1364 38.3862 31.2273 38.3862ZM33.9546 22.1589C33.5455 22.1589 33.2728 21.8862 33.2728 21.4771V13.7044C33.2728 13.2953 33.5455 13.0226 33.9546 13.0226C34.3637 13.0226 34.6364 13.2953 34.6364 13.7044V21.4771C34.6364 21.818 34.2955 22.1589 33.9546 22.1589Z" fill="#675FFF"/>
<path d="M41.1137 41.3869C40.5683 41.3869 39.9547 41.1823 39.5456 40.7732L32.3865 34.2278C32.1137 33.955 32.1137 33.546 32.3183 33.2732C32.5228 33.0005 33.0001 33.0005 33.2728 33.205L40.4319 39.7505C40.841 40.0914 41.3865 40.0914 41.7956 39.7505C42.1365 39.4096 42.2047 38.796 41.7956 38.3869L35.2501 31.2278C34.9774 30.955 35.0456 30.546 35.3183 30.2732C35.591 30.0005 36.0001 30.0687 36.2728 30.3414L42.8183 37.5005C43.6365 38.455 43.6365 39.8187 42.7501 40.705C42.2728 41.1823 41.7274 41.3869 41.1137 41.3869Z" fill="#675FFF"/>
<path d="M29.1138 35.1136C27.0683 35.1136 25.0229 34.3636 23.4547 32.7955C20.3183 29.6591 20.3183 24.6136 23.4547 21.4773C26.5911 18.3409 31.6365 18.3409 34.7729 21.4773C37.9092 24.6136 37.9092 29.6591 34.7729 32.7955C33.2047 34.3636 31.1592 35.1136 29.1138 35.1136ZM29.1138 20.4545C27.4092 20.4545 25.7047 21.1364 24.4092 22.4318C21.8183 25.0227 21.8183 29.25 24.4092 31.8409C27.0001 34.4318 31.2274 34.4318 33.8183 31.8409C36.4092 29.25 36.4092 25.0227 33.8183 22.4318C32.5229 21.1364 30.8183 20.4545 29.1138 20.4545Z" fill="#675FFF"/>
<path d="M29.1137 32.5898C27.6819 32.5898 26.3183 32.0444 25.2274 30.9535C24.9546 30.6808 24.9546 30.2717 25.2274 29.9989C25.5001 29.7262 25.9092 29.7262 26.1819 29.9989C27.8183 31.6353 30.4092 31.6353 32.0456 29.9989C32.3183 29.7262 32.7274 29.7262 33.0001 29.9989C33.2728 30.2717 33.2728 30.6808 33.0001 30.9535C31.9774 32.0444 30.5456 32.5898 29.1137 32.5898ZM37.2956 15.3398C36.1365 15.3398 34.9092 14.9989 33.8865 14.4535L31.3637 14.8626C31.1592 14.9308 30.8865 14.8626 30.7501 14.658C30.6137 14.5217 30.5456 14.2489 30.5456 14.0444L31.091 11.1808C30.7501 10.3626 30.5456 9.47621 30.5456 8.58984C30.5456 4.90803 33.5456 1.83984 37.2956 1.83984C40.9774 1.83984 44.0456 4.83984 44.0456 8.58984C44.0456 12.3398 41.0456 15.3398 37.2956 15.3398ZM34.091 13.0217C34.2274 13.0217 34.3637 13.0898 34.4319 13.158C35.3183 13.7035 36.2728 13.9762 37.2956 13.9762C40.2274 13.9762 42.6819 11.5898 42.6819 8.58984C42.6819 5.58984 40.2956 3.20348 37.2956 3.20348C34.2956 3.20348 31.9092 5.58984 31.9092 8.58984C31.9092 9.33984 32.0456 10.158 32.3865 10.8398C32.4546 10.9762 32.4546 11.1126 32.4546 11.2489L32.0456 13.3626L33.8865 13.0217H34.091Z" fill="#675FFF"/>
<path d="M36.2047 12.0005C35.7274 12.0005 35.3184 11.796 34.9775 11.5233L33.7502 10.296C33.0684 9.61417 33.0684 8.52326 33.7502 7.84144C34.432 7.15962 35.5229 7.15962 36.1365 7.84144L38.2502 5.72781C38.932 5.11417 40.0229 5.11417 40.7047 5.72781C41.0456 6.06871 41.182 6.47781 41.182 6.95508C41.182 7.43235 40.9775 7.84144 40.7047 8.18235L37.3638 11.5233C37.1593 11.796 36.682 12.0005 36.2047 12.0005ZM35.0456 8.72781C34.9775 8.72781 34.8411 8.79599 34.7729 8.86417C34.6365 9.00053 34.6365 9.20508 34.7729 9.34144L36.0002 10.5687C36.1365 10.7051 36.3411 10.7051 36.4774 10.5687L39.8184 7.22781C39.9547 7.09144 39.9547 6.8869 39.8184 6.75053C39.7502 6.68235 39.6138 6.61417 39.5456 6.61417C39.4774 6.61417 39.4093 6.61417 39.2729 6.75053L36.682 9.34144C36.5456 9.47781 36.4093 9.54599 36.2047 9.54599C36.0002 9.54599 35.8638 9.47781 35.7275 9.34144L35.2502 8.86417C35.182 8.72781 35.1138 8.72781 35.0456 8.72781ZM14.3865 9.06871C12.9547 9.06871 11.8638 7.90962 11.8638 6.54599C11.8638 5.18235 13.0229 4.02326 14.3865 4.02326C15.7502 4.02326 16.9093 5.18235 16.9093 6.54599C16.9093 7.90962 15.7502 9.06871 14.3865 9.06871ZM14.3865 5.31871C13.7047 5.31871 13.2275 5.86417 13.2275 6.47781C13.2275 7.09144 13.7729 7.6369 14.3865 7.6369C15.0684 7.6369 15.5456 7.09144 15.5456 6.47781C15.5456 5.86417 15.0002 5.31871 14.3865 5.31871ZM16.3638 16.0233H12.3411C11.0456 16.0233 9.95472 15.0687 9.81836 13.8414V13.296C9.81836 12.0005 10.432 9.81871 14.3865 9.81871C18.3411 9.81871 18.9547 12.0005 18.9547 13.296V13.8414C18.7502 15.1369 17.6593 16.0233 16.3638 16.0233ZM14.3865 11.1824C11.182 11.1824 11.182 12.7505 11.182 13.296V13.7051C11.2502 14.2505 11.7275 14.6596 12.3411 14.6596H16.3638C16.9775 14.6596 17.4547 14.2505 17.5229 13.7051V13.296C17.5911 12.7505 17.5911 11.1824 14.3865 11.1824ZM28.0229 8.25053H21.1365C20.7275 8.25053 20.4547 7.97781 20.4547 7.56871V4.6369C20.4547 4.22781 20.7275 3.95508 21.1365 3.95508H28.0229C28.432 3.95508 28.7047 4.22781 28.7047 4.6369V7.50053C28.7047 7.90962 28.3638 8.25053 28.0229 8.25053ZM21.8184 6.8869H27.3411V5.31871H21.8184V6.8869ZM28.0229 10.9778H21.1365C20.7275 10.9778 20.4547 10.7051 20.4547 10.296C20.4547 9.8869 20.7275 9.61417 21.1365 9.61417H28.0229C28.432 9.61417 28.7047 9.8869 28.7047 10.296C28.7047 10.7051 28.3638 10.9778 28.0229 10.9778ZM28.0229 13.5005H21.1365C20.7275 13.5005 20.4547 13.2278 20.4547 12.8187C20.4547 12.4096 20.7275 12.1369 21.1365 12.1369H28.0229C28.432 12.1369 28.7047 12.4096 28.7047 12.8187C28.7047 13.2278 28.3638 13.5005 28.0229 13.5005ZM28.0229 16.0233H21.1365C20.7275 16.0233 20.4547 15.7505 20.4547 15.3414C20.4547 14.9324 20.7275 14.6596 21.1365 14.6596H28.0229C28.432 14.6596 28.7047 14.9324 28.7047 15.3414C28.7047 15.7505 28.3638 16.0233 28.0229 16.0233ZM14.3865 22.5687H10.5002C10.0911 22.5687 9.81836 22.296 9.81836 21.8869V18.0687C9.81836 17.6596 10.0911 17.3869 10.5002 17.3869H14.3865C14.7956 17.3869 15.0684 17.6596 15.0684 18.0687V21.8869C15.0684 22.296 14.7275 22.5687 14.3865 22.5687ZM11.182 21.2051H13.7047V18.7505H11.182V21.2051ZM14.3865 28.7051H10.5002C10.0911 28.7051 9.81836 28.4324 9.81836 28.0233V24.2051C9.81836 23.796 10.0911 23.5233 10.5002 23.5233H14.3865C14.7956 23.5233 15.0684 23.796 15.0684 24.2051V28.0233C15.0684 28.3642 14.7275 28.7051 14.3865 28.7051ZM11.182 27.3414H13.7047V24.8869H11.182V27.3414ZM14.3865 34.7733H10.5002C10.0911 34.7733 9.81836 34.5005 9.81836 34.0914V30.2733C9.81836 29.8642 10.0911 29.5914 10.5002 29.5914H14.3865C14.7956 29.5914 15.0684 29.8642 15.0684 30.2733V34.0914C15.0684 34.5005 14.7275 34.7733 14.3865 34.7733ZM11.182 33.4096H13.7047V30.9551H11.182V33.4096ZM19.6365 19.0914H16.9093C16.5002 19.0914 16.2274 18.8187 16.2274 18.4096C16.2274 18.0005 16.5002 17.7278 16.9093 17.7278H19.6365C20.0456 17.7278 20.3184 18.0005 20.3184 18.4096C20.3184 18.8187 20.0456 19.0914 19.6365 19.0914ZM19.9775 22.296H16.9093C16.5002 22.296 16.2274 22.0233 16.2274 21.6142C16.2274 21.2051 16.5002 20.9324 16.9093 20.9324H19.9775C20.3865 20.9324 20.6593 21.2051 20.6593 21.6142C20.6593 22.0233 20.3184 22.296 19.9775 22.296ZM19.0229 25.1596H16.9093C16.5002 25.1596 16.2274 24.8869 16.2274 24.4778C16.2274 24.0687 16.5002 23.796 16.9093 23.796H19.0229C19.432 23.796 19.7047 24.0687 19.7047 24.4778C19.7047 24.8869 19.3638 25.1596 19.0229 25.1596ZM19.0229 28.3642H16.9093C16.5002 28.3642 16.2274 28.0914 16.2274 27.6824C16.2274 27.2733 16.5002 27.0005 16.9093 27.0005H19.0229C19.432 27.0005 19.7047 27.2733 19.7047 27.6824C19.7047 28.0914 19.432 28.3642 19.0229 28.3642ZM19.6365 31.296H16.9093C16.5002 31.296 16.2274 31.0233 16.2274 30.6142C16.2274 30.2051 16.5002 29.9324 16.9093 29.9324H19.6365C20.0456 29.9324 20.3184 30.2051 20.3184 30.6142C20.3184 31.0233 20.0456 31.296 19.6365 31.296ZM21.9547 34.5005H16.9093C16.5002 34.5005 16.2274 34.2278 16.2274 33.8187C16.2274 33.4096 16.5002 33.1369 16.9093 33.1369H21.9547C22.3638 33.1369 22.6365 33.4096 22.6365 33.8187C22.6365 34.2278 22.3638 34.5005 21.9547 34.5005Z" fill="#675FFF"/>
</g>
<defs>
<clipPath id="clip0_20601_23532">
<rect width="45" height="45" fill="white"/>
</clipPath>
</defs>
</svg>
