<svg width="50" height="51" viewBox="0 0 50 51" fill="none" xmlns="http://www.w3.org/2000/svg">
<path d="M49.9145 10.3633L40.2344 0.683301C40.0777 0.62692 39.9126 0.597948 39.7461 0.597656H15.332C13.4474 0.597656 11.9141 2.13096 11.9141 4.01562V46.9844C11.9141 48.869 13.4474 50.4023 15.332 50.4023H46.582C48.4667 50.4023 50 48.869 50 46.9844V10.8516C50 10.6834 49.9694 10.5188 49.9145 10.3633Z" fill="#E4E4FF"/>
<path d="M49.9145 10.3633L40.2344 0.683301C40.0777 0.62692 39.9126 0.597948 39.7461 0.597656H30.957V50.4023H46.582C48.4667 50.4023 50 48.869 50 46.9844V10.8516C50 10.6834 49.9694 10.5188 49.9145 10.3633Z" fill="#B7B4E7"/>
<path d="M0.858105 49.5443C2.00225 50.6885 3.85723 50.6885 5.00127 49.5443L18.0353 36.5104L13.8921 32.3672L0.858105 45.4012C-0.286035 46.5453 -0.286035 48.4002 0.858105 49.5443Z" fill="#3630A2"/>
<path d="M0.85791 49.545C2.00205 50.6892 3.85703 50.6892 5.00107 49.545L18.0351 36.511L15.9635 34.4395L0.85791 49.545Z" fill="#2E2654"/>
<path d="M49.571 9.81611L40.7819 1.02705C40.6273 0.873132 40.4402 0.755776 40.2344 0.683594V8.89873C40.2344 9.70772 40.8902 10.3636 41.6992 10.3636H49.9145C49.8423 10.1577 49.7249 9.97066 49.571 9.81611Z" fill="#E4E4FF"/>
<path d="M33.8867 12.3164H19.2383C18.4293 12.3164 17.7734 11.6605 17.7734 10.8516C17.7734 10.0426 18.4293 9.38672 19.2383 9.38672H33.8867C34.6957 9.38672 35.3516 10.0426 35.3516 10.8516C35.3516 11.6605 34.6957 12.3164 33.8867 12.3164Z" fill="#B7B4E7"/>
<path d="M42.6758 41.6133H34.8633C34.0543 41.6133 33.3984 40.9574 33.3984 40.1484C33.3984 39.3395 34.0543 38.6836 34.8633 38.6836H42.6758C43.4848 38.6836 44.1406 39.3395 44.1406 40.1484C44.1406 40.9574 43.4848 41.6133 42.6758 41.6133Z" fill="#7873D5"/>
<path d="M42.6758 18.1758H21.9727C21.1637 18.1758 20.5078 17.5199 20.5078 16.7109C20.5078 15.902 21.1637 15.2461 21.9727 15.2461H42.6758C43.4848 15.2461 44.1406 15.902 44.1406 16.7109C44.1406 17.5199 43.4848 18.1758 42.6758 18.1758ZM42.6758 24.0352H21.9727C21.1637 24.0352 20.5078 23.3793 20.5078 22.5703C20.5078 21.7613 21.1637 21.1055 21.9727 21.1055H42.6758C43.4848 21.1055 44.1406 21.7613 44.1406 22.5703C44.1406 23.3793 43.4848 24.0352 42.6758 24.0352Z" fill="#B7B4E7"/>
<path d="M44.1406 22.5703C44.1406 21.7613 43.4848 21.1055 42.6758 21.1055H30.957V24.0352H42.6758C43.4848 24.0352 44.1406 23.3793 44.1406 22.5703Z" fill="#7873D5"/>
<path d="M42.6758 29.8945H21.9727C21.1637 29.8945 20.5078 29.2387 20.5078 28.4297C20.5078 27.6207 21.1637 26.9648 21.9727 26.9648H42.6758C43.4848 26.9648 44.1406 27.6207 44.1406 28.4297C44.1406 29.2387 43.4848 29.8945 42.6758 29.8945Z" fill="#B7B4E7"/>
<path d="M42.6758 29.8945C43.4848 29.8945 44.1406 29.2387 44.1406 28.4297C44.1406 27.6207 43.4848 26.9648 42.6758 26.9648H30.957V29.8945H42.6758Z" fill="#7873D5"/>
<path d="M42.6758 35.7539H21.9727C21.1637 35.7539 20.5078 35.098 20.5078 34.2891C20.5078 33.4801 21.1637 32.8242 21.9727 32.8242H42.6758C43.4848 32.8242 44.1406 33.4801 44.1406 34.2891C44.1406 35.098 43.4848 35.7539 42.6758 35.7539Z" fill="#B7B4E7"/>
<path d="M42.6758 35.7539C43.4848 35.7539 44.1406 35.098 44.1406 34.2891C44.1406 33.4801 43.4848 32.8242 42.6758 32.8242H30.957V35.7539H42.6758Z" fill="#7873D5"/>
<path d="M21.9727 40.1484C28.4447 40.1484 33.6914 34.9018 33.6914 28.4297C33.6914 21.9576 28.4447 16.7109 21.9727 16.7109C15.5006 16.7109 10.2539 21.9576 10.2539 28.4297C10.2539 34.9018 15.5006 40.1484 21.9727 40.1484Z" fill="#BCEAF9"/>
<path d="M30.255 20.1465L13.6899 36.7115C15.8119 38.8335 18.7416 40.1478 21.9725 40.1478C28.4343 40.1478 33.6912 34.8907 33.6912 28.429C33.6912 25.1981 32.377 22.2685 30.255 20.1465Z" fill="#7DD5F4"/>
<path d="M23.926 30.8711H20.0197C16.4289 30.8711 13.3936 33.4422 12.8022 36.9846L16.4705 39.2644L20.1388 41.215H23.807L27.4753 39.2644L31.1436 36.9846C30.5522 33.4422 27.5169 30.8711 23.926 30.8711Z" fill="#FF8493"/>
<path d="M23.9258 30.8711H21.9727V41.2149H23.8067L27.475 39.2643L31.1433 36.9845C30.5521 33.4422 27.5167 30.8711 23.9258 30.8711Z" fill="#FF1F3D"/>
<path d="M21.9727 32.8242C18.7418 32.8242 16.1133 30.1957 16.1133 26.9648C16.1133 23.734 18.7418 21.1055 21.9727 21.1055C25.2035 21.1055 27.832 23.734 27.832 26.9648C27.832 30.1957 25.2035 32.8242 21.9727 32.8242Z" fill="#FFD7AA"/>
<path d="M21.9727 41.6133C14.7032 41.6133 8.78906 35.6991 8.78906 28.4297C8.78906 21.1603 14.7032 15.2461 21.9727 15.2461C29.2421 15.2461 35.1562 21.1603 35.1562 28.4297C35.1562 35.6991 29.2421 41.6133 21.9727 41.6133ZM21.9727 18.1758C16.3187 18.1758 11.7188 22.7757 11.7188 28.4297C11.7188 34.0837 16.3187 38.6836 21.9727 38.6836C27.6267 38.6836 32.2266 34.0837 32.2266 28.4297C32.2266 22.7757 27.6267 18.1758 21.9727 18.1758Z" fill="#005EDF"/>
<path d="M31.2904 19.1113L29.2198 21.1819C31.0765 23.0387 32.2265 25.6021 32.2265 28.4292C32.2265 34.0832 27.6266 38.6831 21.9726 38.6831C19.1456 38.6831 16.5821 37.5331 14.7254 35.6764L12.6548 37.747C15.0419 40.1343 18.3378 41.6128 21.9726 41.6128C29.242 41.6128 35.1562 35.6986 35.1562 28.4292C35.1562 24.7944 33.6776 21.4985 31.2904 19.1113Z" fill="#3630A2"/>
<path d="M21.9727 21.1055V32.8242C25.2035 32.8242 27.832 30.1957 27.832 26.9648C27.832 23.734 25.2035 21.1055 21.9727 21.1055Z" fill="#FFC58F"/>
<path d="M35.3516 10.8516C35.3516 10.0426 34.6957 9.38672 33.8867 9.38672H30.957V12.3164H33.8867C34.6957 12.3164 35.3516 11.6605 35.3516 10.8516ZM44.1406 16.7109C44.1406 15.902 43.4848 15.2461 42.6758 15.2461H30.957V18.1758H42.6758C43.4848 18.1758 44.1406 17.5199 44.1406 16.7109Z" fill="#7873D5"/>
</svg>
