<svg width="50" height="51" viewBox="0 0 50 51" fill="none" xmlns="http://www.w3.org/2000/svg">
<g clip-path="url(#clip0_20100_26629)">
<path d="M34.9996 20.5V47.1667C34.9996 49.0076 33.5072 50.5 31.6663 50.5H8.3333C6.49238 50.5 5 49.0076 5 47.1667V3.8333C5 1.99238 6.49238 0.5 8.3333 0.5H31.6662C32.0928 0.5 32.5006 0.580078 32.8755 0.726074L34.9996 20.5Z" fill="#A6CCFB"/>
<path d="M18.3331 28.8334C18.3331 29.7539 17.5868 30.5002 16.6663 30.5002H9.9998C9.0793 30.5002 8.33301 29.754 8.33301 28.8334V22.1668C8.33301 21.2463 9.0792 20.5 9.9998 20.5H16.6663C17.5868 20.5 18.3331 21.2462 18.3331 22.1668V28.8334ZM31.6662 28.8334C31.6662 29.7539 30.92 30.5002 29.9994 30.5002H23.333C22.4125 30.5002 21.6662 29.754 21.6662 28.8334V22.1668C21.6662 21.2463 22.4124 20.5 23.333 20.5H29.9995C30.92 20.5 31.6663 21.2462 31.6663 22.1668V28.8334H31.6662ZM18.3331 42.1666C18.3331 43.0871 17.5868 43.8334 16.6663 43.8334H9.9998C9.0793 43.8334 8.33301 43.0871 8.33301 42.1666V35.5C8.33301 34.5795 9.0792 33.8332 9.9998 33.8332H16.6663C17.5868 33.8332 18.3331 34.5794 18.3331 35.5V42.1666ZM31.6662 42.1666C31.6662 43.0871 30.92 43.8334 29.9994 43.8334H23.333C22.4125 43.8334 21.6662 43.0871 21.6662 42.1666V35.5C21.6662 34.5795 22.4124 33.8332 23.333 33.8332H29.9995C30.92 33.8332 31.6663 34.5794 31.6663 35.5V42.1666H31.6662Z" fill="#4C5E71"/>
<path d="M28.5877 15.4994H9.16631C8.9453 15.4994 8.73335 15.4116 8.57708 15.2553C8.4208 15.0991 8.33301 14.8871 8.33301 14.6661V7.99932C8.33301 7.77831 8.4208 7.56636 8.57708 7.41008C8.73335 7.25381 8.9453 7.16602 9.16631 7.16602H28.5877V15.4994Z" fill="#F4F2F4"/>
<path d="M8.33359 48.3385C8.23451 48.3385 8.13639 48.319 8.04485 48.2811C7.9533 48.2432 7.87012 48.1876 7.80006 48.1175C7.72999 48.0475 7.67442 47.9643 7.63651 47.8727C7.5986 47.7812 7.57909 47.6831 7.5791 47.584V46.7506C7.5791 46.5505 7.65859 46.3586 7.80009 46.2171C7.94158 46.0756 8.13349 45.9961 8.33359 45.9961C8.5337 45.9961 8.72561 46.0756 8.8671 46.2171C9.00859 46.3586 9.08809 46.5505 9.08809 46.7506V47.584C9.0881 47.6831 9.06859 47.7812 9.03068 47.8727C8.99277 47.9643 8.93719 48.0475 8.86713 48.1175C8.79707 48.1876 8.71389 48.2432 8.62234 48.2811C8.5308 48.319 8.43268 48.3385 8.33359 48.3385ZM11.6668 48.3385C11.5677 48.3385 11.4696 48.319 11.378 48.2811C11.2865 48.2432 11.2033 48.1876 11.1333 48.1175C11.0632 48.0475 11.0076 47.9643 10.9697 47.8727C10.9318 47.7812 10.9123 47.6831 10.9123 47.584V46.7506C10.9123 46.5505 10.9918 46.3586 11.1333 46.2171C11.2748 46.0756 11.4667 45.9961 11.6668 45.9961C11.8669 45.9961 12.0588 46.0756 12.2003 46.2171C12.3418 46.3586 12.4213 46.5505 12.4213 46.7506V47.584C12.4213 47.7841 12.3418 47.976 12.2003 48.1175C12.0588 48.259 11.8669 48.3385 11.6668 48.3385ZM15.0001 48.3385C14.901 48.3385 14.8029 48.319 14.7114 48.2811C14.6198 48.2432 14.5366 48.1876 14.4666 48.1175C14.3965 48.0475 14.3409 47.9643 14.303 47.8727C14.2651 47.7812 14.2456 47.6831 14.2456 47.584V46.7506C14.2456 46.5505 14.3251 46.3586 14.4666 46.2171C14.6081 46.0756 14.8 45.9961 15.0001 45.9961C15.2002 45.9961 15.3921 46.0756 15.5336 46.2171C15.6751 46.3586 15.7546 46.5505 15.7546 46.7506V47.584C15.7546 47.7841 15.6751 47.976 15.5336 48.1175C15.3921 48.259 15.2002 48.3385 15.0001 48.3385Z" fill="#4C5E71"/>
<path d="M19.9998 0.5V2.9999C19.9998 3.22091 19.912 3.43286 19.7557 3.58913C19.5995 3.74541 19.3875 3.8332 19.1665 3.8332H10.8333C10.7239 3.8332 10.6155 3.81165 10.5144 3.76977C10.4133 3.72789 10.3214 3.66651 10.2441 3.58913C10.1667 3.51176 10.1053 3.41989 10.0634 3.31879C10.0216 3.21769 10 3.10933 10 2.9999V0.5H19.9998Z" fill="#A7DDA7"/>
<path d="M14.9999 24.7448H14.0878V23.8326C14.0878 23.6325 14.0083 23.4406 13.8668 23.2991C13.7253 23.1576 13.5334 23.0781 13.3333 23.0781C13.1332 23.0781 12.9413 23.1576 12.7998 23.2991C12.6583 23.4406 12.5788 23.6325 12.5788 23.8326V24.7448H11.6666C11.4665 24.7448 11.2746 24.8243 11.1331 24.9658C10.9916 25.1073 10.9121 25.2992 10.9121 25.4993C10.9121 25.6994 10.9916 25.8913 11.1331 26.0328C11.2746 26.1743 11.4665 26.2538 11.6666 26.2538H12.5788V27.166C12.5788 27.3661 12.6583 27.558 12.7998 27.6995C12.9413 27.841 13.1332 27.9205 13.3333 27.9205C13.5334 27.9205 13.7253 27.841 13.8668 27.6995C14.0083 27.558 14.0878 27.3661 14.0878 27.166V26.2538H14.9999C15.2 26.2538 15.3919 26.1743 15.5334 26.0328C15.6749 25.8913 15.7544 25.6994 15.7544 25.4993C15.7544 25.2992 15.6749 25.1073 15.5334 24.9658C15.3919 24.8243 15.2 24.7448 14.9999 24.7448ZM15.0452 37.1206C14.9037 36.9791 14.7117 36.8997 14.5116 36.8997C14.3115 36.8997 14.1196 36.9791 13.978 37.1206L13.3331 37.7655L12.6882 37.1206C12.5459 36.983 12.3552 36.9068 12.1572 36.9085C11.9593 36.9101 11.7699 36.9895 11.6299 37.1294C11.4899 37.2694 11.4106 37.4588 11.4089 37.6567C11.4072 37.8547 11.4834 38.0454 11.621 38.1877L12.266 38.8327L11.621 39.4777C11.4806 39.6195 11.4021 39.8111 11.4026 40.0106C11.4031 40.2101 11.4826 40.4012 11.6236 40.5423C11.7647 40.6834 11.9559 40.7628 12.1554 40.7633C12.3549 40.7638 12.5464 40.6852 12.6882 40.5448L13.3331 39.8999L13.978 40.5448C14.048 40.615 14.1312 40.6707 14.2228 40.7086C14.3143 40.7465 14.4125 40.766 14.5116 40.7658C14.6608 40.7658 14.8067 40.7215 14.9308 40.6386C15.0549 40.5557 15.1516 40.4379 15.2087 40.3C15.2658 40.1622 15.2808 40.0104 15.2517 39.8641C15.2226 39.7177 15.1507 39.5833 15.0452 39.4777L14.4002 38.8327L15.0452 38.1877C15.1153 38.1176 15.1709 38.0345 15.2088 37.9429C15.2468 37.8514 15.2663 37.7532 15.2663 37.6542C15.2663 37.5551 15.2468 37.4569 15.2088 37.3654C15.1709 37.2738 15.1153 37.1907 15.0452 37.1206ZM24.9997 26.2538H28.3331C28.5332 26.2538 28.7251 26.1743 28.8666 26.0328C29.0081 25.8913 29.0876 25.6994 29.0876 25.4993C29.0876 25.2992 29.0081 25.1073 28.8666 24.9658C28.7251 24.8243 28.5332 24.7448 28.3331 24.7448H24.9997C24.5829 24.7448 24.2452 25.0826 24.2452 25.4993C24.2452 25.916 24.5829 26.2538 24.9997 26.2538ZM28.8667 36.6324C28.7966 36.5623 28.7135 36.5067 28.6219 36.4688C28.5304 36.4309 28.4322 36.4114 28.3332 36.4114C28.2341 36.4114 28.1359 36.4309 28.0444 36.4688C27.9528 36.5067 27.8697 36.5623 27.7996 36.6324L24.4662 39.9657C24.3258 40.1075 24.2473 40.299 24.2478 40.4985C24.2483 40.698 24.3278 40.8892 24.4688 41.0303C24.6099 41.1713 24.8011 41.2508 25.0006 41.2513C25.2001 41.2517 25.3917 41.1732 25.5334 41.0328L28.8668 37.6995C29.0083 37.558 29.0877 37.3661 29.0877 37.1659C29.0877 36.9658 29.0082 36.7739 28.8667 36.6324Z" fill="#F4F2F4"/>
<path d="M32.8757 0.726077C32.4902 0.576159 32.0801 0.499489 31.6664 0.500003H29.3525H29.3653C30.0373 0.502542 30.5938 1.025 30.6656 1.69317L32.6859 20.5V47.1667C32.6859 49.0076 31.1936 50.5 29.3526 50.5H31.6665C33.5074 50.5 34.9998 49.0076 34.9998 47.1667V20.5L32.8757 0.726077Z" fill="#8CBDF9"/>
<path d="M17.6858 0.5V2.9999C17.6858 3.22091 17.598 3.43286 17.4418 3.58913C17.2855 3.74541 17.0735 3.8332 16.8525 3.8332H19.1664C19.2758 3.8332 19.3842 3.81165 19.4853 3.76977C19.5864 3.72789 19.6783 3.66651 19.7556 3.58913C19.833 3.51176 19.8944 3.41989 19.9363 3.31879C19.9782 3.21769 19.9997 3.10933 19.9997 2.9999V0.5H17.6858Z" fill="#8ACE9B"/>
<path d="M29.9999 20.5H27.6857C28.6062 20.5 29.3525 21.2462 29.3525 22.1667V28.8333C29.3525 29.7538 28.6062 30.5001 27.6857 30.5001H29.9999C30.9204 30.5001 31.6667 29.7539 31.6667 28.8333V22.1667C31.6666 21.2462 30.9204 20.5 29.9999 20.5ZM16.6667 20.5H14.3525C15.273 20.5 16.0193 21.2462 16.0193 22.1667V28.8333C16.0193 29.7538 15.2731 30.5001 14.3525 30.5001H16.6667C17.5872 30.5001 18.3335 29.7539 18.3335 28.8333V22.1667C18.3335 21.2462 17.5872 20.5 16.6667 20.5ZM29.9999 33.8332H27.6857C28.6062 33.8332 29.3525 34.5794 29.3525 35.5V42.1666C29.3525 43.0871 28.6062 43.8334 27.6857 43.8334H29.9999C30.9204 43.8334 31.6667 43.0872 31.6667 42.1666V35.5C31.6666 34.5794 30.9204 33.8332 29.9999 33.8332ZM16.6667 33.8332H14.3525C15.273 33.8332 16.0193 34.5794 16.0193 35.5V42.1666C16.0193 43.0871 15.2731 43.8334 14.3525 43.8334H16.6667C17.5872 43.8334 18.3335 43.0872 18.3335 42.1666V35.5C18.3335 34.5794 17.5872 33.8332 16.6667 33.8332Z" fill="#3C4958"/>
<path d="M35 20.5C40.5228 20.5 45 16.0228 45 10.5C45 4.97715 40.5228 0.5 35 0.5C29.4772 0.5 25 4.97715 25 10.5C25 16.0228 29.4772 20.5 35 20.5Z" fill="#EFD27C"/>
<path d="M34.9997 17.1674C38.6816 17.1674 41.6664 14.1826 41.6664 10.5007C41.6664 6.81877 38.6816 3.83398 34.9997 3.83398C31.3178 3.83398 28.333 6.81877 28.333 10.5007C28.333 14.1826 31.3178 17.1674 34.9997 17.1674Z" fill="#EABC73"/>
<path d="M34.9997 0.5C34.6083 0.5 34.2225 0.523242 33.8428 0.566992C38.8205 1.14053 42.6858 5.36855 42.6858 10.5C42.6858 15.6314 38.8205 19.8594 33.8428 20.433C34.2225 20.4768 34.6083 20.5 34.9997 20.5C40.5226 20.5 44.9997 16.0229 44.9997 10.5C44.9997 4.97715 40.5226 0.5 34.9997 0.5Z" fill="#EABC73"/>
<path d="M35.0051 9.74502L34.9992 9.74473C34.4963 9.74473 34.0871 9.33555 34.0871 8.83262C34.0871 8.32969 34.4963 7.92051 34.9992 7.92051C35.5021 7.92051 35.9113 8.32969 35.9113 8.83262C35.9113 9.03272 35.9908 9.22463 36.1323 9.36612C36.2738 9.50762 36.4657 9.58711 36.6658 9.58711C36.8659 9.58711 37.0578 9.50762 37.1993 9.36612C37.3408 9.22463 37.4203 9.03272 37.4203 8.83262C37.4203 7.76104 36.7203 6.85039 35.7537 6.53242V6.33262C35.7537 6.13251 35.6742 5.94061 35.5327 5.79911C35.3912 5.65762 35.1993 5.57812 34.9992 5.57812C34.7991 5.57812 34.6072 5.65762 34.4657 5.79911C34.3242 5.94061 34.2447 6.13251 34.2447 6.33262V6.53242C33.2781 6.85029 32.5781 7.76094 32.5781 8.83262C32.5781 10.1657 33.661 11.2505 34.9935 11.2536L34.9993 11.2539C35.5022 11.2539 35.9114 11.6631 35.9114 12.1661C35.9114 12.669 35.5022 13.0782 34.9993 13.0782C34.4964 13.0782 34.0872 12.669 34.0872 12.1661C34.0872 11.966 34.0077 11.7741 33.8662 11.6326C33.7247 11.4911 33.5328 11.4116 33.3327 11.4116C33.1326 11.4116 32.9407 11.4911 32.7992 11.6326C32.6577 11.7741 32.5782 11.966 32.5782 12.1661C32.5782 13.2378 33.2782 14.1484 34.2448 14.4662V14.666C34.2448 14.8661 34.3243 15.058 34.4658 15.1995C34.6073 15.341 34.7992 15.4205 34.9993 15.4205C35.1994 15.4205 35.3913 15.341 35.5328 15.1995C35.6743 15.058 35.7538 14.8661 35.7538 14.666V14.4662C36.7204 14.1483 37.4204 13.2377 37.4204 12.1661C37.4204 10.833 36.3375 9.74824 35.0051 9.74502Z" fill="#E5935D"/>
</g>
<defs>
<clipPath id="clip0_20100_26629">
<rect width="50" height="50" fill="white" transform="translate(0 0.5)"/>
</clipPath>
</defs>
</svg>
