<svg width="50" height="51" viewBox="0 0 50 51" fill="none" xmlns="http://www.w3.org/2000/svg">
<g clip-path="url(#clip0_20100_26617)">
<path d="M40.5693 25.0547H26.9805C25.9147 25.0547 25.0508 25.9186 25.0508 26.9844V28.7539C25.0508 29.8196 25.9147 30.6836 26.9805 30.6836H40.5693C41.6351 30.6836 42.499 29.8196 42.499 28.7539V26.9844C42.499 25.9186 41.6351 25.0547 40.5693 25.0547Z" fill="#FFE177"/>
<path d="M40.5693 19.4277H26.9805C25.9147 19.4277 25.0508 20.2917 25.0508 21.3574V23.127C25.0508 24.1927 25.9147 25.0566 26.9805 25.0566H40.5693C41.6351 25.0566 42.499 24.1927 42.499 23.127V21.3574C42.499 20.2917 41.6351 19.4277 40.5693 19.4277Z" fill="#FFD064"/>
<path d="M40.5693 13.7988H26.9805C25.9147 13.7988 25.0508 14.6628 25.0508 15.7285V17.498C25.0508 18.5638 25.9147 19.4277 26.9805 19.4277H40.5693C41.6351 19.4277 42.499 18.5638 42.499 17.498V15.7285C42.499 14.6628 41.6351 13.7988 40.5693 13.7988Z" fill="#FFE177"/>
<path fill-rule="evenodd" clip-rule="evenodd" d="M14.6904 12.2328C14.5213 12.3634 14.3282 12.4594 14.1219 12.5154C13.9157 12.5714 13.7005 12.5862 13.4886 12.559C13.0606 12.504 12.672 12.2813 12.4082 11.9398C12.1444 11.5983 12.0271 11.166 12.082 10.738C12.1369 10.31 12.3597 9.9214 12.7011 9.65761L16.2217 6.95057C16.5099 6.72814 16.8645 6.60872 17.2286 6.61137C17.5927 6.61403 17.9454 6.73861 18.2304 6.96522L21.7314 9.65761C22.0729 9.9214 22.2956 10.31 22.3506 10.738C22.4055 11.166 22.2882 11.5983 22.0244 11.9398C21.7606 12.2813 21.3719 12.504 20.9439 12.559C20.5159 12.6139 20.0837 12.4966 19.7422 12.2328L18.8486 11.5492V17.724C18.8486 18.1568 18.6767 18.5719 18.3707 18.8779C18.0646 19.1839 17.6496 19.3558 17.2168 19.3558C16.784 19.3558 16.3689 19.1839 16.0629 18.8779C15.7569 18.5719 15.5849 18.1568 15.5849 17.724V11.5453L14.6904 12.2328ZM6.4863 23.1478C6.14468 23.4116 5.71226 23.5289 5.28417 23.4739C4.85607 23.4188 4.46738 23.196 4.20358 22.8544C3.93979 22.5128 3.82251 22.0803 3.87755 21.6522C3.93258 21.2242 4.15542 20.8355 4.49704 20.5717L8.01755 17.8646C8.30588 17.6422 8.66048 17.5228 9.02464 17.5257C9.3888 17.5285 9.7415 17.6533 10.0263 17.8803L13.5273 20.5717C13.8689 20.8355 14.0918 21.2242 14.1468 21.6522C14.2018 22.0803 14.0846 22.5128 13.8208 22.8544C13.557 23.196 13.1683 23.4188 12.7402 23.4739C12.3121 23.5289 11.8797 23.4116 11.5381 23.1478L10.6445 22.4642V28.6342C10.6341 29.0602 10.4575 29.4652 10.1525 29.7628C9.84756 30.0605 9.43831 30.2271 9.01218 30.2271C8.58604 30.2271 8.17679 30.0605 7.87181 29.7628C7.56683 29.4652 7.39027 29.0602 7.37985 28.6342V22.4594L6.4863 23.1478Z" fill="#8AC9FE"/>
<path fill-rule="evenodd" clip-rule="evenodd" d="M29.0273 46.9606L44.875 37.8102C45.4526 37.473 45.8739 36.9215 46.0473 36.2754C46.2206 35.6294 46.132 34.9411 45.8008 34.36C45.1064 33.1578 43.5918 32.8112 42.3506 33.4362L29.8828 39.7106C30.1313 39.44 30.3105 39.1133 30.4053 38.7584C30.561 38.1711 30.4782 37.546 30.1749 37.0195C29.8715 36.493 29.3723 36.1078 28.7861 35.9479L21.0234 33.8678C19.0898 33.3493 18.2568 31.1559 11.8438 35.7125L9.79297 40.9635L14.6436 46.1393C18.3926 43.8219 26.1807 48.7897 29.0273 46.9606Z" fill="#F6DCCD"/>
<path d="M9.87748 34.1013L7.55678 34.7222C6.76171 34.935 6.28965 35.7519 6.50239 36.547L9.56782 48.0034C9.78056 48.7984 10.5975 49.2705 11.3926 49.0578L13.7133 48.4368C14.5084 48.2241 14.9804 47.4071 14.7677 46.612L11.7023 35.1557C11.4895 34.3606 10.6725 33.8885 9.87748 34.1013Z" fill="#B3B3B3"/>
<path d="M38.8891 14.2524C41.7166 11.4249 41.7166 6.84068 38.8891 4.01319C36.0616 1.18571 31.4774 1.18571 28.6499 4.01319C25.8224 6.84068 25.8224 11.4249 28.6499 14.2524C31.4774 17.0799 36.0616 17.0799 38.8891 14.2524Z" fill="#FFC338"/>
<path fill-rule="evenodd" clip-rule="evenodd" d="M6.01146 22.7002C5.87901 22.8031 5.7189 22.8642 5.55157 22.8757C5.38424 22.8871 5.21729 22.8485 5.07203 22.7646C4.92677 22.6808 4.8098 22.5556 4.73604 22.4049C4.66228 22.2543 4.63509 22.0851 4.65794 21.9189C4.67084 21.809 4.70565 21.7027 4.76034 21.6064C4.81502 21.5101 4.88845 21.4258 4.9763 21.3584L8.49583 18.6553C8.64518 18.539 8.8294 18.4765 9.01867 18.4779C9.20795 18.4793 9.39121 18.5446 9.5388 18.6631L9.55052 18.6709L13.0486 21.3623C13.1363 21.4303 13.2099 21.515 13.2649 21.6114C13.32 21.7079 13.3555 21.8142 13.3695 21.9244C13.3835 22.0346 13.3756 22.1464 13.3463 22.2536C13.3171 22.3607 13.267 22.461 13.199 22.5488C13.1315 22.6372 13.0471 22.7112 12.9507 22.7665C12.8542 22.8219 12.7478 22.8574 12.6374 22.8711C12.4147 22.899 12.19 22.8376 12.0124 22.7002L11.1208 22.0166C11.0052 21.927 10.8668 21.8717 10.7212 21.8569C10.5757 21.8421 10.429 21.8685 10.2977 21.933C10.1665 21.9975 10.0559 22.0976 9.97873 22.2218C9.90154 22.3461 9.86077 22.4895 9.86106 22.6357V28.8105C9.85359 29.0313 9.76064 29.2405 9.60185 29.394C9.44306 29.5475 9.23085 29.6333 9.00999 29.6333C8.78913 29.6333 8.57692 29.5475 8.41813 29.394C8.25934 29.2405 8.16639 29.0313 8.15892 28.8105V22.6318C8.15879 22.4861 8.11789 22.3433 8.04084 22.2195C7.96379 22.0958 7.85366 21.9961 7.72291 21.9317C7.59215 21.8673 7.44599 21.8407 7.30093 21.855C7.15588 21.8694 7.01772 21.924 6.90208 22.0127L6.01048 22.6963L6.01146 22.7002ZM6.59739 28.8066C6.59739 29.1234 6.65978 29.4371 6.781 29.7297C6.90222 30.0224 7.0799 30.2883 7.30388 30.5123C7.52787 30.7362 7.79378 30.9139 8.08643 31.0351C8.37908 31.1564 8.69274 31.2188 9.0095 31.2188C9.32626 31.2188 9.63993 31.1564 9.93258 31.0351C10.2252 30.9139 10.4911 30.7362 10.7151 30.5123C10.9391 30.2883 11.1168 30.0224 11.238 29.7297C11.3592 29.4371 11.4216 29.1234 11.4216 28.8066V24.1709C11.9551 24.4458 12.5721 24.5115 13.1515 24.3552C13.731 24.199 14.2312 23.832 14.5542 23.3262C14.8772 22.8203 14.9997 22.2121 14.8977 21.6207C14.7956 21.0293 14.4765 20.4973 14.0027 20.1289L10.5056 17.4404C10.0852 17.1059 9.56461 16.9223 9.02736 16.9189C8.49011 16.9156 7.96729 17.0927 7.5427 17.4219L4.01829 20.1289C3.54258 20.4968 3.22167 21.0294 3.11863 21.6219C3.0156 22.2144 3.1379 22.824 3.46148 23.3309C3.78507 23.8378 4.28654 24.2054 4.86736 24.3614C5.44817 24.5173 6.06632 24.4504 6.60032 24.1738V28.8096L6.59739 28.8066ZM12.8474 11.0098C12.8258 11.176 12.8539 11.3449 12.9283 11.4952C13.0026 11.6454 13.1198 11.7702 13.2651 11.8538C13.4104 11.9375 13.5772 11.9761 13.7445 11.9649C13.9118 11.9538 14.0719 11.8932 14.2048 11.791L15.1003 11.1074C15.2369 11.0023 15.4045 10.9453 15.5769 10.9453C15.6967 10.9457 15.8148 10.9731 15.9226 11.0254C16.053 11.0902 16.1628 11.1902 16.2394 11.3141C16.316 11.438 16.3565 11.5809 16.3562 11.7266V17.8926C16.3562 18.1184 16.4459 18.335 16.6056 18.4947C16.7653 18.6544 16.9819 18.7441 17.2077 18.7441C17.4336 18.7441 17.6502 18.6544 17.8099 18.4947C17.9696 18.335 18.0593 18.1184 18.0593 17.8926V11.7178C18.0596 11.5722 18.1005 11.4296 18.1775 11.306C18.2545 11.1824 18.3645 11.0828 18.4951 11.0185C18.6257 10.9541 18.7717 10.9275 18.9166 10.9416C19.0615 10.9558 19.1995 11.0102 19.3152 11.0986L20.2107 11.7822C20.3881 11.9196 20.6128 11.9809 20.8354 11.9526C21.058 11.9243 21.2603 11.8088 21.3977 11.6313C21.5351 11.4539 21.5964 11.2292 21.5681 11.0066C21.5398 10.784 21.4242 10.5817 21.2468 10.4443L17.7527 7.75683C17.7527 7.75683 17.7449 7.75683 17.7449 7.74805C17.5964 7.6301 17.4127 7.56532 17.2231 7.56408C17.0335 7.56284 16.8489 7.62521 16.699 7.74121L13.1784 10.4492C13.0013 10.5862 12.8854 10.7877 12.8562 11.0098H12.8474ZM13.3825 13.5059C13.8673 13.5699 14.3601 13.4829 14.7937 13.2568V17.8926C14.7937 18.5328 15.048 19.1469 15.5007 19.5996C15.9535 20.0523 16.5675 20.3066 17.2077 20.3066C17.848 20.3066 18.462 20.0523 18.9147 19.5996C19.3675 19.1469 19.6218 18.5328 19.6218 17.8926V13.2568C20.1227 13.5156 20.6984 13.5905 21.2489 13.4687C21.7993 13.3468 22.2896 13.0358 22.6345 12.5898C23.0239 12.0837 23.1968 11.4439 23.1153 10.8106C23.0339 10.1773 22.7047 9.60204 22.1999 9.21094L18.7107 6.52246C18.2897 6.18751 17.7686 6.00353 17.2307 5.99999C16.6927 5.99645 16.1692 6.17355 15.7439 6.50293L12.2283 9.21191C11.8499 9.50302 11.5666 9.90007 11.4144 10.3526C11.2623 10.8051 11.2481 11.2926 11.3737 11.7532C11.4993 12.2138 11.759 12.6266 12.1199 12.9392C12.4807 13.2518 12.9263 13.4501 13.4001 13.5088L13.3825 13.5059ZM32.7781 11.0186V11.0723C32.7779 11.268 32.8357 11.4593 32.9443 11.6221C33.0529 11.7849 33.2073 11.9119 33.3881 11.9869C33.5688 12.0619 33.7677 12.0817 33.9597 12.0436C34.1517 12.0055 34.328 11.9114 34.4665 11.7731C34.6049 11.6348 34.6992 11.4585 34.7375 11.2666C34.7757 11.0747 34.7562 10.8757 34.6814 10.6949C34.6065 10.5141 34.4797 10.3595 34.317 10.2508C34.1543 10.142 33.963 10.084 33.7673 10.084C33.1594 10.0836 32.5715 9.86618 32.1096 9.47085C31.6477 9.07553 31.3422 8.52828 31.248 7.92767C31.1538 7.32705 31.2771 6.71253 31.5957 6.19477C31.9144 5.67701 32.4074 5.29003 32.9861 5.10351V4.74121C32.9861 4.53401 33.0684 4.3353 33.2149 4.18878C33.3614 4.04227 33.5601 3.95996 33.7673 3.95996C33.9745 3.95996 34.1732 4.04227 34.3197 4.18878C34.4663 4.3353 34.5486 4.53401 34.5486 4.74121V5.10351C35.064 5.26769 35.514 5.59123 35.8337 6.02752C36.1535 6.46381 36.3265 6.99033 36.3279 7.53125V7.68457C36.3157 7.89177 36.2217 8.08565 36.0666 8.22355C35.9115 8.36146 35.7079 8.43209 35.5007 8.41992C35.2935 8.40775 35.0996 8.31376 34.9617 8.15864C34.8238 8.00352 34.7532 7.79997 34.7654 7.59277V7.53125C34.7654 7.33555 34.7073 7.14425 34.5986 6.98154C34.4898 6.81884 34.3353 6.69205 34.1544 6.6172C33.9736 6.54236 33.7747 6.52282 33.5827 6.56107C33.3908 6.59932 33.2146 6.69364 33.0762 6.83208C32.9379 6.97053 32.8438 7.14689 32.8057 7.33885C32.7677 7.53082 32.7874 7.72975 32.8624 7.9105C32.9375 8.09124 33.0644 8.24568 33.2272 8.35426C33.39 8.46285 33.5814 8.5207 33.7771 8.52051C34.3859 8.51939 34.975 8.73606 35.438 9.13137C35.901 9.52668 36.2074 10.0745 36.3017 10.676C36.3961 11.2774 36.2722 11.8928 35.9524 12.4109C35.6327 12.929 35.1382 13.3156 34.5583 13.501V13.8633C34.5583 14.0705 34.476 14.2692 34.3295 14.4157C34.183 14.5622 33.9843 14.6445 33.7771 14.6445C33.5699 14.6445 33.3712 14.5622 33.2247 14.4157C33.0781 14.2692 32.9958 14.0705 32.9958 13.8633V13.501C32.4824 13.3343 32.0349 13.0095 31.7173 12.5731C31.3996 12.1367 31.2281 11.6111 31.2273 11.0713V10.9375C31.2325 10.8349 31.2579 10.7343 31.3021 10.6416C31.3462 10.5488 31.4081 10.4656 31.4844 10.3968C31.5607 10.328 31.6497 10.2748 31.7465 10.2404C31.8433 10.206 31.946 10.191 32.0486 10.1963C32.1512 10.2015 32.2517 10.227 32.3445 10.2711C32.4373 10.3152 32.5204 10.3772 32.5893 10.4534C32.6581 10.5297 32.7112 10.6188 32.7456 10.7156C32.78 10.8124 32.795 10.915 32.7898 11.0176L32.7781 11.0186ZM10.5134 36.8281C10.5686 37.0334 10.5617 37.2504 10.4935 37.4517C10.4254 37.653 10.299 37.8296 10.1305 37.9591C9.96192 38.0886 9.75874 38.1651 9.54665 38.1791C9.33456 38.1931 9.1231 38.1438 8.93902 38.0375C8.75494 37.9313 8.60653 37.7728 8.51255 37.5821C8.41858 37.3915 8.38327 37.1773 8.4111 36.9665C8.43893 36.7558 8.52864 36.5581 8.66889 36.3984C8.80913 36.2387 8.9936 36.1242 9.19895 36.0693C9.47387 35.9959 9.76669 36.0346 10.0131 36.1769C10.2596 36.3191 10.4395 36.5533 10.5134 36.8281ZM44.4851 36.9609L28.6374 46.1133C28.6263 46.1185 28.6158 46.1251 28.6062 46.1328C27.5593 46.8047 25.1824 46.1797 22.8865 45.5762C20.1521 44.8574 17.3376 44.1182 15.1511 44.8721L12.739 35.8672C17.198 32.792 18.447 33.3965 19.657 33.9824C20.0287 34.1757 20.4182 34.3327 20.82 34.4512L28.5827 36.5352C28.9712 36.6388 29.3027 36.8924 29.5041 37.2404C29.7056 37.5884 29.7606 38.0021 29.657 38.3906C29.5534 38.7791 29.2997 39.1106 28.9517 39.312C28.6037 39.5135 28.19 39.5684 27.8015 39.4648L21.322 37.7285C21.1219 37.6745 20.9086 37.7022 20.7289 37.8055C20.5493 37.9088 20.418 38.0792 20.364 38.2793C20.31 38.4794 20.3377 38.6927 20.441 38.8724C20.5443 39.052 20.7147 39.1833 20.9148 39.2373L27.3982 40.9736C27.6573 41.0437 27.9246 41.0791 28.1931 41.0791C28.9394 41.0768 29.6597 40.8049 30.2214 40.3135C30.2488 40.3027 30.2712 40.292 30.2986 40.2793L42.7009 33.9697C43.613 33.5078 44.654 33.7744 45.1208 34.5879C45.3514 34.9886 45.414 35.4643 45.2949 35.911C45.1757 36.3577 44.8846 36.739 44.4851 36.9717V36.9609ZM13.9372 47.1797C13.9837 47.0992 14.0137 47.0103 14.0256 46.9181C14.0375 46.8259 14.031 46.7323 14.0066 46.6426L13.8825 46.1719V46.1641L10.9372 35.1865C10.8882 35.0051 10.7694 34.8505 10.6067 34.7564C10.4441 34.6623 10.2507 34.6365 10.0691 34.6846L7.74681 35.3066C7.56549 35.3561 7.41107 35.4752 7.31722 35.638C7.22338 35.8008 7.19771 35.9941 7.24583 36.1758L10.3171 47.6309C10.3654 47.812 10.4837 47.9666 10.646 48.0605C10.8083 48.1545 11.0012 48.1801 11.1824 48.1318L13.5046 47.5107C13.5947 47.4865 13.6791 47.4446 13.7531 47.3877C13.827 47.3307 13.8889 47.2597 13.9353 47.1787L13.9372 47.1797ZM46.4743 33.8008C45.5954 32.2793 43.6277 31.7393 41.9958 32.5703L31.2702 38.0244C31.2755 37.3417 31.0541 36.6765 30.6407 36.1331C30.2274 35.5896 29.6454 35.1987 28.9861 35.0215L21.2273 32.9414C20.9204 32.8474 20.6229 32.7251 20.3386 32.5762C19.5945 32.2148 18.6677 31.7666 17.2136 31.9902C15.8835 32.1992 14.2937 32.9395 12.2585 34.2998C12.0165 33.8479 11.629 33.491 11.1587 33.287C10.6884 33.0829 10.163 33.0438 9.66771 33.1758L7.34544 33.8008C6.76375 33.9571 6.26792 34.3379 5.96688 34.8596C5.66584 35.3813 5.58422 36.0012 5.73997 36.583L8.80735 48.0381C8.93821 48.5201 9.22389 48.9457 9.6204 49.2494C10.0169 49.5531 10.5022 49.718 11.0017 49.7188C11.1996 49.7186 11.3966 49.6924 11.5876 49.6406L13.906 49.0195C14.4608 48.8694 14.9384 48.515 15.2427 48.0273C15.547 47.5397 15.6556 46.955 15.5466 46.3906C17.3103 45.7266 20.0447 46.4463 22.487 47.0869C24.2165 47.543 25.8874 47.9824 27.2956 47.9824C28.1062 47.9824 28.8347 47.835 29.4284 47.458L45.2605 38.3174C46.0193 37.8784 46.5731 37.1565 46.8007 36.3099C47.0282 35.4633 46.9108 34.561 46.4743 33.8008ZM40.5691 26.0098C40.8737 26.0103 41.1658 26.1317 41.3809 26.3475C41.5961 26.5632 41.7168 26.8555 41.7165 27.1602V28.9297C41.716 29.2339 41.595 29.5256 41.3799 29.7408C41.1649 29.9561 40.8733 30.0774 40.5691 30.0781H26.9812C26.6763 30.0781 26.3839 29.9572 26.1681 29.7419C25.9522 29.5266 25.8306 29.2345 25.8298 28.9297V27.1602C25.8303 26.8552 25.9519 26.563 26.1678 26.3476C26.3837 26.1323 26.6763 26.0115 26.9812 26.0117L40.5691 26.0098ZM25.8298 23.2978V21.5283C25.8306 21.2235 25.9522 20.9314 26.1681 20.7161C26.3839 20.5008 26.6763 20.3799 26.9812 20.3799H40.5691C40.8733 20.3807 41.1649 20.5019 41.3799 20.7172C41.595 20.9324 41.716 21.2241 41.7165 21.5283V23.2978C41.7163 23.6022 41.5953 23.894 41.3802 24.1093C41.1651 24.3246 40.8734 24.4458 40.5691 24.4463H26.9812C26.6763 24.4465 26.3837 24.3257 26.1678 24.1104C25.9519 23.895 25.8303 23.6028 25.8298 23.2978ZM25.8298 17.6699V15.9004C25.8303 15.5955 25.9519 15.3032 26.1678 15.0879C26.3837 14.8725 26.6763 14.7517 26.9812 14.752H27.8962C28.646 15.5624 29.5552 16.2091 30.5668 16.6514C31.5784 17.0937 32.6706 17.322 33.7746 17.322C34.8787 17.322 35.9709 17.0937 36.9825 16.6514C37.9941 16.2091 38.9033 15.5624 39.6531 14.752H40.5691C40.8734 14.7525 41.1651 14.8737 41.3802 15.089C41.5953 15.3042 41.7163 15.5961 41.7165 15.9004V17.6699C41.716 17.9741 41.595 18.2656 41.3799 18.4807C41.1648 18.6958 40.8732 18.8169 40.5691 18.8174H26.9812C26.6764 18.8176 26.384 18.697 26.1681 18.4818C25.9523 18.2667 25.8306 17.9747 25.8298 17.6699ZM33.7751 2.84375C32.4977 2.84375 31.2489 3.22256 30.1867 3.93228C29.1245 4.64201 28.2967 5.65076 27.8078 6.83099C27.3189 8.01121 27.191 9.3099 27.4403 10.5628C27.6895 11.8157 28.3046 12.9666 29.2079 13.8699C30.1112 14.7732 31.2621 15.3884 32.515 15.6376C33.768 15.8868 35.0666 15.7589 36.2469 15.2701C37.4271 14.7812 38.4359 13.9533 39.1456 12.8912C39.8553 11.829 40.2341 10.5802 40.2341 9.30273C40.2323 7.59026 39.5512 5.94844 38.3403 4.73754C37.1294 3.52664 35.4876 2.84556 33.7751 2.84375ZM26.9812 31.6377H40.5691C41.2877 31.6369 41.9767 31.351 42.4848 30.8428C42.9929 30.3345 43.2785 29.6454 43.279 28.9268V27.1602C43.279 26.8011 43.2077 26.4457 43.0692 26.1144C42.9308 25.7832 42.7279 25.4827 42.4724 25.2305C42.7279 24.9782 42.9308 24.6778 43.0692 24.3465C43.2077 24.0153 43.279 23.6598 43.279 23.3008V21.5283C43.2789 21.1693 43.2075 20.8139 43.0691 20.4826C42.9306 20.1514 42.7278 19.8509 42.4724 19.5986C42.7279 19.3466 42.9307 19.0463 43.0692 18.7152C43.2077 18.3841 43.279 18.0288 43.279 17.6699V15.9004C43.279 15.2182 43.022 14.561 42.5593 14.0597C42.0966 13.5584 41.462 13.2498 40.782 13.1953C41.4612 11.9745 41.8098 10.5973 41.7931 9.20034C41.7765 7.80335 41.3952 6.43493 40.6871 5.2306C39.9789 4.02627 38.9685 3.0278 37.7558 2.33406C36.5431 1.64033 35.1703 1.27539 33.7732 1.27539C32.3761 1.27539 31.0032 1.64033 29.7905 2.33406C28.5779 3.0278 27.5674 4.02627 26.8593 5.2306C26.1511 6.43493 25.7699 7.80335 25.7532 9.20034C25.7366 10.5973 26.0851 11.9745 26.7644 13.1953C26.0843 13.2496 25.4496 13.5581 24.9868 14.0595C24.524 14.5608 24.2671 15.2181 24.2673 15.9004V17.6699C24.2669 18.0292 24.3385 18.385 24.4777 18.7162C24.6169 19.0474 24.8209 19.3475 25.0779 19.5986C24.821 19.85 24.617 20.1503 24.4778 20.4816C24.3386 20.813 24.267 21.1689 24.2673 21.5283V23.2978C24.2679 23.6572 24.3398 24.0128 24.4789 24.344C24.6181 24.6753 24.8217 24.9756 25.0779 25.2275C24.8213 25.4798 24.6175 25.7806 24.4784 26.1124C24.3392 26.4442 24.2675 26.8004 24.2673 27.1602V28.9297C24.2694 29.6483 24.5562 30.3368 25.0648 30.8443C25.5735 31.3519 26.2626 31.6372 26.9812 31.6377Z" fill="#242222"/>
</g>
<defs>
<clipPath id="clip0_20100_26617">
<rect width="50" height="50" fill="white" transform="translate(0 0.5)"/>
</clipPath>
</defs>
</svg>
