<svg width="28" height="28" viewBox="0 0 28 28" fill="none" xmlns="http://www.w3.org/2000/svg">
<rect x="0.650879" y="0.5" width="27" height="27" rx="7" fill="#32ADE6"/>
<g clip-path="url(#clip0_16752_2764)">
<path d="M15.7114 16.0918C15.6416 16.0919 15.5725 16.0782 15.5081 16.0515C15.4436 16.0248 15.3851 15.9856 15.3358 15.9362L12.2147 12.8151C12.0072 12.6077 12.0072 12.2713 12.2147 12.0638C12.4221 11.8563 12.7585 11.8563 12.966 12.0638L16.0871 15.1849C16.2946 15.3924 16.2946 15.7287 16.0871 15.9362C16.0378 15.9856 15.9792 16.0248 15.9148 16.0515C15.8503 16.0782 15.7812 16.0919 15.7114 16.0918Z" fill="white"/>
<path d="M10.4322 18.25C10.3454 18.25 10.2599 18.2287 10.1832 18.188C10.1065 18.1473 10.0409 18.0885 9.99226 18.0166C9.94357 17.9447 9.91325 17.862 9.90394 17.7756C9.89463 17.6893 9.90662 17.602 9.93885 17.5214L12.0639 12.2089C12.0906 12.1421 12.1306 12.0814 12.1815 12.0306C12.2323 11.9797 12.293 11.9397 12.3598 11.913L17.6723 9.78797C17.7688 9.74938 17.8746 9.73995 17.9764 9.76086C18.0782 9.78177 18.1717 9.8321 18.2452 9.90561C18.3187 9.97912 18.3691 10.0726 18.39 10.1744C18.4109 10.2763 18.4015 10.382 18.3629 10.4785L16.2379 15.791C16.2111 15.8578 16.1711 15.9185 16.1203 15.9694C16.0694 16.0202 16.0087 16.0603 15.9419 16.087L10.6294 18.212C10.5667 18.2371 10.4998 18.25 10.4322 18.25ZM12.9658 12.8149L11.3857 16.7651L15.3359 15.185L16.916 11.2349L12.9658 12.8149Z" fill="white"/>
<path d="M14.1509 22.5C11.8804 22.5 9.74592 21.6159 8.14045 20.0104C6.53498 18.405 5.65088 16.2704 5.65088 14C5.65088 11.7296 6.53501 9.59504 8.14045 7.98957C9.74589 6.3841 11.8804 5.5 14.1509 5.5C16.4213 5.5 18.5558 6.38413 20.1613 7.98957C21.7668 9.59501 22.6509 11.7296 22.6509 14C22.6509 16.2704 21.7667 18.405 20.1613 20.0104C18.5559 21.6159 16.4213 22.5 14.1509 22.5ZM14.1509 6.5625C10.0498 6.5625 6.71338 9.89895 6.71338 14C6.71338 18.1011 10.0498 21.4375 14.1509 21.4375C18.2519 21.4375 21.5884 18.1011 21.5884 14C21.5884 9.89895 18.2519 6.5625 14.1509 6.5625Z" fill="white"/>
</g>
<defs>
<clipPath id="clip0_16752_2764">
<rect width="17" height="17" fill="white" transform="translate(5.65088 5.5)"/>
</clipPath>
</defs>
</svg>
