<svg width="28" height="28" viewBox="0 0 28 28" fill="none" xmlns="http://www.w3.org/2000/svg">
<rect x="0.984375" y="0.5" width="27" height="27" rx="7" fill="#34C759"/>
<path d="M19.7969 15.5937V13.7344C19.7969 13.1003 19.545 12.4923 19.0967 12.0439C18.6483 11.5956 18.0403 11.3437 17.4062 11.3437H16.3437C16.1324 11.3437 15.9297 11.2598 15.7803 11.1104C15.6308 10.9609 15.5469 10.7582 15.5469 10.5469V9.48437C15.5469 8.85034 15.295 8.24228 14.8467 7.79395C14.3983 7.34562 13.7903 7.09375 13.1562 7.09375H11.8281M11.8281 16.125H17.1406M11.8281 18.25H14.4844M13.4219 7.09375H9.96875C9.52887 7.09375 9.17188 7.45075 9.17188 7.89062V20.1094C9.17188 20.5492 9.52887 20.9062 9.96875 20.9062H19C19.4399 20.9062 19.7969 20.5492 19.7969 20.1094V13.4687C19.7969 11.778 19.1252 10.1565 17.9297 8.96094C16.7341 7.7654 15.1126 7.09375 13.4219 7.09375Z" stroke="white" stroke-linecap="round" stroke-linejoin="round"/>
</svg>
