<svg width="28" height="28" viewBox="0 0 28 28" fill="none" xmlns="http://www.w3.org/2000/svg">
<rect x="0.317627" y="0.5" width="27" height="27" rx="7" fill="#FF9500"/>
<path d="M13.8176 9.75V14H17.0051M20.1926 14C20.1926 14.8372 20.0277 15.6662 19.7074 16.4396C19.387 17.2131 18.9174 17.9158 18.3254 18.5078C17.7335 19.0998 17.0307 19.5694 16.2572 19.8897C15.4838 20.2101 14.6548 20.375 13.8176 20.375C12.9804 20.375 12.1515 20.2101 11.378 19.8897C10.6046 19.5694 9.90179 19.0998 9.30982 18.5078C8.71785 17.9158 8.24827 17.2131 7.92789 16.4396C7.60752 15.6662 7.44263 14.8372 7.44263 14C7.44263 12.3092 8.11428 10.6877 9.30982 9.49219C10.5054 8.29665 12.1269 7.625 13.8176 7.625C15.5084 7.625 17.1299 8.29665 18.3254 9.49219C19.521 10.6877 20.1926 12.3092 20.1926 14Z" stroke="white" stroke-width="1.5" stroke-linecap="round" stroke-linejoin="round"/>
</svg>
