<svg width="45" height="45" viewBox="0 0 45 45" fill="none" xmlns="http://www.w3.org/2000/svg">
<g clip-path="url(#clip0_20601_23587)">
<path d="M16.875 9.15625H15.4688C15.0806 9.15625 14.7656 8.84055 14.7656 8.45312H13.3594C13.3594 9.61609 14.3058 10.5625 15.4688 10.5625H16.875C18.038 10.5625 18.9844 9.61609 18.9844 8.45312C18.9844 7.29016 18.038 6.34375 16.875 6.34375H15.4688C15.2877 6.33565 15.1168 6.25803 14.9915 6.12706C14.8663 5.99608 14.7964 5.82185 14.7964 5.64062C14.7964 5.4594 14.8663 5.28517 14.9915 5.15419C15.1168 5.02322 15.2877 4.9456 15.4688 4.9375H16.875C17.2631 4.9375 17.5781 5.2532 17.5781 5.64062H18.9844C18.9844 4.47766 18.038 3.53125 16.875 3.53125H15.4688C14.3058 3.53125 13.3594 4.47766 13.3594 5.64062C13.3594 6.80359 14.3058 7.75 15.4688 7.75H16.875C17.056 7.7581 17.227 7.83572 17.3522 7.96669C17.4775 8.09767 17.5474 8.2719 17.5474 8.45312C17.5474 8.63435 17.4775 8.80858 17.3522 8.93956C17.227 9.07053 17.056 9.14815 16.875 9.15625ZM22.5 10.5625H24.6094V9.15625H22.5C22.1119 9.15625 21.7969 8.84055 21.7969 8.45312V7.75H24.6094V6.34375H21.7969V5.64062C21.7969 5.2532 22.1119 4.9375 22.5 4.9375H24.6094V3.53125H22.5C21.337 3.53125 20.3906 4.47766 20.3906 5.64062V8.45312C20.3906 9.61609 21.337 10.5625 22.5 10.5625ZM28.125 10.5625H29.5312C30.6942 10.5625 31.6406 9.61609 31.6406 8.45312V5.64062C31.6406 4.47766 30.6942 3.53125 29.5312 3.53125H28.125C26.962 3.53125 26.0156 4.47766 26.0156 5.64062V8.45312C26.0156 9.61609 26.962 10.5625 28.125 10.5625ZM27.4219 5.64062C27.4219 5.2532 27.7369 4.9375 28.125 4.9375H29.5312C29.9194 4.9375 30.2344 5.2532 30.2344 5.64062V8.45312C30.2344 8.84055 29.9194 9.15625 29.5312 9.15625H28.125C27.7369 9.15625 27.4219 8.84055 27.4219 8.45312V5.64062Z" fill="#FF3CFF"/>
<path d="M44.2969 16.1713H41.4844V14.062C41.4844 12.1234 39.9073 10.5463 37.9688 10.5463H34.4531V2.82812C34.4531 1.66516 33.5067 0.71875 32.3438 0.71875H12.6562C11.4933 0.71875 10.5469 1.66516 10.5469 2.82812V10.5463H7.03125C5.09273 10.5463 3.51562 12.1234 3.51562 14.062V18.3384C1.83727 19.3129 0.703125 21.1262 0.703125 23.2026C0.703125 25.2789 1.83727 27.0923 3.51562 28.0668V33.7495C3.51562 35.688 5.09273 37.2651 7.03125 37.2651H15.4688V40.0776H14.7656C12.8271 40.0776 11.25 41.6547 11.25 43.5932V44.2963H33.75V43.5932C33.75 41.6547 32.1729 40.0776 30.2344 40.0776H29.5312V37.2651H37.9688C39.9073 37.2651 41.4844 35.688 41.4844 33.7495V28.8276H44.2969V16.1713ZM11.9531 2.82812C11.9531 2.4407 12.2681 2.125 12.6562 2.125H32.3438C32.7319 2.125 33.0469 2.4407 33.0469 2.82812V11.2656C33.0469 11.653 32.7319 11.9688 32.3438 11.9688H25.1002L20.9763 14.7025C20.7422 14.86 20.3906 14.6702 20.3906 14.3875V11.9688H12.6562C12.2681 11.9688 11.9531 11.653 11.9531 11.2656V2.82812ZM4.92188 14.062C4.92188 12.899 5.86828 11.9526 7.03125 11.9526H10.6713C10.8134 12.3665 11.0808 12.726 11.4366 12.9809C11.7923 13.2358 12.2186 13.3736 12.6562 13.375H18.9844V14.3875C18.9851 14.7096 19.0729 15.0256 19.2386 15.3019C19.4042 15.5781 19.6415 15.8045 19.9253 15.9569C20.2091 16.1093 20.5288 16.1821 20.8506 16.1677C21.1724 16.1532 21.4843 16.0519 21.7533 15.8746L25.5241 13.375H32.3438C33.2648 13.375 34.0418 12.7773 34.3287 11.9526H37.9688C39.1317 11.9526 40.0781 12.899 40.0781 14.062V16.1713H34.4531V22.4995H30.2344V18.9838H26.0156V27.4213H24.6094V17.5776H20.3906V27.4213H18.9844V20.3901H14.7656V22.4995H11.9046C11.5566 19.7291 9.19125 17.5776 6.32812 17.5776C5.84156 17.5776 5.37258 17.6458 4.92188 17.7625V14.062ZM27.4219 27.4213V20.3901H28.8281V27.4213H27.4219ZM23.2031 27.4213H21.7969V18.9838H23.2031V27.4213ZM17.5781 27.4213H16.1719V21.7963H17.5781V27.4213ZM2.10938 23.2026C2.10938 20.8759 4.00148 18.9838 6.32812 18.9838C8.65477 18.9838 10.5469 20.8759 10.5469 23.2026C10.5469 25.5292 8.65477 27.4213 6.32812 27.4213C4.00148 27.4213 2.10938 25.5292 2.10938 23.2026ZM32.2235 42.8901H12.7765C12.9224 42.4791 13.192 42.1233 13.5481 41.8716C13.9042 41.6198 14.3295 41.4844 14.7656 41.4838H30.2344C31.1513 41.4838 31.9331 42.0716 32.2235 42.8901ZM28.125 40.0776H16.875V37.2651H28.125V40.0776ZM37.9688 35.8588H7.03125C5.86828 35.8588 4.92188 34.9124 4.92188 33.7495V31.6401H40.0781V33.7495C40.0781 34.9124 39.1317 35.8588 37.9688 35.8588ZM40.0781 30.2338H4.92188V28.6427C5.38088 28.7637 5.85343 28.8259 6.32812 28.8276C9.19125 28.8276 11.5566 26.676 11.9046 23.9057H14.7656V27.4213H13.3594V28.8276H31.6406V27.4213H30.2344V23.9057H34.4531V28.8276H40.0781V30.2338ZM42.8906 27.4213H35.8594V17.5776H42.8906V27.4213Z" fill="#FF3CFF"/>
<path d="M19.6875 34.4531C20.0758 34.4531 20.3906 34.1383 20.3906 33.75C20.3906 33.3617 20.0758 33.0469 19.6875 33.0469C19.2992 33.0469 18.9844 33.3617 18.9844 33.75C18.9844 34.1383 19.2992 34.4531 19.6875 34.4531Z" fill="#FF3CFF"/>
<path d="M22.5 34.4531C22.8883 34.4531 23.2031 34.1383 23.2031 33.75C23.2031 33.3617 22.8883 33.0469 22.5 33.0469C22.1117 33.0469 21.7969 33.3617 21.7969 33.75C21.7969 34.1383 22.1117 34.4531 22.5 34.4531Z" fill="#FF3CFF"/>
<path d="M25.3125 34.4531C25.7008 34.4531 26.0156 34.1383 26.0156 33.75C26.0156 33.3617 25.7008 33.0469 25.3125 33.0469C24.9242 33.0469 24.6094 33.3617 24.6094 33.75C24.6094 34.1383 24.9242 34.4531 25.3125 34.4531Z" fill="#FF3CFF"/>
<path d="M9.14062 23.2031C9.14062 21.652 7.87922 20.3906 6.32812 20.3906C4.77703 20.3906 3.51562 21.652 3.51562 23.2031C3.51562 24.7542 4.77703 26.0156 6.32812 26.0156C7.87922 26.0156 9.14062 24.7542 9.14062 23.2031ZM4.92188 23.2031C4.92188 22.4276 5.55258 21.7969 6.32812 21.7969C7.10367 21.7969 7.73438 22.4276 7.73438 23.2031C7.73438 23.9787 7.10367 24.6094 6.32812 24.6094C5.55258 24.6094 4.92188 23.9787 4.92188 23.2031ZM37.2656 18.9844H41.4844V20.3906H37.2656V18.9844ZM37.2656 21.7969H41.4844V23.2031H37.2656V21.7969ZM37.2656 24.6094H41.4844V26.0156H37.2656V24.6094Z" fill="#FF3CFF"/>
</g>
<defs>
<clipPath id="clip0_20601_23587">
<rect width="45" height="45" fill="white"/>
</clipPath>
</defs>
</svg>
