<svg width="76" height="76" viewBox="0 0 76 76" fill="none" xmlns="http://www.w3.org/2000/svg">
<g clip-path="url(#clip0_18181_15279)">
<path fill-rule="evenodd" clip-rule="evenodd" d="M38 0.5C17.3164 0.5 0.5 17.3164 0.5 38C0.5 58.6836 17.3164 75.5 38 75.5C58.6836 75.5 75.5 58.6836 75.5 38C75.5 17.3164 58.6836 0.5 38 0.5Z" fill="#4BAE4F"/>
<path d="M30.7783 55.1533C25.9883 50.3633 21.2275 45.5293 16.4229 40.7393C15.8955 40.2119 15.8955 39.333 16.4229 38.8057L21.9453 33.2832C22.4727 32.7559 23.3516 32.7559 23.8789 33.2832L31.7744 41.1787L52.0771 20.8613C52.6191 20.334 53.4834 20.334 54.0254 20.8613L59.5625 26.3984C60.1045 26.9404 60.1045 27.8047 59.5625 28.332L32.7119 55.1533C32.1846 55.6953 31.3203 55.6953 30.7783 55.1533Z" fill="white"/>
</g>
<defs>
<clipPath id="clip0_18181_15279">
<rect width="75" height="75" fill="white" transform="translate(0.5 0.5)"/>
</clipPath>
</defs>
</svg>
