  <svg
            width="40"
            height="21"
            viewBox="0 0 40 21"
            fill="none"
            xmlns="http://www.w3.org/2000/svg"
          >
            <path
              d="M31.875 16.125V18H28.75V8.625H31.875V16.125Z"
              fill="white"
            />
            <path
              d="M28.75 18H31.875V16.125H33.75L34.375 19.875H26.25L26.875 16.125H28.75V18ZM8.125 18H11.875V16.125H13.75L14.375 19.875H5.625L6.25 16.125H8.125V18Z"
              fill="#D7E9FF"
            />
            <path d="M39.375 6.125V8.625H0.625V6.125H39.375Z" fill="#9FCAFF" />
            <path
              d="M11.875 16.125V18H8.125V8.625H11.875V16.125Z"
              fill="white"
            />
            <path d="M35 1.125L39.375 6.125H0.625L5 1.125H35Z" fill="#80B4FF" />
            <path
              d="M39.375 9.25H0.625C0.45924 9.25 0.300269 9.18415 0.183058 9.06694C0.065848 8.94973 0 8.79076 0 8.625V6.125C0 5.95924 0.065848 5.80027 0.183058 5.68306C0.300269 5.56585 0.45924 5.5 0.625 5.5H39.375C39.5408 5.5 39.6997 5.56585 39.8169 5.68306C39.9342 5.80027 40 5.95924 40 6.125V8.625C40 8.79076 39.9342 8.94973 39.8169 9.06694C39.6997 9.18415 39.5408 9.25 39.375 9.25ZM1.25 8H38.75V6.75H1.25V8Z"
              fill="#5E54FF"
            />
            <path
              d="M11.8751 18.625H8.12506C7.9593 18.625 7.80033 18.5592 7.68312 18.4419C7.56591 18.3247 7.50006 18.1658 7.50006 18V8.625C7.50006 8.45924 7.56591 8.30027 7.68312 8.18306C7.80033 8.06585 7.9593 8 8.12506 8H11.8751C12.0408 8 12.1998 8.06585 12.317 8.18306C12.4342 8.30027 12.5001 8.45924 12.5001 8.625V18C12.5001 18.1658 12.4342 18.3247 12.317 18.4419C12.1998 18.5592 12.0408 18.625 11.8751 18.625ZM8.75006 17.375H11.2501V9.25H8.75006V17.375ZM39.3751 6.75C39.2859 6.75012 39.1977 6.7311 39.1165 6.69423C39.0354 6.65735 38.963 6.60348 38.9044 6.53625L34.7163 1.75H5.28381L1.09569 6.53625C0.98634 6.66008 0.832416 6.73558 0.667563 6.74625C0.50271 6.75692 0.340339 6.70189 0.215943 6.59319C0.0915474 6.48448 0.015247 6.33095 0.00372148 6.16616C-0.00780404 6.00136 0.0463829 5.83871 0.154437 5.71375L4.52944 0.713749C4.5881 0.646616 4.66044 0.592811 4.74162 0.555944C4.82279 0.519077 4.91091 0.500002 5.00006 0.5H35.0001C35.0892 0.500002 35.1773 0.519077 35.2585 0.555944C35.3397 0.592811 35.412 0.646616 35.4707 0.713749L39.8457 5.71375C39.9247 5.80414 39.976 5.91536 39.9934 6.03412C40.0109 6.15288 39.9938 6.27415 39.9441 6.38345C39.8945 6.49274 39.8144 6.58542 39.7135 6.65043C39.6126 6.71543 39.4951 6.75 39.3751 6.75ZM31.8751 18.625H28.7501C28.5843 18.625 28.4253 18.5592 28.3081 18.4419C28.1909 18.3247 28.1251 18.1658 28.1251 18V8.625C28.1251 8.45924 28.1909 8.30027 28.3081 8.18306C28.4253 8.06585 28.5843 8 28.7501 8H31.8751C32.0408 8 32.1998 8.06585 32.317 8.18306C32.4342 8.30027 32.5001 8.45924 32.5001 8.625V18C32.5001 18.1658 32.4342 18.3247 32.317 18.4419C32.1998 18.5592 32.0408 18.625 31.8751 18.625ZM29.3751 17.375H31.2501V9.25H29.3751V17.375Z"
              fill="#5E54FF"
            />
            <path
              d="M14.375 20.5H5.62496C5.53423 20.5 5.4446 20.4802 5.3623 20.442C5.27999 20.4038 5.20699 20.3482 5.14835 20.279C5.0897 20.2097 5.04684 20.1286 5.02273 20.0411C4.99861 19.9537 4.99383 19.862 5.00871 19.7725L5.63371 16.0225C5.65797 15.8766 5.73321 15.744 5.84605 15.6483C5.95889 15.5526 6.10202 15.5001 6.24996 15.5H8.12496C8.29072 15.5 8.44969 15.5658 8.5669 15.6831C8.68411 15.8003 8.74996 15.9592 8.74996 16.125C8.74996 16.2908 8.68411 16.4497 8.5669 16.5669C8.44969 16.6842 8.29072 16.75 8.12496 16.75H6.77933L6.36308 19.25H13.6368L13.2206 16.75H11.875C11.7092 16.75 11.5502 16.6842 11.433 16.5669C11.3158 16.4497 11.25 16.2908 11.25 16.125C11.25 15.9592 11.3158 15.8003 11.433 15.6831C11.5502 15.5658 11.7092 15.5 11.875 15.5H13.75C13.8979 15.5001 14.041 15.5526 14.1539 15.6483C14.2667 15.744 14.3419 15.8766 14.3662 16.0225L14.9912 19.7725C15.0061 19.862 15.0013 19.9537 14.9772 20.0411C14.9531 20.1286 14.9102 20.2097 14.8516 20.279C14.7929 20.3482 14.7199 20.4038 14.6376 20.442C14.5553 20.4802 14.4657 20.5 14.375 20.5ZM34.375 20.5H26.25C26.1592 20.5 26.0696 20.4802 25.9873 20.442C25.905 20.4038 25.832 20.3482 25.7733 20.279C25.7147 20.2097 25.6718 20.1286 25.6477 20.0411C25.6236 19.9537 25.6188 19.862 25.6337 19.7725L26.2587 16.0225C26.283 15.8766 26.3582 15.744 26.4711 15.6483C26.5839 15.5526 26.727 15.5001 26.875 15.5H28.75C28.9157 15.5 29.0747 15.5658 29.1919 15.6831C29.3091 15.8003 29.375 15.9592 29.375 16.125C29.375 16.2908 29.3091 16.4497 29.1919 16.5669C29.0747 16.6842 28.9157 16.75 28.75 16.75H27.4043L26.9881 19.25H33.6368L33.2206 16.75H31.875C31.7092 16.75 31.5502 16.6842 31.433 16.5669C31.3158 16.4497 31.25 16.2908 31.25 16.125C31.25 15.9592 31.3158 15.8003 31.433 15.6831C31.5502 15.5658 31.7092 15.5 31.875 15.5H33.75C33.8979 15.5001 34.041 15.5526 34.1539 15.6483C34.2667 15.744 34.3419 15.8766 34.3662 16.0225L34.9912 19.7725C35.0061 19.862 35.0013 19.9537 34.9772 20.0411C34.9531 20.1286 34.9102 20.2097 34.8516 20.279C34.7929 20.3482 34.7199 20.4038 34.6376 20.442C34.5553 20.4802 34.4657 20.5 34.375 20.5ZM28.75 4.25H11.25C11.0842 4.25 10.9252 4.18415 10.808 4.06694C10.6908 3.94973 10.625 3.79076 10.625 3.625C10.625 3.45924 10.6908 3.30027 10.808 3.18306C10.9252 3.06585 11.0842 3 11.25 3H28.75C28.9157 3 29.0747 3.06585 29.1919 3.18306C29.3091 3.30027 29.375 3.45924 29.375 3.625C29.375 3.79076 29.3091 3.94973 29.1919 4.06694C29.0747 4.18415 28.9157 4.25 28.75 4.25Z"
              fill="#5E54FF"
            />
          </svg>