<svg width="50" height="51" viewBox="0 0 50 51" fill="none" xmlns="http://www.w3.org/2000/svg">
<g clip-path="url(#clip0_20153_17829)">
<path d="M46.7392 12.7109H3.26084C1.38672 13.2299 0 14.9541 0 16.9876V42.8438C0 45.2842 1.99668 47.2809 4.43711 47.2809H20.835C21.389 47.2809 21.8688 47.6387 22.0584 48.1593C22.4949 49.3581 23.6444 50.2142 24.9941 50.2142C26.3439 50.2142 27.4934 49.3581 27.93 48.1593C28.1195 47.6387 28.5994 47.2809 29.1534 47.2809H45.5629C48.0033 47.2809 50.0001 45.2841 50.0001 42.8438V16.9876C50 14.9541 48.6133 13.2299 46.7392 12.7109Z" fill="#685E68"/>
<path d="M3.38252 42.8438V16.9876C3.38252 14.9541 4.76924 13.2299 6.64336 12.7109H3.26084C1.38672 13.2299 0 14.9541 0 16.9876V42.8438C0 45.2842 1.99668 47.2809 4.43711 47.2809H7.81963C5.3792 47.281 3.38252 45.2842 3.38252 42.8438ZM25.4409 48.1593C25.2513 47.6387 24.7715 47.2809 24.2175 47.2809H20.835C21.389 47.2809 21.8688 47.6387 22.0584 48.1593C22.4949 49.3581 23.6444 50.2142 24.9941 50.2142C25.618 50.2142 26.1978 50.0296 26.6854 49.7146C26.118 49.3479 25.6757 48.804 25.4409 48.1593Z" fill="#554E56"/>
<path d="M44.8233 9.60156H43.4854V22.1626C43.4854 25.6712 41.7379 28.1776 38.387 28.7338C37.9122 28.8126 37.4824 28.4379 37.4824 27.9566V22.4437C37.4824 22.2352 37.3996 22.0354 37.2523 21.888C37.1049 21.7406 36.905 21.6578 36.6966 21.6578H24.8926V42.0525C24.8926 43.1103 25.75 43.9677 26.8077 43.9677H44.8233C45.8811 43.9677 46.7385 43.1103 46.7385 42.0525V11.5167C46.7385 10.459 45.8811 9.60156 44.8233 9.60156Z" fill="#DFEBFA"/>
<path d="M28.2751 42.051V21.6562H24.8926V42.051C24.8926 43.1087 25.75 43.9661 26.8077 43.9661H30.1902C29.1325 43.9661 28.2751 43.1087 28.2751 42.051Z" fill="#B4DBFF"/>
<path d="M34.4017 26.4502H29.1382C28.9373 26.4502 28.7447 26.3704 28.6027 26.2284C28.4606 26.0864 28.3809 25.8937 28.3809 25.6929C28.3809 25.492 28.4606 25.2994 28.6027 25.1574C28.7447 25.0153 28.9373 24.9355 29.1382 24.9355H34.4017C34.6025 24.9355 34.7951 25.0153 34.9372 25.1574C35.0792 25.2994 35.159 25.492 35.159 25.6929C35.159 25.8937 35.0792 26.0864 34.9372 26.2284C34.7951 26.3704 34.6025 26.4502 34.4017 26.4502ZM34.4017 29.6903H29.1382C28.9373 29.6903 28.7447 29.6105 28.6027 29.4685C28.4606 29.3265 28.3809 29.1339 28.3809 28.933C28.3809 28.7322 28.4606 28.5395 28.6027 28.3975C28.7447 28.2555 28.9373 28.1757 29.1382 28.1757H34.4017C34.6025 28.1757 34.7951 28.2555 34.9372 28.3975C35.0792 28.5395 35.159 28.7322 35.159 28.933C35.159 29.1339 35.0792 29.3265 34.9372 29.4685C34.7951 29.6105 34.6025 29.6903 34.4017 29.6903ZM42.7066 32.9306H29.1383C28.9374 32.9306 28.7448 32.8508 28.6028 32.7088C28.4607 32.5667 28.381 32.3741 28.381 32.1732C28.381 31.9724 28.4607 31.7798 28.6028 31.6377C28.7448 31.4957 28.9374 31.4159 29.1383 31.4159H42.7066C42.9075 31.4159 43.1001 31.4957 43.2422 31.6377C43.3842 31.7798 43.464 31.9724 43.464 32.1732C43.464 32.3741 43.3842 32.5667 43.2422 32.7088C43.1001 32.8508 42.9075 32.9306 42.7066 32.9306ZM42.7066 36.1707H29.1383C28.9374 36.1707 28.7448 36.0909 28.6028 35.9489C28.4607 35.8069 28.381 35.6142 28.381 35.4134C28.381 35.2125 28.4607 35.0199 28.6028 34.8779C28.7448 34.7358 28.9374 34.6561 29.1383 34.6561H42.7066C42.9075 34.6561 43.1001 34.7358 43.2422 34.8779C43.3842 35.0199 43.464 35.2125 43.464 35.4134C43.464 35.6142 43.3842 35.8069 43.2422 35.9489C43.1001 36.0909 42.9075 36.1707 42.7066 36.1707ZM42.7066 39.4109H29.1383C29.0388 39.4109 28.9403 39.3913 28.8485 39.3533C28.7566 39.3152 28.6731 39.2594 28.6028 39.1891C28.5324 39.1188 28.4767 39.0353 28.4386 38.9434C28.4005 38.8515 28.381 38.7531 28.381 38.6536C28.381 38.5542 28.4005 38.4557 28.4386 38.3638C28.4767 38.2719 28.5324 38.1884 28.6028 38.1181C28.6731 38.0478 28.7566 37.992 28.8485 37.9539C28.9403 37.9159 29.0388 37.8963 29.1383 37.8963H42.7066C42.8061 37.8963 42.9046 37.9159 42.9965 37.9539C43.0883 37.992 43.1718 38.0478 43.2422 38.1181C43.3125 38.1884 43.3683 38.2719 43.4063 38.3638C43.4444 38.4557 43.464 38.5542 43.464 38.6536C43.464 38.7531 43.4444 38.8515 43.4063 38.9434C43.3683 39.0353 43.3125 39.1188 43.2422 39.1891C43.1718 39.2594 43.0883 39.3152 42.9965 39.3533C42.9046 39.3913 42.8061 39.4109 42.7066 39.4109Z" fill="#B4DBFF"/>
<path d="M19.3875 21.8598C17.9951 21.8598 16.8662 20.731 16.8662 19.3385V9.60156H5.17686C4.11914 9.60156 3.26172 10.4591 3.26172 11.5168V42.0525C3.26172 43.1103 4.11914 43.9677 5.17686 43.9677H23.0799C24.1376 43.9677 24.995 43.1103 24.995 42.0525V21.8598H19.3875Z" fill="#DFEBFA"/>
<path d="M6.64424 42.0525V11.5168C6.64424 10.4591 7.50166 9.60156 8.55938 9.60156H5.17686C4.11914 9.60156 3.26172 10.4591 3.26172 11.5168V42.0525C3.26172 43.1103 4.11914 43.9677 5.17686 43.9677H8.55947C7.50166 43.9677 6.64424 43.1103 6.64424 42.0525Z" fill="#B1DBFC"/>
<path d="M20.9116 26.4502H7.34326C7.14241 26.4502 6.94978 26.3704 6.80775 26.2284C6.66573 26.0864 6.58594 25.8937 6.58594 25.6929C6.58594 25.492 6.66573 25.2994 6.80775 25.1574C6.94978 25.0153 7.14241 24.9355 7.34326 24.9355H20.9116C21.1125 24.9355 21.3051 25.0153 21.4471 25.1574C21.5892 25.2994 21.6689 25.492 21.6689 25.6929C21.6689 25.8937 21.5892 26.0864 21.4471 26.2284C21.3051 26.3704 21.1125 26.4502 20.9116 26.4502ZM20.9116 29.6903H7.34326C7.14241 29.6903 6.94978 29.6105 6.80775 29.4685C6.66573 29.3265 6.58594 29.1339 6.58594 28.933C6.58594 28.7322 6.66573 28.5395 6.80775 28.3975C6.94978 28.2555 7.14241 28.1757 7.34326 28.1757H20.9116C21.1125 28.1757 21.3051 28.2555 21.4471 28.3975C21.5892 28.5395 21.6689 28.7322 21.6689 28.933C21.6689 29.1339 21.5892 29.3265 21.4471 29.4685C21.3051 29.6105 21.1125 29.6903 20.9116 29.6903ZM20.9116 32.9306H7.34326C7.14241 32.9306 6.94978 32.8508 6.80775 32.7088C6.66573 32.5667 6.58594 32.3741 6.58594 32.1732C6.58594 31.9724 6.66573 31.7798 6.80775 31.6377C6.94978 31.4957 7.14241 31.4159 7.34326 31.4159H20.9116C21.1125 31.4159 21.3051 31.4957 21.4471 31.6377C21.5892 31.7798 21.6689 31.9724 21.6689 32.1732C21.6689 32.3741 21.5892 32.5667 21.4471 32.7088C21.3051 32.8508 21.1125 32.9306 20.9116 32.9306ZM20.9116 36.1707H7.34326C7.14241 36.1707 6.94978 36.0909 6.80775 35.9489C6.66573 35.8069 6.58594 35.6142 6.58594 35.4134C6.58594 35.2125 6.66573 35.0199 6.80775 34.8779C6.94978 34.7358 7.14241 34.6561 7.34326 34.6561H20.9116C21.1125 34.6561 21.3051 34.7358 21.4471 34.8779C21.5892 35.0199 21.6689 35.2125 21.6689 35.4134C21.6689 35.6142 21.5892 35.8069 21.4471 35.9489C21.3051 36.0909 21.1125 36.1707 20.9116 36.1707ZM20.9116 39.4109H7.34326C7.24381 39.4109 7.14533 39.3913 7.05345 39.3533C6.96156 39.3152 6.87808 39.2594 6.80775 39.1891C6.73743 39.1188 6.68164 39.0353 6.64358 38.9434C6.60553 38.8515 6.58594 38.7531 6.58594 38.6536C6.58594 38.5542 6.60553 38.4557 6.64358 38.3638C6.68164 38.2719 6.73743 38.1884 6.80775 38.1181C6.87808 38.0478 6.96156 37.992 7.05345 37.9539C7.14533 37.9159 7.24381 37.8963 7.34326 37.8963H20.9116C21.0111 37.8963 21.1096 37.9159 21.2014 37.9539C21.2933 37.992 21.3768 38.0478 21.4471 38.1181C21.5175 38.1884 21.5732 38.2719 21.6113 38.3638C21.6494 38.4557 21.6689 38.5542 21.6689 38.6536C21.6689 38.7531 21.6494 38.8515 21.6113 38.9434C21.5732 39.0353 21.5175 39.1188 21.4471 39.1891C21.3768 39.2594 21.2933 39.3152 21.2014 39.3533C21.1096 39.3913 21.0111 39.4109 20.9116 39.4109Z" fill="#B4DBFF"/>
<path d="M11.0704 8.83398H8.44512C8.25765 8.83398 8.07787 8.90845 7.94531 9.04101C7.81275 9.17357 7.73828 9.35336 7.73828 9.54082V22.9155C7.73828 23.2589 8.13916 23.446 8.40234 23.2256L9.49795 22.3077C9.57075 22.2467 9.66269 22.2133 9.75767 22.2133C9.85264 22.2133 9.94458 22.2467 10.0174 22.3077L11.113 23.2256C11.3762 23.4461 11.7771 23.259 11.7771 22.9155V9.54072C11.7771 9.44791 11.7588 9.35601 11.7233 9.27026C11.6878 9.18451 11.6358 9.10659 11.5701 9.04096C11.5045 8.97533 11.4266 8.92327 11.3409 8.88776C11.2551 8.85224 11.1632 8.83397 11.0704 8.83398Z" fill="#FF646F"/>
<path d="M9.75781 9.54082C9.75781 9.35336 9.83228 9.17357 9.96484 9.04101C10.0974 8.90845 10.2772 8.83398 10.4646 8.83398H8.44512C8.25765 8.83398 8.07787 8.90845 7.94531 9.04101C7.81275 9.17357 7.73828 9.35336 7.73828 9.54082V22.9155C7.73828 23.2589 8.13916 23.446 8.40234 23.2256L9.49795 22.3077C9.57068 22.2466 9.66264 22.2132 9.75762 22.2133V9.54082H9.75781Z" fill="#FF4755"/>
<path d="M41.4697 0.785156H19.0838C17.6913 0.785156 16.5625 1.91396 16.5625 3.30645V19.6404C16.5625 21.0329 17.6913 22.1617 19.0838 22.1617H36.3943C36.6028 22.1617 36.8026 22.2445 36.95 22.3919C37.0974 22.5393 37.1802 22.7391 37.1802 22.9476V28.3596C37.1802 28.8408 37.61 29.2155 38.0848 29.1367C41.4356 28.5807 43.9909 25.6703 43.9909 22.1616V3.30635C43.991 1.91396 42.8622 0.785156 41.4697 0.785156Z" fill="#60B8FF"/>
<path d="M19.5916 19.6405V3.30645C19.5916 1.91396 20.7204 0.785156 22.1129 0.785156H19.0838C17.6914 0.785156 16.5625 1.91396 16.5625 3.30645V19.6404C16.5625 21.0329 17.6913 22.1617 19.0838 22.1617H22.1129C20.7204 22.1617 19.5916 21.033 19.5916 19.6405ZM40.2093 28.3597V22.9477C40.2093 22.7392 40.1265 22.5394 39.9791 22.392C39.8317 22.2446 39.6319 22.1618 39.4234 22.1618H36.3943C36.6028 22.1618 36.8026 22.2446 36.95 22.392C37.0974 22.5394 37.1802 22.7392 37.1802 22.9477V28.3597C37.1802 28.8409 37.6101 29.2156 38.0848 29.1368C38.828 29.0132 39.5464 28.7708 40.2126 28.4189C40.2111 28.3993 40.2093 28.3797 40.2093 28.3597Z" fill="#23A8FE"/>
<path d="M30.2759 6.82813C31.1863 6.82813 31.9148 6.03916 31.9148 5.15732C31.9148 4.27549 31.1864 3.50977 30.2759 3.50977C29.3451 3.50977 28.6167 4.27559 28.6167 5.15732C28.6167 6.03906 29.3451 6.82813 30.2759 6.82813ZM33.2721 16.6075H32.1612C32.0798 16.6075 32.0017 16.5752 31.9441 16.5176C31.8865 16.46 31.8542 16.3819 31.8542 16.3005V10.0536C31.8542 9.40391 31.146 8.96299 30.276 8.96299H27.7848C27.2343 8.96299 26.7881 9.40918 26.7881 9.95967V10.1575C26.7881 10.708 27.2343 11.1542 27.7848 11.1542H28.4219C28.5004 11.1542 28.5757 11.1854 28.6312 11.2409C28.6868 11.2965 28.718 11.3718 28.718 11.4503V16.3004C28.718 16.3818 28.6856 16.4599 28.628 16.5175C28.5705 16.5751 28.4924 16.6074 28.4109 16.6074H27.2799C26.7294 16.6074 26.2832 17.0536 26.2832 17.6041V17.802C26.2832 18.3524 26.7294 18.7986 27.2799 18.7986H33.2722C33.8227 18.7986 34.2688 18.3524 34.2688 17.802V17.6041C34.2687 17.0537 33.8225 16.6075 33.2721 16.6075Z" fill="#D9EDFF"/>
<path d="M30.6146 5.15732C30.6146 4.63779 30.8687 4.15986 31.2669 3.85381C30.9922 3.64043 30.6501 3.50977 30.2761 3.50977C29.3453 3.50977 28.6169 4.27559 28.6169 5.15732C28.6169 6.03906 29.3453 6.82813 30.2761 6.82813C30.6501 6.82813 30.9922 6.69355 31.2669 6.47559C30.8687 6.16279 30.6146 5.67686 30.6146 5.15732ZM28.281 17.8021V17.6042C28.281 17.0537 28.7271 16.6075 29.2776 16.6075H30.4087C30.4901 16.6075 30.5682 16.5752 30.6258 16.5176C30.6834 16.46 30.7157 16.3819 30.7157 16.3005V11.4504C30.7157 11.3719 30.6845 11.2965 30.629 11.241C30.5735 11.1855 30.4982 11.1543 30.4196 11.1543H29.7825C29.232 11.1543 28.7858 10.708 28.7858 10.1576V9.95977C28.7858 9.40928 29.232 8.96309 29.7825 8.96309H27.7848C27.2343 8.96309 26.7881 9.40928 26.7881 9.95977V10.1576C26.7881 10.7081 27.2343 11.1543 27.7848 11.1543H28.4219C28.5004 11.1543 28.5757 11.1855 28.6312 11.241C28.6868 11.2965 28.718 11.3719 28.718 11.4504V16.3005C28.718 16.3819 28.6856 16.46 28.628 16.5176C28.5705 16.5752 28.4924 16.6075 28.4109 16.6075H27.2799C26.7294 16.6075 26.2832 17.0537 26.2832 17.6042V17.8021C26.2832 18.3525 26.7294 18.7987 27.2799 18.7987H29.2776C28.7272 18.7987 28.281 18.3525 28.281 17.8021Z" fill="#B1DBFC"/>
</g>
<defs>
<clipPath id="clip0_20153_17829">
<rect width="50" height="50" fill="white" transform="translate(0 0.5)"/>
</clipPath>
</defs>
</svg>
