<svg width="45" height="45" viewBox="0 0 45 45" fill="none" xmlns="http://www.w3.org/2000/svg">
<g clip-path="url(#clip0_20601_23506)">
<path d="M42 8.99971C42 8.20406 41.6839 7.441 41.1213 6.87839C40.5587 6.31578 39.7957 5.99971 39 5.99971H29.85C29.5057 4.30427 28.5859 2.77999 27.2464 1.68514C25.9069 0.590285 24.23 -0.0078125 22.5 -0.0078125C20.77 -0.0078125 19.0931 0.590285 17.7536 1.68514C16.4141 2.77999 15.4943 4.30427 15.15 5.99971H6C5.20435 5.99971 4.44129 6.31578 3.87868 6.87839C3.31607 7.441 3 8.20406 3 8.99971C2.20435 8.99971 1.44129 9.31578 0.87868 9.87839C0.316071 10.441 0 11.2041 0 11.9997L0 38.9997C0 39.7954 0.316071 40.5584 0.87868 41.121C1.44129 41.6836 2.20435 41.9997 3 41.9997H16.6125C16.8899 42.0012 17.1616 42.079 17.3979 42.2245C17.6341 42.37 17.8258 42.5776 17.952 42.8247L18.417 43.7532C18.6063 44.1269 18.8951 44.4411 19.2517 44.6611C19.6082 44.881 20.0186 44.9982 20.4375 44.9997H24.57C24.9878 45.0002 25.3975 44.8843 25.7532 44.6651C26.1088 44.4459 26.3964 44.1319 26.5837 43.7585L27.0465 42.8255C27.1729 42.5781 27.3648 42.3703 27.6013 42.2246C27.8378 42.079 28.1098 42.0012 28.3875 41.9997H42C42.7957 41.9997 43.5587 41.6836 44.1213 41.121C44.6839 40.5584 45 39.7954 45 38.9997V11.9997C45 11.2041 44.6839 10.441 44.1213 9.87839C43.5587 9.31578 42.7957 8.99971 42 8.99971ZM22.5 1.49971C23.6867 1.49971 24.8467 1.8516 25.8334 2.51089C26.8201 3.17018 27.5892 4.10725 28.0433 5.20361C28.4974 6.29996 28.6162 7.50636 28.3847 8.67025C28.1532 9.83414 27.5818 10.9032 26.7426 11.7423C25.9035 12.5815 24.8344 13.1529 23.6705 13.3844C22.5067 13.6159 21.3003 13.4971 20.2039 13.043C19.1075 12.5889 18.1705 11.8198 17.5112 10.8331C16.8519 9.84643 16.5 8.68639 16.5 7.49971C16.5018 5.90896 17.1345 4.38387 18.2593 3.25904C19.3842 2.13421 20.9093 1.50149 22.5 1.49971ZM25.9282 14.9997C28.009 15.0092 30.001 15.8437 31.4674 17.32C32.9337 18.7963 33.7546 20.7939 33.75 22.8747V26.9997H11.25V22.8747C11.2454 20.7939 12.0663 18.7963 13.5326 17.32C14.999 15.8437 16.991 15.0092 19.0718 14.9997H25.9282ZM4.5 8.99971C4.5 8.60188 4.65804 8.22035 4.93934 7.93905C5.22064 7.65774 5.60218 7.49971 6 7.49971H15C15.0011 8.68089 15.2817 9.84505 15.8187 10.8971C16.3557 11.9491 17.134 12.8592 18.09 13.553C15.7956 13.8062 13.6754 14.8976 12.1363 16.6179C10.5971 18.3383 9.74735 20.5663 9.75 22.8747V26.9997H7.5C7.30109 26.9997 7.11032 27.0787 6.96967 27.2194C6.82902 27.36 6.75 27.5508 6.75 27.7497C6.75 27.9486 6.82902 28.1394 6.96967 28.28C7.11032 28.4207 7.30109 28.4997 7.5 28.4997H21.75V35.9997C21.75 36.1986 21.829 36.3894 21.9697 36.53C22.1103 36.6707 22.3011 36.7497 22.5 36.7497C22.6989 36.7497 22.8897 36.6707 23.0303 36.53C23.171 36.3894 23.25 36.1986 23.25 35.9997V28.4997H37.5C37.6989 28.4997 37.8897 28.4207 38.0303 28.28C38.171 28.1394 38.25 27.9486 38.25 27.7497C38.25 27.5508 38.171 27.36 38.0303 27.2194C37.8897 27.0787 37.6989 26.9997 37.5 26.9997H35.25V22.8747C35.2527 20.5663 34.4029 18.3383 32.8637 16.6179C31.3246 14.8976 29.2044 13.8062 26.91 13.553C27.866 12.8592 28.6443 11.9491 29.1813 10.8971C29.7183 9.84505 29.9989 8.68089 30 7.49971H39C39.3978 7.49971 39.7794 7.65774 40.0607 7.93905C40.342 8.22035 40.5 8.60188 40.5 8.99971V35.9997C40.5 36.3975 40.342 36.7791 40.0607 37.0604C39.7794 37.3417 39.3978 37.4997 39 37.4997H24.75C24.3241 37.4995 23.9031 37.5902 23.5151 37.7657C23.1271 37.9412 22.781 38.1975 22.5 38.5175C22.219 38.1975 21.8729 37.9412 21.4849 37.7657C21.0969 37.5902 20.6759 37.4995 20.25 37.4997H6C5.60218 37.4997 5.22064 37.3417 4.93934 37.0604C4.65804 36.7791 4.5 36.3975 4.5 35.9997V8.99971ZM43.5 38.9997C43.5 39.3975 43.342 39.7791 43.0607 40.0604C42.7794 40.3417 42.3978 40.4997 42 40.4997H28.3875C27.8307 40.4983 27.2846 40.6524 26.8107 40.9448C26.3369 41.2371 25.9541 41.656 25.7055 42.1542L25.2435 43.0857C25.1808 43.2108 25.0844 43.3159 24.9651 43.389C24.8458 43.4622 24.7084 43.5005 24.5685 43.4997H20.4375C20.2968 43.4994 20.1589 43.4601 20.0391 43.3862C19.9193 43.3124 19.8223 43.2068 19.7587 43.0812L19.2922 42.1497C19.0434 41.6525 18.6608 41.2346 18.1873 40.9431C17.7139 40.6516 17.1685 40.498 16.6125 40.4997H3C2.60218 40.4997 2.22064 40.3417 1.93934 40.0604C1.65804 39.7791 1.5 39.3975 1.5 38.9997V11.9997C1.5 11.6019 1.65804 11.2204 1.93934 10.939C2.22064 10.6577 2.60218 10.4997 3 10.4997V35.9997C3 36.7954 3.31607 37.5584 3.87868 38.121C4.44129 38.6836 5.20435 38.9997 6 38.9997H20.25C20.6478 38.9997 21.0294 39.1577 21.3107 39.439C21.592 39.7204 21.75 40.1019 21.75 40.4997C21.75 40.6986 21.829 40.8894 21.9697 41.03C22.1103 41.1707 22.3011 41.2497 22.5 41.2497C22.6989 41.2497 22.8897 41.1707 23.0303 41.03C23.171 40.8894 23.25 40.6986 23.25 40.4997C23.25 40.1019 23.408 39.7204 23.6893 39.439C23.9706 39.1577 24.3522 38.9997 24.75 38.9997H39C39.7957 38.9997 40.5587 38.6836 41.1213 38.121C41.6839 37.5584 42 36.7954 42 35.9997V10.4997C42.3978 10.4997 42.7794 10.6577 43.0607 10.939C43.342 11.2204 43.5 11.6019 43.5 11.9997V38.9997Z" fill="#FF3BAE"/>
<path d="M7.5 12H12.75C12.9489 12 13.1397 11.921 13.2803 11.7803C13.421 11.6397 13.5 11.4489 13.5 11.25C13.5 11.0511 13.421 10.8603 13.2803 10.7197C13.1397 10.579 12.9489 10.5 12.75 10.5H7.5C7.30109 10.5 7.11032 10.579 6.96967 10.7197C6.82902 10.8603 6.75 11.0511 6.75 11.25C6.75 11.4489 6.82902 11.6397 6.96967 11.7803C7.11032 11.921 7.30109 12 7.5 12ZM7.5 15.75H10.5C10.6989 15.75 10.8897 15.671 11.0303 15.5303C11.171 15.3897 11.25 15.1989 11.25 15C11.25 14.8011 11.171 14.6103 11.0303 14.4697C10.8897 14.329 10.6989 14.25 10.5 14.25H7.5C7.30109 14.25 7.11032 14.329 6.96967 14.4697C6.82902 14.6103 6.75 14.8011 6.75 15C6.75 15.1989 6.82902 15.3897 6.96967 15.5303C7.11032 15.671 7.30109 15.75 7.5 15.75ZM39 11.25C39 11.0511 38.921 10.8603 38.7803 10.7197C38.6397 10.579 38.4489 10.5 38.25 10.5H33C32.8011 10.5 32.6103 10.579 32.4697 10.7197C32.329 10.8603 32.25 11.0511 32.25 11.25C32.25 11.4489 32.329 11.6397 32.4697 11.7803C32.6103 11.921 32.8011 12 33 12H38.25C38.4489 12 38.6397 11.921 38.7803 11.7803C38.921 11.6397 39 11.4489 39 11.25ZM7.5 32.25H18C18.1989 32.25 18.3897 32.171 18.5303 32.0303C18.671 31.8897 18.75 31.6989 18.75 31.5C18.75 31.3011 18.671 31.1103 18.5303 30.9697C18.3897 30.829 18.1989 30.75 18 30.75H7.5C7.30109 30.75 7.11032 30.829 6.96967 30.9697C6.82902 31.1103 6.75 31.3011 6.75 31.5C6.75 31.6989 6.82902 31.8897 6.96967 32.0303C7.11032 32.171 7.30109 32.25 7.5 32.25ZM27 32.25H38.25C38.4489 32.25 38.6397 32.171 38.7803 32.0303C38.921 31.8897 39 31.6989 39 31.5C39 31.3011 38.921 31.1103 38.7803 30.9697C38.6397 30.829 38.4489 30.75 38.25 30.75H27C26.8011 30.75 26.6103 30.829 26.4697 30.9697C26.329 31.1103 26.25 31.3011 26.25 31.5C26.25 31.6989 26.329 31.8897 26.4697 32.0303C26.6103 32.171 26.8011 32.25 27 32.25ZM7.5 35.25H18C18.1989 35.25 18.3897 35.171 18.5303 35.0303C18.671 34.8897 18.75 34.6989 18.75 34.5C18.75 34.3011 18.671 34.1103 18.5303 33.9697C18.3897 33.829 18.1989 33.75 18 33.75H7.5C7.30109 33.75 7.11032 33.829 6.96967 33.9697C6.82902 34.1103 6.75 34.3011 6.75 34.5C6.75 34.6989 6.82902 34.8897 6.96967 35.0303C7.11032 35.171 7.30109 35.25 7.5 35.25ZM27 35.25H38.25C38.4489 35.25 38.6397 35.171 38.7803 35.0303C38.921 34.8897 39 34.6989 39 34.5C39 34.3011 38.921 34.1103 38.7803 33.9697C38.6397 33.829 38.4489 33.75 38.25 33.75H27C26.8011 33.75 26.6103 33.829 26.4697 33.9697C26.329 34.1103 26.25 34.3011 26.25 34.5C26.25 34.6989 26.329 34.8897 26.4697 35.0303C26.6103 35.171 26.8011 35.25 27 35.25ZM39 15C39 14.8011 38.921 14.6103 38.7803 14.4697C38.6397 14.329 38.4489 14.25 38.25 14.25H35.25C35.0511 14.25 34.8603 14.329 34.7197 14.4697C34.579 14.6103 34.5 14.8011 34.5 15C34.5 15.1989 34.579 15.3897 34.7197 15.5303C34.8603 15.671 35.0511 15.75 35.25 15.75H38.25C38.4489 15.75 38.6397 15.671 38.7803 15.5303C38.921 15.3897 39 15.1989 39 15Z" fill="#FF3BAE"/>
</g>
<defs>
<clipPath id="clip0_20601_23506">
<rect width="45" height="45" fill="white"/>
</clipPath>
</defs>
</svg>
