<svg width="43" height="43" viewBox="0 0 43 43" fill="none" xmlns="http://www.w3.org/2000/svg">
<path fill-rule="evenodd" clip-rule="evenodd" d="M35.9068 6.1309C31.96 2.17944 26.711 0.00230713 21.119 0C9.59629 0 0.218408 9.37762 0.213794 20.9034C0.212212 24.5879 1.17468 28.1845 3.00417 31.3548L0.0384521 42.1875L11.1206 39.2804C14.1742 40.9461 17.612 41.8239 21.1105 41.8249H21.1193C32.6408 41.8249 42.0197 32.4466 42.024 20.9202C42.0264 15.3342 39.8539 10.0821 35.9068 6.1309ZM21.119 38.2944H21.1118C17.9941 38.293 14.9364 37.4552 12.2682 35.8724L11.6341 35.4957L5.05771 37.2209L6.81297 30.8091L6.39966 30.1517C4.66035 27.3852 3.74185 24.1877 3.74344 20.9047C3.74706 11.3247 11.5419 3.5307 21.126 3.5307C25.767 3.53221 30.1297 5.34186 33.4101 8.62615C36.6905 11.9104 38.4961 16.276 38.4946 20.9189C38.4905 30.4996 30.6962 38.2944 21.119 38.2944ZM30.6498 25.281C30.1276 25.0194 27.5594 23.7562 27.0804 23.5816C26.602 23.4073 26.2534 23.3204 25.9055 23.8432C25.5571 24.3659 24.5562 25.5426 24.2514 25.891C23.9465 26.2397 23.6422 26.2834 23.1197 26.0218C22.5973 25.7605 20.9143 25.2087 18.919 23.4291C17.3663 22.0441 16.3181 20.3336 16.0132 19.8109C15.7089 19.2877 16.0106 19.0322 16.2423 18.7448C16.8078 18.0427 17.374 17.3065 17.5481 16.9581C17.7224 16.6094 17.6351 16.3043 17.5043 16.043C17.374 15.7816 16.3294 13.2105 15.8942 12.1644C15.4699 11.1463 15.0396 11.2837 14.7188 11.2678C14.4144 11.2526 14.0661 11.2495 13.7177 11.2495C13.3695 11.2495 12.8035 11.38 12.3246 11.9033C11.8459 12.4263 10.4967 13.6898 10.4967 16.2608C10.4967 18.8319 12.3684 21.3156 12.6295 21.6643C12.8905 22.013 16.3129 27.2889 21.5526 29.5513C22.7989 30.09 23.7717 30.411 24.5305 30.6518C25.7819 31.0493 26.9203 30.9932 27.8205 30.8588C28.8242 30.7087 30.9107 29.595 31.3463 28.375C31.7815 27.1548 31.7815 26.1091 31.6507 25.891C31.5204 25.6732 31.172 25.5426 30.6498 25.281Z" fill="#C770FF"/>
</svg>
