<svg width="21" height="21" viewBox="0 0 21 21" fill="none" xmlns="http://www.w3.org/2000/svg">
<path d="M0.0974121 20.1904L1.50325 15.0546C0.635745 13.5513 0.179912 11.8471 0.180745 10.0996C0.183245 4.63626 4.62908 0.19043 10.0916 0.19043C12.7424 0.191263 15.2307 1.22376 17.1024 3.0971C18.9732 4.97043 20.0032 7.46043 20.0024 10.1088C19.9999 15.5729 15.5541 20.0188 10.0916 20.0188C8.43325 20.0179 6.79908 19.6021 5.35158 18.8121L0.0974121 20.1904ZM5.59491 17.0179C6.99158 17.8471 8.32491 18.3438 10.0882 18.3446C14.6282 18.3446 18.3266 14.6496 18.3291 10.1071C18.3307 5.55543 14.6499 1.86543 10.0949 1.86376C5.55158 1.86376 1.85575 5.55876 1.85408 10.1004C1.85325 11.9546 2.39658 13.3429 3.30908 14.7954L2.47658 17.8354L5.59491 17.0179ZM15.0841 12.4646C15.0224 12.3613 14.8574 12.2996 14.6091 12.1754C14.3616 12.0513 13.1441 11.4521 12.9166 11.3696C12.6899 11.2871 12.5249 11.2454 12.3591 11.4938C12.1941 11.7413 11.7191 12.2996 11.5749 12.4646C11.4307 12.6296 11.2857 12.6504 11.0382 12.5263C10.7907 12.4021 9.99241 12.1413 9.04658 11.2971C8.31074 10.6404 7.81324 9.8296 7.66908 9.58126C7.52491 9.33376 7.65408 9.1996 7.77741 9.07626C7.88908 8.96543 8.02491 8.7871 8.14908 8.6421C8.27491 8.49876 8.31575 8.39543 8.39908 8.2296C8.48158 8.0646 8.44075 7.9196 8.37825 7.79543C8.31575 7.6721 7.82074 6.45293 7.61491 5.9571C7.41325 5.4746 7.20908 5.5396 7.05741 5.5321L6.58241 5.52376C6.41741 5.52376 6.14908 5.58543 5.92241 5.83376C5.69574 6.0821 5.05575 6.68043 5.05575 7.8996C5.05575 9.11876 5.94324 10.2963 6.06658 10.4613C6.19074 10.6263 7.81241 13.1279 10.2966 14.2004C10.8874 14.4554 11.3491 14.6079 11.7082 14.7221C12.3016 14.9104 12.8416 14.8838 13.2682 14.8204C13.7441 14.7496 14.7332 14.2213 14.9399 13.6429C15.1466 13.0638 15.1466 12.5679 15.0841 12.4646Z" fill="#25D366"/>
</svg>
