<svg width="50" height="51" viewBox="0 0 50 51" fill="none" xmlns="http://www.w3.org/2000/svg">
<g clip-path="url(#clip0_20153_16658)">
<path d="M26.6722 24.6456L37.9241 40.7398H33.3063L24.1245 27.6069V27.6061L22.7765 25.6782L12.0508 10.3359H16.6685L25.3242 22.7178L26.6722 24.6456Z" fill="black"/>
<path d="M44.5974 0.5H5.40261C2.41891 0.5 0 2.91891 0 5.90261V45.0974C0 48.0811 2.41891 50.5 5.40261 50.5H44.5974C47.5811 50.5 50 48.0811 50 45.0974V5.90261C50 2.91891 47.5811 0.5 44.5974 0.5ZM31.8916 42.901L22.6002 29.3786L10.9674 42.901H7.96088L21.2653 27.4364L7.96088 8.07335H18.1084L26.9067 20.8782L37.9222 8.07335H40.9287L28.2421 22.8207H28.2412L42.0391 42.901H31.8916Z" fill="black"/>
</g>
<defs>
<clipPath id="clip0_20153_16658">
<rect width="50" height="50" fill="white" transform="translate(0 0.5)"/>
</clipPath>
</defs>
</svg>
