<svg width="45" height="35" viewBox="0 0 45 35" fill="none" xmlns="http://www.w3.org/2000/svg">
<path d="M29.4265 15.0295L19.4849 9.58991C18.9132 9.2771 18.2376 9.28879 17.6773 9.62076C17.1166 9.95307 16.7822 10.5402 16.7822 11.1918V21.9776C16.7822 22.6262 17.1146 23.2122 17.6715 23.5449C17.9622 23.7186 18.2846 23.8059 18.6077 23.8059C18.91 23.8054 19.2075 23.7298 19.4733 23.5858L29.4152 18.2399C29.7048 18.0843 29.947 17.8533 30.1162 17.5714C30.2854 17.2894 30.3753 16.9671 30.3764 16.6383C30.3778 16.3094 30.2902 15.9863 30.123 15.7031C29.9558 15.4199 29.7151 15.1871 29.4265 15.0295ZM19.4193 20.6208V12.5596L26.8496 16.6252L19.4193 20.6208Z" fill="#FF8FFF"/>
<path d="M44.6688 8.04433L44.6668 8.02377C44.6287 7.66157 44.2493 4.43987 42.6831 2.80115C40.8728 0.873717 38.8203 0.639578 37.8332 0.527342C37.7587 0.519111 37.6842 0.510175 37.6097 0.500535L37.5311 0.492361C31.5821 0.0597654 22.5977 0.000703122 22.5078 0.000351561L22.4999 0L22.492 0.000351561C22.4021 0.000703122 13.4177 0.0597654 7.41504 0.492361L7.33576 0.500535C7.27187 0.509148 7.20147 0.517059 7.12491 0.526023C6.14924 0.638523 4.1188 0.873102 2.30334 2.87014C0.811579 4.49137 0.380389 7.64408 0.336092 7.99837L0.330995 8.04433C0.317548 8.19507 0 11.7832 0 15.3853V18.7525C0 22.3547 0.317548 25.9427 0.330995 26.0938L0.333368 26.1164C0.371512 26.4728 0.750495 29.6355 2.30949 31.2749C4.01175 33.1377 6.16401 33.3842 7.3217 33.5168C7.50469 33.5377 7.66227 33.5555 7.76968 33.5744L7.87374 33.5889C11.3087 33.9157 22.0783 34.0766 22.5349 34.0832L22.5487 34.0836L22.5624 34.0832C22.6523 34.0829 31.6364 34.0238 37.5855 33.5912L37.6641 33.5831C37.7393 33.573 37.8238 33.5642 37.9164 33.5545C38.8867 33.4515 40.9061 33.2376 42.6965 31.2676C44.1882 29.6462 44.6198 26.4934 44.6637 26.1395L44.6688 26.0935C44.6823 25.9424 45.0002 22.3546 45.0002 18.7525V15.3853C44.9998 11.7831 44.6823 8.19542 44.6688 8.04433ZM42.3628 18.7525C42.3628 22.0866 42.0717 25.5201 42.0442 25.8353C41.9323 26.7036 41.4773 28.6982 40.7505 29.4882C39.6299 30.7211 38.4788 30.8433 37.6383 30.9323C37.5446 30.9419 37.451 30.9524 37.3575 30.9638C31.6034 31.3799 22.9583 31.4437 22.56 31.4462C22.1134 31.4397 11.5012 31.2773 8.17107 30.968C8.00039 30.9401 7.81599 30.9188 7.62176 30.8969C6.63607 30.7839 5.28678 30.6294 4.24932 29.4882L4.22489 29.4621C3.51078 28.7181 3.06895 26.8529 2.95663 25.8455C2.93571 25.6074 2.63706 22.1332 2.63706 18.7525V15.3853C2.63706 12.0551 2.92754 8.62529 2.95566 8.30361C3.08926 7.28083 3.5527 5.40701 4.24932 4.64957C5.4042 3.37929 6.622 3.23858 7.42743 3.14551C7.50434 3.13654 7.57605 3.12837 7.64232 3.11975C13.4802 2.70157 22.1875 2.63943 22.4999 2.63706C22.8124 2.63908 31.5166 2.70157 37.3026 3.11975C37.3736 3.12872 37.4512 3.13759 37.5346 3.14726C38.3631 3.24166 39.6151 3.38448 40.7643 4.61011L40.7748 4.62145C41.489 5.36544 41.9309 7.26334 42.0431 8.29087C42.0631 8.51578 42.3628 11.9974 42.3628 15.3853V18.7525Z" fill="#FF8FFF"/>
</svg>
