<svg width="50" height="51" viewBox="0 0 50 51" fill="none" xmlns="http://www.w3.org/2000/svg">
<path d="M48.0511 10.9269C46.2463 8.78141 42.914 7.90625 36.5502 7.90625H13.4494C6.93984 7.90625 3.55113 8.83786 1.75306 11.1221C0 13.3492 0 16.6306 0 21.1722V29.8285C0 38.6271 2.08 43.0943 13.4494 43.0943H36.5503C42.069 43.0943 45.1271 42.3221 47.1055 40.4287C49.1343 38.4871 50 35.3169 50 29.8285V21.1722C50 16.3827 49.8644 13.0819 48.0511 10.9269ZM32.1002 26.6954L21.6102 32.1779C21.3643 32.3065 21.0895 32.3695 20.8122 32.3609C20.5349 32.3522 20.2645 32.2721 20.0272 32.1284C19.7899 31.9846 19.5937 31.7821 19.4576 31.5403C19.3215 31.2986 19.25 31.0258 19.2502 30.7483V19.8187C19.2502 19.5416 19.3215 19.2693 19.4574 19.0279C19.5932 18.7864 19.7889 18.5841 20.0257 18.4402C20.2625 18.2964 20.5323 18.216 20.8092 18.2068C21.086 18.1975 21.3606 18.2597 21.6065 18.3874L32.0965 23.8345C32.3583 23.9704 32.5778 24.1756 32.7311 24.4276C32.8844 24.6796 32.9657 24.9688 32.9661 25.2638C32.9665 25.5588 32.886 25.8483 32.7333 26.1007C32.5806 26.3531 32.3616 26.5588 32.1002 26.6954Z" fill="#E60000"/>
</svg>
